<svg width="24" height="17" viewBox="0 0 24 17" fill="none" xmlns="http://www.w3.org/2000/svg">
<path d="M4.94847 17.0003C3.96978 17.0004 3.01305 16.7103 2.19927 16.1666C1.38548 15.6229 0.751214 14.8501 0.376673 13.9459C0.00213158 13.0417 -0.0958563 12.0468 0.0951024 11.0869C0.286061 10.127 0.757388 9.24533 1.44947 8.55333L6.55547 3.44933C7.48347 2.52134 8.74209 2 10.0545 2C11.3669 2 12.6255 2.52134 13.5535 3.44933C14.4815 4.37733 15.0028 5.63595 15.0028 6.94833C15.0028 8.26071 14.4815 9.51934 13.5535 10.4473L13.0005 10.9993L11.5855 9.58633L12.1425 9.02933C12.6934 8.47581 13.0023 7.72644 13.0015 6.94551C13.0008 6.16457 12.6904 5.41579 12.1385 4.86333C11.5767 4.32721 10.83 4.02809 10.0535 4.02809C9.27694 4.02809 8.53024 4.32721 7.96847 4.86333L2.86447 9.96733C2.59047 10.241 2.37311 10.566 2.2248 10.9238C2.07649 11.2816 2.00016 11.6651 2.00016 12.0523C2.00016 12.4396 2.07649 12.8231 2.2248 13.1809C2.37311 13.5386 2.59047 13.8636 2.86447 14.1373C3.42624 14.6735 4.17294 14.9726 4.94947 14.9726C5.72601 14.9726 6.4727 14.6735 7.03447 14.1373L8.44847 15.5513C7.98983 16.0122 7.44435 16.3776 6.84358 16.6263C6.24281 16.8751 5.59869 17.0022 4.94847 17.0003Z" fill="#999999"/>
<path d="M12.9485 15.0003C11.9698 15.0004 11.013 14.7103 10.1993 14.1666C9.38548 13.6229 8.75121 12.8501 8.37667 11.9459C8.00213 11.0417 7.90414 10.0468 8.0951 9.0869C8.28606 8.12702 8.75739 7.24533 9.44947 6.55333L10.0025 6.00133L11.4165 7.41633L10.8645 7.96833C10.3116 8.52119 10.0011 9.271 10.0011 10.0528C10.0011 10.8347 10.3116 11.5845 10.8645 12.1373C11.4262 12.6735 12.1729 12.9726 12.9495 12.9726C13.726 12.9726 14.4727 12.6735 15.0345 12.1373L20.1395 7.03233C20.6913 6.47913 21.0011 5.72968 21.0011 4.94833C21.0011 4.16699 20.6913 3.41753 20.1395 2.86433C19.5777 2.32821 18.831 2.02909 18.0545 2.02909C17.2779 2.02909 16.5312 2.32821 15.9695 2.86433L14.5555 1.44933C15.4835 0.521341 16.7421 0 18.0545 0C19.3669 0 20.6255 0.521341 21.5535 1.44933C22.4815 2.37733 23.0028 3.63595 23.0028 4.94833C23.0028 6.26071 22.4815 7.51934 21.5535 8.44733L16.4495 13.5503C15.9908 14.0113 15.4454 14.3768 14.8446 14.6257C14.2439 14.8746 13.5997 15.0019 12.9495 15.0003H12.9485Z" fill="#999999"/>
</svg>
