<svg width="20" height="16" viewBox="0 0 20 16" fill="none" xmlns="http://www.w3.org/2000/svg">
<path d="M17.633 3.997C17.646 4.172 17.646 4.346 17.646 4.52C17.646 9.845 13.593 15.981 6.186 15.981C3.904 15.981 1.784 15.32 0 14.172C0.324 14.209 0.636 14.222 0.973 14.222C2.78599 14.2264 4.54765 13.6201 5.974 12.501C5.13342 12.4858 4.31858 12.2085 3.64324 11.7077C2.9679 11.207 2.46578 10.5079 2.207 9.708C2.456 9.745 2.706 9.77 2.968 9.77C3.329 9.77 3.692 9.72 4.029 9.633C3.11676 9.44881 2.29647 8.95435 1.70762 8.23368C1.11876 7.51302 0.797693 6.61065 0.799 5.68V5.63C1.336 5.929 1.959 6.116 2.619 6.141C2.06609 5.77358 1.61272 5.27502 1.29934 4.68979C0.98596 4.10456 0.822313 3.45085 0.823 2.787C0.823 2.039 1.022 1.353 1.371 0.755C2.38314 2.00002 3.6455 3.01856 5.07634 3.74466C6.50717 4.47075 8.07456 4.88821 9.677 4.97C9.615 4.67 9.577 4.359 9.577 4.047C9.57674 3.51796 9.68075 2.99406 9.88308 2.50524C10.0854 2.01642 10.3821 1.57227 10.7562 1.19819C11.1303 0.824101 11.5744 0.52741 12.0632 0.325078C12.5521 0.122745 13.076 0.0187367 13.605 0.0189996C14.765 0.0189996 15.812 0.504999 16.548 1.291C17.4498 1.11662 18.3145 0.787422 19.104 0.317999C18.8034 1.24882 18.1738 2.0381 17.333 2.538C18.1328 2.44678 18.9144 2.23645 19.652 1.914C19.1011 2.7171 18.4185 3.42134 17.633 3.997Z" fill="#999999"/>
</svg>
