<svg width="144" height="37" viewBox="0 0 144 37" fill="none" xmlns="http://www.w3.org/2000/svg">
<path d="M14.4157 33.1621C22.2384 33.1621 28.5799 25.7729 28.5799 16.658C28.5799 7.54297 22.2384 0.153809 14.4157 0.153809C6.59301 0.153809 0.251465 7.54297 0.251465 16.658C0.251465 25.7729 6.59301 33.1621 14.4157 33.1621Z" fill="#191919" fill-opacity="0.6"/>
<path d="M4.54139 24.8788C3.18424 22.5545 2.38867 19.7154 2.38867 16.6579C2.38867 13.6004 3.18424 10.7769 4.54139 8.43701V24.8788Z" fill="white"/>
<path d="M7.5835 4.81694C8.36347 4.16177 9.22143 3.63139 10.1262 3.21021V30.0879C9.22143 29.6824 8.37906 29.1364 7.5835 28.4812V4.81694Z" fill="white"/>
<path d="M13.1523 2.33703C13.5735 2.29023 13.9947 2.25903 14.4159 2.25903C14.8527 2.25903 15.2739 2.29023 15.6794 2.33703V30.9619C15.2583 31.0087 14.8371 31.0399 14.4159 31.0399C13.9947 31.0399 13.5735 31.0087 13.1523 30.9619V2.33703Z" fill="white"/>
<path d="M18.7368 3.21021C19.6416 3.63139 20.4839 4.16177 21.2795 4.81694V28.4812C20.4995 29.1364 19.6416 29.6668 18.7368 30.0879V3.21021Z" fill="white"/>
<path d="M24.3057 8.45142C25.6628 10.7757 26.4584 13.5992 26.4584 16.6567C26.4584 19.7142 25.6628 22.5377 24.3057 24.862V8.45142Z" fill="white"/>
<path d="M1.45312 16.657C1.45312 12.8664 2.62308 9.41893 4.5418 6.73584V7.6406C2.93507 10.1365 1.9679 13.272 1.9679 16.657C1.9679 20.0421 2.91947 23.1776 4.5418 25.6735V26.5782C2.62308 23.8952 1.45312 20.4321 1.45312 16.657Z" fill="white"/>
<path d="M24.3057 25.6577C25.9124 23.1618 26.8796 20.0419 26.8796 16.6568C26.8796 13.2718 25.928 10.1519 24.3057 7.65598V6.75122C26.2244 9.41871 27.3787 12.8818 27.3787 16.6568C27.3787 20.4319 26.2244 23.8949 24.3057 26.5624V25.6577Z" fill="white"/>
<path d="M28.2211 31.4294C28.3147 31.0082 28.5175 30.587 28.7515 30.2594C28.4551 30.119 28.2211 30.0098 27.9559 29.7914C28.5175 28.9491 28.6579 28.3563 28.7515 27.3423L28.7047 21.5706C28.3303 23.2553 27.4411 25.4548 26.6611 26.5936C26.4428 26.9367 26.3336 27.1395 26.1932 27.3735C26.1152 27.4983 25.6628 28.2471 25.6628 29.1675C25.3508 29.2298 25.0544 29.2143 24.68 29.1987C24.7268 29.5886 24.758 29.651 24.6488 30.3062C23.2605 30.4154 22.8393 31.2578 21.1858 32.1469C20.3746 32.5837 19.8442 32.7865 18.6431 33.2233C21.4666 33.1921 23.5257 33.5821 25.304 32.3965C25.5068 32.6617 25.6472 32.9269 25.7876 33.2389C26.0372 33.0517 26.5052 32.8021 26.9107 32.7085C27.3631 33.1609 27.9715 33.3325 28.7515 33.2701C28.8763 32.6305 28.7047 31.8505 28.2211 31.4294Z" fill="#191919" fill-opacity="0.6"/>
<path d="M28.4397 30.3704C28.2213 30.464 27.1918 30.8384 27.1918 30.8384L27.1762 30.854C27.1762 30.7604 27.145 30.6824 27.1138 30.5888V30.5732C27.5038 30.3392 27.7689 29.996 27.7689 29.9492C27.7845 29.9804 28.1277 30.308 28.4397 30.3704Z" fill="white"/>
<path d="M27.5814 25.4856C28.611 23.2081 28.3614 23.3017 28.5954 22.3501C28.5642 22.8025 28.533 23.3797 28.4706 23.8008C28.0182 26.2811 27.3786 28.1219 26.5987 30.1654C26.5987 30.1654 26.3803 30.1498 26.2867 30.1654C26.0995 29.947 26.0371 29.6506 26.0371 29.6506C25.6783 28.1531 26.8014 27.2171 27.5814 25.4856Z" fill="white"/>
<path d="M24.9925 29.4954L25.9441 30.2909C25.9129 30.3065 25.8817 30.3377 25.8505 30.3689C25.8037 30.4157 25.7569 30.4625 25.7257 30.5249V30.5405C25.2421 30.3065 24.8989 30.2909 24.8989 30.2909C25.0549 29.7606 24.9925 29.4954 24.9925 29.4954Z" fill="white"/>
<path d="M20.6402 32.9581C20.1566 33.0673 19.7666 33.0673 19.4702 33.0829L20.4998 32.7709C22.7305 31.9441 23.2921 30.6494 24.7896 30.6182C25.1328 30.6182 25.4292 30.7118 25.6944 30.8678V30.9146C25.6788 31.0081 25.6944 31.1017 25.7256 31.1953V31.2109C24.6492 31.6945 22.2937 32.5681 20.6402 32.9581Z" fill="white"/>
<path d="M25.912 32.8953C25.8496 32.7393 25.7716 32.4741 25.5376 32.2245C25.8496 31.9593 25.912 31.8189 26.0212 31.5693C26.1148 31.6317 26.224 31.6629 26.3332 31.6629H26.3488L25.912 32.8953Z" fill="white"/>
<path d="M27.0511 32.4429C26.8327 32.1777 26.7235 31.9749 26.6455 31.6161C26.7547 31.5849 26.8951 31.5225 26.9731 31.3977L28.5174 32.9576C27.9247 33.02 27.4255 32.8952 27.0511 32.4429Z" fill="white"/>
<path d="M28.7515 0.027459C27.9715 -0.0505378 27.3631 0.136656 26.9107 0.589038C26.5208 0.495441 26.0372 0.245848 25.7876 0.058655C25.6628 0.370643 25.5068 0.635836 25.304 0.901025C23.5257 -0.284528 21.4666 0.121053 18.6431 0.0742553C19.8598 0.511038 20.3902 0.713829 21.1858 1.15061C22.8393 2.03978 23.2449 2.88215 24.6488 2.99134C24.758 3.64652 24.7268 3.69331 24.68 4.0989C25.0544 4.0677 25.3352 4.0521 25.6628 4.13009C25.6472 5.05046 26.0996 5.79923 26.1932 5.92402C26.3336 6.14241 26.4272 6.36081 26.6611 6.70399C27.4411 7.85835 28.3303 10.0579 28.7047 11.727L28.7515 5.95522C28.6579 4.94126 28.5175 4.34848 27.9559 3.50612C28.2055 3.28773 28.4551 3.17853 28.7515 3.03814C28.5331 2.69495 28.3303 2.27377 28.2211 1.86818C28.7047 1.4314 28.8763 0.651434 28.7515 0.027459Z" fill="#191919" fill-opacity="0.6"/>
<path d="M28.4397 2.91351C28.2213 2.81992 27.1918 2.44553 27.1918 2.44553L27.1762 2.42993C27.1762 2.52353 27.145 2.60153 27.1138 2.69512V2.71072C27.5038 2.94471 27.7689 3.2879 27.7689 3.33469C27.7845 3.2879 28.1277 2.99151 28.4397 2.91351Z" fill="white"/>
<path d="M27.5814 7.79627C28.611 10.0738 28.3614 9.98018 28.5954 10.9317C28.5642 10.4794 28.533 9.90219 28.4706 9.48101C28.0182 7.0007 27.3786 5.15997 26.5987 3.11646C26.5987 3.11646 26.3803 3.13205 26.2867 3.11646C26.0995 3.33485 26.0371 3.63124 26.0371 3.63124C25.6783 5.12878 26.8014 6.06474 27.5814 7.79627Z" fill="white"/>
<path d="M24.9925 3.78784L25.9441 2.99227C25.9129 2.97667 25.8817 2.94547 25.8505 2.91427C25.8037 2.86747 25.7569 2.82067 25.7257 2.75828V2.74268C25.2421 2.97667 24.8989 2.99227 24.8989 2.99227C25.0549 3.50705 24.9925 3.78784 24.9925 3.78784Z" fill="white"/>
<path d="M20.6402 0.325233C20.1566 0.216037 19.7666 0.216039 19.4702 0.200439L20.4998 0.512427C22.7305 1.33919 23.2921 2.63394 24.7896 2.66514C25.1328 2.66514 25.4292 2.57154 25.6944 2.41555V2.36875C25.6788 2.27516 25.6944 2.18156 25.7256 2.08796V2.07236C24.6492 1.58878 22.2937 0.715217 20.6402 0.325233Z" fill="white"/>
<path d="M25.912 0.402344C25.8496 0.558338 25.7716 0.823525 25.5376 1.07312C25.8496 1.3383 25.912 1.4787 26.0212 1.72829C26.1148 1.66589 26.224 1.63469 26.3332 1.63469H26.3488L25.912 0.402344Z" fill="white"/>
<path d="M26.4114 2.81912C26.6526 2.81912 26.8482 2.62357 26.8482 2.38234C26.8482 2.14111 26.6526 1.94556 26.4114 1.94556C26.1702 1.94556 25.9746 2.14111 25.9746 2.38234C25.9746 2.62357 26.1702 2.81912 26.4114 2.81912Z" fill="white"/>
<path d="M27.0511 0.838267C26.8327 1.10346 26.7235 1.30625 26.6455 1.66504C26.7547 1.69624 26.8951 1.75863 26.9731 1.88343L28.5174 0.307889C27.9247 0.261091 27.4255 0.401484 27.0511 0.838267Z" fill="white"/>
<path d="M0.0331964 33.254C0.813165 33.332 1.42154 33.1448 1.87392 32.6924C2.26391 32.8016 2.74749 33.0356 2.99708 33.2228C3.12187 32.9108 3.27787 32.6456 3.48066 32.3804C5.25899 33.566 7.31811 33.1604 10.1416 33.2072C8.92484 32.7704 8.39446 32.5676 7.5989 32.1308C5.94536 31.2417 5.53978 30.3993 4.13583 30.2901C4.02664 29.6349 4.05784 29.5881 4.10464 29.1825C3.73025 29.2137 3.44946 29.2293 3.12187 29.1513C3.13747 28.231 2.68509 27.4822 2.5915 27.3574C2.4511 27.139 2.35751 26.9206 2.12351 26.5774C1.34355 25.4231 0.45438 23.2236 0.079995 21.5544L0.0331964 27.3262C0.126793 28.3402 0.267188 28.9329 0.828766 29.7753C0.579176 29.9937 0.329585 30.1029 0.0331964 30.2433C0.251588 30.5865 0.454381 31.0077 0.563577 31.4132C0.079996 31.85 -0.0759993 32.63 0.0331964 33.254Z" fill="#191919" fill-opacity="0.6"/>
<path d="M0.360352 30.3704C0.578743 30.464 1.6083 30.8384 1.6083 30.8384L1.6239 30.854C1.6239 30.7604 1.6551 30.6824 1.6863 30.5888V30.5732C1.29631 30.3392 1.03113 29.996 1.03113 29.9492C0.999927 29.9804 0.672339 30.308 0.360352 30.3704Z" fill="white"/>
<path d="M1.20292 25.4856C0.173365 23.2081 0.422956 23.3017 0.188965 22.3501C0.220164 22.8025 0.251363 23.3797 0.31376 23.8008C0.766142 26.2811 1.40572 28.1219 2.18569 30.1654C2.18569 30.1654 2.40408 30.1498 2.49767 30.1654C2.68487 29.947 2.74726 29.6506 2.74726 29.6506C3.10605 28.1531 1.98289 27.2171 1.20292 25.4856Z" fill="white"/>
<path d="M3.79238 29.4954L2.84082 30.2909C2.87202 30.3065 2.90322 30.3377 2.93442 30.3689C2.98122 30.4157 3.02801 30.4625 3.05921 30.5249V30.5405C3.54279 30.3065 3.88598 30.2909 3.88598 30.2909C3.72998 29.7606 3.79238 29.4954 3.79238 29.4954Z" fill="white"/>
<path d="M8.16059 32.9581C8.64418 33.0673 9.03416 33.0673 9.33055 33.0829L8.30099 32.7709C6.07028 31.9441 5.5087 30.6494 4.01116 30.6182C3.66797 30.6182 3.37158 30.7118 3.10639 30.8678V30.9146C3.10639 31.0081 3.10639 31.1017 3.0752 31.1953V31.2109C4.13595 31.6945 6.50706 32.5681 8.16059 32.9581Z" fill="white"/>
<path d="M2.88844 32.8953C2.95084 32.7393 3.02884 32.4741 3.26283 32.2245C2.95084 31.9593 2.88844 31.8189 2.77925 31.5693C2.68565 31.6317 2.57646 31.6629 2.46726 31.6629H2.45166L2.88844 32.8953Z" fill="white"/>
<path d="M1.73343 32.4429C1.95182 32.1777 2.06102 31.9749 2.13902 31.6161C2.02982 31.5849 1.88943 31.5225 1.81143 31.3977L0.26709 32.9576C0.859866 33.02 1.35905 32.8952 1.73343 32.4429Z" fill="white"/>
<path d="M0.579128 1.8531C0.485532 2.27428 0.282741 2.69546 0.0487504 3.02305C0.345139 3.16344 0.579128 3.27264 0.844317 3.49103C0.28274 4.3334 0.142347 4.92618 0.0487504 5.94014L0.095549 11.7119C0.469934 10.0272 1.3591 7.82766 2.13907 6.6889C2.35746 6.34572 2.46665 6.14292 2.60705 5.90893C2.68504 5.78414 3.13743 5.03537 3.13743 4.11501C3.44941 4.05261 3.7458 4.06821 4.12019 4.08381C4.07339 3.69383 4.05779 3.63143 4.15139 2.97625C5.53973 2.86706 5.96091 2.02469 7.61445 1.13553C8.42562 0.698745 8.956 0.49595 10.1571 0.0591669C7.33366 0.0903657 5.27454 -0.299616 3.49621 0.885937C3.29342 0.620747 3.15303 0.355559 3.01263 0.0435714C2.76304 0.230764 2.29506 0.480353 1.88948 0.573949C1.4371 0.121567 0.828719 -0.0500268 0.0487504 0.0123707C-0.0760446 0.651945 0.0799482 1.43191 0.579128 1.8531Z" fill="#191919" fill-opacity="0.6"/>
<path d="M0.360352 2.91351C0.578743 2.81992 1.6083 2.44553 1.6083 2.44553L1.6239 2.42993C1.6239 2.52353 1.6551 2.60153 1.6863 2.69512V2.71072C1.29631 2.94471 1.03113 3.2879 1.03113 3.33469C0.999927 3.2879 0.672339 2.99151 0.360352 2.91351Z" fill="white"/>
<path d="M1.20292 7.79627C0.173365 10.0738 0.422956 9.98018 0.188965 10.9317C0.220164 10.4794 0.251363 9.90219 0.31376 9.48101C0.766142 7.0007 1.40572 5.15997 2.18569 3.11646C2.18569 3.11646 2.40408 3.13205 2.49767 3.11646C2.68487 3.33485 2.74726 3.63124 2.74726 3.63124C3.10605 5.12878 1.98289 6.06474 1.20292 7.79627Z" fill="white"/>
<path d="M3.79238 3.78784L2.84082 2.99227C2.87202 2.97667 2.90322 2.94547 2.93442 2.91427C2.98122 2.86747 3.02801 2.82067 3.05921 2.75828V2.74268C3.54279 2.97667 3.88598 2.99227 3.88598 2.99227C3.72998 3.50705 3.79238 3.78784 3.79238 3.78784Z" fill="white"/>
<path d="M8.16059 0.325233C8.64418 0.216037 9.03416 0.216039 9.33055 0.200439L8.30099 0.512427C6.07028 1.33919 5.5087 2.63394 4.01116 2.66514C3.66797 2.66514 3.37158 2.57154 3.10639 2.41555V2.36875C3.10639 2.27516 3.10639 2.18156 3.0752 2.08796V2.07236C4.13595 1.58878 6.50706 0.715217 8.16059 0.325233Z" fill="white"/>
<path d="M2.88844 0.402344C2.95084 0.558338 3.02884 0.823525 3.26283 1.07312C2.95084 1.3383 2.88844 1.4787 2.77925 1.72829C2.68565 1.66589 2.57646 1.63469 2.46726 1.63469H2.45166L2.88844 0.402344Z" fill="white"/>
<path d="M2.37331 2.81912C2.61453 2.81912 2.81009 2.62357 2.81009 2.38234C2.81009 2.14111 2.61453 1.94556 2.37331 1.94556C2.13208 1.94556 1.93652 2.14111 1.93652 2.38234C1.93652 2.62357 2.13208 2.81912 2.37331 2.81912Z" fill="white"/>
<path d="M1.73343 0.838267C1.95182 1.10346 2.06102 1.30625 2.13902 1.66504C2.02982 1.69624 1.88943 1.75863 1.81143 1.88343L0.26709 0.307889C0.859866 0.261091 1.35905 0.401484 1.73343 0.838267Z" fill="white"/>
<path d="M21.2795 3.64556V4.28514C20.4995 3.67676 19.6416 3.14639 18.7368 2.7564V2.19482C19.6416 2.56921 20.4839 3.06839 21.2795 3.64556Z" fill="white"/>
<path d="M14.4159 1.33838C14.8527 1.33838 15.2739 1.36958 15.6794 1.41638V1.94675C15.2583 1.89996 14.8371 1.86876 14.4159 1.86876C13.9947 1.86876 13.5735 1.89996 13.1523 1.94675V1.43198C13.5735 1.35398 13.9947 1.33838 14.4159 1.33838Z" fill="white"/>
<path d="M10.1262 2.19482V2.7564C9.22143 3.14639 8.37906 3.66116 7.5835 4.28514V3.64556C8.37906 3.05279 9.22143 2.56921 10.1262 2.19482Z" fill="white"/>
<path d="M7.5835 29.6664V29.0269C8.36347 29.6352 9.22143 30.1656 10.1262 30.5556V31.1172C9.22143 30.7428 8.37906 30.2436 7.5835 29.6664Z" fill="white"/>
<path d="M14.4159 31.9763C13.9791 31.9763 13.5735 31.9451 13.1523 31.8983V31.3679C13.5735 31.4147 13.9947 31.4459 14.4159 31.4459C14.8527 31.4459 15.2739 31.4147 15.6794 31.3679V31.8827C15.2739 31.9451 14.8527 31.9763 14.4159 31.9763Z" fill="white"/>
<path d="M18.7368 31.102V30.5405C19.6416 30.1505 20.4839 29.6357 21.2795 29.0117V29.6513C20.4839 30.2441 19.6416 30.7276 18.7368 31.102Z" fill="white"/>
<path d="M43.8991 9.0447H49.1405V15.7992H47.3933L47.1282 14.2237C46.473 14.9881 45.5058 16.1268 43.2127 16.1268C40.202 16.1268 37.4565 13.9585 37.4565 9.55948C37.4565 6.14322 39.3597 2.91414 43.5871 2.92974C47.4245 2.92974 48.9533 5.42564 49.0781 7.15717H46.4574C46.4574 6.67359 45.5682 5.09806 43.7119 5.09806C41.84 5.09806 40.1084 6.3928 40.1084 9.60628C40.1084 13.0225 41.9804 13.9273 43.7587 13.9273C44.3359 13.9273 46.2546 13.7089 46.8006 11.1662H43.8835L43.8991 9.0447Z" fill="#191919" fill-opacity="0.6"/>
<path d="M56.8624 13.0689C56.6752 13.7241 55.9732 14.0829 55.2868 14.0829C53.3213 14.0829 53.1809 12.5073 53.1029 11.821H59.4675V11.3842C59.4675 7.14114 56.9404 6.26758 55.0996 6.26758C51.0282 6.26758 50.6538 9.83984 50.6538 10.963C50.6538 14.7848 52.6661 16.0484 55.2712 16.0484C56.8624 16.0484 58.7187 15.3152 59.3583 13.0845L56.8624 13.0689ZM53.1809 10.2298C53.3213 9.01307 53.9297 8.2643 55.084 8.2643C55.864 8.2643 56.8312 8.71668 56.9716 10.2298H53.1809Z" fill="#191919" fill-opacity="0.6"/>
<path d="M69.513 15.7988H67.0639V10.1674C67.0639 9.48105 67.0327 8.34229 65.4728 8.34229C64.3808 8.34229 63.5541 9.07547 63.5541 10.495V15.8144H61.105V6.51717H63.4449V7.87431H63.4761C63.8037 7.31273 64.5056 6.26758 66.2684 6.26758C68.0779 6.26758 69.4974 7.32833 69.4974 9.37185L69.513 15.7988Z" fill="#191919" fill-opacity="0.6"/>
<path d="M77.2505 13.0689C77.0634 13.7241 76.3614 14.0829 75.675 14.0829C73.7095 14.0829 73.5691 12.5073 73.4911 11.821H79.8556V11.3842C79.8556 7.14114 77.3285 6.26758 75.4878 6.26758C71.4164 6.26758 71.042 9.83984 71.042 10.963C71.042 14.7848 73.0543 16.0484 75.6594 16.0484C77.2505 16.0484 79.1069 15.3152 79.7464 13.0845L77.2505 13.0689ZM73.5691 10.2298C73.7095 9.01307 74.3179 8.2643 75.4722 8.2643C76.2522 8.2643 77.2193 8.71668 77.3597 10.2298H73.5691Z" fill="#191919" fill-opacity="0.6"/>
<path d="M81.4624 6.51717H83.8023V8.1239H83.8335C84.3327 7.17234 84.8942 6.26758 86.3762 6.26758C86.5322 6.26758 86.6882 6.28317 86.8442 6.29877V8.77908C86.6258 8.74788 86.3762 8.74788 86.1422 8.74788C84.2391 8.74788 83.8959 9.93343 83.8959 10.963V15.7988H81.4468V6.51717H81.4624Z" fill="#191919" fill-opacity="0.6"/>
<path d="M95.7977 8.95067C95.7977 6.65756 93.3954 6.26758 92.1006 6.26758C90.1975 6.26758 88.2164 6.67316 87.9512 9.51225H90.3067C90.3847 8.96627 90.5875 8.2175 91.8042 8.2175C92.4282 8.2175 93.411 8.2643 93.411 9.30946C93.411 9.83984 92.943 9.99583 92.553 10.0426L90.3535 10.3702C88.7935 10.5886 87.6548 11.5246 87.6548 13.3341C87.6548 15.2528 89.0899 16.0328 90.4939 16.0328C92.1474 16.0328 92.943 15.2684 93.5046 14.6912C93.5514 15.2216 93.5981 15.3464 93.7229 15.7832H96.3592V15.4088C96.0628 15.2996 95.8133 15.0656 95.8133 13.9581V8.95067H95.7977ZM93.411 12.4605C93.411 13.5993 92.319 14.2857 91.227 14.2857C90.7591 14.2857 90.0883 14.0205 90.0883 13.1625C90.0883 12.1485 90.8371 11.9302 91.7418 11.7742C92.7558 11.6182 93.1614 11.4622 93.3954 11.2594V12.4605H93.411Z" fill="#191919" fill-opacity="0.6"/>
<path d="M98.0601 3.2561H100.509V15.798H98.0601V3.2561Z" fill="#191919" fill-opacity="0.6"/>
<path d="M105.345 5.40962H102.896V3.14771H105.345V5.40962ZM105.345 6.51717V15.7988H102.896V6.51717H105.345Z" fill="#191919" fill-opacity="0.6"/>
<path d="M110.43 6.51782H111.959V8.26495H110.43V13.3191C110.43 13.8651 110.446 14.0679 111.444 14.0679C111.6 14.0679 111.772 14.0523 111.959 14.0367V15.893C111.569 15.9086 111.194 15.9242 110.804 15.9242H110.492C108.386 15.9242 107.996 15.1287 107.996 13.9119V8.28055H106.733V6.53342H107.996V3.99072H110.446V6.51782H110.43Z" fill="#191919" fill-opacity="0.6"/>
<path d="M121.038 8.95067C121.038 6.65756 118.636 6.26758 117.341 6.26758C115.438 6.26758 113.457 6.67316 113.191 9.51225H115.547C115.625 8.96627 115.828 8.2175 117.044 8.2175C117.668 8.2175 118.651 8.2643 118.651 9.30946C118.651 9.83984 118.183 9.99583 117.793 10.0426L115.594 10.3702C114.034 10.5886 112.895 11.5246 112.895 13.3341C112.895 15.2528 114.33 16.0328 115.734 16.0328C117.388 16.0328 118.183 15.2684 118.745 14.6912C118.792 15.2216 118.838 15.3464 118.963 15.7832H121.599V15.4088C121.303 15.2996 121.053 15.0656 121.053 13.9581V8.95067H121.038ZM118.636 12.4605C118.636 13.5993 117.544 14.2857 116.452 14.2857C115.984 14.2857 115.313 14.0205 115.313 13.1625C115.313 12.1485 116.062 11.9302 116.966 11.7742C117.98 11.6182 118.386 11.4622 118.62 11.2594V12.4605H118.636Z" fill="#191919" fill-opacity="0.6"/>
<path d="M125.951 6.51782H127.48V8.26495H125.951V13.3191C125.951 13.8651 125.967 14.0679 126.965 14.0679C127.121 14.0679 127.293 14.0523 127.465 14.0367V15.893C127.075 15.9086 126.7 15.9242 126.31 15.9242H125.998C123.892 15.9242 123.502 15.1287 123.502 13.9119V8.28055H122.239V6.53342H123.502V3.99072H125.951V6.51782Z" fill="#191919" fill-opacity="0.6"/>
<path d="M46.3167 20.7283H43.8676V25.1741H43.8364C43.4464 24.5813 42.7133 23.7234 41.1533 23.7234C39.1098 23.7234 37.3003 25.2989 37.3003 28.5124C37.3003 31.0551 38.4546 33.5042 41.2157 33.5042C42.2297 33.5042 43.3061 33.1454 43.8988 32.0846H43.93V33.2546H46.3323V20.7283H46.3167ZM39.7962 28.684C39.7962 27.2176 40.3266 25.8449 41.8709 25.8449C43.54 25.8449 43.9612 27.3424 43.9612 28.8244C43.9612 30.1971 43.3529 31.4918 41.7929 31.4918C40.233 31.4918 39.7962 29.7915 39.7962 28.684Z" fill="#191919" fill-opacity="0.6"/>
<path d="M53.9449 30.5394C53.7577 31.1945 53.0557 31.5533 52.3693 31.5533C50.4038 31.5533 50.2634 29.9778 50.1854 29.2914H56.55V28.8546C56.55 24.6116 54.0229 23.738 52.1822 23.738C48.1107 23.738 47.7363 27.3103 47.7363 28.4335C47.7363 32.2553 49.7486 33.5188 52.3537 33.5188C53.9449 33.5188 55.8012 32.7857 56.4408 30.555H53.9449V30.5394ZM50.279 27.6847C50.4194 26.4679 51.0278 25.7192 52.1822 25.7192C52.9621 25.7192 53.9293 26.1715 54.0697 27.6847H50.279Z" fill="#191919" fill-opacity="0.6"/>
<path d="M71.2447 24.8308C71.0264 24.0821 70.6364 22.6625 68.4681 22.6625C67.2045 22.6625 65.3638 23.5049 65.3638 27.0459C65.3638 29.2923 66.2529 31.3202 68.4681 31.3202C69.9188 31.3202 70.9328 30.4934 71.2447 28.9647H73.8654C73.3351 31.6946 71.5567 33.5821 68.4213 33.5821C65.083 33.5821 62.6963 31.3358 62.6963 26.9991C62.6963 22.6157 65.2234 20.385 68.4525 20.385C72.1963 20.385 73.725 22.9745 73.8654 24.8152H71.2447V24.8308Z" fill="#191919" fill-opacity="0.6"/>
<path d="M83.1785 26.406C83.1785 24.1129 80.7762 23.7229 79.4815 23.7229C77.5783 23.7229 75.5972 24.1285 75.332 26.9676H77.6875C77.7655 26.4216 77.9683 25.6728 79.1851 25.6728C79.8091 25.6728 80.7918 25.7196 80.7918 26.7648C80.7918 27.2952 80.3238 27.4512 79.9339 27.498L77.7343 27.8255C76.1744 28.0439 75.0356 28.9799 75.0356 30.7894C75.0356 32.7081 76.4708 33.4881 77.8591 33.4881C79.5127 33.4881 80.3082 32.7237 80.8698 32.1466C80.9166 32.6769 80.9634 32.8017 81.0882 33.2385H83.7245V32.8797C83.4281 32.7705 83.1785 32.5365 83.1785 31.429V26.406ZM80.7918 29.9315C80.7918 31.0702 79.6999 31.7566 78.6079 31.7566C78.1399 31.7566 77.4691 31.4914 77.4691 30.6334C77.4691 29.6195 78.2179 29.4011 79.1227 29.2451C80.1366 29.0891 80.5422 28.9331 80.7762 28.7303V29.9315H80.7918Z" fill="#191919" fill-opacity="0.6"/>
<path d="M88.1082 23.9737H89.6369V25.7208H88.1082V30.775C88.1082 31.321 88.1238 31.5238 89.1221 31.5238C89.2781 31.5238 89.4497 31.5082 89.6213 31.4926V33.3489C89.2313 33.3645 88.8569 33.3801 88.4669 33.3801H88.155C86.049 33.3801 85.6591 32.5845 85.6591 31.3678V25.7364H84.3955V23.9893H85.6591V21.4622H88.1082V23.9737Z" fill="#191919" fill-opacity="0.6"/>
<path d="M98.6995 26.406C98.6995 24.1129 96.2972 23.7229 95.0025 23.7229C93.0993 23.7229 91.1182 24.1285 90.853 26.9676H93.2085C93.2865 26.4216 93.4893 25.6728 94.7061 25.6728C95.33 25.6728 96.3128 25.7196 96.3128 26.7648C96.3128 27.2952 95.8448 27.4512 95.4548 27.498L93.2553 27.8255C91.6954 28.0439 90.5566 28.9799 90.5566 30.7894C90.5566 32.7081 91.9918 33.4881 93.3957 33.4881C95.0493 33.4881 95.8448 32.7237 96.4064 32.1466C96.4532 32.6769 96.5 32.8017 96.6248 33.2385H99.2611V32.8797C98.9647 32.7705 98.7151 32.5365 98.7151 31.429V26.406H98.6995ZM96.3128 29.9315C96.3128 31.0702 95.2209 31.7566 94.1289 31.7566C93.6609 31.7566 92.9901 31.4914 92.9901 30.6334C92.9901 29.6195 93.7389 29.4011 94.6437 29.2451C95.6576 29.0891 96.0632 28.9331 96.2972 28.7303V29.9315H96.3128Z" fill="#191919" fill-opacity="0.6"/>
<path d="M100.947 20.7292H103.396V33.2712H100.947V20.7292Z" fill="#191919" fill-opacity="0.6"/>
<path d="M114.112 33.2533H111.772V31.943H111.741C111.179 32.9413 110.212 33.5029 108.917 33.5029C107.092 33.5029 105.75 32.4577 105.75 30.0866V23.9717H108.2V29.7278C108.2 31.163 109.042 31.4438 109.791 31.4438C110.586 31.4438 111.678 30.9914 111.678 29.3379V23.9717H114.112V33.2533Z" fill="#191919" fill-opacity="0.6"/>
<path d="M124.797 33.2541H122.348V27.6227C122.348 26.9364 122.317 25.7976 120.757 25.7976C119.665 25.7976 118.838 26.5308 118.838 27.9503V33.2697H116.389V23.9725H118.729V25.3296H118.76C119.088 24.7681 119.79 23.7229 121.553 23.7229C123.362 23.7229 124.782 24.7837 124.782 26.8272L124.797 33.2541Z" fill="#191919" fill-opacity="0.6"/>
<path d="M131.817 33.0975C130.663 36.545 130.351 36.9818 128.214 36.9818C127.886 36.9818 127.465 36.9662 127.122 36.9506V34.9851C127.231 35.0007 127.387 35.0163 127.59 35.0163C128.479 35.0163 128.963 34.8915 129.197 33.6279L125.78 23.9563H128.51L130.507 30.8044H130.538L132.441 23.9563H135.031L131.817 33.0975Z" fill="#191919" fill-opacity="0.6"/>
<path d="M143.438 26.406C143.438 24.1129 141.052 23.7229 139.741 23.7229C137.838 23.7229 135.857 24.1285 135.592 26.9676H137.947C138.025 26.4216 138.228 25.6728 139.445 25.6728C140.069 25.6728 141.052 25.7196 141.052 26.7648C141.052 27.2952 140.584 27.4512 140.194 27.498L137.994 27.8255C136.434 28.0439 135.295 28.9799 135.295 30.7894C135.295 32.7081 136.731 33.4881 138.134 33.4881C139.788 33.4881 140.584 32.7237 141.145 32.1466C141.192 32.6769 141.239 32.8017 141.364 33.2385H144V32.8797C143.703 32.7705 143.454 32.5365 143.454 31.429L143.438 26.406ZM141.052 29.9315C141.052 31.0702 139.96 31.7566 138.868 31.7566C138.4 31.7566 137.729 31.4914 137.729 30.6334C137.729 29.6195 138.478 29.4011 139.382 29.2451C140.396 29.0891 140.802 28.9331 141.036 28.7303L141.052 29.9315Z" fill="#191919" fill-opacity="0.6"/>
</svg>
