<?xml version="1.0" encoding="UTF-8"?>
<svg id="Capa_2" xmlns="http://www.w3.org/2000/svg" viewBox="0 0 184.48 60.45">
  <g id="Layer_1">
    <g>
      <g>
        <path d="M165.6,39.52c0,11.95-9.09,20.87-20.87,20.87s-20.87-8.92-20.87-20.87,9-20.96,20.87-20.96,20.87,9,20.87,20.96Zm-30.45,0c0,5.57,4.09,9.82,9.58,9.82s9.58-4.26,9.58-9.82-4.17-9.91-9.58-9.91-9.58,4.17-9.58,9.91Z" fill="#191919" fill-opacity="0.6"/>
        <rect fill="#191919" fill-opacity="0.6" x="123.85" y="2.19" width="11.3" height="38.7"/>
      </g>
      <path fill="#191919" fill-opacity="0.6" d="M81.7,2.29l-18.99,57.39h-9.74l-12.03-36.84-11.95,36.84h-9.82L0,2.29H12.93l11.38,36.92L36.18,2.29h9.74l11.87,36.92L69.01,2.29h12.69Z"/>
      <path fill="#191919" fill-opacity="0.6" d="M183.26,19.48V59.68h-11.54V19.48h11.54Z"/>
      <path fill="#191919" fill-opacity="0.6" d="M184.48,6.96c0,3.85-3.19,7.04-7.04,7.04s-7.04-3.19-7.04-7.04,3.19-6.96,7.04-6.96,7.04,3.19,7.04,6.96Z"/>
      <path fill="#191919" fill-opacity="0.2" d="M144.76,18.62c-3.49,0-6.74,.78-9.58,2.19V2.25h-11.3V40.94h.04c.66,11.26,9.42,19.51,20.83,19.51s20.87-8.92,20.87-20.87-9.09-20.96-20.87-20.96Zm0,30.78c-5.48,0-9.58-4.26-9.58-9.82s4.09-9.91,9.58-9.91,9.58,4.17,9.58,9.91-4.18,9.82-9.58,9.82Z"/>
      <path fill="#191919" fill-opacity="0.6" d="M118.56,39.62c0-11.08-9.09-20.96-20.87-20.96s-20.87,9-20.87,20.96,8.81,20.17,18.48,20.75c5.75,.34,9.66-1.68,12.05-4.07,.19-.19,.38-.38,.58-.57v4.06h10.64v-19.55h0c0-.21,.02-.42,.02-.63Zm-20.87,9.82c-5.7,0-9.58-4.26-9.58-9.82s4.09-9.91,9.58-9.91,9.58,4.17,9.58,9.91-5.12,9.82-9.58,9.82Z"/>
    </g>
  </g>
</svg>