<?xml version="1.0" encoding="UTF-8"?><svg id="Capa_2" xmlns="http://www.w3.org/2000/svg" viewBox="0 0 184.48 60.45"><g id="Layer_1"><g><path d="M144.72,18.57c-3.48,0-6.7,.79-9.54,2.19V2.25h-.04v-.05h-11.3V40.89h.04v.05h.03c.13,2.08,.53,4.06,1.18,5.9,.02,.05,.04,.11,.06,.16,.19,.53,.4,1.05,.63,1.55,.06,.13,.12,.26,.18,.39,.2,.42,.42,.84,.65,1.24,.12,.21,.24,.41,.36,.61,.2,.32,.4,.64,.62,.94,.19,.27,.39,.54,.59,.8,.17,.22,.34,.44,.52,.66,.28,.34,.58,.66,.89,.98,.12,.13,.24,.25,.36,.38,.4,.4,.82,.77,1.25,1.13,.04,.04,.08,.07,.13,.11,3.58,2.93,8.22,4.66,13.42,4.66,11.79,0,20.87-8.92,20.87-20.88,0-4.51-1.29-8.59-3.54-11.94-3.7-5.56-10.01-9.07-17.38-9.07Zm0,30.78c-3.08,0-5.72-1.34-7.45-3.51-1.32-1.68-2.09-3.85-2.09-6.26,0-5.73,4.09-9.91,9.58-9.91,3.04,0,5.69,1.32,7.42,3.49,1.33,1.69,2.11,3.88,2.11,6.36,0,5.57-4.17,9.82-9.58,9.82Z"/><polygon points="69.01 2.29 57.79 39.21 45.92 2.29 36.18 2.29 24.31 39.21 12.93 2.29 0 2.29 19.16 59.68 28.98 59.68 40.93 22.84 52.96 59.68 62.71 59.68 81.7 2.29 69.01 2.29"/><rect x="171.71" y="19.48" width="11.54" height="40.19"/><path d="M177.44,14c3.85,0,7.04-3.19,7.04-7.04s-3.19-6.96-7.04-6.96-7.04,3.19-7.04,6.96,3.19,7.04,7.04,7.04Z"/><path d="M97.69,18.66c-11.87,0-20.87,9-20.87,20.96s8.81,20.17,18.48,20.75c5.75,.34,9.66-1.68,12.05-4.07,.19-.19,.38-.38,.58-.57v4.06h10.64v-19.55h0c0-.21,.02-.42,.02-.63,0-11.08-9.09-20.96-20.87-20.96Zm0,30.78c-5.7,0-9.58-4.26-9.58-9.82s4.09-9.91,9.58-9.91,9.58,4.18,9.58,9.91-5.12,9.82-9.58,9.82Z"/></g></g></svg>