<svg width="174" height="29" viewBox="0 0 174 29" fill="none" xmlns="http://www.w3.org/2000/svg">
<path d="M23.0101 13.347C22.937 12.2988 22.6448 11.2506 22.0605 10.3422L17.0932 2.02651C16.728 1.39759 16.4358 0.698795 16.2897 0L16.0705 0.349398C14.8287 2.3759 14.8287 4.96145 16.0705 6.98795L20.0882 13.6265C21.33 15.653 21.33 18.2386 20.0882 20.2651L19.869 20.6145C19.7229 19.9157 19.4307 19.2169 19.0655 18.588L15.4131 12.5084L13.0756 8.59518C12.7103 7.96627 12.4181 7.26747 12.272 6.56868L12.0529 6.91807C10.8111 8.94458 10.8111 11.4602 12.0529 13.5566L16.0705 20.1952C17.3123 22.2217 17.3123 24.8072 16.0705 26.8337L15.8514 27.1831C15.7053 26.4843 15.4131 25.7855 15.0479 25.1566L10.0076 16.841C9.35013 15.7229 9.05793 14.4651 9.05793 13.2072C3.72544 14.5349 0 17.4 0 20.6843C0 25.2964 7.15869 29 15.9975 29C24.8363 29 31.995 25.2964 31.995 20.6843C32.068 17.5398 28.4156 14.6747 23.0101 13.347ZM38.131 27.5325C38.204 26.3446 38.3501 25.5759 38.7154 24.5976C40.3955 25.3663 42.5869 25.7157 44.194 25.7157C46.9698 25.7157 48.5768 24.8771 48.5768 23.1301C48.5768 21.453 47.4081 20.6843 44.6322 19.4964L43.0982 18.9373C40.2494 17.7494 38.3501 16.212 38.3501 13.2072C38.3501 9.92289 40.7607 7.82651 45.5819 7.82651C47.5542 7.82651 49.3804 8.10602 51.0605 8.66506C50.9874 9.78313 50.7683 10.6916 50.4761 11.5301C48.869 10.9711 46.8967 10.6916 45.5088 10.6916C42.8791 10.6916 41.7103 11.6699 41.7103 13.2072C41.7103 14.6747 42.8791 15.5831 44.9975 16.4217L46.6045 17.0506C50.403 18.588 52.0101 20.2651 52.0101 23.0602C52.0101 26.3446 49.3804 28.6506 44.267 28.6506C41.8564 28.6506 39.8111 28.3012 38.131 27.5325ZM68.1537 13.7663V28.1614H65.0856L64.9395 26.4145C64.063 27.6723 62.8212 28.5108 60.7028 28.5108C56.7582 28.5108 54.0554 25.7157 54.0554 20.894C54.0554 15.8627 56.9043 12.9277 62.4559 12.9277C64.6474 12.9976 66.4736 13.2072 68.1537 13.7663ZM64.8665 24.8771V15.8627C64.2091 15.7229 63.4055 15.7229 62.4559 15.7229C59.0227 15.7229 57.4156 17.7494 57.4156 20.9639C57.4156 23.8988 58.6574 25.9952 61.5793 25.9952C62.9673 25.9253 63.9899 25.506 64.8665 24.8771ZM85.1008 18.5181V28.1614H81.8136V19.0771C81.8136 16.7711 81.0101 15.7229 77.7229 15.7229C76.9194 15.7229 76.0428 15.7928 75.0932 15.9325V28.1614H71.806V13.7663C73.9244 13.2771 76.262 12.9277 77.796 12.9277C83.3476 12.9976 85.1008 15.0241 85.1008 18.5181ZM94.3048 25.8554C95.2544 25.8554 96.204 25.7157 96.8615 25.4361C96.7884 26.2747 96.6423 27.253 96.4962 28.0916C95.6197 28.441 94.597 28.5807 93.7204 28.5807C90.5063 28.5807 88.461 27.1831 88.461 23.6892V8.5253C89.4836 8.1759 90.7254 8.03615 91.7481 8.03615V13.4867H97.0076C96.9345 14.4651 96.8615 15.3735 96.7154 16.212H91.7481V23.2699C91.7481 25.0867 92.6977 25.8554 94.3048 25.8554ZM112.055 13.7663V28.1614H108.987L108.841 26.4145C107.965 27.6723 106.723 28.5108 104.605 28.5108C100.66 28.5108 97.9572 25.7157 97.9572 20.894C97.9572 15.8627 100.806 12.9277 106.358 12.9277C108.549 12.9976 110.302 13.2072 112.055 13.7663ZM108.695 24.8771V15.8627C108.038 15.7229 107.234 15.7229 106.285 15.7229C102.851 15.7229 101.244 17.7494 101.244 20.9639C101.244 23.8988 102.486 25.9952 105.408 25.9952C106.796 25.9253 107.892 25.506 108.695 24.8771ZM129.003 18.5181V28.1614H125.642V19.0771C125.642 16.7711 124.839 15.7229 121.552 15.7229C120.748 15.7229 119.872 15.7928 118.922 15.9325V28.1614H115.635V13.7663C117.753 13.2771 120.091 12.9277 121.625 12.9277C127.176 12.9976 129.003 15.0241 129.003 18.5181ZM145.73 8.03615V28.1614H142.662L142.516 26.3446C141.64 27.6723 140.398 28.5108 138.207 28.5108C134.262 28.5108 131.559 25.7157 131.559 20.894C131.559 15.8627 134.408 12.9277 139.96 12.9277C140.836 12.9277 141.64 12.9976 142.443 13.1374V8.38554C143.466 8.10602 144.635 8.03615 145.73 8.03615ZM142.443 24.8771V16.0024C141.567 15.8627 140.69 15.7229 139.814 15.7229C136.526 15.7229 134.992 17.6795 134.992 20.9639C134.992 23.8988 136.234 25.9952 139.156 25.9952C140.471 25.9253 141.567 25.506 142.443 24.8771ZM162.385 22.012H151.793C152.232 24.5976 153.766 25.7855 156.761 25.7855C158.587 25.7855 160.413 25.4361 162.02 24.6675C161.874 25.506 161.728 26.6241 161.509 27.5325C159.975 28.1614 158.441 28.441 156.615 28.441C151.063 28.441 148.433 25.506 148.433 20.6145C148.433 16.3518 150.479 12.9277 155.738 12.9277C160.486 12.9277 162.531 15.8627 162.531 19.4964C162.531 20.4747 162.531 21.1735 162.385 22.012ZM151.793 19.3566H159.244C159.244 16.9807 157.929 15.5831 155.665 15.5831C153.254 15.653 152.013 16.9108 151.793 19.3566ZM174 13.1374C174 14.1157 173.854 15.2337 173.708 15.8627C172.904 15.7928 172.174 15.7229 171.224 15.7229C170.421 15.7229 169.617 15.7928 168.814 15.8627V28.1614H165.526V13.7663C166.914 13.2771 169.325 12.9277 171.151 12.9277C172.101 12.9976 173.27 12.9976 174 13.1374Z" fill="#191919" fill-opacity="0.6"/>
</svg>
