<svg width="69" height="43" viewBox="0 0 69 43" fill="none" xmlns="http://www.w3.org/2000/svg">
<path d="M6.90234 42.0214H60.8749L34.0319 15.0352L6.90234 42.0214Z" fill="#191919" fill-opacity="0.6"/>
<path d="M5.92546 40.7693L10.0414 36.7734L8.67048 35.3742L6.08526 37.885L1.53114 33.2383L0 34.7248L5.92546 40.7693Z" fill="#191919" fill-opacity="0.6"/>
<path d="M11.2824 35.7471L15.6905 31.3967L14.4799 30.1425L11.6809 32.9039L10.3369 31.5103L12.5798 29.2972L11.313 27.9851L9.07008 30.197L7.91853 29.0033L10.6255 26.3319L9.41567 25.0781L5.02148 29.4141L11.2824 35.7471Z" fill="#191919" fill-opacity="0.6"/>
<path fill-rule="evenodd" clip-rule="evenodd" d="M18.9474 15.5167C20.368 14.1191 23.3179 13.9088 25.0183 15.6662C26.4047 17.0989 27.1504 19.7676 25.0553 21.8283C23.6343 23.2252 21.012 24.0524 18.8078 21.7749C16.8012 19.7011 17.5264 16.9143 18.9474 15.5167ZM20.3632 19.9402C21.677 21.2982 22.827 21.5492 23.7675 20.624C24.7082 19.6987 24.6578 18.7859 23.1358 17.2129C21.8017 15.8341 20.6804 16.32 20.1283 16.8631C19.3254 17.653 19.259 18.7993 20.3632 19.9402Z" fill="#191919" fill-opacity="0.6"/>
<path d="M30.4517 16.9203L32.0076 15.3559L29.6669 12.8844L28.2658 6.87891L26.4823 8.67199L27.4101 12.079L24.2754 10.8897L22.5938 12.5799L27.9379 14.3478L30.4517 16.9203Z" fill="#191919" fill-opacity="0.6"/>
<path fill-rule="evenodd" clip-rule="evenodd" d="M17.9366 23.7003C18.1195 23.6684 21.9665 24.9868 21.9665 24.9868L20.3727 26.5488L15.062 25.1424L18.3473 28.524L16.7411 30.098L10.6699 23.9567L13.8192 20.8394C15.2968 19.491 16.7732 20.2938 16.7732 20.2938C18.4883 21.1981 18.0671 23.0815 17.9561 23.5781C17.9383 23.6577 17.9284 23.7016 17.9366 23.7003ZM14.9956 25.0892C14.9956 25.0892 15.1162 25.0203 16.0088 24.1471C16.901 23.2723 15.9781 22.5396 15.9781 22.5396C15.4369 21.9827 14.783 22.4112 14.7128 22.4801C14.667 22.5251 14.553 22.6272 14.4133 22.7523C14.0494 23.0784 13.5109 23.5608 13.5467 23.5976L14.9956 25.0892Z" fill="#191919" fill-opacity="0.6"/>
<path d="M29.6661 8.2123L28.2402 6.77484L34.465 0.601562L36.5023 2.65512L34.2597 7.06814L38.8318 5.00355L40.792 6.98004L34.5672 13.1533L33.0647 11.6388L36.3505 8.38056L31.8556 10.4196L30.9264 9.48262L33.0156 4.99258L29.6661 8.2123Z" fill="#191919" fill-opacity="0.6"/>
<path d="M40.7637 18.8018L36.4004 14.3913L42.6938 8.13281L47.0694 12.5565L45.7983 13.8209L43.0568 11.0498L42.0315 12.069L44.1939 14.255L42.8699 15.5711L40.7208 13.3984L39.3453 14.766L42.0609 17.5111L40.7637 18.8018Z" fill="#191919" fill-opacity="0.6"/>
<path d="M54.3122 20.6836L55.8553 22.3355L51.3243 27.1056L53.8588 29.8176L52.4018 31.3526L48.3242 26.9884L54.3122 20.6836Z" fill="#191919" fill-opacity="0.6"/>
<path d="M53.9727 32.33L59.9903 26.332L61.5037 27.8654L55.4864 33.8631L53.9727 32.33Z" fill="#191919" fill-opacity="0.6"/>
<path d="M57.9298 37.0243L56.4844 35.5664L62.629 29.4707L64.7273 31.5859L62.9343 37.9153L67.0011 33.8798L68.4085 35.2993L62.2648 41.3949L60.4299 39.5452L62.0098 32.9006L57.9298 37.0243Z" fill="#191919" fill-opacity="0.6"/>
<path fill-rule="evenodd" clip-rule="evenodd" d="M48.4088 14.4082L52.2648 18.1115C53.4439 19.7425 51.9387 21.1398 51.9387 21.1398C50.3687 22.4251 48.9384 21.6746 48.9384 21.6746C48.8976 21.8357 47.5774 25.7048 47.5774 25.7048L45.9027 24.0963L47.1511 18.6875L43.6828 21.9641L42.0469 20.3934L48.4088 14.4082ZM48.3872 19.6972C49.1014 20.3828 49.912 19.8645 49.912 19.8645C50.8359 19.0374 50.1949 18.4723 49.9953 18.2964C49.98 18.2829 49.9673 18.2717 49.9581 18.2629C49.8281 18.1383 48.7896 17.1406 48.7896 17.1406L47.2715 18.5749L48.3872 19.6972Z" fill="#191919" fill-opacity="0.6"/>
</svg>
