<svg width="141" height="61" viewBox="0 0 141 61" fill="none" xmlns="http://www.w3.org/2000/svg">
<g clip-path="url(#clip0_9369_2065)">
<path fill-rule="evenodd" clip-rule="evenodd" d="M97.8321 31.7029C97.4323 30.894 96.4083 30.5032 95.4815 30.7751L96.4643 24.1072C96.9165 21.0247 94.4052 18.6492 91.0829 18.6492C87.3346 18.6492 85.2904 21.3034 84.8083 23.6926C84.5355 25.069 84.3524 25.3137 83.8105 25.8031L79.8828 29.3273L82.0279 14.6559C82.1662 13.7248 81.4262 12.8785 80.3798 12.7562C79.3372 12.6372 78.3805 13.2897 78.2422 14.2175L77.5359 19.0298C77.5359 19.0298 76.6278 18.6492 75.3646 18.6492C72.2703 18.6492 69.2844 20.7597 68.8546 23.6926C68.6752 24.9398 68.3837 25.3782 67.8531 25.9152C67.3859 26.3944 63.1742 30.6765 63.1742 30.6765C62.5538 31.2611 60.76 33.1336 58.0581 33.1336C56.6529 33.1336 56.4661 31.8286 56.4661 31.8286L60.4797 29.3477C62.1428 28.3213 65.6295 26.1667 65.6295 23.1998C65.6295 20.532 63.2938 18.6492 60.2667 18.6492C56.5857 18.6492 54.1416 21.0485 53.7118 23.6994L52.6505 30.1803L52.6393 30.2517V30.2483L51.4173 31.0198C50.5839 31.5907 50.4269 32.6544 51.0697 33.3953C51.4509 33.8269 52.0152 34.0546 52.587 34.0546C52.7551 34.0546 52.927 34.0308 53.0952 33.9901C53.8875 35.5534 55.5243 36.5219 57.9123 36.5219C62.3034 36.5219 64.7849 33.9935 65.7827 32.9773L67.8082 30.9178C67.2738 34.5848 70.0019 36.5219 72.9804 36.5219C76.4559 36.5219 77.6667 35.516 80.9329 32.8584L83.661 30.5406L82.1288 40.9536C81.9905 41.8848 82.7267 42.7344 83.7731 42.8534C84.8195 42.9723 85.78 42.3198 85.9145 41.392L86.6843 36.1413C86.6843 36.1413 87.6074 36.5321 88.8743 36.5321C89.76 36.5321 90.6382 36.3588 91.4529 36.0394L96.853 33.9357C97.8172 33.5584 98.2582 32.5593 97.8321 31.7029ZM57.4221 23.9544C57.6134 22.5357 58.9345 21.5312 60.3458 21.5312C61.7535 21.5312 61.8835 22.4881 61.8835 22.8693C61.8835 24.3467 59.5084 25.989 56.9023 27.8073C56.9023 27.8073 57.2164 25.4831 57.4221 23.9544ZM75.5409 24.6632L74.5665 30.9488C74.3582 32.279 73.2391 32.8269 72.293 32.8269C70.9302 32.8269 70.4466 32.2029 70.6408 30.9488L71.6116 24.6632C71.8199 23.3331 72.939 22.7852 73.8851 22.7852C75.2479 22.7852 75.7315 23.4091 75.5409 24.6632ZM91.7302 24.6632L90.7556 30.9488C90.5508 32.279 89.4279 32.8269 88.4852 32.8269C87.1187 32.8269 86.6384 32.2029 86.8291 30.9488L87.8037 24.6632C88.0085 23.3331 89.1313 22.7852 90.0741 22.7852C91.4406 22.7852 91.9208 23.4091 91.7302 24.6632Z" fill="#191919" fill-opacity="0.6"/>
</g>
<defs>
<clipPath id="clip0_9369_2065">
<rect width="139.643" height="60.0868" fill="white" transform="translate(0.93042)"/>
</clipPath>
</defs>
</svg>
