<svg width="100" height="69" viewBox="0 0 100 69" fill="none" xmlns="http://www.w3.org/2000/svg">
<path d="M21.1772 67.5364H64.1549V47.0708H21.1772V67.5364Z" fill="white"/>
<path d="M44.5877 16.302C42.7262 17.7969 41.2896 18.8593 39.0106 19.7636C37.0268 20.5533 34.8963 20.8748 32.4615 21.2077C30.8952 21.4277 29.2574 21.7511 27.6929 21.8564C27.0498 21.8996 26.4067 21.9409 25.7655 21.9918L0.00115927 23.8702V25.7769L25.8688 23.2685L29.2234 22.9545C30.4663 22.836 31.572 22.7007 32.5986 22.5333C35.1051 22.131 37.2656 21.518 39.2024 20.6549C41.2106 19.7693 43.2433 18.3177 45.133 16.7287C46.4173 15.6493 47.6545 14.2918 48.9991 12.8081V12.1255C47.3726 13.8065 46.0225 15.1509 44.5879 16.3018M48.9998 48.2339L0.00149144 46.991V48.892H48.9998V48.2339ZM30.7394 44.8724L24.4026 44.8047C16.3173 44.6899 8.24128 44.5433 0.00149144 44.3891V46.2902C7.86493 46.2395 16.1947 46.1791 24.4083 46.0871L30.7487 45.9931C32.8848 45.9555 34.9776 45.916 37.0928 45.8464C41.4496 45.7073 45.3532 45.4008 48.9991 44.9175V44.2556C45.3383 44.6505 41.4306 44.8573 37.0703 44.8856C34.9624 44.9044 32.8507 44.8901 30.7391 44.872M37.1423 41.884C35.796 41.9367 34.3388 41.963 32.6859 41.963C32.0617 41.963 31.4355 41.96 30.8131 41.954L24.4538 41.8769C20.116 41.8449 15.7931 41.8374 11.737 41.8338L0.00179039 41.8443V43.7434L11.7652 43.4369C15.8061 43.3374 20.1402 43.2339 24.4667 43.1568L30.8205 43.0721C32.5635 43.0457 34.8633 42.9931 37.1928 42.8408C39.4755 42.6923 41.5532 42.4647 43.5445 42.147C45.3365 41.8612 47.1678 41.4757 48.9994 41.0075V40.3343C47.1172 40.7668 45.2462 41.1147 43.4319 41.3572C41.4519 41.6223 39.3947 41.7934 37.1423 41.8837M37.2671 38.7914C34.0367 39.0584 30.731 39.0584 27.5326 39.0584C26.5379 39.0584 25.5432 39.0584 24.5485 39.0659C16.3748 39.1017 8.2669 39.1694 0.000870283 39.2408V41.1418C7.87395 40.8748 16.2243 40.5965 24.5767 40.3483C25.5677 40.3145 26.5586 40.2901 27.5514 40.2638C30.7668 40.183 34.0912 40.1002 37.3554 39.7467C39.6343 39.5023 41.7101 39.1431 43.6978 38.6523C45.4315 38.2255 47.2122 37.6577 49.0002 36.9751V36.2756C47.1538 36.9375 45.3148 37.479 43.5228 37.8739C41.5541 38.3082 39.5082 38.6072 37.267 38.7915M37.463 35.6542C34.0144 36.1149 30.4662 36.1676 27.0329 36.2183C26.2469 36.2289 25.459 36.2409 24.6731 36.2579L0.00118584 36.7016V38.6026L24.7162 37.5384C25.4985 37.5027 26.2844 37.4707 27.0704 37.4406C30.5263 37.3015 34.1011 37.1585 37.5965 36.6039C39.8078 36.256 41.9363 35.7389 43.9237 35.0714C45.569 34.5205 47.2726 33.8078 48.9986 32.9654V32.2359C47.1841 33.0801 45.3995 33.7834 43.6865 34.3099C41.7235 34.9153 39.6307 35.3685 37.4627 35.6543M37.6832 32.5366C35.8048 32.8807 33.7836 33.1007 31.3182 33.2267C30.3912 33.2756 29.3984 33.3094 28.101 33.3395L0.00146154 34.0992V36.0039L24.9178 34.7027L28.1463 34.5392C29.4061 34.479 30.4366 34.4188 31.3899 34.3455C33.8888 34.1537 35.9439 33.8792 37.8582 33.4787C40.0319 33.0274 42.1415 32.3693 44.1273 31.5231C45.7274 30.8443 47.3295 30.017 48.9992 29.011V28.2457C47.2166 29.2836 45.5207 30.1147 43.8359 30.7823C41.8785 31.5607 39.8084 32.1511 37.6835 32.5366M37.9622 29.4324C36.0913 29.8705 34.0625 30.1506 31.5785 30.318C30.6215 30.3819 29.591 30.429 28.3369 30.4684L25.0745 30.585C16.8536 30.8953 8.51819 31.2525 0.00037203 31.6229V33.5277C8.46371 32.9504 16.7653 32.3882 25.1386 31.8655L28.3935 31.6699C29.6702 31.5965 30.71 31.5233 31.6671 31.4349C34.1962 31.2017 36.2663 30.8614 38.1806 30.3669C40.328 29.814 42.4151 29.0017 44.3839 27.9563C45.907 27.1496 47.4263 26.1794 49.0001 25.0098V24.1956C47.2983 25.4235 45.6661 26.4257 44.0341 27.2418C42.0993 28.2101 40.0574 28.9472 37.9624 29.4323M38.2663 26.2662C36.4085 26.8115 34.3174 27.1801 31.873 27.3926C30.8821 27.4791 29.8141 27.5449 28.6069 27.5938L25.3126 27.7385C17.1276 28.1183 8.98013 28.5432 0.00159441 29.019V30.9237C8.57953 30.26 16.9847 29.615 25.388 29.0171L28.671 28.7933C29.9402 28.7086 30.9914 28.6185 31.9804 28.5075C34.485 28.2273 36.6284 27.7949 38.5314 27.1856C40.6393 26.5181 42.6945 25.5497 44.6387 24.3087C46.0734 23.3949 47.51 22.3043 48.9991 21.005V20.9712C47.3576 22.372 45.7931 22.6841 44.2344 23.6243C42.324 24.7826 40.3158 25.6701 38.2664 26.2662M37.6402 22.6346C35.9254 23.5935 34.643 24.1463 32.1946 24.4021C30.7148 24.5619 29.1936 24.6371 27.7213 24.7104C27.0105 24.7461 26.2979 24.7819 25.5853 24.827C21.1365 25.0809 16.7665 25.3629 12.3081 25.6525L0.00126224 26.4817V28.3921L12.432 27.2527C16.4483 26.8916 21.1153 26.4761 25.6713 26.1038L28.9844 25.8481C30.2781 25.7485 31.3386 25.6431 32.3201 25.5152C34.8397 25.1899 36.9927 24.6804 38.8993 23.9602C40.9527 23.193 42.8894 22.0009 44.8279 20.5983C46.5766 19.3348 48.9966 16.8432 48.9986 16.8113V16.1362C47.4173 17.6781 46.5072 18.5449 44.7754 19.6861C42.7052 21.0493 39.1777 21.7752 37.6394 22.6345M44.7615 12.7109C42.9601 14.3637 41.0797 15.6631 39.1714 16.5731C37.3042 17.4737 35.2169 18.1055 32.7858 18.5042C31.7835 18.6715 30.693 18.8069 29.4538 18.9197L0.000332169 21.3378V23.2482L26.1819 20.471L29.5684 20.1156C30.8451 19.9671 31.9583 19.8016 32.9698 19.6098C35.4876 19.1341 37.6481 18.4252 39.5717 17.4399C41.5385 16.4452 43.5035 14.7905 45.3311 13.038C46.5571 11.8628 47.738 10.3454 48.9996 8.75467V8.11723C47.5424 9.92988 46.1509 11.4379 44.7615 12.7108M39.5946 13.1799C37.7462 14.2423 35.6122 15.0208 33.2505 15.4909C32.2426 15.6958 31.1426 15.8613 29.8902 15.9967C29.1532 16.0774 28.4123 16.1414 27.6696 16.2054C27.2691 16.2392 26.8686 16.2749 26.4681 16.3107C17.4198 17.123 8.41866 17.986 0.000498254 18.8021V20.7182C8.48443 19.6953 17.5497 18.6103 26.594 17.5874C26.9964 17.5405 27.3987 17.4953 27.8011 17.452C28.542 17.3711 29.2847 17.2884 30.0274 17.1906C31.3155 17.0195 32.4418 16.8221 33.4704 16.589C35.9242 16.0399 38.1393 15.1749 40.0553 14.0148C41.9582 12.8734 43.6391 11.2732 45.4481 9.31757C46.5744 8.101 47.8267 6.38239 48.9999 4.76918V4.06594C47.6179 5.93874 46.3073 7.51253 45.0119 8.85516C43.2463 10.6847 41.4242 12.1382 39.5946 13.18M0 18.13C0 18.13 29.5249 14.309 30.3579 14.1738C31.6366 13.9651 32.7704 13.7207 33.8291 13.4292C36.2171 12.7749 38.4154 11.7764 40.3612 10.4602C42.2284 9.20978 43.9639 7.38963 45.6846 5.39262C46.777 4.12151 47.9259 2.46495 48.9977 0.866819V0.0939941C47.7266 1.9762 46.4743 3.59904 45.1864 5.0297C43.479 6.9307 41.689 8.48392 39.863 9.64951C37.9789 10.8642 35.8597 11.7686 33.5601 12.3421C32.5297 12.6016 31.4278 12.8122 30.1869 12.9852C29.3709 13.0998 28.5285 13.1883 27.7143 13.2729C27.389 13.3087 9.96508e-05 16.2137 9.96508e-05 16.2137L0 18.13Z" fill="#BDBCBC"/>
<path d="M69.4038 47.3491C69.4038 47.3491 77.4798 47.6462 79.9336 47.6988C82.3873 47.7515 99.6242 48.4321 99.6242 48.4321V48.9041L69.4035 48.8853L69.4038 47.3491ZM69.3865 43.282C69.3865 43.282 74.5235 44.1488 79.9332 45.0269C83.989 45.6869 89.4854 46.1025 90.072 46.1269C90.6587 46.1533 99.6242 46.7568 99.6242 46.7568V47.2269C99.6242 47.2269 93.8873 46.9374 90.072 46.7305C86.099 46.5143 82.1501 46.2792 79.907 46.0498C74.8826 45.5347 69.3865 44.854 69.3865 44.854V43.282ZM69.4038 39.3534C69.4038 39.3534 75.6652 41.2563 79.9336 42.3563C84.202 43.4563 88.1242 43.9019 90.0986 44.0317C92.073 44.1633 99.598 44.765 99.598 44.765V45.2106C99.598 45.2106 95.3296 44.9248 90.0724 44.5563C85.8209 44.2592 82.4062 43.9452 79.9073 43.4037C77.1376 42.8038 69.3869 40.995 69.3869 40.995L69.4037 39.3535L69.4038 39.3534ZM69.4038 35.3727C69.4038 35.3727 75.5768 37.9638 79.9336 39.658C84.2209 41.3259 87.4944 41.4669 90.0986 41.7546C91.2456 41.8806 99.598 42.7229 99.598 42.7229V43.193C99.598 43.193 94.6075 42.8019 90.0724 42.4089C85.5373 42.016 83.5795 41.8505 79.9073 40.6546C76.19 39.4455 69.3869 37.1196 69.3869 37.1196L69.4037 35.3728L69.4038 35.3727ZM69.4038 31.4445C69.4038 31.4445 77.2503 35.6281 79.9073 36.9349C82.8689 38.3922 85.43 39.0916 90.0724 39.6313C94.6304 40.1653 99.6246 40.6805 99.6246 40.6805V41.1524C99.6246 41.1524 95.0064 40.6673 90.0724 40.2085C85.1815 39.7554 83.4386 39.5448 79.9073 38.0085C76.7484 36.6359 69.3869 33.2778 69.3869 33.2778L69.4037 31.4445H69.4038ZM69.3861 27.586C69.3861 27.586 78.2517 33.3737 79.9328 34.2912C81.6157 35.2069 83.59 36.6999 90.0716 37.5122C96.5549 38.3226 99.5973 38.6892 99.5973 38.6892V39.1875C99.5973 39.1875 94.2347 38.6121 90.0451 38.1665C85.8558 37.7209 83.0014 37.1192 79.88 35.4419C76.7587 33.7666 69.4027 29.5585 69.4027 29.5585L69.3857 27.5861L69.3861 27.586ZM69.3861 23.7275C69.3861 23.7275 78.2255 30.5981 79.8804 31.8015C81.5351 33.0068 83.7219 34.4114 90.0716 35.3122C96.3689 36.2035 99.5973 36.6473 99.5973 36.6473V37.1719C99.5973 37.1719 93.8886 36.3577 90.0716 35.8876C86.2564 35.4157 83.3306 35.2163 79.9066 32.9807C76.5726 30.8051 69.4031 25.8579 69.4031 25.8579L69.3861 23.7275L69.3861 23.7275ZM69.4038 19.6943C69.4038 19.6943 77.1527 26.7473 79.9073 29.1581C82.442 31.375 84.4972 32.0651 90.0724 33.0336C95.6495 34.0019 99.6246 34.6036 99.6246 34.6036V35.1019C99.6246 35.1019 94.5816 34.2896 90.0461 33.5826C85.5107 32.8756 82.6208 32.5973 79.9073 30.4406C76.7766 27.951 69.4038 21.9998 69.4038 21.9998V19.6943ZM69.4038 15.9232C69.4038 15.9232 77.5513 24.2925 79.9073 26.6954C82.4063 29.2433 85.6084 30.1872 90.0461 30.9638C94.2826 31.7047 99.6246 32.5621 99.6246 32.5621V33.0322C99.6246 33.0322 94.6078 32.2274 90.0461 31.4621C85.5728 30.71 82.4421 30.2925 79.8811 27.978C77.5871 25.9059 69.4038 18.3846 69.4038 18.3846V15.9232ZM69.3865 11.8551C69.3865 11.8551 78.2109 22.071 79.907 23.8929C82.5489 26.7304 83.8293 27.7082 90.072 28.8947C92.5691 29.3705 99.6242 30.5983 99.6242 30.5983V31.042C99.6242 31.042 93.782 29.9947 90.072 29.3403C86.364 28.686 83.2257 28.4416 79.8808 25.2281C77.3329 22.7818 69.4035 14.4914 69.4035 14.4914L69.3865 11.8552L69.3865 11.8551ZM69.4038 7.94416C69.4038 7.94416 78.1193 19.2054 79.8811 21.4581C81.6411 23.7089 84.0684 25.5684 90.0724 26.721C93.5339 27.3867 99.6246 28.5017 99.6246 28.5017V28.921C99.6246 28.921 94.2883 27.9263 90.0724 27.1666C85.8568 26.407 82.3763 25.6718 79.8811 22.872C77.6924 20.4144 69.3869 10.7551 69.3869 10.7551L69.4037 7.94406L69.4038 7.94416ZM69.4038 3.96344C69.4038 3.96344 78.6531 17.214 79.8811 18.8386C81.109 20.4633 82.7618 23.0808 90.0724 24.6264C91.9602 25.025 99.6508 26.5387 99.6508 26.5387V26.958C99.6508 26.958 93.8066 25.8316 90.0724 25.0457C86.3361 24.2597 82.4119 23.5433 79.9073 20.3843C77.6321 17.515 69.3869 6.93247 69.3869 6.93247L69.4037 3.96344H69.4038ZM69.4038 0C69.4038 0 78.3541 13.9388 79.992 16.5018C81.6279 19.0628 83.4987 21.0898 90.1212 22.4663C96.7437 23.8428 99.6262 24.4933 99.6262 24.4933V24.9897C99.6262 24.9897 95.418 24.1097 90.0026 22.9251C84.5893 21.7404 82.376 21.3399 79.907 17.9741C77.8518 15.1724 69.4035 3.26429 69.4035 3.26429L69.4038 0Z" fill="#BDBCBC"/>
<path d="M63.2959 20.1748H20.3696V48.8912H63.2959V20.1748Z" fill="#727272"/>
<path d="M20.3677 69.0001H63.3005V66.55H20.3677V69.0001Z" fill="#727272"/>
<path d="M36.9582 41.501H38.5509L37.2671 42.3869L37.7626 43.7914L36.4868 42.9258L35.207 43.7914L35.7125 42.3869L34.4166 41.501H36.0054L36.4868 40.1297L36.9582 41.501ZM33.2569 38.0959H34.8536L33.5678 38.9836L34.0653 40.39L32.7875 39.5225L31.5097 40.39L32.0112 38.9836L30.7154 38.0959H32.3061L32.7876 36.7283L33.2569 38.0959ZM31.9029 33.3032H33.4976L32.2138 34.1891L32.7113 35.5954L31.4335 34.7298L30.1537 35.5954L30.6571 34.1891L29.3633 33.3032H30.952L31.4334 31.9337L31.9029 33.3032ZM33.2569 28.6542H34.8536L33.5678 29.5401L34.0653 30.9465L32.7875 30.079L31.5097 30.9465L32.0112 29.5401L30.7154 28.6542H32.3061L32.7876 27.2848L33.2569 28.6542ZM36.9051 25.2025H38.4978L37.214 26.0902L37.7134 27.4947L36.4336 26.6273L35.1538 27.4947L35.6593 26.0902L34.3635 25.2025H35.9522L36.4336 23.833L36.9051 25.2025ZM52.3252 33.2914H53.9219L52.6361 34.1773L53.1356 35.5837L51.8558 34.7162L50.578 35.5837L51.0814 34.1773L49.7836 33.2914H51.3723L51.8557 31.922L52.3252 33.2914ZM50.9194 38.0841H52.5121L51.2283 38.9719L51.7278 40.3782L50.4479 39.5108L49.1722 40.3782L49.6756 38.9719L48.3778 38.0841H49.9665L50.4479 36.7129L50.9194 38.0841ZM50.9194 28.6425H52.5121L51.2283 29.5265L51.7278 30.9329L50.4479 30.0673L49.1722 30.9329L49.6756 29.5265L48.3778 28.6425H49.9665L50.4479 27.2712L50.9194 28.6425ZM47.1674 25.1907H48.7642L47.4783 26.0767L47.9778 27.4811L46.698 26.6156L45.4202 27.4811L45.9237 26.0767L44.6258 25.1907H46.2166L46.698 23.8213L47.1674 25.1907ZM47.1674 41.4892H48.7642L47.4783 42.3752L47.9778 43.7797L46.698 42.9122L45.4202 43.7797L45.9237 42.3752L44.6258 41.4892H46.2166L46.698 40.118L47.1674 41.4892ZM42.1138 42.7339H43.7106L42.4248 43.6217L42.9242 45.0243L41.6444 44.1606L40.3666 45.0243L40.8701 43.6217L39.5722 42.7339H41.163L41.6444 41.3645L42.1138 42.7339ZM42.0576 23.937H43.6503L42.3665 24.858L42.866 26.3179L41.5862 25.419L40.3064 26.3179L40.8119 24.858L39.516 23.937H41.1047L41.5862 22.5122L42.0576 23.937Z" fill="white"/>
<path d="M47.6673 56.0817H47.1803C47.0918 56.0817 47.0505 56.0403 47.0505 55.9538L47.058 54.0509C47.058 53.6504 46.964 53.3872 46.571 53.3872C46.3002 53.3872 45.8264 53.6034 45.6421 53.6918V55.9538C45.6421 56.0347 45.6083 56.0817 45.5142 56.0817H45.0329C44.9388 56.0817 44.905 56.0403 44.905 55.9538V52.8983C44.905 52.8118 44.9388 52.7647 45.0329 52.7647H45.5142C45.6083 52.7647 45.6421 52.8116 45.6421 52.8983V53.1032C45.6496 53.1032 45.6572 53.1093 45.6629 53.1093C45.913 52.9344 46.3868 52.7031 46.8005 52.7031C47.7143 52.7031 47.7971 53.3067 47.7971 53.9893V55.9542C47.7971 56.0351 47.7688 56.0821 47.6672 56.0821M43.5988 54.5714H42.7734C42.4349 54.5714 42.2168 54.6937 42.2168 55.1412C42.2168 55.4383 42.3183 55.5342 42.638 55.5342C42.9294 55.5342 43.3412 55.3631 43.5988 55.2145L43.5988 54.5714ZM43.6402 55.6959C43.3018 55.9535 42.8467 56.1359 42.3935 56.1359C41.6752 56.1359 41.4665 55.7429 41.4665 55.175C41.459 54.3815 41.8858 54.0431 42.7395 54.0431H43.6063V53.8682C43.6063 53.462 43.4559 53.3191 42.9012 53.3191C42.6774 53.3191 42.2506 53.353 41.9798 53.3793C41.8444 53.4001 41.8106 53.3929 41.7918 53.2985L41.7298 53.0485C41.7163 52.96 41.7373 52.9055 41.8859 52.8454C42.1773 52.7438 42.7113 52.6969 43.031 52.6969C44.2024 52.6969 44.3435 53.1764 44.3435 53.936V55.2428C44.3435 55.5193 44.3773 55.5268 44.5879 55.5531C44.6894 55.5606 44.7158 55.5812 44.7158 55.6546V55.9405C44.7158 56.0139 44.6688 56.0608 44.5541 56.0814C44.445 56.1022 44.3378 56.1152 44.2363 56.1152C43.9166 56.1152 43.7211 56.0212 43.6534 55.7035L43.6398 55.6959L43.6402 55.6959ZM39.0835 54.1181H40.4242C40.4242 53.7044 40.3151 53.3058 39.7548 53.3058C39.2527 53.3058 39.1173 53.6104 39.0835 54.1181ZM39.076 54.6257C39.0968 55.3102 39.3411 55.5001 39.8958 55.5001C40.1403 55.5001 40.5182 55.4512 40.7758 55.4249C40.8981 55.4113 40.9394 55.4113 40.9601 55.5396L40.9996 55.7634C41.0204 55.8649 41.0071 55.9195 40.885 55.974C40.6199 56.0755 40.1272 56.1432 39.7944 56.1432C38.5008 56.1432 38.3109 55.3178 38.3109 54.4359C38.3109 53.7796 38.4332 52.6966 39.755 52.6966C40.9659 52.6966 41.1821 53.4826 41.2028 54.2121C41.2103 54.4566 41.1427 54.6258 40.8719 54.6258H39.0762L39.076 54.6257ZM36.6197 53.3868C36.3414 53.3868 35.9146 53.5824 35.7115 53.6914V55.3837C36.0161 55.4722 36.2605 55.4985 36.4918 55.4985C36.9788 55.4985 37.1481 55.2484 37.1481 54.3966C37.1481 53.5355 36.9788 53.3869 36.6197 53.3869M36.5652 56.1435C36.3415 56.1435 36.0312 56.1021 35.7191 55.9931L35.7116 56.0006V57.1927C35.7116 57.2659 35.6928 57.3281 35.5837 57.3281H35.1023C34.9952 57.3281 34.9745 57.2811 34.9745 57.1927V52.8997C34.9745 52.8114 35.0083 52.7644 35.1023 52.7644H35.5837C35.6797 52.7644 35.706 52.817 35.706 52.8997V53.1028L35.7268 53.1164C35.9693 52.9471 36.4037 52.7102 36.7967 52.7102C37.6823 52.7102 37.9136 53.3796 37.9136 54.4025C37.9136 55.5063 37.6353 56.1437 36.5654 56.1437M33.1065 53.3459C32.5311 53.3459 32.4014 53.7125 32.4014 54.4158C32.4014 55.1341 32.5311 55.4857 33.099 55.4857C33.7157 55.4857 33.8379 55.1397 33.8379 54.4158C33.8379 53.6975 33.7232 53.3459 33.1065 53.3459ZM33.099 56.1363C31.7395 56.1363 31.6511 55.1397 31.6511 54.3688C31.6511 53.7313 31.7921 52.6953 33.099 52.6953C34.4134 52.6953 34.5957 53.5696 34.5957 54.3688C34.5957 55.1397 34.5017 56.1363 33.099 56.1363ZM30.2563 55.953C30.2563 56.0339 30.2225 56.0808 30.1285 56.0808H29.6396C29.5456 56.0808 29.5117 56.0412 29.5117 55.953V52.8993C29.5117 52.8108 29.5456 52.7639 29.6396 52.7639H30.121C30.2225 52.7639 30.2563 52.8184 30.2563 52.8993V53.1964L30.2699 53.2099C30.473 53.0219 30.9543 52.7906 31.2721 52.7304C31.3605 52.7097 31.4206 52.7304 31.4357 52.8451L31.4826 53.2982C31.4886 53.3942 31.4962 53.4336 31.3529 53.4618C30.975 53.5352 30.4936 53.6705 30.2567 53.7721V55.9532L30.2563 55.953ZM28.8085 56.0816H28.3271C28.2255 56.0816 28.1992 56.0346 28.1992 55.9537V55.7431L28.1857 55.7356C27.9206 55.9199 27.4599 56.1417 27.0481 56.1417C26.1342 56.1417 26.0458 55.6002 26.0458 54.8894V52.8982C26.0458 52.8174 26.0797 52.7646 26.1737 52.7646H26.6682C26.7567 52.7646 26.7905 52.8115 26.7905 52.8982V54.8011C26.7905 55.2091 26.8713 55.4648 27.2851 55.4648C27.5765 55.4648 28.0222 55.2486 28.1989 55.1602V52.8982C28.1989 52.8174 28.2252 52.7646 28.3268 52.7646H28.8081C28.9022 52.7646 28.936 52.8115 28.936 52.8982V55.9537C28.936 56.0402 28.9022 56.0816 28.8081 56.0816M22.8779 51.7208C22.8779 51.6324 22.9193 51.5854 23.0133 51.5854H25.5047C25.5857 51.5854 25.6346 51.6324 25.6346 51.7133V52.1345C25.6346 52.2154 25.6007 52.2568 25.4992 52.2568H23.6508V53.4207H25.2886C25.3769 53.4207 25.424 53.4621 25.424 53.5429V53.9622C25.424 54.0431 25.3901 54.0843 25.2886 54.0843H23.6508V55.4175H25.5462C25.627 55.4175 25.6685 55.4589 25.6685 55.5473V55.9591C25.6685 56.0476 25.6346 56.0813 25.5387 56.0813H23.0134C22.9194 56.0813 22.878 56.0399 22.878 55.9591V51.721L22.8779 51.7208Z" fill="#5A5758"/>
<path d="M54.5235 63.2266H54.0365C53.948 63.2266 53.9067 63.1852 53.9067 63.0987L53.9142 61.1958C53.9142 60.7953 53.8201 60.5321 53.4272 60.5321C53.1564 60.5321 52.6825 60.7483 52.4983 60.8367V63.0988C52.4983 63.1797 52.4644 63.2266 52.3704 63.2266H51.889C51.795 63.2266 51.7612 63.1853 51.7612 63.0988V60.0432C51.7612 59.9567 51.795 59.9097 51.889 59.9097H52.3704C52.4644 59.9097 52.4983 59.9566 52.4983 60.0432V60.2482C52.5058 60.2482 52.5118 60.2542 52.5191 60.2542C52.7691 60.0793 53.2448 59.8481 53.6567 59.8481C54.5705 59.8481 54.6532 60.4516 54.6532 61.1342V63.0992C54.6532 63.1801 54.6251 63.227 54.5234 63.227M49.9063 60.491C49.3309 60.491 49.203 60.8576 49.203 61.5609C49.203 62.2792 49.3309 62.6308 49.8988 62.6308C50.5155 62.6308 50.6377 62.2848 50.6377 61.5609C50.6377 60.8426 50.523 60.491 49.9063 60.491M49.8988 63.2814C48.5393 63.2814 48.4509 62.2848 48.4509 61.5139C48.4509 60.8764 48.5919 59.8404 49.8988 59.8404C51.2132 59.8404 51.3955 60.7147 51.3955 61.5139C51.3955 62.2848 51.3015 63.2814 49.8988 63.2814M47.95 63.0981C47.95 63.1715 47.9237 63.2259 47.8277 63.2259H47.3463C47.2523 63.2259 47.211 63.1864 47.211 63.0981V60.0369C47.211 59.9429 47.2523 59.909 47.3463 59.909H47.8277C47.9237 59.909 47.95 59.9635 47.95 60.0369V63.0981ZM47.5909 59.4219C47.2392 59.4219 47.1922 59.2245 47.1922 59.0289C47.1922 58.8127 47.2657 58.6416 47.5909 58.6416C47.9237 58.6416 47.9914 58.7977 47.9914 59.0289C47.9914 59.2377 47.9294 59.4219 47.5909 59.4219ZM45.3911 63.2811C45.0526 63.2811 44.5995 63.2341 44.3419 63.1326C44.2065 63.0782 44.1783 63.016 44.199 62.9088L44.2459 62.6851C44.2667 62.576 44.3136 62.5705 44.4226 62.5835C44.7197 62.6305 45.1541 62.6645 45.3835 62.6645C45.8178 62.6645 45.9946 62.5497 45.9946 62.279C45.9946 61.9669 45.878 61.8992 45.4511 61.839C44.7874 61.743 44.2064 61.6021 44.2064 60.8631C44.2064 60.1937 44.7197 59.8421 45.4793 59.8421C45.7557 59.8421 46.2239 59.8817 46.5079 59.9906C46.6226 60.0375 46.6715 60.0921 46.6508 60.1936L46.5963 60.4362C46.5757 60.5322 46.5362 60.5453 46.4139 60.5322C46.1225 60.4983 45.7427 60.457 45.4926 60.457C45.0601 60.457 44.9586 60.5791 44.9586 60.8368C44.9586 61.1 45.1203 61.1339 45.5339 61.2016C46.177 61.2974 46.758 61.4254 46.758 62.232C46.758 63.0236 46.0886 63.2812 45.391 63.2812M42.5547 63.2811C42.2163 63.2811 41.7631 63.2342 41.5055 63.1326C41.3701 63.0782 41.3419 63.016 41.3626 62.9089L41.4095 62.6851C41.4303 62.576 41.4772 62.5705 41.5863 62.5836C41.8834 62.6305 42.3177 62.6645 42.5471 62.6645C42.9815 62.6645 43.1582 62.5497 43.1582 62.279C43.1582 61.9669 43.0417 61.8992 42.6148 61.839C41.9511 61.743 41.37 61.6021 41.37 60.8631C41.37 60.1938 41.8834 59.8421 42.643 59.8421C42.9194 59.8421 43.3876 59.8817 43.6715 59.9906C43.7863 60.0375 43.8351 60.0921 43.8144 60.1937L43.76 60.4362C43.7392 60.5322 43.6998 60.5453 43.5776 60.5322C43.2861 60.4983 42.9063 60.457 42.6562 60.457C42.2237 60.457 42.1222 60.5791 42.1222 60.8368C42.1222 61.1001 42.2839 61.1339 42.6976 61.2016C43.3407 61.2974 43.9217 61.4254 43.9217 62.232C43.9217 63.0237 43.2523 63.2813 42.5547 63.2813M40.8759 63.0982C40.8759 63.1716 40.8496 63.226 40.7536 63.226H40.2723C40.1782 63.226 40.1369 63.1865 40.1369 63.0982V60.037C40.1369 59.943 40.1782 59.9091 40.2723 59.9091H40.7536C40.8496 59.9091 40.8759 59.9636 40.8759 60.037V63.0982ZM40.5168 59.422C40.1652 59.422 40.1182 59.2246 40.1182 59.029C40.1182 58.8128 40.1916 58.6417 40.5168 58.6417C40.8496 58.6417 40.9173 58.7978 40.9173 59.029C40.9173 59.2378 40.8553 59.422 40.5168 59.422ZM39.4623 63.2267H38.9753C38.8795 63.2267 38.8455 63.1853 38.8455 63.0988V61.1752C38.8455 60.6732 38.7251 60.5322 38.3848 60.5322C38.1347 60.5322 37.7286 60.7277 37.5198 60.8368C37.5198 60.9045 37.5258 61.0267 37.5258 61.1809V63.0988C37.5258 63.1797 37.4995 63.2267 37.398 63.2267H36.9034C36.8151 63.2267 36.7887 63.1853 36.7887 63.0988V61.1414C36.7887 60.7277 36.6796 60.5322 36.3411 60.5322C36.1042 60.5322 35.7244 60.7014 35.4668 60.8368V63.0988C35.4668 63.1798 35.4329 63.2267 35.3389 63.2267H34.8519C34.7635 63.2267 34.7296 63.1853 34.7296 63.0988V60.0433C34.7296 59.9568 34.7635 59.9097 34.8519 59.9097H35.3314C35.433 59.9097 35.4668 59.9624 35.4668 60.0433V60.2407L35.4743 60.2483C35.7376 60.064 36.1099 59.8609 36.484 59.8478C36.8751 59.8478 37.2005 59.9287 37.4111 60.3216C37.7495 60.0715 38.1688 59.8478 38.6032 59.8478C39.4964 59.8478 39.5847 60.4306 39.5847 61.1076V63.0988C39.5847 63.1798 39.5564 63.2267 39.4624 63.2267M34.1553 63.2267H33.6684C33.5725 63.2267 33.5385 63.1853 33.5385 63.0988V61.1752C33.5385 60.6732 33.4182 60.5322 33.0778 60.5322C32.8278 60.5322 32.4216 60.7277 32.2129 60.8368C32.2129 60.9045 32.2189 61.0267 32.2189 61.1809V63.0988C32.2189 63.1798 32.1926 63.2267 32.0911 63.2267H31.5965C31.5082 63.2267 31.4818 63.1853 31.4818 63.0988V61.1414C31.4818 60.7277 31.3727 60.5322 31.0342 60.5322C30.7973 60.5322 30.4175 60.7014 30.1599 60.8368V63.0988C30.1599 63.1798 30.126 63.2267 30.032 63.2267H29.545C29.4566 63.2267 29.4227 63.1853 29.4227 63.0988V60.0433C29.4227 59.9568 29.4566 59.9097 29.545 59.9097H30.0245C30.1261 59.9097 30.1599 59.9624 30.1599 60.0433V60.2407L30.1674 60.2483C30.4307 60.064 30.803 59.8609 31.1772 59.8478C31.5682 59.8478 31.8935 59.9287 32.1042 60.3216C32.4426 60.0715 32.8619 59.8478 33.2963 59.8478C34.1895 59.8478 34.2778 60.4306 34.2778 61.1076V63.0988C34.2778 63.1798 34.2496 63.2267 34.1555 63.2267M27.5477 60.491C26.9723 60.491 26.8426 60.8577 26.8426 61.5609C26.8426 62.2792 26.9724 62.6308 27.5401 62.6308C28.1569 62.6308 28.2791 62.2849 28.2791 61.5609C28.2791 60.8426 28.1643 60.491 27.5477 60.491ZM27.5402 63.2814C26.1807 63.2814 26.0923 62.2849 26.0923 61.5139C26.0923 60.8765 26.2333 59.8404 27.5402 59.8404C28.8545 59.8404 29.0369 60.7148 29.0369 61.5139C29.0369 62.2849 28.9429 63.2814 27.5402 63.2814M24.6437 58.6832C24.9746 58.6832 25.5237 58.7301 25.8828 58.8788C25.9919 58.9277 26.0313 58.9823 26.0107 59.0894L25.9505 59.3677C25.9298 59.4486 25.8961 59.4824 25.7738 59.4692C25.4428 59.4278 25.0367 59.3809 24.6851 59.3809C23.7637 59.3809 23.6283 60.1255 23.6283 61.0055C23.6283 61.893 23.7976 62.5906 24.6851 62.5906C25.0762 62.5906 25.409 62.5492 25.7738 62.5022C25.9036 62.4886 25.9298 62.5229 25.958 62.6112L26.0107 62.8688C26.0388 62.9761 26.0047 63.0381 25.8959 63.0851C25.565 63.226 24.9746 63.2881 24.6436 63.2881C23.1337 63.2881 22.8159 62.1712 22.8159 61.0186C22.8159 59.8622 23.0998 58.6832 24.6436 58.6832" fill="#5A5758"/>
</svg>
