<?xml version="1.0" encoding="utf-8"?>
<!-- Generator: Adobe Illustrator 27.0.1, SVG Export Plug-In . SVG Version: 6.00 Build 0)  -->
<svg version="1.1" id="Capa_1" xmlns="http://www.w3.org/2000/svg" xmlns:xlink="http://www.w3.org/1999/xlink" x="0px" y="0px"
	 viewBox="0 0 1200 800" style="enable-background:new 0 0 1200 800;" xml:space="preserve">
	<style type="text/css">
	.st0{fill:#191919; fill-opacity:0.6; }
	.st1{fill:#FFFFFF;}
</style>
	<ellipse id="ellipse16836" class="st0" cx="230.9" cy="388.2" rx="90.8" ry="105.8"/>
	<path id="path16838" class="st1" d="M167.6,440.9c-8.7-14.9-13.8-33.1-13.8-52.7c0-19.6,5.1-37.7,13.8-52.7V440.9z"/>
	<path id="path16840" class="st1" d="M187.1,312.3c5-4.2,10.5-7.6,16.3-10.3v172.3c-5.8-2.6-11.2-6.1-16.3-10.3V312.3z"/>
	<path id="path16842" class="st1" d="M222.8,296.4c2.7-0.3,5.4-0.5,8.1-0.5c2.8,0,5.5,0.2,8.1,0.5v183.5c-2.7,0.3-5.4,0.5-8.1,0.5
	s-5.4-0.2-8.1-0.5V296.4z"/>
	<path id="path16844" class="st1" d="M258.6,302c5.8,2.7,11.2,6.1,16.3,10.3v151.7c-5,4.2-10.5,7.6-16.3,10.3V302z"/>
	<path id="path16846" class="st1" d="M294.3,335.6c8.7,14.9,13.8,33,13.8,52.6s-5.1,37.7-13.8,52.6V335.6z"/>
	<path id="path16848" class="st1" d="M147.8,388.2c0-24.3,7.5-46.4,19.8-63.6v5.8c-10.3,16-16.5,36.1-16.5,57.8s6.1,41.8,16.5,57.8
	v5.8C155.3,434.6,147.8,412.4,147.8,388.2L147.8,388.2z"/>
	<path id="path16850" class="st1" d="M294.3,445.9c10.3-16,16.5-36,16.5-57.7c0-21.7-6.1-41.7-16.5-57.7v-5.8
	c12.3,17.1,19.7,39.3,19.7,63.5c0,24.2-7.4,46.4-19.7,63.5V445.9z"/>
	<path id="path16852" class="st0" d="M319.4,482.9c0.6-2.7,1.9-5.4,3.4-7.5c-1.9-0.9-3.4-1.6-5.1-3c3.6-5.4,4.5-9.2,5.1-15.7l-0.3-37
	c-2.4,10.8-8.1,24.9-13.1,32.2c-1.4,2.2-2.1,3.5-3,5c-0.5,0.8-3.4,5.6-3.4,11.5c-2,0.4-3.9,0.3-6.3,0.2c0.3,2.5,0.5,2.9-0.2,7.1
	c-8.9,0.7-11.6,6.1-22.2,11.8c-5.2,2.8-8.6,4.1-16.3,6.9c18.1-0.2,31.3,2.3,42.7-5.3c1.3,1.7,2.2,3.4,3.1,5.4
	c1.6-1.2,4.6-2.8,7.2-3.4c2.9,2.9,6.8,4,11.8,3.6C323.6,490.6,322.5,485.6,319.4,482.9L319.4,482.9z"/>
	<path id="path16854" class="st1" d="M320.8,476.1c-1.4,0.6-8,3-8,3l-0.1,0.1c0-0.6-0.2-1.1-0.4-1.7l0-0.1c2.5-1.5,4.2-3.7,4.2-4
	c0,0,0,0,0,0v0C316.6,473.6,318.8,475.7,320.8,476.1L320.8,476.1z"/>
	<path id="path16856" class="st1" d="M315.3,444.8c6.6-14.6,5-14,6.5-20.1c-0.2,2.9-0.4,6.6-0.8,9.3c-2.9,15.9-7,27.7-12,40.8
	c0,0-1.4-0.1-2,0c-1.2-1.4-1.6-3.3-1.6-3.3C303.1,461.9,310.3,455.9,315.3,444.8L315.3,444.8z"/>
	<path id="path16858" class="st1" d="M298.7,470.5l6.1,5.1v0c-0.2,0.1-0.4,0.3-0.6,0.5c-0.3,0.3-0.6,0.6-0.8,1l0,0.1
	c-3.1-1.5-5.3-1.6-5.3-1.6C299.1,472.2,298.7,470.5,298.7,470.5L298.7,470.5z"/>
	<path id="path16860" class="st1" d="M270.8,492.7c-3.1,0.7-5.6,0.7-7.5,0.8l6.6-2c14.3-5.3,17.9-13.6,27.5-13.8
	c2.2,0,4.1,0.6,5.8,1.6v0.3c-0.1,0.6,0,1.2,0.2,1.8v0.1C296.5,484.6,281.4,490.2,270.8,492.7L270.8,492.7z"/>
	<path id="path16862" class="st1" d="M304.6,492.3c-0.4-1-0.9-2.7-2.4-4.3c2-1.7,2.4-2.6,3.1-4.2l0,0c0.6,0.4,1.3,0.6,2,0.6h0.1
	L304.6,492.3z"/>
	<path id="path16864" class="st1" d="M105,256.5"/>
	<path id="path16866" class="st1" d="M311.9,489.4c-1.4-1.7-2.1-3-2.6-5.3c0.7-0.2,1.6-0.6,2.1-1.4l9.9,10
	C317.5,493.1,314.3,492.3,311.9,489.4z"/>
	<path id="path16868" class="st0" d="M322.8,281.6c-5-0.5-8.9,0.7-11.8,3.6c-2.5-0.6-5.6-2.2-7.2-3.4c-0.8,2-1.8,3.7-3.1,5.4
	c-11.4-7.6-24.6-5-42.7-5.3c7.8,2.8,11.2,4.1,16.3,6.9c10.6,5.7,13.2,11.1,22.2,11.8c0.7,4.2,0.5,4.5,0.2,7.1
	c2.4-0.2,4.2-0.3,6.3,0.2c-0.1,5.9,2.8,10.7,3.4,11.5c0.9,1.4,1.5,2.8,3,5c5,7.4,10.7,21.5,13.1,32.2l0.3-37
	c-0.6-6.5-1.5-10.3-5.1-15.7c1.6-1.4,3.2-2.1,5.1-3c-1.4-2.2-2.7-4.9-3.4-7.5C322.5,290.6,323.6,285.6,322.8,281.6z"/>
	<path id="path16870" class="st1" d="M320.8,300.1c-1.4-0.6-8-3-8-3l-0.1-0.1c0,0.6-0.2,1.1-0.4,1.7l0,0.1c2.5,1.5,4.2,3.7,4.2,4
	c0,0,0,0,0,0v0C316.6,302.5,318.8,300.6,320.8,300.1L320.8,300.1z"/>
	<path id="path16872" class="st1" d="M315.3,331.4c6.6,14.6,5,14,6.5,20.1c-0.2-2.9-0.4-6.6-0.8-9.3c-2.9-15.9-7-27.7-12-40.8
	c0,0-1.4,0.1-2,0c-1.2,1.4-1.6,3.3-1.6,3.3C303.1,314.3,310.3,320.3,315.3,331.4z"/>
	<path id="path16874" class="st1" d="M298.7,305.7l6.1-5.1v0c-0.2-0.1-0.4-0.3-0.6-0.5c-0.3-0.3-0.6-0.6-0.8-1l0-0.1
	c-3.1,1.5-5.3,1.6-5.3,1.6C299.1,303.9,298.7,305.7,298.7,305.7L298.7,305.7z"/>
	<path id="path16876" class="st1" d="M270.8,283.5c-3.1-0.7-5.6-0.7-7.5-0.8l6.6,2c14.3,5.3,17.9,13.6,27.5,13.8
	c2.2,0,4.1-0.6,5.8-1.6v-0.3c-0.1-0.6,0-1.2,0.2-1.8v-0.1C296.5,291.6,281.4,286,270.8,283.5L270.8,283.5z"/>
	<path id="path16878" class="st1" d="M304.6,284c-0.4,1-0.9,2.7-2.4,4.3c2,1.7,2.4,2.6,3.1,4.2l0,0c0.6-0.4,1.3-0.6,2-0.6h0.1
	L304.6,284z"/>
	<circle id="ellipse16880" class="st1" cx="307.8" cy="296.7" r="2.8"/>
	<path id="path16882" class="st1" d="M311.9,286.8c-1.4,1.7-2.1,3-2.6,5.3c0.7,0.2,1.6,0.6,2.1,1.4l9.9-10.1
	C317.5,283.1,314.3,284,311.9,286.8z"/>
	<path id="path16884" class="st0" d="M138.7,494.6c5,0.5,8.9-0.7,11.8-3.6c2.5,0.7,5.6,2.2,7.2,3.4c0.8-2,1.8-3.7,3.1-5.4
	c11.4,7.6,24.6,5,42.7,5.3c-7.8-2.8-11.2-4.1-16.3-6.9c-10.6-5.7-13.2-11.1-22.2-11.8c-0.7-4.2-0.5-4.5-0.2-7.1
	c-2.4,0.2-4.2,0.3-6.3-0.2c0.1-5.9-2.8-10.7-3.4-11.5c-0.9-1.4-1.5-2.8-3-5c-5-7.4-10.7-21.5-13.1-32.2l-0.3,37
	c0.6,6.5,1.5,10.3,5.1,15.7c-1.6,1.4-3.2,2.1-5.1,3c1.4,2.2,2.7,4.9,3.4,7.5C139,485.6,138,490.6,138.7,494.6L138.7,494.6z"/>
	<path id="path16886" class="st1" d="M140.8,476.1c1.4,0.6,8,3,8,3l0.1,0.1c0-0.6,0.2-1.1,0.4-1.7l0-0.1c-2.5-1.5-4.2-3.7-4.2-4
	c0,0,0,0,0,0v0C144.9,473.6,142.8,475.7,140.8,476.1z"/>
	<path id="path16888" class="st1" d="M146.2,444.8c-6.6-14.6-5-14-6.5-20.1c0.2,2.9,0.4,6.6,0.8,9.3c2.9,15.9,7,27.7,12,40.8
	c0,0,1.4-0.1,2,0c1.2-1.4,1.6-3.3,1.6-3.3C158.4,461.9,151.2,455.9,146.2,444.8L146.2,444.8z"/>
	<path id="path16890" class="st1" d="M162.8,470.5l-6.1,5.1l0,0c0.2,0.1,0.4,0.3,0.6,0.5c0.3,0.3,0.6,0.6,0.8,1l0,0.1
	c3.1-1.5,5.3-1.6,5.3-1.6C162.4,472.2,162.8,470.5,162.8,470.5z"/>
	<path id="path16892" class="st1" d="M190.8,492.7c3.1,0.7,5.6,0.7,7.5,0.8l-6.6-2c-14.3-5.3-17.9-13.6-27.5-13.8
	c-2.2,0-4.1,0.6-5.8,1.6v0.3c0,0.6,0,1.2-0.2,1.8v0.1C165,484.6,180.2,490.2,190.8,492.7z"/>
	<path id="path16894" class="st1" d="M157,492.3c0.4-1,0.9-2.7,2.4-4.3c-2-1.7-2.4-2.6-3.1-4.2l0,0c-0.6,0.4-1.3,0.6-2,0.6h-0.1
	L157,492.3z"/>
	<path id="path16896" class="st1" d="M105,256.5"/>
	<path id="path16898" class="st1" d="M149.6,489.4c1.4-1.7,2.1-3,2.6-5.3c-0.7-0.2-1.6-0.6-2.1-1.4l-9.9,10
	C144,493.1,147.2,492.3,149.6,489.4z"/>
	<path id="path16900" class="st0" d="M142.2,293.3c-0.6,2.7-1.9,5.4-3.4,7.5c1.9,0.9,3.4,1.6,5.1,3c-3.6,5.4-4.5,9.2-5.1,15.7l0.3,37
	c2.4-10.8,8.1-24.9,13.1-32.2c1.4-2.2,2.1-3.5,3-5c0.5-0.8,3.4-5.6,3.4-11.5c2-0.4,3.9-0.3,6.3-0.2c-0.3-2.5-0.4-2.9,0.2-7.1
	c8.9-0.7,11.6-6.1,22.2-11.8c5.2-2.8,8.6-4.1,16.3-6.9c-18.1,0.2-31.3-2.3-42.7,5.3c-1.3-1.7-2.2-3.4-3.1-5.4
	c-1.6,1.2-4.6,2.8-7.2,3.4c-2.9-2.9-6.8-4-11.8-3.6C138,285.6,139,290.6,142.2,293.3z"/>
	<path id="path16902" class="st1" d="M140.8,300.1c1.4-0.6,8-3,8-3l0.1-0.1c0,0.6,0.2,1.1,0.4,1.7l0,0.1c-2.5,1.5-4.2,3.7-4.2,4
	c0,0,0,0,0,0v0C144.9,302.5,142.8,300.6,140.8,300.1z"/>
	<path id="path16904" class="st1" d="M146.2,331.4c-6.6,14.6-5,14-6.5,20.1c0.2-2.9,0.4-6.6,0.8-9.3c2.9-15.9,7-27.7,12-40.8
	c0,0,1.4,0.1,2,0c1.2,1.4,1.6,3.3,1.6,3.3C158.4,314.3,151.2,320.3,146.2,331.4z"/>
	<path id="path16906" class="st1" d="M162.8,305.7l-6.1-5.1l0,0c0.2-0.1,0.4-0.3,0.6-0.5c0.3-0.3,0.6-0.6,0.8-1l0-0.1
	c3.1,1.5,5.3,1.6,5.3,1.6C162.4,303.9,162.8,305.7,162.8,305.7z"/>
	<path id="path16908" class="st1" d="M190.8,283.5c3.1-0.7,5.6-0.7,7.5-0.8l-6.6,2c-14.3,5.3-17.9,13.6-27.5,13.8
	c-2.2,0-4.1-0.6-5.8-1.6v-0.3c0-0.6,0-1.2-0.2-1.8v-0.1C165,291.6,180.2,286,190.8,283.5z"/>
	<path id="path16910" class="st1" d="M157,284c0.4,1,0.9,2.7,2.4,4.3c-2,1.7-2.4,2.6-3.1,4.2l0,0c-0.6-0.4-1.3-0.6-2-0.6h-0.1
	L157,284z"/>
	<circle id="ellipse16912" class="st1" cx="153.7" cy="296.7" r="2.8"/>
	<path id="path16914" class="st1" d="M149.6,286.8c1.4,1.7,2.1,3,2.6,5.3c-0.7,0.2-1.6,0.6-2.1,1.4l-9.9-10.1
	C144,283.1,147.2,284,149.6,286.8z"/>
	<path id="path16916" class="st1" d="M274.9,304.8v4.1c-5-3.9-10.5-7.3-16.3-9.8v-3.6C264.4,297.9,269.8,301.1,274.9,304.8z"/>
	<path id="path16918" class="st1" d="M230.9,290c2.8,0,5.5,0.2,8.1,0.5v3.4c-2.7-0.3-5.4-0.5-8.1-0.5s-5.4,0.2-8.1,0.5v-3.3
	C225.5,290.1,228.2,290,230.9,290z"/>
	<path id="path16920" class="st1" d="M203.4,295.5v3.6c-5.8,2.5-11.2,5.8-16.3,9.8v-4.1C192.2,301,197.6,297.9,203.4,295.5z"/>
	<path id="path16922" class="st1" d="M187.1,471.6v-4.1c5,3.9,10.5,7.3,16.3,9.8v3.6C197.6,478.5,192.2,475.3,187.1,471.6
	L187.1,471.6z"/>
	<path id="path16924" class="st1" d="M230.9,486.4c-2.8,0-5.4-0.2-8.1-0.5v-3.4c2.7,0.3,5.4,0.5,8.1,0.5c2.8,0,5.5-0.2,8.1-0.5v3.3
	C236.4,486.2,233.7,486.4,230.9,486.4L230.9,486.4z"/>
	<path id="path16926" class="st1" d="M258.6,480.8v-3.6c5.8-2.5,11.2-5.8,16.3-9.8v4.1C269.8,475.3,264.4,478.4,258.6,480.8z"/>
	<g id="g16978">
		<g id="g16952">
			<path id="path16930" class="st0" d="M419.9,339.4h33.6v43.3h-11.2l-1.7-10.1c-4.2,4.9-10.4,12.2-25.1,12.2
			c-19.3,0-36.9-13.9-36.9-42.1c0-21.9,12.2-42.6,39.3-42.5c24.6,0,34.4,16,35.2,27.1h-16.8c0-3.1-5.7-13.2-17.6-13.2
			c-12,0-23.1,8.3-23.1,28.9c0,21.9,12,27.7,23.4,27.7c3.7,0,16-1.4,19.5-17.7h-18.7L419.9,339.4L419.9,339.4z"/>
			<path id="path16932" class="st0" d="M503,365.2c-1.2,4.2-5.7,6.5-10.1,6.5c-12.6,0-13.5-10.1-14-14.5h40.8v-2.8
			c0-27.2-16.2-32.8-28-32.8c-26.1,0-28.5,22.9-28.5,30.1c0,24.5,12.9,32.6,29.6,32.6c10.2,0,22.1-4.7,26.2-19L503,365.2z
			 M479.4,347c0.9-7.8,4.8-12.6,12.2-12.6c5,0,11.2,2.9,12.1,12.6H479.4z"/>
			<path id="path16934" class="st0" d="M584.1,382.7h-15.7v-36.1c0-4.4-0.2-11.7-10.2-11.7c-7,0-12.3,4.7-12.3,13.8v34.1h-15.7v-59.6
			h15v8.7h0.2c2.1-3.6,6.6-10.3,17.9-10.3c11.6,0,20.7,6.8,20.7,19.9L584.1,382.7L584.1,382.7z"/>
			<path id="path16936" class="st0" d="M633.7,365.2c-1.2,4.2-5.7,6.5-10.1,6.5c-12.6,0-13.5-10.1-14-14.5h40.8v-2.8
			c0-27.2-16.2-32.8-28-32.8c-26.1,0-28.5,22.9-28.5,30.1c0,24.5,12.9,32.6,29.6,32.6c10.2,0,22.1-4.7,26.2-19L633.7,365.2z
			 M610.1,347c0.9-7.8,4.8-12.6,12.2-12.6c5,0,11.2,2.9,12.1,12.6H610.1z"/>
			<path id="path16938" class="st0" d="M660.7,323.2h15v10.3h0.2c3.2-6.1,6.8-11.9,16.3-11.9c1,0,2,0.1,3,0.2v15.9
			c-1.4-0.2-3-0.2-4.5-0.2c-12.2,0-14.4,7.6-14.4,14.2v31h-15.7V323.2z"/>
			<path id="path16940" class="st0" d="M752.6,338.8c0-14.7-15.4-17.2-23.7-17.2c-12.2,0-24.9,2.6-26.6,20.8h15.1
			c0.5-3.5,1.8-8.3,9.6-8.3c4,0,10.3,0.3,10.3,7c0,3.4-3,4.4-5.5,4.7l-14.1,2.1c-10,1.4-17.3,7.4-17.3,19c0,12.3,9.2,17.3,18.2,17.3
			c10.6,0,15.7-4.9,19.3-8.6c0.3,3.4,0.6,4.2,1.4,7h16.9v-2.4c-1.9-0.7-3.5-2.2-3.5-9.3V338.8z M737.3,361.3c0,7.3-7,11.7-14,11.7
			c-3,0-7.3-1.7-7.3-7.2c0-6.5,4.8-7.9,10.6-8.9c6.5-1,9.1-2,10.6-3.3V361.3z"/>
			<path id="rect16942" class="st0" d="M767.1,302.3h15.7v80.4h-15.7V302.3z"/>
			<path id="path16944" class="st0" d="M813.8,316.1h-15.7v-14.5h15.7V316.1z M813.8,323.2v59.5h-15.7v-59.5H813.8z"/>
			<path id="path16946" class="st0" d="M846.4,323.2h9.8v11.2h-9.8v32.4c0,3.5,0.1,4.8,6.5,4.8c1,0,2.1-0.1,3.3-0.2v11.9
			c-2.5,0.1-4.9,0.2-7.4,0.2h-2c-13.5,0-16-5.1-16-12.9v-36.1h-8.1v-11.2h8.1V307h15.7V323.2z"/>
			<path id="path16948" class="st0" d="M914.4,338.8c0-14.7-15.4-17.2-23.7-17.2c-12.2,0-24.9,2.6-26.6,20.8h15.1
			c0.5-3.5,1.8-8.3,9.6-8.3c4,0,10.3,0.3,10.3,7c0,3.4-3,4.4-5.5,4.7l-14.1,2.1c-10,1.4-17.3,7.4-17.3,19c0,12.3,9.2,17.3,18.2,17.3
			c10.6,0,15.7-4.9,19.3-8.6c0.3,3.4,0.6,4.2,1.4,7h16.9v-2.4c-1.9-0.7-3.5-2.2-3.5-9.3V338.8z M899,361.3c0,7.3-7,11.7-14,11.7
			c-3,0-7.3-1.7-7.3-7.2c0-6.5,4.8-7.9,10.6-8.9c6.5-1,9.1-2,10.6-3.3V361.3z"/>
			<path id="path16950" class="st0" d="M945.9,323.2h9.8v11.2h-9.8v32.4c0,3.5,0.1,4.8,6.5,4.8c1,0,2.1-0.1,3.2-0.2v11.9
			c-2.5,0.1-4.9,0.2-7.4,0.2h-2c-13.5,0-16-5.1-16-12.9v-36.1h-8.1v-11.2h8.1V307h15.7L945.9,323.2L945.9,323.2z"/>
		</g>
		<path id="path16954" class="st0" d="M435.4,414.3h-15.7v28.5h-0.2c-2.5-3.8-7.2-9.3-17.2-9.3c-13.1,0-24.7,10.1-24.7,30.7
		c0,16.3,7.4,32,25.1,32c6.5,0,13.4-2.3,17.2-9.1h0.2v7.5h15.4V414.3z M393.6,465.3c0-9.4,3.4-18.2,13.3-18.2
		c10.7,0,13.4,9.6,13.4,19.1c0,8.8-3.9,17.1-13.9,17.1C396.4,483.3,393.6,472.4,393.6,465.3z"/>
		<path id="path16956" class="st0" d="M484.3,477.2c-1.2,4.2-5.7,6.5-10.1,6.5c-12.6,0-13.5-10.1-14-14.5h40.8v-2.8
		c0-27.2-16.2-32.8-28-32.8c-26.1,0-28.5,22.9-28.5,30.1c0,24.5,12.9,32.6,29.6,32.6c10.2,0,22.1-4.7,26.2-19H484.3z M460.8,458.9
		c0.9-7.8,4.8-12.6,12.2-12.6c5,0,11.2,2.9,12.1,12.6H460.8z"/>
		<g id="g16976">
			<path id="path16958" class="st0" d="M595.2,440.6c-1.4-4.8-3.9-13.9-17.8-13.9c-8.1,0-19.9,5.4-19.9,28.1
			c0,14.4,5.7,27.4,19.9,27.4c9.3,0,15.8-5.3,17.8-15.1H612c-3.4,17.5-14.8,29.6-34.9,29.6c-21.4,0-36.7-14.4-36.7-42.2
			c0-28.1,16.2-42.4,36.9-42.4c24,0,33.8,16.6,34.7,28.4H595.2z"/>
			<path id="path16960" class="st0" d="M671.7,450.7c0-14.7-15.4-17.2-23.7-17.2c-12.2,0-24.9,2.6-26.6,20.8h15.1
			c0.5-3.5,1.8-8.3,9.6-8.3c4,0,10.3,0.3,10.3,7c0,3.4-3,4.4-5.5,4.7l-14.1,2.1c-10,1.4-17.3,7.4-17.3,19c0,12.3,9.2,17.3,18.1,17.3
			c10.6,0,15.7-4.9,19.3-8.6c0.3,3.4,0.6,4.2,1.4,7h16.9v-2.3c-1.9-0.7-3.5-2.2-3.5-9.3V450.7z M656.4,473.3c0,7.3-7,11.7-14,11.7
			c-3,0-7.3-1.7-7.3-7.2c0-6.5,4.8-7.9,10.6-8.9c6.5-1,9.1-2,10.6-3.3V473.3z"/>
			<path id="path16962" class="st0" d="M703.3,435.1h9.8v11.2h-9.8v32.4c0,3.5,0.1,4.8,6.5,4.8c1,0,2.1-0.1,3.2-0.2v11.9
			c-2.5,0.1-4.9,0.2-7.4,0.2h-2c-13.5,0-16-5.1-16-12.9v-36.1h-8.1v-11.2h8.1V419h15.7L703.3,435.1z"/>
			<path id="path16964" class="st0" d="M771.2,450.7c0-14.7-15.4-17.2-23.7-17.2c-12.2,0-24.9,2.6-26.6,20.8H736
			c0.5-3.5,1.8-8.3,9.6-8.3c4,0,10.3,0.3,10.3,7c0,3.4-3,4.4-5.5,4.7l-14.1,2.1c-10,1.4-17.3,7.4-17.3,19c0,12.3,9.2,17.3,18.2,17.3
			c10.6,0,15.7-4.9,19.3-8.6c0.3,3.4,0.6,4.2,1.4,7h16.9v-2.3c-1.9-0.7-3.5-2.2-3.5-9.3V450.7z M755.9,473.3c0,7.3-7,11.7-14,11.7
			c-3,0-7.3-1.7-7.3-7.2c0-6.5,4.8-7.9,10.6-8.9c6.5-1,9.1-2,10.6-3.3V473.3z"/>
			<path id="rect16966" class="st0" d="M785.6,414.3h15.7v80.4h-15.7V414.3z"/>
			<path id="path16968" class="st0" d="M870,494.6h-15v-8.4h-0.2c-3.6,6.4-9.8,10-18.1,10c-11.7,0-20.3-6.7-20.3-21.9v-39.2h15.7V472
			c0,9.2,5.4,11,10.2,11c5.1,0,12.1-2.9,12.1-13.5v-34.4H870L870,494.6L870,494.6z"/>
			<path id="path16970" class="st0" d="M938.5,494.6h-15.7v-36.1c0-4.4-0.2-11.7-10.2-11.7c-7,0-12.3,4.7-12.3,13.8v34.1h-15.7v-59.6
			h15v8.7h0.2c2.1-3.6,6.6-10.3,17.9-10.3c11.6,0,20.7,6.8,20.7,19.9L938.5,494.6L938.5,494.6z"/>
			<path id="path16972" class="st0" d="M983.5,493.6c-7.4,22.1-9.4,24.9-23.1,24.9c-2.1,0-4.8-0.1-7-0.2v-12.6c0.7,0.1,1.7,0.2,3,0.2
			c5.7,0,8.8-0.8,10.3-8.9l-21.9-62h17.5l12.8,43.9h0.2l12.2-43.9h16.6L983.5,493.6z"/>
			<path id="path16974" class="st0" d="M1058,450.7c0-14.7-15.3-17.2-23.7-17.2c-12.2,0-24.9,2.6-26.6,20.8h15.1
			c0.5-3.5,1.8-8.3,9.6-8.3c4,0,10.3,0.3,10.3,7c0,3.4-3,4.4-5.5,4.7l-14.1,2.1c-10,1.4-17.3,7.4-17.3,19c0,12.3,9.2,17.3,18.2,17.3
			c10.6,0,15.7-4.9,19.3-8.6c0.3,3.4,0.6,4.2,1.4,7h16.9v-2.3c-1.9-0.7-3.5-2.2-3.5-9.3L1058,450.7L1058,450.7z M1042.7,473.3
			c0,7.3-7,11.7-14,11.7c-3,0-7.3-1.7-7.3-7.2c0-6.5,4.8-7.9,10.6-8.9c6.5-1,9.1-2,10.6-3.3L1042.7,473.3z"/>
		</g>
	</g>
</svg>