<svg width="140" height="61" viewBox="0 0 140 61" fill="none" xmlns="http://www.w3.org/2000/svg">
<path fill-rule="evenodd" clip-rule="evenodd" d="M76.0745 25.2734H65.2989C64.7317 28.1439 63.7911 33.0546 63.3262 35.4538H67.9035C68.2535 33.6491 69.2121 28.699 69.6375 26.5319H73.0696C74.5128 26.5319 75.5486 27.4048 75.308 28.9043C75.0801 30.0896 74.5254 32.9475 74.0371 35.4538H78.6163C78.9412 33.7704 79.5748 30.5055 79.8728 28.9686C80.2803 26.8836 79.0543 25.2734 76.0745 25.2734Z" fill="#191919" fill-opacity="0.6"/>
<path fill-rule="evenodd" clip-rule="evenodd" d="M51.665 33.3789C49.4754 33.0568 49.8838 30.7129 49.8838 30.7129C51.8276 30.9215 54.2777 30.8739 55.9518 30.7238C57.4004 30.5958 60.2607 30.2737 61.0774 28.2792C61.8868 26.3012 61.2715 24.702 58.6033 24.2555C56.641 23.9316 54.8173 23.9133 52.4337 24.2006C49.0319 24.6086 47.1602 25.6388 46.3287 27.4485C45.8723 28.4476 45.597 29.6315 45.475 30.7092C45.2588 32.6653 45.6709 34.4603 48.4093 34.6561C52.0789 34.9196 54.9669 34.861 58.025 34.4329L58.9784 33.216C56.0756 33.6479 52.7681 33.5436 51.665 33.3789ZM50.7411 27.5679C51.325 26.3236 52.186 25.5423 53.7936 25.2129C54.505 25.0647 55.1129 25.0684 55.9647 25.233C57.2267 25.4746 57.6147 26.792 57.0586 27.8185C56.4396 28.9677 55.6118 29.2238 54.529 29.4215C53.3538 29.6392 51.8072 29.6703 50.1055 29.566C50.2256 28.9292 50.5231 28.0326 50.7411 27.5679Z" fill="#191919" fill-opacity="0.6"/>
<path fill-rule="evenodd" clip-rule="evenodd" d="M97.6973 33.3789C95.5073 33.0568 95.9157 30.7129 95.9157 30.7129C97.8617 30.9215 100.31 30.8739 101.985 30.7238C103.434 30.5958 106.294 30.2737 107.109 28.2792C107.917 26.3012 107.303 24.702 104.637 24.2555C102.67 23.9316 100.846 23.9133 98.4642 24.2006C95.0619 24.6086 93.1936 25.6388 92.3601 27.4485C91.8999 28.4476 91.6246 29.6315 91.5063 30.7092C91.2901 32.6653 91.7022 34.4603 94.4391 34.6561C98.1094 34.9196 100.998 34.861 104.062 34.4329L105.012 33.216C102.109 33.6479 98.8042 33.5436 97.6973 33.3789ZM96.7803 27.5679C97.3605 26.3236 98.2199 25.5423 99.8259 25.2129C100.539 25.0647 101.149 25.0684 101.999 25.233C103.263 25.4746 103.648 26.792 103.099 27.8185C102.476 28.9677 101.652 29.2238 100.567 29.4215C99.3916 29.6392 97.8466 29.6703 96.1445 29.566C96.2591 28.9292 96.5585 28.0326 96.7803 27.5679Z" fill="#191919" fill-opacity="0.6"/>
<path fill-rule="evenodd" clip-rule="evenodd" d="M37.7558 28.7838C37.9924 27.5631 38.4709 26.8563 39.9379 26.616C41.2507 26.4003 43.6816 26.5424 45.1066 26.6862L46.0653 25.448C43.9042 25.3077 40.2551 25.1463 38.0923 25.4304C35.0076 25.8356 33.7509 26.4038 33.4021 28.1875C33.1953 29.2556 32.2629 34.0823 32 35.4538H36.4693C36.7761 33.8613 37.5385 29.9133 37.7558 28.7838Z" fill="#191919" fill-opacity="0.6"/>
<path fill-rule="evenodd" clip-rule="evenodd" d="M88.1373 18.434C85.4812 20.1135 84.5794 22.1752 84.0899 24.7072L82.1084 34.9284C81.6648 37.2536 81.4668 38.4666 81.0287 39.6082C80.6768 40.565 79.5201 41.97 77.5954 41.9938L76.754 43.075C79.2378 43.1848 81.2249 42.5371 82.629 41.6517C85.2869 39.9741 86.2658 37.572 86.7589 35.0455C86.7919 34.8717 87.6553 30.3987 88.0695 28.2783C88.3701 26.7745 89.2464 25.9494 91.0886 25.9256L91.9446 24.828H88.7368C89.1932 22.4826 89.3563 21.4691 89.7303 20.494C90.0969 19.5372 91.2407 18.1321 93.1599 18.112L94.016 17.0125C91.5267 16.9009 89.5415 17.5485 88.1373 18.434Z" fill="#191919" fill-opacity="0.6"/>
</svg>
