<svg width="62" height="62" viewBox="0 0 62 62" fill="none" xmlns="http://www.w3.org/2000/svg">
<path d="M55.0477 55.8653C55.2989 55.8653 55.4797 55.8852 55.6003 55.9349C55.8113 56.0244 55.9118 56.1934 55.9118 56.4519C55.9118 56.6309 55.8414 56.7701 55.7108 56.8496C55.6405 56.8993 55.54 56.9291 55.4195 56.949C55.5802 56.9788 55.6907 57.0385 55.7711 57.1479C55.8414 57.2572 55.8816 57.3567 55.8816 57.4561V57.6052C55.8816 57.6549 55.8816 57.7046 55.8917 57.7543C55.8917 57.8041 55.9017 57.8438 55.9118 57.8637L55.9218 57.8935H55.5903C55.5903 57.8836 55.5903 57.8836 55.5802 57.8737C55.5802 57.8637 55.5802 57.8637 55.5702 57.8538L55.5601 57.7941V57.635C55.5601 57.3964 55.4998 57.2473 55.3692 57.1678C55.2888 57.128 55.1582 57.1081 54.9673 57.1081H54.686V57.9035H54.3243V55.8753M55.4295 56.1835C55.3391 56.1338 55.1984 56.1039 54.9975 56.1039H54.6961V56.8397H55.0176C55.1683 56.8397 55.2788 56.8198 55.3592 56.7899C55.4998 56.7402 55.5702 56.6309 55.5702 56.4718C55.5601 56.3425 55.5199 56.2431 55.4295 56.1835ZM56.384 58.2017C56.0223 58.5597 55.5903 58.7486 55.0779 58.7486C54.5655 58.7486 54.1334 58.5696 53.7717 58.2017C53.4101 57.8438 53.2393 57.4064 53.2393 56.8894C53.2393 56.3823 53.4201 55.9448 53.7818 55.5869C54.1435 55.229 54.5755 55.05 55.0879 55.05C55.6003 55.05 56.0323 55.229 56.394 55.5869C56.7557 55.9448 56.9366 56.3823 56.9366 56.8894C56.9265 57.3964 56.7457 57.8339 56.384 58.2017ZM53.9526 55.7659C53.6411 56.0741 53.4904 56.4519 53.4904 56.8894C53.4904 57.3268 53.6411 57.7046 53.9526 58.0228C54.2641 58.331 54.6358 58.4901 55.0779 58.4901C55.5199 58.4901 55.8917 58.331 56.2031 58.0228C56.5146 57.7146 56.6653 57.3368 56.6653 56.8894C56.6653 56.4519 56.5146 56.0741 56.2031 55.7659C55.8917 55.4577 55.5199 55.2986 55.0779 55.2986C54.6458 55.2986 54.2641 55.4477 53.9526 55.7659Z" fill="#191919" fill-opacity="0.6"/>
<path d="M30.995 1.83932C14.9198 1.83932 1.8386 14.9134 1.8386 30.9901C1.8386 47.0667 14.9198 60.1408 30.9849 60.1408V61.0654L30.995 60.1408C47.0702 60.1408 60.1514 47.0667 60.1514 30.9901C60.1514 14.9233 47.0702 1.83932 30.995 1.83932ZM30.995 62C13.905 62 0 48.0908 0 31C0 13.9092 13.905 0 31.005 0C48.105 0 62 13.9092 62 31C62 48.0908 48.095 62 30.995 62Z" fill="#191919" fill-opacity="0.6"/>
<path d="M40.6702 50.7648V24.0599C40.6702 22.0019 41.5242 20.8386 43.3729 20.2122L47.5122 18.8104V22.6183L45.5933 23.2645C44.6589 23.5827 44.3474 24.1494 44.3474 25.2033V35.3941L47.03 34.4893V38.3072L45.7842 38.7248C44.8398 39.0429 44.3474 39.4903 44.3474 40.584V49.5221M48.7581 48.0208V21.3158C48.7581 19.2478 49.6121 18.0945 51.4607 17.4682L55.0877 16.2353V20.0432L53.6811 20.5205C52.7467 20.8386 52.4353 21.4053 52.4353 22.4592V32.65L55.1178 31.7453V35.5631L53.872 35.9807C52.9276 36.2988 52.4353 36.7462 52.4353 37.8399V46.778L48.7581 48.0208ZM14.528 38.8639V45.406L20.1844 43.497C22.7966 42.6221 23.4196 40.6237 23.4196 37.9194V33.4056C23.4196 32.1728 23.2387 30.6616 21.3097 29.4188L20.5763 28.9416L14.528 38.8639ZM10.6699 21.634C10.6699 17.836 6.18896 17.5775 6.18896 17.5775L16.2058 14.1872C19.1295 13.2029 22.2139 13.4217 23.7612 15.5593C25.871 18.4723 24.9869 21.6638 23.4497 24.1792L22.5756 25.6109L23.3995 26.1478C26.0418 27.828 27.2676 29.6375 27.2676 32.6202V37.1837C27.2676 42.1051 26.6346 45.1972 21.169 47.0365L10.6498 50.5958V21.634H10.6699ZM14.528 31.964L20.2347 22.5884C21.159 21.0772 21.7919 19.387 20.8375 18.0945C20.2548 17.2992 19.23 17.0208 17.8535 17.4781L14.5179 18.6115V31.964H14.528ZM28.7646 38.337V26.5355C28.7847 25.5711 29.1865 25.0144 30.0405 24.7062L32.4317 23.9008V37.5913C32.4317 38.2376 32.6025 38.675 32.8436 38.8639C33.0647 39.0628 33.4063 39.0926 33.6675 39.0031L35.0238 38.5458V24.5073C35.0238 23.5031 35.4257 22.9265 36.2898 22.6083L38.691 21.7831V41.1208L34.421 42.5625C32.6929 43.1491 30.9849 42.5326 30.1611 41.8168C29.2267 40.9816 28.7646 39.5698 28.7646 38.337Z" fill="#191919" fill-opacity="0.6"/>
</svg>
