<svg width="116" height="25" viewBox="0 0 116 25" fill="none" xmlns="http://www.w3.org/2000/svg">
<path fill-rule="evenodd" clip-rule="evenodd" d="M5.78867 17.0716C5.97323 17.039 5.94881 16.9766 6.13473 16.9766C6.29351 16.9766 6.27044 17.1218 6.42922 17.1218C6.5025 17.1218 6.62736 17.0241 6.70064 17.0241C6.93406 17.0241 7.0087 17.0797 7.0942 17.1679L7.29233 17.1231C7.51354 17.2806 7.5624 17.4054 7.71168 17.5805C7.83381 17.7216 7.93288 17.7447 7.9831 17.8437C8.15545 18.1301 8.14323 18.3839 8.32915 18.6376L8.42551 19.2388C8.52458 19.494 8.50015 19.5754 8.50015 19.8889C8.50015 20.1657 8.74714 19.8658 8.62229 20.4901C8.59243 20.6434 8.53679 20.6814 8.50015 20.7547L8.47572 21.1619C8.35223 21.7183 7.9831 22.7537 7.53932 22.8012C7.5149 22.8053 7.06977 23.1256 7.0467 23.1866C6.9232 23.4879 6.62736 23.5123 6.35458 23.5001L6.06009 23.5951C5.90131 23.5707 5.87552 23.6182 5.71403 23.6182C5.54168 23.6182 5.46975 23.5246 5.32047 23.5246C4.77763 23.5246 4.08687 22.9464 3.76659 22.7293C3.67296 22.6642 3.61867 22.4769 3.54675 22.3914C3.37304 22.1865 3.15183 22.2 3.15183 21.8852C3.15183 21.7793 3.20069 21.6803 3.20069 21.5744C3.20069 21.3573 3.02833 21.3573 3.15183 20.7791C3.20204 20.543 3.00391 20.4317 3.00391 20.2268C3.00391 20.1169 3.02833 20.045 3.05276 19.9377C3.07719 19.8509 3.2509 19.1778 3.32282 19.0217C3.43546 18.8059 3.60646 18.8154 3.7191 18.5413C3.78695 18.3676 3.76659 18.2292 4.13573 18.0595C4.25786 18.0052 4.28636 17.6008 4.77763 17.3579C5.08976 17.2059 5.42361 17.0716 5.78867 17.0716Z" fill="#191919" fill-opacity="0.6"/>
<path fill-rule="evenodd" clip-rule="evenodd" d="M6.20227 12.2602C6.29862 12.1896 6.44519 12.248 6.58904 12.1761C6.69897 12.1218 6.88082 12.1516 6.95274 12.1286C7.28116 12.0078 7.29202 12.0336 7.55801 12.0336C7.77243 12.0336 7.9665 12.0987 8.08999 12.1761C8.24877 12.2765 8.37498 12.4515 8.47676 12.609C8.54326 12.7121 8.63012 12.8899 8.69661 12.9944C8.81604 13.1912 8.90018 13.981 8.79297 14.0801C8.52562 14.3203 8.44419 14.7233 8.28406 14.779C7.75479 14.9608 7.28659 15.1535 6.73561 15.068C6.46012 15.0273 6.31219 14.9472 6.15477 14.8767C5.71914 14.6582 5.4043 14.3569 5.4043 13.7069C5.4043 13.3079 5.57393 12.708 5.77886 12.5845C5.85214 12.537 6.11813 12.4895 6.20227 12.2602Z" fill="#191919" fill-opacity="0.6"/>
<path fill-rule="evenodd" clip-rule="evenodd" d="M27.507 0.15523C27.1637 -0.165044 26.3575 0.0982324 26.2259 0.168801C25.9531 0.312654 26.177 0.217657 25.9273 0.509433C25.8337 0.616643 25.1986 0.862278 24.8403 1.06177C23.3068 1.90453 23.0842 1.90317 22.9363 1.97374C22.2265 2.3198 21.5588 2.85721 20.8043 3.24941C20.7595 3.27384 20.8152 3.37969 20.5587 3.5439C19.99 3.9171 18.8162 4.54137 18.2326 4.82364C17.6898 5.08556 17.5174 5.13442 17.1713 5.3027C16.9678 5.40177 17.0696 5.69354 16.5769 5.68812C16.3544 5.68676 16.1739 5.40312 15.9893 5.21856C15.2823 4.50066 14.1695 3.78275 13.2738 3.33491C12.5341 2.96306 11.9153 2.66993 11.0413 2.48265C10.7998 2.43108 10.4496 2.23159 10.1796 2.23023C9.98416 2.22887 9.81046 2.3008 9.4169 2.20038C9.2744 2.16238 9.19298 2.61293 9.19298 2.68757C9.19026 2.90742 9.23912 2.86942 9.23776 3.25077C9.23369 3.46926 9.35583 3.64297 9.40468 3.74068C9.51325 3.9741 9.56075 4.20752 9.64489 4.42737C9.77788 4.77207 10.1796 5.27827 10.3248 5.58498C10.5175 5.97718 10.6152 6.22281 10.907 6.56887C10.9301 6.60551 11.9791 7.96261 11.8 7.9219C10.9219 7.71969 8.414 7.25556 5.70659 7.3302L5.38496 7.35327C5.08776 7.3967 4.89641 7.49441 4.49742 7.51612C3.73202 7.55819 1.78594 7.99382 1.09382 8.36702C0.374559 8.75244 0.0773545 8.99536 0 9.26271C0.0230707 9.58163 0.53741 9.95076 0.955396 9.85983L1.15082 10.005C1.55659 10.2059 1.40052 9.94804 1.84022 10.134L2.0845 10.2846C2.40342 10.4095 2.60155 10.2629 2.96933 10.4882C3.13897 10.4895 3.31403 10.5153 3.90165 10.765C4.093 10.8464 4.12558 10.6212 4.46892 10.7718C4.89505 10.9564 4.6752 10.8668 5.23025 10.9496C5.93187 11.0527 6.65656 11.2481 7.37039 11.3594C7.84538 11.4327 7.96073 11.316 8.44929 11.4911C8.66235 11.5657 9.18212 11.3961 9.68153 11.5386C10.1728 11.6783 11.0848 11.4897 11.4037 11.6132C11.477 11.7109 11.6507 11.5196 11.5503 11.9593C11.5028 12.1615 11.3345 12.4953 11.272 12.7138C11.0685 13.3869 10.5921 14.421 10.4632 15.0317C10.4184 15.2489 10.5338 15.2828 10.4849 15.4986C10.4334 15.7171 10.1185 15.7673 10.0371 16.0088C9.98552 16.154 9.97873 17.0348 9.7521 17.5247C9.62318 17.8002 9.67339 18.0838 9.57296 18.3525C9.36261 18.8791 9.12783 19.7884 8.98534 20.6257C8.96091 20.7736 8.85642 21.5322 8.8537 21.8729C8.84827 22.4347 8.84556 22.8011 8.74378 23.3372C8.69221 23.6018 8.83606 23.6914 8.78449 24.0741C8.88084 24.4663 8.97855 24.5151 9.1984 24.5179C9.4454 24.5219 9.60825 24.203 9.8186 24.0822C10.6111 23.5991 11.4566 22.6749 11.8081 21.7494C11.9845 21.2866 12.8056 20.437 12.8802 20.2661C13.0946 19.7829 13.3253 19.3079 13.6076 18.8045C14.1328 17.8667 14.3038 17.6102 14.8073 16.663C15.1818 15.9559 15.2375 15.2936 15.3148 15.1322C15.593 14.535 15.4682 14.4156 15.7423 13.9284C15.7722 13.8728 15.9405 13.6136 16.0165 13.4901C16.125 13.3136 15.9554 13.0002 15.9554 13.0002C16.3164 13.0531 16.7588 13.5566 16.9488 13.695C17.5364 14.1143 18.4172 14.9137 18.8813 15.2258C18.9111 15.2489 19.055 15.2068 19.055 15.2068C19.8109 15.9261 21.9823 17.3971 22.8698 18.1775C23.8211 19.0162 24.5065 19.6336 25.5596 20.281C25.8853 20.4791 26.8447 21.1712 27.1257 21.3965C27.8096 21.938 28.3986 22.1416 29.4775 22.664C29.8941 22.8676 30.0529 22.9884 30.5089 22.9911C30.6812 22.9938 30.7613 22.4306 30.5428 22.0873C30.422 21.9014 30.2741 21.6557 30.2022 21.4712C30.0448 21.1007 29.9959 20.931 29.8901 20.6121C29.5169 19.5074 29.2346 19.4816 28.8505 18.3756C28.7528 18.0947 28.2724 17.4474 28.2208 17.2424C28.0295 16.5083 27.4201 15.6709 27.2274 15.2774C26.9655 14.7454 26.3494 14.2161 26.1092 13.6054C25.8052 12.8264 25.1362 12.346 24.5784 11.5087C24.5119 11.4137 24.292 11.4558 24.2323 11.3594C23.8944 10.7949 23.8903 11.1111 23.7682 11.012C23.5253 10.8166 23.5022 10.6442 23.2837 10.2507C23.0055 9.75126 22.4532 9.33735 21.7936 8.79315C22.6391 7.87304 23.9188 6.42638 24.5037 5.80754C24.8009 5.49269 25.6044 3.66333 26.9981 1.98595C27.2098 1.73218 27.3767 0.961346 27.5531 0.423936L27.507 0.15523Z" fill="#191919" fill-opacity="0.6"/>
<path fill-rule="evenodd" clip-rule="evenodd" d="M40.6094 22.9523H115.148V22.4746H40.6094V22.9523Z" fill="#191919" fill-opacity="0.6"/>
<path fill-rule="evenodd" clip-rule="evenodd" d="M47.687 18.0963H46.8632L41.6927 6.72786C41.5923 6.47951 41.4335 6.20266 41.215 5.90003C40.9979 5.59875 40.7061 5.37076 40.3438 5.21334V4.80078C41.0562 4.82521 41.7687 4.85099 42.4812 4.87678C43.176 4.85099 43.8817 4.82521 44.5955 4.80078V5.21334C44.411 5.24727 44.2522 5.31376 44.1165 5.41826C43.9821 5.51733 43.9102 5.67747 43.9034 5.88782C43.9007 5.96653 43.9211 6.09545 43.9658 6.27866C44.0133 6.45915 44.1029 6.71429 44.24 7.04813L47.668 15.2328L50.5898 7.59233C50.7798 7.05763 50.868 6.64508 50.8518 6.35601C50.8572 5.99503 50.7866 5.72632 50.64 5.55397C50.4921 5.37755 50.2383 5.26491 49.8774 5.21334V4.80078C50.5166 4.82521 51.153 4.85099 51.7881 4.87678C52.426 4.85099 53.0625 4.82521 53.6989 4.80078V5.21334C53.3217 5.27577 53.0109 5.45083 52.7653 5.74668C52.5196 6.04253 52.3066 6.42658 52.1247 6.8975L47.687 18.0963Z" fill="#191919" fill-opacity="0.6"/>
<path fill-rule="evenodd" clip-rule="evenodd" d="M53.7595 7.72297C53.7677 7.43798 53.8708 7.20863 54.069 7.03493C54.2684 6.8585 54.5073 6.77301 54.7869 6.76758C55.0691 6.77301 55.3093 6.8585 55.5075 7.03493C55.7043 7.20863 55.8101 7.43798 55.8182 7.72297C55.8101 8.00661 55.7043 8.24003 55.5075 8.40967C55.3093 8.58337 55.0691 8.6743 54.7869 8.67973C54.5073 8.6743 54.2684 8.58337 54.069 8.40967C53.8708 8.24003 53.7677 8.00661 53.7595 7.72297ZM55.3311 9.93097H55.7043C55.7097 10.3462 55.7219 10.9162 55.7423 11.6382C55.7653 12.3602 55.7775 13.1134 55.7803 13.9032V16.6391C55.7857 16.9458 55.8535 17.1507 55.9852 17.2566C56.1155 17.3611 56.2919 17.4371 56.5131 17.4805V17.8564C55.9485 17.8347 55.3867 17.8184 54.8262 17.7994C54.3187 17.8089 53.8152 17.8266 53.309 17.8564V17.4805C53.5315 17.4371 53.6985 17.3611 53.8043 17.2566C53.9115 17.1507 53.9658 16.9458 53.9645 16.6391V14.3158C53.9631 13.6467 53.9373 13.112 53.8898 12.713C53.841 12.3127 53.7785 12.0168 53.7025 11.8241C53.632 11.6409 53.5383 11.5079 53.4216 11.4224C53.3049 11.3356 53.1366 11.2759 52.9141 11.2446V10.8701C53.3578 10.7656 53.7989 10.6285 54.2359 10.4643C54.6742 10.3015 55.0379 10.1237 55.3311 9.93097Z" fill="#191919" fill-opacity="0.6"/>
<path fill-rule="evenodd" clip-rule="evenodd" d="M64.8195 4.57812H65.1927C65.1683 6.04515 65.1452 8.12965 65.118 10.833V15.4973C65.0963 16.184 65.2877 16.5328 65.6989 16.5464C65.9404 16.5328 66.1142 16.4826 66.2241 16.3957L66.505 16.6753C66.1684 16.8938 65.8482 17.1231 65.5401 17.362C65.232 17.6022 64.9864 17.8356 64.8005 18.0636C64.4978 17.9564 64.2224 17.7962 63.9754 17.5764C63.7284 17.362 63.5275 17.1109 63.3755 16.8273L62.2899 17.7813C62.1365 17.875 61.956 17.9455 61.7552 17.9917C61.5502 18.0392 61.2924 18.0636 60.9789 18.0636C60.2121 18.0555 59.5472 17.875 58.9826 17.5235C58.4167 17.1693 57.9797 16.6902 57.6689 16.089C57.3582 15.4824 57.1994 14.7971 57.1953 14.0344C57.2184 12.7234 57.6119 11.7165 58.376 11.0094C59.14 10.301 60.1321 9.94409 61.3535 9.93187C61.9913 9.94002 62.6264 10.0974 63.2629 10.4014V7.63024C63.2547 7.11725 63.157 6.76577 62.9684 6.5717C62.7825 6.38035 62.5599 6.27043 62.3089 6.24464V5.87008C62.7866 5.74116 63.2602 5.56202 63.7324 5.3286C64.2034 5.09654 64.5671 4.84412 64.8195 4.57812ZM63.2995 16.2844V13.2133C63.3104 12.3285 63.1625 11.6839 62.8544 11.2808C62.5477 10.8778 62.0266 10.6769 61.2965 10.6823C60.8065 10.6973 60.4076 10.8479 60.1009 11.1438C59.7928 11.4355 59.5702 11.8033 59.4277 12.2403C59.2852 12.6773 59.216 13.1129 59.2174 13.5485C59.2187 14.0792 59.3219 14.603 59.5214 15.1201C59.7222 15.6358 60.014 16.0646 60.394 16.4066C60.7767 16.7472 61.2408 16.9277 61.7837 16.9386C62.317 16.9549 62.8232 16.7364 63.2995 16.2844Z" fill="#191919" fill-opacity="0.6"/>
<path fill-rule="evenodd" clip-rule="evenodd" d="M68.2279 12.0214H67.7814V10.2423C68.1695 10.1296 68.5617 10.0468 68.9553 9.98849C69.3461 9.93285 69.76 9.90435 70.197 9.90435C71.0561 9.88264 71.7794 10.0373 72.367 10.363C72.9546 10.6874 73.2613 11.3103 73.2885 12.2263C73.2858 12.5683 73.2749 12.9727 73.2559 13.4382C73.2396 13.9024 73.2247 14.4045 73.2125 14.9419V15.5974C73.2111 16.0221 73.2532 16.3126 73.3387 16.4727C73.4255 16.6356 73.5708 16.7115 73.773 16.702C73.887 16.6966 74.0186 16.6722 74.1665 16.6288L74.4488 16.9097L73.0442 18.0347C72.6819 17.9831 72.3738 17.8759 72.1146 17.7144C71.8513 17.5516 71.6613 17.3521 71.5473 17.1146C71.2311 17.3589 70.9136 17.5692 70.5851 17.7497C70.2581 17.9302 69.893 18.0239 69.4859 18.0347C69.053 18.0334 68.6459 17.9479 68.2645 17.7796C67.8832 17.6086 67.571 17.363 67.3295 17.04C67.0879 16.717 66.9671 16.3248 66.959 15.8606C66.9698 15.2025 67.1544 14.6691 67.51 14.2661C67.8669 13.8576 68.3188 13.5644 68.863 13.3799C69.4085 13.1967 69.9731 13.1044 70.5526 13.1071C70.8647 13.1261 71.1592 13.1437 71.4333 13.1627C71.4401 12.8208 71.417 12.4842 71.3668 12.1598C71.3166 11.8355 71.1918 11.5682 71.0004 11.3564C70.8077 11.1461 70.5024 11.0362 70.0844 11.0294C69.6352 11.028 69.2701 11.104 68.9892 11.2655C68.7083 11.4257 68.4545 11.6767 68.2279 12.0214ZM71.489 16.5908L71.4333 13.8386C71.3261 13.8182 71.1918 13.7965 71.033 13.7761C70.8715 13.7558 70.7059 13.7449 70.5336 13.7449C70.0844 13.7381 69.6813 13.8603 69.3312 14.1195C68.9783 14.376 68.7924 14.7994 68.7748 15.3911C68.7843 15.8322 68.9308 16.1918 69.2104 16.4727C69.4873 16.7523 69.8292 16.9015 70.235 16.9097C70.7928 16.8961 71.2135 16.7916 71.489 16.5908Z" fill="#191919" fill-opacity="0.6"/>
<path fill-rule="evenodd" clip-rule="evenodd" d="M86.0747 5.32589L86.2213 7.81616H85.4355C85.232 7.23396 84.9185 6.76034 84.4924 6.40071C84.0649 6.03836 83.5804 5.77373 83.0389 5.60952C82.4988 5.4426 81.9532 5.36117 81.4077 5.36388C80.3247 5.3761 79.4453 5.64345 78.7654 6.15914C78.0869 6.67755 77.5888 7.37103 77.2699 8.23957C76.9537 9.10676 76.7976 10.0703 76.8017 11.1329C76.8166 12.4452 77.0256 13.5078 77.4205 14.3262C77.8209 15.1431 78.3162 15.7715 78.9052 16.2044C79.4955 16.6373 80.0872 16.9331 80.6816 17.0906C81.2747 17.2466 81.7714 17.3226 82.1785 17.3131C82.9439 17.3131 83.6496 17.1503 84.2888 16.8219C84.9321 16.4948 85.464 16.0035 85.8861 15.3467L86.4669 15.591L85.8861 17.6714C85.1533 17.8098 84.5086 17.9157 83.9536 17.9903C83.3972 18.0636 82.8245 18.0975 82.2328 18.0975C80.3749 18.0799 78.8563 17.7379 77.6675 17.0811C76.4814 16.4256 75.6061 15.5801 75.0402 14.5487C74.4743 13.516 74.192 12.4289 74.1973 11.2849C74.2083 9.9848 74.5177 8.83398 75.1243 7.82973C75.7323 6.82548 76.5723 6.03293 77.6485 5.45752C78.722 4.88347 79.9624 4.58898 81.3697 4.57812C82.1704 4.57948 82.8381 4.61884 83.3755 4.69755C83.9142 4.77355 84.3892 4.86719 84.8031 4.98254C85.2184 5.09654 85.6391 5.21053 86.0747 5.32589Z" fill="#191919" fill-opacity="0.6"/>
<path fill-rule="evenodd" clip-rule="evenodd" d="M88.8132 12.0214H88.3654V10.2423C88.7535 10.1296 89.1457 10.0468 89.5365 9.98849C89.9287 9.93285 90.344 9.90435 90.7796 9.90435C91.6373 9.88264 92.3607 10.0373 92.9524 10.363C93.5413 10.6874 93.8467 11.3103 93.8725 12.2263C93.8698 12.5683 93.8589 12.9727 93.8399 13.4382C93.8223 13.9024 93.8087 14.4045 93.7965 14.9419V15.5974C93.7938 16.0221 93.8372 16.3126 93.9227 16.4727C94.0082 16.6356 94.1547 16.7115 94.3597 16.702C94.471 16.6966 94.6026 16.6722 94.7519 16.6288L95.0328 16.9097L93.6282 18.0347C93.2672 17.9831 92.9578 17.8759 92.6945 17.7144C92.4353 17.5516 92.2467 17.3521 92.13 17.1146C91.8151 17.3589 91.4975 17.5692 91.1718 17.7497C90.8421 17.9302 90.477 18.0239 90.0685 18.0347C89.637 18.0334 89.2298 17.9479 88.8471 17.7796C88.4644 17.6086 88.1537 17.363 87.9135 17.04C87.6719 16.717 87.5484 16.3248 87.543 15.8606C87.5538 15.2025 87.7384 14.6691 88.094 14.2661C88.4509 13.8576 88.9001 13.5644 89.447 13.3799C89.9925 13.1967 90.5557 13.1044 91.1366 13.1071C91.4501 13.1261 91.7418 13.1437 92.0173 13.1627C92.0241 12.8208 92.001 12.4842 91.9508 12.1598C91.8979 11.8355 91.7771 11.5682 91.5844 11.3564C91.3917 11.1461 91.0863 11.0362 90.667 11.0294C90.2192 11.028 89.8541 11.104 89.5732 11.2655C89.2923 11.4257 89.0385 11.6767 88.8132 12.0214ZM92.0743 16.5908L92.0173 13.8386C91.9087 13.8182 91.7771 13.7965 91.617 13.7761C91.4582 13.7558 91.2913 13.7449 91.1176 13.7449C90.667 13.7381 90.268 13.8603 89.9152 14.1195C89.5623 14.376 89.3764 14.7994 89.3588 15.3911C89.3683 15.8322 89.5148 16.1918 89.793 16.4727C90.0712 16.7523 90.4132 16.9015 90.819 16.9097C91.3781 16.8961 91.7948 16.7916 92.0743 16.5908Z" fill="#191919" fill-opacity="0.6"/>
<path fill-rule="evenodd" clip-rule="evenodd" d="M95.999 7.72297C96.0099 7.43798 96.113 7.20863 96.3125 7.03493C96.5106 6.8585 96.7495 6.77301 97.0304 6.76758C97.3113 6.77301 97.5515 6.8585 97.7483 7.03493C97.9478 7.20863 98.0537 7.43798 98.0604 7.72297C98.0537 8.00661 97.9478 8.24003 97.7483 8.40967C97.5515 8.58337 97.3113 8.6743 97.0304 8.67973C96.7495 8.6743 96.5106 8.58337 96.3125 8.40967C96.113 8.24003 96.0099 8.00661 95.999 7.72297ZM97.5732 9.93097H97.9478C97.9532 10.3462 97.9654 10.9162 97.9858 11.6382C98.0062 12.3602 98.0211 13.1134 98.0224 13.9032V16.6391C98.0238 16.9458 98.0957 17.1507 98.2274 17.2566C98.359 17.3611 98.5341 17.4371 98.7526 17.4805V17.8564C98.1907 17.8347 97.6289 17.8184 97.067 17.7994C96.5608 17.8089 96.056 17.8266 95.5512 17.8564V17.4805C95.7764 17.4371 95.9379 17.3611 96.0465 17.2566C96.1551 17.1507 96.208 16.9458 96.2066 16.6391V14.3158C96.2066 13.6467 96.1795 13.112 96.132 12.713C96.0845 12.3127 96.0207 12.0168 95.9434 11.8241C95.8741 11.6409 95.7819 11.5079 95.6625 11.4224C95.5457 11.3356 95.3761 11.2759 95.1562 11.2446V10.8701C95.5987 10.7656 96.0411 10.6285 96.4781 10.4643C96.9164 10.3015 97.2815 10.1237 97.5732 9.93097Z" fill="#191919" fill-opacity="0.6"/>
<path fill-rule="evenodd" clip-rule="evenodd" d="M99.3789 17.8571V17.4812C99.6788 17.4242 99.9286 17.3047 100.132 17.127C100.334 16.9465 100.497 16.7728 100.615 16.6004L102.432 14.2784L100.279 11.3566C100.113 11.134 99.9652 10.963 99.8322 10.8517C99.7019 10.7377 99.5065 10.6278 99.25 10.5152V10.1406C99.8173 10.1664 100.386 10.1854 100.955 10.1963C101.515 10.1854 102.078 10.1664 102.637 10.1406V10.5152C102.526 10.564 102.43 10.6143 102.356 10.6658C102.284 10.7174 102.248 10.811 102.245 10.944C102.237 11.0974 102.31 11.2969 102.47 11.5452L103.502 12.9498L104.418 11.7325C104.604 11.4584 104.699 11.2534 104.699 11.115C104.696 10.9386 104.646 10.8083 104.548 10.7228C104.453 10.6333 104.328 10.564 104.175 10.5152V10.1406C104.673 10.1664 105.174 10.1854 105.672 10.1963C106.164 10.1854 106.661 10.1664 107.151 10.1406V10.5152C106.795 10.6034 106.498 10.75 106.266 10.9522C106.033 11.1557 105.816 11.3905 105.616 11.6565L104.026 13.6786L106.048 16.4891C106.192 16.6832 106.364 16.8773 106.567 17.0686C106.772 17.26 106.992 17.3984 107.228 17.4812V17.8571C106.672 17.8272 106.117 17.8096 105.56 17.8001C105.004 17.8096 104.45 17.8272 103.894 17.8571V17.4812C103.997 17.4676 104.087 17.4215 104.159 17.3387C104.231 17.2586 104.264 17.169 104.27 17.0686C104.264 17.0075 104.233 16.918 104.175 16.7945C104.117 16.671 104.045 16.5502 103.967 16.4321L102.958 14.9922L101.945 16.3588C101.887 16.4511 101.826 16.5665 101.773 16.7035C101.717 16.842 101.689 16.9587 101.683 17.0496C101.69 17.3237 101.823 17.4703 102.078 17.4812V17.8571C101.583 17.8272 101.092 17.8096 100.598 17.8001C100.19 17.8096 99.7861 17.8272 99.3789 17.8571Z" fill="#191919" fill-opacity="0.6"/>
<path fill-rule="evenodd" clip-rule="evenodd" d="M109.19 12.0214H108.739V10.2423C109.129 10.1296 109.521 10.0468 109.913 9.98849C110.305 9.93285 110.719 9.90435 111.156 9.90435C112.012 9.88264 112.736 10.0373 113.325 10.363C113.915 10.6874 114.22 11.3103 114.244 12.2263C114.244 12.5683 114.234 12.9727 114.215 13.4382C114.196 13.9024 114.184 14.4045 114.173 14.9419V15.5974C114.17 16.0221 114.21 16.3126 114.298 16.4727C114.385 16.6356 114.53 16.7115 114.732 16.702C114.846 16.6966 114.975 16.6722 115.124 16.6288L115.408 16.9097L114.003 18.0347C113.642 17.9831 113.33 17.8759 113.072 17.7144C112.808 17.5516 112.622 17.3521 112.502 17.1146C112.19 17.3589 111.871 17.5692 111.546 17.7497C111.217 17.9302 110.852 18.0239 110.444 18.0347C110.011 18.0334 109.606 17.9479 109.221 17.7796C108.84 17.6086 108.53 17.363 108.286 17.04C108.047 16.717 107.922 16.3248 107.914 15.8606C107.928 15.2025 108.114 14.6691 108.469 14.2661C108.826 13.8576 109.277 13.5644 109.821 13.3799C110.366 13.1967 110.931 13.1044 111.512 13.1071C111.821 13.1261 112.118 13.1437 112.391 13.1627C112.399 12.8208 112.375 12.4842 112.325 12.1598C112.274 11.8355 112.151 11.5682 111.96 11.3564C111.766 11.1461 111.462 11.0362 111.042 11.0294C110.594 11.028 110.227 11.104 109.947 11.2655C109.667 11.4257 109.415 11.6767 109.19 12.0214ZM112.447 16.5908L112.391 13.8386C112.285 13.8182 112.151 13.7965 111.993 13.7761C111.829 13.7558 111.665 13.7449 111.493 13.7449C111.042 13.7381 110.642 13.8603 110.289 14.1195C109.937 14.376 109.752 14.7994 109.73 15.3911C109.743 15.8322 109.886 16.1918 110.168 16.4727C110.446 16.7523 110.788 16.9015 111.194 16.9097C111.751 16.8961 112.171 16.7916 112.447 16.5908Z" fill="#191919" fill-opacity="0.6"/>
</svg>
