<?xml version="1.0" encoding="utf-8"?>
<!-- Generator: Adobe Illustrator 27.0.1, SVG Export Plug-In . SVG Version: 6.00 Build 0)  -->
<svg version="1.1" id="图层_1" xmlns="http://www.w3.org/2000/svg" xmlns:xlink="http://www.w3.org/1999/xlink" x="0px" y="0px"
	 viewBox="0 0 646.3 652" style="enable-background:new 0 0 646.3 652;" xml:space="preserve">
<style type="text/css">
	.st0{fill:#2C2623;}
	.st1{fill:#13130A;}
</style>
<g>
	<path class="st0" d="M563.8,576.1c2.5,0,4.3,0.2,5.5,0.7c2.1,0.9,3.1,2.6,3.1,5.2c0,1.8-0.7,3.2-2,4c-0.7,0.5-1.7,0.8-2.9,1
		c1.6,0.3,2.7,0.9,3.5,2c0.7,1.1,1.1,2.1,1.1,3.1v1.5c0,0.5,0,1,0.1,1.5c0,0.5,0.1,0.9,0.2,1.1l0.1,0.3h-3.3c0-0.1,0-0.1-0.1-0.2
		c0-0.1,0-0.1-0.1-0.2l-0.1-0.6v-1.6c0-2.4-0.6-3.9-1.9-4.7c-0.8-0.4-2.1-0.6-4-0.6h-2.8v8h-3.6v-20.4 M567.6,579.3
		c-0.9-0.5-2.3-0.8-4.3-0.8h-3v7.4h3.2c1.5,0,2.6-0.2,3.4-0.5c1.4-0.5,2.1-1.6,2.1-3.2C568.9,580.9,568.5,579.9,567.6,579.3
		 M577.1,599.6c-3.6,3.6-7.9,5.5-13,5.5c-5.1,0-9.4-1.8-13-5.5c-3.6-3.6-5.3-8-5.3-13.2c0-5.1,1.8-9.5,5.4-13.1
		c3.6-3.6,7.9-5.4,13-5.4c5.1,0,9.4,1.8,13,5.4c3.6,3.6,5.4,8,5.4,13.1C582.5,591.5,580.7,595.9,577.1,599.6 M552.9,575.1
		c-3.1,3.1-4.6,6.9-4.6,11.3c0,4.4,1.5,8.2,4.6,11.4c3.1,3.1,6.8,4.7,11.2,4.7c4.4,0,8.1-1.6,11.2-4.7c3.1-3.1,4.6-6.9,4.6-11.4
		c0-4.4-1.5-8.2-4.6-11.3c-3.1-3.1-6.8-4.7-11.2-4.7C559.8,570.4,556,571.9,552.9,575.1"/>
	<path class="st1" d="M324.4,32.7c-160,0-290.2,131.5-290.2,293.2c0,161.7,130.2,293.2,290.1,293.2v9.3l0.1-9.3
		c160,0,290.2-131.5,290.2-293.2C614.6,164.3,484.4,32.7,324.4,32.7 M324.4,637.8L324.4,637.8C154.3,637.8,15.9,497.9,15.9,326
		c0-171.9,138.4-311.8,308.6-311.8S633,154.1,633,326C633,497.9,494.6,637.8,324.4,637.8"/>
	<path class="st1" d="M420.7,524.8V256.2c0-20.7,8.5-32.4,26.9-38.7l41.2-14.1v38.3l-19.1,6.5c-9.3,3.2-12.4,8.9-12.4,19.5v102.5
		l26.7-9.1v38.4l-12.4,4.2c-9.4,3.2-14.3,7.7-14.3,18.7v89.9 M501.2,497.2V228.6c0-20.8,8.5-32.4,26.9-38.7l36.1-12.4v38.3l-14,4.8
		c-9.3,3.2-12.4,8.9-12.4,19.5v102.5l26.7-9.1v38.4l-12.4,4.2c-9.4,3.2-14.3,7.7-14.3,18.7v89.9L501.2,497.2z M160.5,405.1v65.8
		l56.3-19.2c26-8.8,32.2-28.9,32.2-56.1v-45.4c0-12.4-1.8-27.6-21-40.1l-7.3-4.8L160.5,405.1z M122.1,231.8
		c0-38.2-44.6-40.8-44.6-40.8l99.7-34.1c29.1-9.9,59.8-7.7,75.2,13.8c21,29.3,12.2,61.4-3.1,86.7l-8.7,14.4l8.2,5.4
		c26.3,16.9,38.5,35.1,38.5,65.1v45.9c0,49.5-6.3,80.6-60.7,99.1l-104.7,35.8V231.8z M160.5,335.7l56.8-94.3
		c9.2-15.2,15.5-32.2,6-45.2c-5.8-8-16-10.8-29.7-6.2l-33.2,11.4V335.7z M302.2,399.8V281.1c0.2-9.7,4.2-15.3,12.7-18.4l23.8-8.1
		v137.7c0,6.5,1.7,10.9,4.1,12.8c2.2,2,5.6,2.3,8.2,1.4l13.5-4.6V260.7c0-10.1,4-15.9,12.6-19.1l23.9-8.3v194.5l-42.5,14.5
		c-17.2,5.9-34.2-0.3-42.4-7.5C306.8,426.4,302.2,412.2,302.2,399.8"/>
</g>
</svg>
