<svg width="57" height="62" viewBox="0 0 57 62" fill="none" xmlns="http://www.w3.org/2000/svg">
<path d="M22.5091 60.4553C22.9907 60.4553 23.819 60.2991 24.4719 59.2546C24.0973 58.4284 23.834 56.7546 23.7955 56.1446C23.6029 53.026 24.8058 50.0937 26.1178 50.0124C27.0831 49.9546 27.8537 50.8664 27.9436 52.3432C28.179 56.2281 26.8862 57.8483 26.2398 59.2503C26.349 59.7918 27.2672 60.7122 28.1341 60.7122C28.4573 60.7122 28.8425 60.5495 28.941 60.4232C28.8746 60.1985 28.8104 59.9095 28.8104 59.49C28.8104 57.2383 30.2573 55.3419 31.5116 55.3419C32.509 55.3419 33.0869 56.6583 33.0869 57.5294C33.0869 58.5568 32.2179 59.3937 30.9337 60.2006C31.1606 60.4254 31.5758 60.5859 31.9311 60.5859C33.7633 60.5859 34.7243 58.3663 35.4349 56.3394C35.5655 55.9541 35.7924 55.4083 36.2397 55.4083C37.0124 55.4083 37.3356 60.4896 38.6177 60.4896C39.1635 60.4896 39.6109 59.3616 39.6109 58.4969C39.6109 57.8526 39.3861 57.7884 39.3861 56.8552C39.3861 55.8257 39.9362 54.9631 40.6746 54.9631C41.1262 54.9631 41.2868 55.4083 41.2868 55.9562C41.2868 58.011 39.8056 61.8402 37.6224 61.8402C35.9807 61.8402 36.107 59.0106 35.5313 59.0106C34.8849 59.0106 33.9838 61.8723 30.8031 61.8723C30.2852 61.8723 29.7394 61.6154 29.292 61.0996C28.5193 61.6154 27.8751 61.8402 27.1366 61.8402C25.9487 61.8402 25.4329 60.618 24.9534 60.618C24.3734 60.618 23.7313 61.8701 21.8006 61.8701C20.2553 61.8701 20.0006 59.8154 19.4548 59.8154C18.971 59.8154 18.2348 61.8701 17.4321 61.8701C16.0772 61.8701 15.7926 58.3042 14.6004 58.3042C13.6693 58.3042 10.722 61.9236 9.92361 61.8423C9.60255 61.8081 9.46557 61.5683 9.49981 61.2494C9.54476 60.8021 9.92789 59.6099 10.082 59.0512C10.3431 58.0731 10.5807 56.9986 10.7134 56.6583C10.8483 56.3158 11.2036 56.0675 11.4904 56.0954C11.6359 56.1082 11.6809 56.3779 11.7258 56.5962C11.8885 57.3924 12.1132 58.2036 12.3701 58.2036C12.8217 58.2036 14.3136 55.3419 15.1783 55.3419C16.242 55.3419 16.3683 59.8453 17.8174 59.8453C18.3032 59.8453 18.6543 59.2674 18.9753 58.5568C19.0096 57.3646 19.3328 55.663 20.2938 55.663C20.9702 55.663 21.2934 57.172 20.8075 58.4926C20.8075 60.0679 21.8392 60.4532 22.5134 60.4532L22.5091 60.4553ZM48.2302 56.5962C47.8342 58.2486 46.6271 60.6822 44.8227 60.6822C44.4053 60.6822 43.6648 60.5195 43.6648 60.1022C43.6648 59.6505 46.4944 59.5906 46.4944 57.431C46.4944 56.6283 45.7559 55.5025 44.6622 55.5025C43.2174 55.5025 41.8048 57.0799 41.8048 59.2674C41.8048 61.2259 43.0226 61.8701 44.2448 61.8701C46.3659 61.8701 47.6523 60.1321 48.3265 58.6852C48.6519 59.6505 48.8402 61.8701 49.6471 61.8701C49.9703 61.8701 50.1951 61.7096 50.5825 60.8427C51.5457 58.6874 52.4789 56.2088 53.7674 56.2088C54.2468 56.2088 53.9579 57.0799 55.1137 57.0799C55.6616 57.0799 56.0448 56.6305 56.0448 56.1125C56.0448 55.3719 55.3727 54.794 54.341 54.794C51.3209 54.794 50.6788 59.3295 50.1951 59.3295C49.3924 59.3295 49.6471 55.693 49.0692 55.693C48.5555 55.693 48.2987 56.3094 48.2302 56.5941V56.5962ZM26.9012 53.2122C26.8456 52.3133 26.6272 51.9066 26.1456 51.9409C25.5057 51.9772 25.2103 53.9956 25.3409 56.1125C25.4243 57.493 25.6298 57.7071 25.8224 57.6942C26.1756 57.6728 27.0232 55.2049 26.9012 53.2144V53.2122ZM21.6701 51.3223C21.6251 50.8064 21.2227 50.4576 20.6748 50.4576C20.0669 50.4576 19.4912 51.0954 19.549 51.9023C19.5896 52.4331 19.9021 52.8698 20.5164 52.8698C21.2206 52.8698 21.7343 52.065 21.6701 51.3244V51.3223ZM31.67 57.8826C31.67 57.3346 31.381 56.8873 31.03 56.8873C30.7368 56.8873 30.0626 57.2062 30.0626 58.2357C30.0626 59.0427 30.3494 59.4258 30.4821 59.5906C31.4089 59.2995 31.6679 58.5268 31.6679 57.8847L31.67 57.8826ZM44.2427 56.7931C44.9169 56.7931 45.1095 57.5936 44.949 58.0774C44.7863 58.5568 44.2127 59.1069 43.3094 59.2674C43.119 58.7837 43.0205 56.7931 44.2427 56.7931ZM7.21816 54.5093C7.12398 54.2161 6.85857 53.5611 6.78366 53.0753C6.62313 52.0029 7.18391 51.2945 7.70402 51.1318C8.27979 50.9691 8.50667 51.2581 8.72927 51.9366C9.01822 52.964 9.05247 54.3124 8.95401 56.243C8.82987 58.88 7.50925 62.0649 4.23017 61.9986C1.40057 61.9343 0.14844 60.1022 0.0157361 57.3047C-0.0441949 55.9862 0.0499823 54.6699 0.597923 52.8034C0.886876 51.8081 1.14372 51.4507 2.04269 51.2581C2.75116 51.1318 2.68695 51.8702 2.52642 52.7414C2.17325 54.6699 2.01058 55.6031 2.14115 57.7884C2.26743 60.1043 3.3312 61.0033 4.48701 61.0033C6.22287 61.0375 6.99555 59.5906 7.31661 57.4995C7.57346 55.8257 7.38297 55.023 7.2203 54.5093H7.21816Z" fill="#191919" fill-opacity="0.6"/>
<path d="M45.1416 12.675C45.3664 14.2953 47.8235 16.4807 48.4849 16.4293C48.9301 16.3886 49.1014 14.3146 49.1014 12.675C49.1014 11.7354 49.1527 11.0034 48.6583 10.8322C47.8706 12.4203 45.8073 12.7435 45.1395 12.675H45.1416ZM45.2829 11.958C47.0551 11.958 48.6776 10.5411 48.6776 9.29751C48.6776 8.71532 48.4014 8.24016 47.7037 8.15454C47.8235 8.30651 47.8749 8.42637 47.8749 8.70034C47.8749 9.63569 46.443 10.6802 44.8912 10.6802C44.3261 10.6802 44.157 11.0719 44.157 11.2774C44.157 11.7547 44.6172 11.958 45.2829 11.958ZM44.904 10.0295C44.6665 10.0295 44.324 10.0295 44.1378 9.65282C43.9837 9.34674 44.035 8.85017 43.7461 8.63185C44.035 8.71318 44.3411 8.71318 44.583 8.71318C45.3514 8.71318 46.0855 8.18665 46.6485 8.18665C47.023 8.18665 47.1408 8.42423 47.1408 8.66395C47.1408 9.41523 45.6275 10.0295 44.904 10.0295Z" fill="#191919" fill-opacity="0.6"/>
<path d="M6.73916 23.4069C7.31921 23.4069 7.20149 19.8603 8.13898 19.8603C8.35944 19.8603 8.42793 20.0807 8.42793 20.3526C8.42793 21.1552 8.03838 22.3346 8.03838 22.981C8.03838 23.3042 8.11972 23.4069 8.27597 23.4069C8.68692 23.4069 9.40181 19.4985 10.1017 19.4985C10.3265 19.4985 10.4271 19.7233 10.4271 19.9437C10.4271 20.7635 9.38683 23.1179 9.38683 23.7815C9.38683 23.8821 9.41894 23.9698 9.50455 23.9698C9.93263 23.9698 10.7866 22.1291 11.0563 21.2066C11.2104 20.7293 11.4138 20.4724 11.6043 20.4724C11.7755 20.4724 11.9296 20.6586 11.9296 21.0546C11.9296 21.975 11.0735 24.1432 10.3265 25.5922C9.74642 26.7181 8.84317 28.3405 8.84317 29.2416C8.84317 29.7039 8.92451 30.1834 9.59231 30.7634C8.50071 30.6949 8.05551 30.5922 7.64669 29.7403C5.82308 33.3726 11.0071 33.0151 9.23058 36.2407C8.90952 35.6606 6.35175 35.0656 6.35175 31.6859C6.35175 28.7664 8.90952 27.0605 8.90952 25.8491C8.90952 25.6094 8.82391 25.4082 8.60345 25.2198C8.04052 24.7404 8.0234 24.3487 7.58034 24.3487C7.255 24.3487 6.86117 25.0999 7.27212 25.7635C7.40911 25.9839 7.52897 26.1209 7.52897 26.3285C7.52897 26.8037 6.77769 28.0858 6.25116 28.0858C5.72462 28.0858 5.31152 26.7716 5.31152 24.6569C5.31152 22.7798 5.73746 20.8855 6.26614 20.8855C6.42025 20.8855 6.47162 20.9882 6.47162 21.1252C6.47162 21.3457 6.40526 21.7888 6.40526 22.5422C6.40526 23.3448 6.59362 23.4112 6.74559 23.4112L6.73916 23.4069Z" fill="#191919" fill-opacity="0.6"/>
<path d="M11.09 28.4049C11.807 28.4049 12.402 27.8719 12.402 26.699V24.9588C12.402 24.2932 12.4534 23.5462 12.8986 23.0111C12.8494 23.2358 12.8494 23.4734 12.8494 23.696C12.8494 25.1643 13.6692 26.1724 13.6692 27.5872C13.6692 28.1138 13.5129 28.4049 13.1041 28.4049C12.6953 28.4049 12.7467 28.0474 12.661 28.0474C12.5947 28.0474 12.4919 28.2679 12.4919 28.5055C12.4919 28.865 12.7467 29.428 13.4594 29.428C14.0758 29.428 14.5703 28.865 14.5703 28.2358C14.5703 26.7011 13.3759 24.9952 13.3759 23.3557C13.3759 22.6386 13.5643 22.1613 13.7184 21.7825C13.7184 25.1793 16.6015 27.6536 16.6015 29.0684C16.6015 29.3937 16.3596 29.6506 16.0043 29.6506C15.6084 29.6506 15.4243 29.3402 15.4243 29.1026C15.4243 28.9849 15.405 28.9507 15.3558 28.9507C15.2531 28.9507 14.947 29.2931 14.947 29.7362C14.947 30.297 15.405 30.9798 16.259 30.9798C17.2329 30.9798 17.7616 30.16 17.7616 29.4258C17.7616 27.6365 14.2642 24.9203 14.2642 22.0222C14.2642 21.5256 14.3498 20.7251 14.7073 20.1108C12.4556 21.5599 11.7557 23.4884 11.7557 25.1771C11.7557 26.6455 11.7043 27.3796 10.953 27.3796C10.5613 27.3796 10.4586 27.0222 10.3237 27.0222C10.221 27.0222 10.1675 27.3282 10.1675 27.416C10.1675 28.0453 10.6319 28.4049 11.09 28.4049Z" fill="#191919" fill-opacity="0.6"/>
<path d="M40.658 11.3612C41.4093 11.3612 41.9722 11.0209 41.9722 10.8154C41.9722 10.747 41.8695 10.6956 41.649 10.6956C41.4285 10.6956 40.9833 10.6806 40.1464 10.5415C39.4273 10.4216 38.8815 10.1519 38.6803 10.1519C38.6118 10.1519 38.5754 10.1862 38.5754 10.2375C38.5754 10.6806 39.3952 11.3612 40.6601 11.3612H40.658ZM36.938 9.19303C37.1563 9.04962 38.1174 9.28079 39.3609 8.66649C39.5172 8.58088 39.667 8.54663 39.804 8.54663C40.4012 8.54663 40.2492 9.23156 40.7971 9.23156C41.2209 9.23156 41.771 8.87411 42.0942 8.87411C42.6015 8.87411 43.3378 10.4773 43.3378 11.2264C43.3378 12.0997 42.0279 12.6262 40.4718 12.6262C38.2051 12.6262 36.8374 10.6464 36.8374 9.36854C36.8374 9.2658 36.8888 9.23156 36.9401 9.19517L36.938 9.19303Z" fill="#191919" fill-opacity="0.6"/>
<path d="M11.4498 34.8365C10.8847 34.9757 9.98145 35.8596 9.98145 37.2616C9.98145 38.9354 11.773 41.5124 14.7267 41.5124C17.2181 41.5124 17.8324 39.7894 17.8324 38.6272C17.8324 36.0501 16.2442 34.2437 14.183 34.2437C13.055 34.2437 12.0469 35.0634 12.0469 36.2727C12.0469 37.4007 12.8988 39.0895 14.93 39.0895C15.8868 39.0895 16.4476 38.4067 16.4476 37.6233C16.4476 36.8399 15.7498 35.7976 14.7267 35.7976C14.4163 35.7976 14.198 35.9988 14.198 36.3241C14.198 36.7329 14.7609 37.146 15.4587 37.146C15.6299 37.146 15.7669 37.1118 15.8376 37.0775C15.8718 37.1289 15.8889 37.2124 15.8889 37.2809C15.8889 37.6704 15.5101 37.9144 14.9322 37.9144C14.061 37.9144 13.2241 37.2637 13.2241 36.2406C13.2241 35.6285 13.755 35.1833 14.5212 35.1833C16.0409 35.1833 16.9463 36.5317 16.9463 37.878C16.9463 39.0916 16.2806 39.7915 14.9172 39.7915C12.186 39.7915 10.8569 37.3322 11.454 34.8408L11.4498 34.8365Z" fill="#191919" fill-opacity="0.6"/>
<path d="M29.602 41.4245C29.602 41.7991 29.9081 42.1094 30.2848 42.1094C30.6615 42.1094 30.9697 41.7991 30.9697 41.4245C30.9697 41.0499 30.6594 40.7439 30.2848 40.7439C29.9103 40.7439 29.602 41.0521 29.602 41.4245ZM30.9227 44.8341C31.7424 44.8341 31.6996 44.7657 31.9565 44.7657C32.2133 44.7657 32.2304 44.9198 32.2304 45.0246C32.2304 45.3992 31.3935 45.8594 29.9103 45.8594C29.0391 45.8594 28.5126 45.3971 28.3563 44.8855C27.5023 45.4292 26.2095 45.9279 24.9274 45.9279C21.43 45.9279 20.5439 44.4082 19.4502 43.9159C18.6133 43.5413 17.3333 44.2734 15.5439 42.2764C15.7794 42.3277 16.1069 42.3449 16.3616 42.3449C17.9326 42.3449 18.7674 41.5786 18.7674 40.3479C18.7674 40.1981 18.7524 40.0268 18.7331 39.8749C19.2126 40.0632 20.3063 40.8787 20.561 42.3277C20.5953 42.5011 21.2952 42.6531 21.7382 42.6531C22.3525 42.6531 23.1359 42.4005 23.2558 41.3924C25.3041 41.2233 26.6868 40.0118 26.9758 38.4729C27.7078 38.7126 28.5425 39.3761 28.7502 39.7186C29.0391 39.6159 29.3816 39.5666 29.7754 39.5666C30.3212 39.5666 30.9334 39.6694 31.6675 39.892C31.7018 39.6672 31.736 39.3933 32.0785 39.3933C32.5879 39.3933 32.453 39.9583 32.6221 40.2815C32.7077 40.4506 33.138 40.5534 33.138 40.8958C33.138 41.2212 32.8619 41.3389 32.6906 41.3389C32.6221 41.3389 32.5365 41.3218 32.4873 41.3068C32.1491 41.4245 32.1298 43.8817 30.6936 43.8817C29.6384 43.8817 28.6645 43.0084 28.2386 41.9211C28.1187 41.5936 27.864 41.3881 27.6243 41.3881C27.3503 41.3881 27.1984 41.4395 26.8752 41.7969C25.9527 42.8029 24.4202 43.6741 22.5238 43.6741C21.9437 43.6741 21.4835 43.6227 21.3658 43.6227C21.2995 43.6227 21.2995 43.6377 21.2995 43.6591C21.2995 43.7768 21.8774 44.237 23.1381 44.237C26.1432 44.237 26.8773 42.5482 27.3525 42.5482C27.4253 42.5482 27.6265 42.5482 27.742 42.8222C28.4441 44.4574 29.9723 44.832 30.9269 44.832L30.9227 44.8341Z" fill="#191919" fill-opacity="0.6"/>
<path d="M41.2742 33.9673C40.9168 33.9673 38.9326 36.6128 37.657 36.6128C37.3509 36.6128 37.0962 36.0327 37.0962 35.5918C37.0962 35.3499 37.2482 35.1787 37.794 35.061C40.7284 34.3932 40.0799 32.1929 42.5863 32.1929C43.969 32.1929 45.5058 33.1325 45.5058 35.2472C45.5058 37.4989 42.2995 40.2943 41.8222 40.2943C41.4305 40.2943 41.0024 39.7335 41.0024 39.3568C41.0024 39.2412 41.0538 39.0871 41.3962 38.9501C43.0315 38.2994 43.969 36.799 43.969 36.0327C43.969 35.8594 43.8834 35.6903 43.6629 35.6903C43.374 35.6903 42.1325 38.5242 40.7477 38.5242C39.7909 38.5242 38.8192 37.653 38.8192 37.2463C38.8192 36.5614 41.5846 35.2986 41.5846 34.344C41.5846 33.9822 41.4134 33.9673 41.2764 33.9673H41.2742ZM43.115 32.9099C42.8752 32.9099 42.6184 33.0983 42.6184 33.5627C42.6184 34.0721 43.0122 34.3953 43.2348 34.4981C43.3547 34.5644 43.5409 34.6329 43.7271 34.6329C44.2216 34.6329 44.6154 34.4981 44.6154 34.085C44.6154 33.5627 43.847 32.9099 43.1128 32.9099H43.115Z" fill="#191919" fill-opacity="0.6"/>
<path d="M11.2421 13.1504C11.2421 13.5293 11.5525 13.8354 11.9271 13.8354C12.3016 13.8354 12.6098 13.5293 12.6098 13.1504C12.6098 12.7716 12.3016 12.4698 11.9271 12.4698C11.5525 12.4698 11.2421 12.7759 11.2421 13.1504ZM10.3581 11.6136C10.3581 11.9903 10.6642 12.3007 11.0409 12.3007C11.4176 12.3007 11.7237 11.9925 11.7237 11.6136C11.7237 11.2348 11.4134 10.9351 11.0409 10.9351C10.6685 10.9351 10.3581 11.2412 10.3581 11.6136ZM9.74385 16.2904C9.35216 16.3953 8.53239 16.8726 8.53239 17.7244C8.53239 18.3387 9.00756 18.7326 9.60687 18.7326C9.91294 18.7326 10.1355 18.6619 10.2704 18.5613C9.79522 18.1012 9.62399 17.5875 9.62399 17.0759C9.62399 16.7185 9.67536 16.498 9.74385 16.2904ZM5.56152 16.5322C5.54868 16.6179 5.54868 16.7035 5.54868 16.7891C5.54868 17.5896 5.97462 18.0348 6.5354 18.0348C6.96134 18.0348 7.45791 17.7758 7.90097 17.215C7.71262 17.2493 7.49216 17.2664 7.28882 17.2664C6.65526 17.2664 5.97676 17.0952 5.56367 16.5344L5.56152 16.5322ZM4.96436 18.0498C4.96436 19.3469 5.35819 19.9612 6.0581 19.9612C6.60176 19.9612 7.33591 19.5652 8.20705 18.816C7.54139 18.9723 7.02769 19.0729 6.56751 19.0729C5.95536 19.0729 5.47591 18.8353 4.96436 18.0498ZM9.38426 11.2241C9.46988 10.9501 9.53623 10.6119 9.53623 10.2374C9.53623 9.41758 9.15952 8.17188 8.00157 8.17188C7.33591 8.17188 6.8586 8.70055 6.8586 9.32983C6.8586 10.6804 8.20919 11.2219 9.3864 11.2219L9.38426 11.2241ZM7.93308 15.5241C7.3723 15.5241 6.75586 14.8242 6.75586 14.1928C6.75586 13.8525 7.01057 13.4265 7.20106 13.4265C7.26742 13.4265 7.3038 13.4779 7.31879 13.5956C7.42367 14.4304 7.96947 14.9098 8.48102 15.1474C8.53239 15.1817 8.56664 15.1988 8.56664 15.2352C8.56664 15.3507 8.2413 15.5241 7.93308 15.5241ZM9.50199 13.4437C9.62185 13.602 9.94933 13.8011 9.94933 13.9231C9.94933 14.1607 9.8102 14.4668 9.53837 14.4668C8.9412 14.4668 8.4639 13.5614 8.4639 13.052C8.4639 12.7245 8.65011 12.6902 8.90696 12.6902C9.02682 12.6902 9.08033 12.7074 9.16166 12.7566C9.31791 12.8422 9.31791 13.1825 9.50413 13.4415L9.50199 13.4437ZM5.49303 15.5584C5.46307 15.6097 5.4438 15.6782 5.4438 15.7467C5.4438 15.9008 5.61718 16.0721 5.767 16.0721C5.90399 16.0721 5.9896 16.0378 6.06024 16.0378C6.46691 16.0378 6.92709 16.3268 7.5949 16.3268C7.98445 16.3268 8.44891 16.2069 9.02896 15.918C10.2575 15.3037 10.7349 13.784 10.7349 13.5293C10.7349 13.2039 10.4737 13.2467 10.2575 12.9471C10.0392 12.6496 10.1227 12.3884 9.98357 12.2472C9.90438 12.168 9.66038 12.1637 9.3543 12.1295C9.24942 12.1166 9.11243 12.1102 8.97759 12.1102C8.41467 12.1102 7.74472 12.1808 6.99773 12.656C5.51872 13.5999 5.73704 15.1624 5.49731 15.5584H5.49303ZM11.1587 14.8756C10.7841 15.3208 10.3924 16.0721 10.3924 16.8383C10.3924 17.7587 10.9532 18.5292 11.8243 18.5292C12.6955 18.5292 13.0508 17.8101 13.0508 17.0759C13.0508 15.9329 12.0084 15.1303 11.1565 14.8756H11.1587ZM7.50714 11.6008C7.50714 11.6008 7.01057 11.9754 6.39842 11.9754C5.66426 11.9754 5.08422 11.4317 5.08422 10.6633C5.08422 10.1346 5.35819 9.58667 5.9896 9.31698C5.97462 9.41972 5.97462 9.50534 5.97462 9.60594C5.97462 10.5798 6.51828 11.314 7.50928 11.6029L7.50714 11.6008Z" fill="#191919" fill-opacity="0.6"/>
<path d="M37.5864 17.2647C37.5864 17.6606 37.9139 17.9817 38.3013 17.9817C38.6887 17.9817 39.0183 17.6585 39.0183 17.2647C39.0183 16.8708 38.6908 16.5498 38.3013 16.5498C37.9117 16.5498 37.5864 16.873 37.5864 17.2647ZM37.6378 19.4158C37.6378 19.861 37.9995 20.2184 38.4426 20.2184C38.8856 20.2184 39.2431 19.861 39.2431 19.4158C39.2431 18.9706 38.8835 18.6152 38.4426 18.6152C38.0016 18.6152 37.6378 18.9727 37.6378 19.4158ZM35.1827 20.8669C35.1827 21.5133 35.7114 22.0442 36.36 22.0442C37.0085 22.0442 37.5372 21.5133 37.5372 20.8669C37.5372 20.2205 37.0063 19.6897 36.36 19.6897C35.7136 19.6897 35.1827 20.2184 35.1827 20.8669ZM35.812 18.459C35.812 18.8357 36.1202 19.1418 36.4948 19.1418C36.8694 19.1418 37.1754 18.8357 37.1754 18.459C37.1754 18.0823 36.8694 17.7762 36.4948 17.7762C36.1202 17.7762 35.812 18.0844 35.812 18.459ZM33.5753 19.8267C33.5753 20.2013 33.8857 20.5052 34.2559 20.5052C34.6262 20.5052 34.9409 20.1991 34.9409 19.8267C34.9409 19.4543 34.6327 19.1418 34.2559 19.1418C33.8792 19.1418 33.5753 19.4521 33.5753 19.8267ZM35.3326 15.8327C35.3326 16.4299 35.8291 16.9243 36.4284 16.9243C37.0278 16.9243 37.52 16.4299 37.52 15.8327C37.52 15.2356 37.0256 14.7411 36.4284 14.7411C35.8313 14.7411 35.3326 15.2377 35.3326 15.8327ZM36.6125 13.733C36.6125 14.0905 36.9015 14.3837 37.2632 14.3837C37.6249 14.3837 37.9139 14.0905 37.9139 13.733C37.9139 13.3756 37.6206 13.0845 37.2632 13.0845C36.9058 13.0845 36.6125 13.3777 36.6125 13.733ZM33.5282 15.3704C33.5282 15.73 33.815 16.0211 34.1725 16.0211C34.5299 16.0211 34.821 15.7321 34.821 15.3704C34.821 15.0087 34.5299 14.7219 34.1725 14.7219C33.815 14.7219 33.5282 15.0108 33.5282 15.3704ZM33.4405 17.5879C33.4405 18.17 33.9049 18.6281 34.4807 18.6281C35.0565 18.6281 35.5231 18.17 35.5231 17.5879C35.5231 17.0057 35.0607 16.5498 34.4807 16.5498C33.9006 16.5498 33.4405 17.0078 33.4405 17.5879ZM31.2915 18.6795C31.2915 19.2103 31.7346 19.6512 32.2632 19.6512C32.7919 19.6512 33.2371 19.2103 33.2371 18.6795C33.2371 18.1486 32.7941 17.7099 32.2632 17.7099C31.7324 17.7099 31.2915 18.1529 31.2915 18.6795ZM31.8694 16.2737C31.8694 16.6504 32.1798 16.9586 32.5522 16.9586C32.9246 16.9586 33.235 16.6504 33.235 16.2737C33.235 15.8969 32.9289 15.593 32.5522 15.593C32.1755 15.593 31.8694 15.9012 31.8694 16.2737ZM37.8604 21.5305C37.8604 21.1901 38.1686 20.9012 38.5068 20.9012C38.8813 20.9012 39.1724 21.1901 39.1724 21.5305C39.1724 21.9222 38.8813 22.1983 38.5068 22.1983C38.1686 22.1983 37.8604 21.9222 37.8604 21.5305Z" fill="#191919" fill-opacity="0.6"/>
<path d="M38.3033 41.1533C38.3867 41.1533 38.4916 41.2026 38.4916 41.5108C38.4916 41.8853 38.3204 42.3819 37.7104 42.7693C37.2823 43.0604 36.7022 43.3023 35.8482 43.3151C35.9831 42.9063 36.088 42.4804 36.088 42.0716C36.088 41.9346 36.0708 41.8318 36.0537 41.682H36.2763C37.6248 41.682 38.2048 41.1533 38.3054 41.1533H38.3033ZM38.4424 39.4646C38.5772 39.3447 38.6115 39.1563 38.6115 38.968V38.5763C38.6115 38.0797 37.8602 37.7908 36.8371 37.7908C35.5914 37.7908 34.9257 38.3558 34.9257 38.5934V39.3768C34.9257 39.7021 35.677 40.0275 36.5995 40.0275C37.3337 40.0275 38.0015 39.8391 38.4424 39.4646ZM39.3264 39.6508C38.8833 39.9932 37.8431 40.7616 36.1201 40.7616C35.1975 40.7616 34.7866 40.4705 34.6517 40.4705C34.4805 40.4705 34.2922 40.6418 34.1038 40.8622C33.6993 41.3417 33.1685 42.2299 33.1685 43.1995C33.1685 43.8845 33.6971 44.563 34.6839 44.563C37.8795 44.563 40.2639 42.5703 40.2639 40.9478C40.2639 40.0275 39.7181 39.6508 39.3242 39.6508H39.3264Z" fill="#191919" fill-opacity="0.6"/>
<path d="M39.9236 25.3018C39.9236 25.7277 40.0606 26.2221 40.4887 26.2221C40.8461 26.2221 41.1544 25.6763 41.1544 25.0792C41.1544 24.3985 41.0345 23.8656 41.0345 23.5959C41.0345 23.476 41.0859 23.4246 41.1544 23.4246C41.4112 23.4418 41.6509 24.1438 41.9249 24.1438C42.231 24.1438 42.6869 23.5788 42.8752 23.5788C42.9266 23.5788 42.9416 23.6451 42.9416 23.6644C42.9416 23.9191 42.552 24.4841 42.552 24.7046C42.552 24.893 43.5409 24.9251 43.5409 25.1006C43.5409 25.3553 42.5028 25.3553 42.0062 25.5779C41.5289 25.7812 41.2378 26.0381 41.2378 26.3805C41.2378 26.723 41.5803 26.7893 42.0576 26.7893C43.2006 26.7893 43.9989 26.1772 44.2558 26.1772C44.3071 26.1772 44.3371 26.2114 44.3371 26.2607C44.3371 26.4319 43.7592 26.9927 43.7592 27.2517C43.7592 27.5406 44.8187 27.8767 44.7994 28.05C44.7845 28.0993 44.716 28.1185 44.5961 28.1185C44.4077 28.1185 44.1188 28.0672 43.8941 28.0672C43.7592 28.0672 43.6393 28.0864 43.588 28.1528C43.4681 28.2876 43.6222 29.1951 43.3846 29.1951C43.162 29.1951 42.582 27.181 41.2721 27.181C41.0837 27.181 40.9467 27.3351 40.9467 27.592C40.9467 28.2705 41.6124 29.0582 42.2459 29.4327C42.5328 29.6189 43.0101 29.8094 43.0101 29.9122C43.0101 30.1155 41.9228 29.9293 41.9228 30.2696C41.9228 30.58 42.0576 31.0423 42.0576 31.312C42.0576 31.3976 42.0405 31.5003 41.9377 31.5003C41.7344 31.5003 41.2378 30.565 41.0002 30.565C40.7969 30.565 40.3517 31.1258 40.1633 31.1258C40.112 31.1258 40.0777 31.0744 40.0777 31.0252C40.0777 30.6313 40.7113 29.7474 40.7113 28.8741C40.7113 28.4653 40.6599 27.5791 40.1633 27.5791C39.7545 27.5791 39.2922 28.2255 39.0889 28.8741C38.969 29.2487 39.0546 30.702 38.7828 30.702C38.5259 30.702 38.5923 29.7281 38.252 29.7281C37.9994 29.7281 37.4536 30.1904 37.2653 30.1904C37.231 30.1904 37.1989 30.1712 37.1989 30.1369C37.1989 29.9336 37.6912 29.2679 37.6912 29.1309C37.6912 28.8741 36.5654 28.842 36.5654 28.6365C36.5654 28.5145 37.0084 28.4332 37.4194 28.3604C38.2862 28.2084 39.5662 27.5791 39.5662 26.6909C39.5662 25.6999 38.6116 25.2739 37.9823 24.8651C37.6569 24.6618 37.2995 24.4906 37.2995 24.3536C37.2995 24.2166 37.7083 24.2187 37.8817 24.2187C38.1364 24.2187 38.389 24.1995 38.389 23.994C38.389 23.8399 38.3547 23.5338 38.3547 23.2962C38.3547 23.1271 38.374 22.9901 38.4425 22.9901C38.695 22.9901 39.0546 23.8249 39.2237 23.8249C39.4955 23.8249 39.8744 23.1443 40.1291 23.1443C40.2147 23.1443 40.249 23.1956 40.249 23.3476C40.249 23.9769 39.9236 24.6939 39.9236 25.3103V25.3018ZM31.7859 20.304C31.9742 21.753 33.922 21.021 33.922 22.7761C33.922 23.0308 33.8535 23.4075 33.8535 23.7307C33.8535 24.1096 33.8877 24.4328 34.1745 24.4328C34.4613 24.4328 34.532 24.2294 34.532 23.9555C34.532 23.6815 34.4635 23.3412 34.4635 23.1528C34.4635 22.5535 34.8894 22.4187 35.1484 22.4187C35.7948 22.4187 36.2914 23.0843 37.2653 23.0843C37.0427 24.1759 34.7888 23.8848 34.7888 25.0792C34.7888 25.6763 35.386 25.8133 35.7777 25.8133C36.1394 25.8133 36.2571 25.762 36.2571 25.4559C36.2571 25.2846 36.2229 25.0984 36.2229 24.9743C36.2229 24.9079 36.2743 24.8394 36.3577 24.8394C36.7323 24.8394 38.573 26.2393 38.573 26.6673C38.573 27.059 36.6296 27.4529 36.0666 27.4529C35.8933 27.4529 35.8612 27.333 35.8612 27.2667C35.8612 27.1468 36.1501 26.7872 36.1501 26.5817C36.1501 26.4298 35.8933 26.327 35.2126 26.327C34.8873 26.327 34.6497 26.3613 34.6497 26.616C34.6497 27.0783 35.401 27.6391 35.401 28.065C35.401 28.4075 35.1955 28.613 34.6497 28.613C34.1852 28.613 33.4896 28.2512 33.4896 27.6562C33.4896 27.1768 33.984 26.7016 33.984 26.4105C33.984 26.3249 33.9198 26.19 33.7122 26.19C33.0829 26.19 32.9096 27.8595 30.6729 28.0479C31.0324 27.7247 31.3407 27.3651 31.3407 26.6331C31.3407 26.2756 31.255 25.9824 31.255 25.5929C31.255 25.0792 31.4926 24.8223 31.8329 24.8223C32.4665 24.8223 32.7726 25.7106 33.1835 25.7106C33.4061 25.7106 33.6437 25.5072 33.6437 25.199C33.6437 23.902 31.1523 24.0903 31.1523 22.2646C31.1523 21.768 31.3235 21.1558 31.7816 20.304H31.7859Z" fill="#191919" fill-opacity="0.6"/>
<path d="M35.0243 31.3915C35.0243 31.6334 35.1977 31.8196 35.4374 31.8196C35.7092 31.8196 35.8783 31.5798 35.8783 31.308C35.8783 30.9506 35.5551 30.454 35.249 30.454C35.1099 30.454 35.1613 30.6595 35.127 30.8799C35.1099 31.0512 35.0243 31.2566 35.0243 31.3915ZM34.136 29.1227C35.9297 29.463 36.9014 30.8114 36.9014 32.0743C36.9014 32.9454 36.3578 33.7438 35.401 33.7438C34.5277 33.7438 33.9027 33.1487 33.9027 32.192C33.9027 31.475 34.4614 30.7258 34.4614 29.9874C34.4614 29.7006 34.3779 29.4073 34.136 29.1205V29.1227ZM31.8694 32.0229C32.0406 32.1941 32.092 32.3632 32.092 32.5366C32.092 32.7913 31.9721 33.0631 31.9721 33.3564C31.9721 33.763 32.2825 34.1205 32.7234 34.1205C33.2028 34.1205 33.5282 33.7459 33.5282 33.3029C33.5282 32.6522 32.8582 32.0229 31.8694 32.0229ZM37.52 30.9334C37.6377 31.1197 37.6891 31.308 37.6891 31.4771C37.6891 31.9565 37.3659 32.3996 37.3659 32.8919C37.3659 33.4591 37.7918 33.9172 38.4404 33.9172C39.1381 33.9172 39.6154 33.3564 39.6154 32.6886C39.6154 31.7853 38.7957 31.0169 37.5179 30.9334H37.52ZM32.2825 30.0281C33.068 30.1308 33.2542 30.4048 33.2542 30.6252C33.2542 31.0019 32.9117 31.1218 32.5885 31.1218C32.351 31.1218 32.0791 31.0704 31.7859 31.0704C31.4113 31.0704 31.0346 31.156 30.7285 31.5135C30.9533 31.5456 31.2765 31.6997 31.2765 32.0422C31.2765 33.031 28.5282 32.2134 28.5282 34.754C28.5282 36.1025 29.9259 37.5687 32.0427 37.5687C33.1386 37.5687 33.8385 37.2112 33.8385 36.8003C33.8385 36.4771 33.2563 36.6975 33.2563 36.4257C33.2563 36.3058 33.4618 36.0832 33.4618 35.8949C33.4618 35.8135 33.3955 35.6594 33.2563 35.6594C32.9503 35.6594 32.3681 36.1539 31.1909 36.1539C30.2705 36.1539 29.3651 35.6273 29.3651 34.9103C29.3651 34.754 29.4336 34.6684 29.5342 34.6684C29.6348 34.6684 29.7761 34.7391 29.8959 34.7391C29.9944 34.7391 30.0136 34.6684 30.0136 34.4822C30.0136 34.296 30.0136 33.763 30.339 33.763C30.6643 33.763 31.2765 34.9617 33.6352 34.9617C34.4186 34.9617 35.934 34.8076 36.499 34.296C36.4819 36.1688 35.0136 38.6453 31.9421 38.6453C28.8707 38.6453 27.0449 36.0854 27.0449 33.7309C27.0449 31.1218 29.1768 28.7502 32.0962 28.7502C32.8454 28.7502 33.4789 29.005 33.4789 29.3281C33.4789 29.7734 32.3681 29.5015 32.2846 30.0281H32.2825Z" fill="#191919" fill-opacity="0.6"/>
<path d="M21.2422 10.5413C22.3659 10.5413 22.8796 11.5151 22.8796 12.6067C22.8796 13.0819 22.7448 13.784 22.5222 13.784C22.2996 13.784 22.336 13.3923 22.3017 13.0327C22.2696 12.5746 22.1819 12.4719 22.0277 12.4719C21.7388 12.4719 21.5526 13.1525 21.5526 13.784C21.5526 14.1778 21.6189 14.6187 21.9271 14.6187C22.0984 14.6187 22.2525 14.5352 22.3552 14.4304C22.2889 15.2159 21.7045 15.8987 20.8848 15.8987C19.3865 15.8987 18.8236 14.1435 18.6502 13.1162C17.747 14.0708 16.9122 14.7707 15.4075 14.7707C14.0098 14.7707 13.3784 13.7476 13.3784 12.7737C13.3784 12.4826 13.4812 11.7335 13.8386 11.7335C14.2667 11.7335 13.8921 13.1333 14.7269 13.1333C14.9323 13.1333 15.3069 12.9599 15.5102 12.3991C15.6301 12.0567 15.7007 11.6992 15.7007 11.3931C15.7007 10.9308 15.598 10.6419 15.2555 10.6419C14.9666 10.6419 14.607 10.8623 14.4871 10.9822C14.8981 9.7536 15.8891 9.12646 16.9807 9.12646C18.327 9.12646 19.0419 10.3208 19.0419 11.65C19.0419 11.8362 19.0291 12.0417 18.9927 12.23C19.5727 11.2754 20.3732 10.5413 21.2444 10.5413H21.2422ZM19.9302 12.5575C19.9302 12.2664 19.8595 12.2001 19.791 12.2001C19.6198 12.2001 19.4336 12.4034 19.1618 12.8636C19.196 13.48 19.2966 13.7519 19.4678 13.7519C19.6562 13.7519 19.9302 13.1525 19.9302 12.5575ZM17.5907 13.2574C17.7791 13.2574 18.0188 13.0541 18.4618 12.5575C18.4961 12.3349 18.4961 12.1316 18.4961 11.8726C18.4961 11.5323 18.3613 11.1577 18.1558 11.1577C17.6421 11.1577 17.3874 12.5233 17.3874 12.8807C17.3874 13.084 17.4901 13.2574 17.5907 13.2574ZM20.3732 14.775C20.7992 14.775 21.2786 13.1376 21.2786 12.1123C21.2786 11.8897 21.2444 11.6521 21.1438 11.6521C20.7842 11.6521 20.187 13.3409 20.187 14.2591C20.187 14.6187 20.2748 14.7728 20.3754 14.7728L20.3732 14.775ZM16.193 13.8375C16.7731 13.8375 17.4366 10.6975 17.4366 10.1667C17.4366 10.0319 17.3874 9.92697 17.2675 9.92697C16.7388 9.92697 16.0047 12.915 16.0047 13.5806C16.0047 13.7005 16.0389 13.8375 16.193 13.8375Z" fill="#191919" fill-opacity="0.6"/>
<path d="M18.0535 15.1309C17.3193 15.1309 17.2851 16.0191 17.2851 17.8128C16.7414 16.6356 15.836 15.3706 14.7787 15.3706C14.0595 15.3706 13.7898 15.85 13.7898 16.6826C13.7898 16.856 13.8069 17.1129 13.839 17.2648C13.9268 16.9759 14.1986 16.856 14.5389 16.856C15.2731 16.856 16.1614 17.4168 16.7435 18.1852C16.0757 18.0675 15.4272 17.9476 14.8835 17.9476C14.5411 17.9476 14.2329 17.9819 13.9782 18.1017C13.4816 18.3222 12.8159 19.0563 12.8159 20.1651C12.8159 20.3342 12.8352 20.5246 12.8673 20.7301C13.4623 19.3967 15.0505 18.7995 16.0736 18.7995C16.2791 18.7995 16.431 18.8166 16.5488 18.8359C16.0244 19.3132 15.9045 20.1479 15.8703 20.7109C15.8531 20.9848 15.7504 21.002 15.5599 21.002C15.5599 21.5649 16.0051 22.3996 16.0051 22.8256C16.0051 22.9818 15.9216 23.1188 15.836 23.153C15.836 23.9022 16.5851 24.4501 16.5851 24.9253C16.5851 25.0452 16.5488 25.1479 16.4974 25.1993C16.5488 25.5075 17.375 26.0233 17.482 26.2823C17.6147 26.5969 17.7602 26.6505 17.8458 26.6505C18.1391 26.6505 18.5971 26.3101 18.5971 26.0019C18.5971 25.8992 18.5115 25.7815 18.4451 25.7301C18.1219 25.4925 17.9507 24.9767 17.8137 24.6363C17.6939 24.6363 17.5398 24.5893 17.4863 24.3881C17.3921 24.0328 17.3878 23.3756 17.2508 22.984C17.0303 22.9326 16.9298 22.8491 16.9298 22.3868C16.9298 22.1663 17.0646 21.2952 17.0646 20.987C16.9619 20.987 16.8249 20.9185 16.8249 20.713C16.8249 20.1672 17.3685 19.7391 17.5226 19.0414C18.4965 19.7605 18.732 20.4925 18.732 21.1389C18.732 21.4793 18.6827 21.8067 18.6142 22.1128C19.3313 21.7554 20.4057 21.2246 20.4057 20.1501C20.4057 19.5187 20.1147 18.8188 18.1883 18.5448C18.7855 18.3243 19.5346 18.2045 20.1682 18.2045C21.2576 18.2045 21.889 18.5448 22.026 19.3132C22.2508 18.9729 22.422 18.579 22.422 18.2194C22.422 17.3826 21.7199 16.8389 20.8338 16.8389C19.7936 16.8389 18.8732 17.3826 17.8844 18.0504C18.3274 17.13 18.6335 16.5842 19.1814 16.5842C19.2671 16.5842 19.3527 16.6013 19.4362 16.6184C19.2328 15.865 18.4644 15.1309 18.0556 15.1309H18.0535Z" fill="#191919" fill-opacity="0.6"/>
<path d="M46.7986 27.4316C47.6505 27.4316 48.3332 28.5446 48.3332 29.8396C48.3332 31.2201 47.6847 32.7227 46.5289 33.7458C46.5096 31.447 43.6929 32.179 43.6929 30.5074C43.6929 29.7904 44.2044 29.3109 44.8209 29.3109C45.3645 29.3109 45.7947 29.4629 46.1008 29.7732C45.7947 29.4843 45.6385 29.0712 45.6385 28.6773C45.6385 28.0309 46.0494 27.4316 46.7986 27.4316Z" fill="#191919" fill-opacity="0.6"/>
<path d="M34.1381 9.98032C34.0032 9.75558 33.4917 9.63785 33.2541 9.63785C32.5028 9.63785 31.9934 10.1644 31.8885 10.6438C31.82 10.4747 31.7687 10.2671 31.7687 10.0638C31.7687 9.31252 32.2823 8.39429 33.5302 8.39429C34.6197 8.39429 35.0435 8.97219 35.1976 8.97219C35.3709 8.97219 35.54 8.80096 35.677 8.80096C35.8632 8.80096 35.8632 9.09205 35.8632 9.29753C35.8632 9.98032 35.5571 11.1554 34.7887 11.5835C34.6539 11.2945 34.3799 10.967 33.939 10.7637C33.817 10.7123 33.7678 10.6096 33.7678 10.5069C33.7678 10.3206 33.939 10.0809 34.1381 9.98032ZM31.5632 11.2239C32.0105 11.652 32.3979 11.8382 32.8752 11.8382C33.0657 11.8382 33.2862 11.7889 33.4082 11.7889C33.5602 11.7889 33.665 11.8553 33.665 11.973C33.665 12.1635 33.4917 12.4696 33.2883 12.6408C33.4917 12.7264 33.7143 12.7585 33.954 12.7585C34.9236 12.7585 36.0302 12.1443 36.0302 10.6096C36.2378 10.8814 36.3577 11.4465 36.3577 11.7012C36.3577 13.5612 34.9899 14.2761 33.7314 14.2761C32.9095 14.2761 32.4985 14.0064 32.3979 14.0064C32.0769 14.0064 32.0919 14.6507 31.8693 14.6357C31.4776 14.5672 31.1201 13.696 31.1201 12.7735C31.1201 12.2277 31.255 11.6498 31.5632 11.2196V11.2239Z" fill="#191919" fill-opacity="0.6"/>
<path d="M16.9616 0.374723C16.9616 0.271984 16.4479 0.167105 15.7501 0.167105C14.6393 0.167105 14.7955 1.08961 13.9415 1.08961C13.0875 1.08961 13.2737 0.132858 12.1478 0.132858C11.4651 0.132858 10.8358 0.25272 10.8358 0.408969C10.8358 0.612306 11.6363 0.52669 11.6363 1.08961C11.6363 1.68678 9.91328 1.85801 9.91328 2.21332C9.91328 2.33318 10.0481 2.38669 10.2215 2.38669C10.5961 2.38669 11.1932 2.21332 11.6213 2.21332C11.8589 2.21332 12.0815 2.26469 12.0815 2.48943C12.0815 2.91537 11.159 3.68377 11.159 4.02409C11.159 4.12683 11.2425 4.15894 11.3281 4.15894C11.6705 4.15894 12.2506 3.28994 12.7985 3.28994C13.7018 3.28994 13.1025 5.21843 13.599 5.21843C14.0956 5.21843 13.8901 3.32204 14.62 3.32204C15.2193 3.32204 15.6624 4.6341 16.0712 4.6341C16.1739 4.6341 16.2595 4.55063 16.2595 4.43077C16.2595 4.07118 15.748 3.33703 15.748 2.86186C15.748 2.57291 15.9535 2.43164 16.2253 2.43164C16.617 2.43164 17.1478 2.6735 17.4368 2.6735C17.5395 2.6735 17.6401 2.63926 17.6401 2.5194C17.6401 2.10844 16.1226 1.66538 16.1226 1.13884C16.1226 0.612306 16.9594 0.610166 16.9594 0.372582L16.9616 0.374723ZM20.9705 2.11272C20.9705 2.42094 22.045 3.0866 22.5395 3.0866C22.8284 3.0866 22.914 2.69491 22.914 2.28395C22.914 1.77454 22.6936 1.75528 22.2505 1.75528C21.6854 1.75528 20.9705 1.90938 20.9705 2.11272ZM22.7449 5.48812C22.7449 4.46715 19.9753 2.60501 19.9453 1.8045C19.9453 1.72959 19.9838 1.65896 20.0438 1.59475C20.5189 1.09389 22.4881 0.730028 22.4881 0.301949C22.4881 0.0814889 22.0771 0.0814889 21.8738 0.0814889C20.2878 0.0814889 17.9676 0.663675 17.9676 1.22446C17.9676 1.78524 20.048 3.22572 20.048 3.92349C20.048 4.10971 19.9303 4.1782 19.7398 4.1782C19.1619 4.1782 17.8969 3.48043 17.3019 3.48043C17.0301 3.48043 16.9273 3.66879 16.9273 3.94062C16.9273 4.76039 17.8969 6.31431 17.8969 6.77235C17.8969 6.82158 17.882 6.89222 17.8113 6.89222C17.5052 6.89222 16.0562 5.18418 15.5447 5.18418C15.3563 5.18418 15.3392 5.44317 15.3392 5.81774V6.39565C15.3392 6.78948 15.322 7.0292 15.1358 7.0292C14.6928 7.0292 14.4852 5.78563 14.0614 5.78563C13.6376 5.78563 13.5305 8.00308 13.1046 8.00308C12.6102 8.00308 13.0382 5.56089 12.5588 5.56089C12.0323 5.56089 11.433 7.18331 11.0562 7.18331C10.9214 7.18331 10.8872 7.04846 10.8872 6.9286C10.8872 6.43203 11.1761 5.63153 11.1761 5.15208C11.1761 4.91449 11.1076 4.77751 10.9021 4.77751C10.3735 4.77751 9.21337 5.63153 8.77245 5.63153C8.70182 5.63153 8.6162 5.59728 8.6162 5.52665C8.6162 5.11783 10.4741 3.82289 10.4741 3.24285C10.4741 2.6628 7.91415 3.05663 7.91415 2.40595C7.91415 1.86015 9.74205 1.29509 9.74205 0.734308C9.74205 0.239878 7.57597 0.0151367 6.73908 0.0151367C5.73309 0.0151367 5.18729 0.132858 5.18729 0.423952C5.18729 0.869153 7.47537 1.004 7.47537 1.39569C7.47537 1.78738 5.10596 2.78052 5.10596 3.36057C5.10596 3.87212 8.44925 3.39268 8.44925 3.92349C8.44925 4.5014 5.52975 7.00994 5.52975 7.84469C5.52975 8.03519 5.66888 8.1208 5.85723 8.1208C6.74122 8.1208 9.04428 6.42989 9.67783 6.42989C9.89829 6.42989 9.91542 6.706 9.91542 6.9393C9.91542 7.38451 9.76345 8.06729 9.76345 8.56172C9.76345 8.95341 9.86191 9.22738 10.2044 9.22738C10.8379 9.22738 11.4158 8.15291 11.8439 8.15291C12.3897 8.15291 12.0644 11.31 12.8841 11.31C13.5819 11.31 13.8751 7.89606 14.3161 7.89606C14.757 7.89606 15.1187 8.88492 15.5297 8.88492C16.0412 8.88492 15.8036 7.16191 16.3494 7.16191C16.9466 7.16191 18.6504 9.21026 19.4188 9.21026C19.6585 9.21026 19.742 9.02405 19.742 8.78218C19.742 7.87894 18.4813 5.83272 18.4813 5.18204C18.4813 5.01295 18.5305 4.96372 18.7189 4.96372C19.3845 4.96372 21.3323 5.88195 22.2526 5.88195C22.5587 5.88195 22.7471 5.71286 22.7471 5.48598L22.7449 5.48812ZM7.1693 4.49926C7.1693 4.84172 5.87008 5.98469 5.41203 5.98469C5.24294 5.98469 5.18943 5.78135 5.18943 5.593C5.18943 5.25054 5.34568 4.77323 5.52975 4.62126C5.75236 4.41364 6.26391 4.31304 6.6556 4.31304C6.89318 4.31304 7.1693 4.36441 7.1693 4.49926ZM19.7077 6.25652C19.7077 6.85369 21.8417 9.77104 22.2505 9.77104C22.5908 9.77104 22.8477 9.17387 22.8477 8.66232C22.8477 8.52748 22.8134 8.39263 22.7449 8.28775C22.4389 7.85967 20.2706 6.15378 19.7933 6.15378C19.742 6.15378 19.7077 6.20729 19.7077 6.25652Z" fill="#191919" fill-opacity="0.6"/>
<path d="M47.1067 1.08925C47.1067 1.32897 47.2929 1.51732 47.5348 1.51732C47.7767 1.51732 47.9586 1.32897 47.9586 1.08925C47.9586 0.849522 47.7724 0.663308 47.5348 0.663308C47.2972 0.663308 47.1067 0.849522 47.1067 1.08925ZM44.3242 4.86062C44.3242 3.64916 41.4261 3.34094 41.4261 3.06697C41.4261 2.84651 43.0464 2.47194 43.879 2.45268C42.599 0.817416 40.7776 0.986507 40.7776 0.697554C40.7776 0.528463 42.1431 0.18386 43.4038 0.18386C44.4612 0.18386 45.4522 0.423584 45.4522 1.22409C45.4522 1.66929 45.0926 2.13162 45.0926 2.81226C45.0926 3.19111 45.281 3.51431 45.7733 3.51431C46.3041 3.51431 46.4239 2.94925 46.4239 2.34994C46.4239 1.85765 46.3362 1.48308 46.3362 1.24121C46.3362 0.526323 46.8285 0.046875 47.5327 0.046875C48.1106 0.046875 48.2454 0.301582 49.0994 0.301582C48.6392 0.577692 48.4701 1.07426 48.4701 1.31185C48.4701 2.02674 48.9282 2.52331 48.9282 3.98948C48.9282 6.68423 46.4047 7.64099 43.3161 7.64099C42.4642 7.64099 41.561 7.57249 40.6727 7.43765C40.5336 7.42267 40.5015 7.38628 40.5015 7.30066C40.5015 7.0802 41.7129 6.96034 41.7129 5.86874C41.7129 5.4428 41.5781 5.03185 41.5781 4.87774C41.5781 4.78998 41.6466 4.7429 41.7129 4.7429C41.9698 4.7429 42.4835 5.73176 43.4338 5.73176C43.6885 5.73176 44.3199 5.64614 44.3199 4.86062H44.3242ZM47.2073 3.13546C47.2073 4.653 46.1007 5.81523 44.1016 6.14057C44.3242 6.15555 44.5297 6.15555 44.7352 6.15555C47.0682 6.15555 47.9243 5.10034 47.9243 4.21208C47.9243 3.71765 47.6504 3.27459 47.2073 3.1376V3.13546Z" fill="#191919" fill-opacity="0.6"/>
<path d="M46.0343 25.1308C46.3061 24.2768 46.6464 23.6796 47.2093 22.7593C46.6485 22.4703 45.1653 21.856 45.1653 20.8479C45.1653 19.6728 46.6314 18.7525 46.9375 18.7525C47.0702 18.7525 47.1087 18.868 47.1087 19.0928C47.1087 19.7071 46.8176 20.6981 46.8176 21.2246C46.8176 21.7019 47.1237 22.1642 47.3977 22.1642C47.6888 22.1642 48.4893 21.139 48.4893 20.133C48.4893 18.3244 46.9011 17.7764 46.411 17.7764C45.9529 17.7764 45.116 18.532 43.1533 18.532C39.4868 18.532 38.6499 14.8955 38.6499 13.3094C38.6499 13.2409 38.6627 13.2217 38.6841 13.2217C38.7676 13.2217 39.1272 13.6669 40.2873 13.6669C40.8866 13.6669 41.4324 13.5149 42.3036 13.5149C44.3455 13.5149 45.2552 14.9276 46.5158 16.7383C47.2821 17.2157 49.1079 17.9841 49.1079 20.1501C49.1079 22.0615 47.0723 23.121 46.5822 25.1672C47.3656 25.0816 47.8279 23.6818 48.6305 23.6818C49.0394 23.6818 49.2277 24.0071 49.2277 24.5187C49.2277 25.2699 48.8018 26.3958 47.9841 27.0936C48.0013 27.0272 48.0013 26.9416 48.0013 26.8389C48.0013 26.3615 47.8129 25.6788 47.2671 25.6788C46.4152 25.6788 46.1456 26.6013 45.664 27.3675C45.1717 25.6274 44.506 24.0563 43.3117 23.1017C42.1024 22.1321 40.0198 22.6587 40.0198 20.8843C40.0198 20.407 40.3258 19.7263 40.3258 19.1784C40.3258 18.99 40.2916 18.8188 40.191 18.6818C41.8305 19.2961 41.2483 20.3899 42.2586 21.5157C42.8857 22.2349 44.6259 22.9177 45.6361 25.8671C45.649 25.7836 45.6661 25.561 45.6661 25.4091C45.6661 22.8813 42.3271 20.4091 42.036 19.3839C43.9752 19.6065 44.3198 20.0859 45.2402 22.6437C45.4285 23.1724 46.0428 24.4866 46.0428 25.1351L46.0343 25.1308ZM45.5891 16.8561C45.5891 16.4986 44.6858 16.4665 44.6002 15.4584C44.5831 15.3043 44.5317 15.0303 44.3412 15.0303C44.0351 15.0303 44.2749 15.9678 43.9324 15.9678C43.1511 15.9678 42.8922 14.4331 42.6032 14.4331C42.5369 14.4331 42.4555 14.4845 42.4555 14.69C42.4555 14.8783 42.4898 14.9961 42.4898 15.2187C42.4898 15.4413 42.4363 15.5932 42.2329 15.5932C41.7706 15.5932 41.3618 14.5188 40.9679 14.5188C40.8845 14.5188 40.7989 14.5701 40.7989 14.6536C40.7989 14.8591 41.1392 15.2358 41.1392 15.4241C41.1392 15.833 40.0283 15.6104 40.0283 15.955C40.0283 16.1048 40.1824 16.1583 40.3879 16.1583C40.7453 16.1583 41.3083 16.002 41.5994 16.002C41.7706 16.002 42.0274 16.0363 42.0274 16.2568C42.0274 16.4986 41.411 16.8047 41.411 17.0252C41.411 17.1279 41.5159 17.1771 41.5994 17.1771C42.0595 17.1771 42.875 16.3766 43.4572 16.3766C43.56 16.3766 43.8147 16.4301 43.8147 16.5821C43.8147 16.8047 43.2368 17.1942 43.2368 17.5196C43.2368 17.6031 43.286 17.7079 43.3887 17.7079C43.6948 17.7079 44.1036 16.9074 44.6858 16.9074C44.9063 16.9074 45.2316 16.9909 45.4028 16.9909C45.5377 16.9909 45.5912 16.9074 45.5912 16.8561H45.5891Z" fill="#191919" fill-opacity="0.6"/>
<path d="M32.8772 6.63307C33.1512 6.63307 33.2026 7.30088 33.2539 7.69043C33.2882 7.89805 33.3224 7.91517 33.4102 7.91517C33.6157 7.91517 33.9389 7.12965 34.155 7.12965C34.4825 7.12965 35.3515 8.03289 36.8027 8.03289C38.8639 8.03289 40.8138 6.58171 40.8138 4.02394C40.8138 1.46617 39.0715 0.102739 36.6657 0.102739C35.5227 0.102739 34.6837 0.665662 34.2407 0.665662C33.971 0.682785 33.5579 0 33.3545 0C33.2711 0 33.1854 0.166951 33.1854 0.460184C33.1854 0.646398 33.1854 1.24143 32.98 1.24143C32.569 1.24143 30.983 0.0684925 30.983 0.49229C30.983 0.883982 32.0403 2.07618 32.0403 2.38654C32.0403 2.69689 30.998 2.98371 30.998 3.18918C30.998 3.56375 32.1088 3.63225 32.1088 4.10741C32.1088 4.58258 30.9487 4.96357 30.9487 5.31887C30.9487 5.60783 32.1088 5.40663 32.1088 5.76408C32.1088 6.12152 31.2569 7.31586 31.2569 7.65832C31.2569 7.73966 31.2741 7.73966 31.3426 7.73966C31.6658 7.73966 32.6396 6.63093 32.8772 6.63093V6.63307ZM33.3738 3.83772C33.3738 3.64937 32.7081 3.29192 32.7081 3.08645C32.7081 3.05434 32.7424 3.03508 32.7959 3.03508C32.9842 3.03508 33.3074 3.10357 33.5622 3.10357C33.789 3.10357 33.819 2.14895 33.9881 2.14895C34.1079 2.14895 34.3113 3.0522 34.5018 3.0522C34.7222 3.0522 35.1311 2.79535 35.3044 2.79535C35.3365 2.79535 35.3729 2.81248 35.3729 2.84672C35.3729 2.96658 34.9448 3.42891 34.9448 3.56375C34.9448 3.71572 35.8995 3.90408 35.8995 4.03892C35.8995 4.21015 34.9277 4.19303 34.9277 4.34714C34.9277 4.467 35.2852 4.94431 35.2852 5.09841C35.2852 5.13266 35.268 5.14764 35.2338 5.14764C35.099 5.14764 34.5724 4.91006 34.4183 4.91006C34.2278 4.91006 33.926 5.60783 33.7719 5.60783C33.7184 5.60783 33.6884 5.54147 33.6884 5.45586L33.652 4.77521C33.652 4.70886 33.6199 4.63609 33.5343 4.63609C33.3267 4.63609 32.935 4.62325 32.813 4.62325C32.7295 4.62325 32.6932 4.60398 32.6932 4.56974C32.6932 4.43275 33.3759 3.95544 33.3759 3.83772H33.3738ZM36.7021 7.08042C35.5056 7.08042 34.7222 6.48111 34.7222 6.17503C34.7222 6.02092 34.825 5.91818 34.9598 5.91818C35.3344 5.91818 36.1542 6.49823 36.4303 6.49823C36.4966 6.49823 36.5501 6.46826 36.5501 6.36125C36.5501 6.05517 36.2612 5.54362 36.2612 5.28677C36.2612 5.22042 36.3126 5.17119 36.4132 5.17119C36.8733 5.17119 37.5561 5.35954 37.9178 5.35954C38.0356 5.35954 38.0677 5.28677 38.0677 5.22042C38.0677 4.84585 36.9568 4.10955 36.9568 3.88909C36.9568 3.68576 38.3374 3.37754 38.3374 3.05434C38.3374 2.71188 36.4624 2.94946 36.4624 2.62626C36.4624 2.38868 36.8198 1.97772 36.8198 1.79151C36.8198 1.70589 36.7535 1.67165 36.6315 1.67165C36.4795 1.67165 35.6576 1.99485 35.3194 1.99485C35.1482 1.99485 34.9427 1.9606 34.9427 1.72302C34.9427 1.33132 35.6084 0.903245 36.6507 0.903245C38.3374 0.903245 39.3433 2.06548 39.3433 4.00895C39.3433 6.47041 37.6225 7.08256 36.7 7.08256L36.7021 7.08042Z" fill="#191919" fill-opacity="0.6"/>
<path d="M25.1488 36.594C25.1488 36.7502 25.0995 36.9215 24.9604 37.0906C24.7721 36.7502 24.2412 36.5769 24.0037 36.5769C22.2485 36.5769 22.9121 39.1197 21.0371 39.1197C20.2516 39.1197 20.1809 39.0148 19.892 39.0148C19.7721 39.0148 19.7036 39.0704 19.7036 39.171C19.7036 39.6141 20.3372 40.7057 22.0923 40.7057C23.8474 40.7057 25.5426 39.6312 25.5426 38.2999C25.5426 38.0794 25.4912 37.8418 25.3864 37.6021C25.4527 37.4994 25.6282 37.4309 25.778 37.4309C26.052 37.4309 26.2061 37.7413 26.463 37.7413C26.7369 37.7413 26.9403 37.5336 26.9403 37.2618C26.9403 37.0413 26.8204 36.8872 26.6171 36.7824C26.7519 36.6796 26.8547 36.5105 26.8547 36.3222C26.8547 36.0332 26.6513 35.7635 26.3089 35.7635C26.1526 35.7635 26.052 35.8149 25.9322 35.9305C25.9022 35.6265 25.7288 35.3354 25.4035 35.3354C25.1445 35.3354 24.9583 35.5217 24.9583 35.8149C24.9583 36.0867 25.1466 36.3093 25.1466 36.5961L25.1488 36.594Z" fill="#191919" fill-opacity="0.6"/>
<path d="M20.5592 37.2444C20.0476 37.2444 19.2792 36.6943 19.2792 36.3904C19.2792 36.1335 19.5168 35.9944 19.7051 35.9944C20.1332 35.9944 20.8995 36.5252 20.8995 36.9683C20.8995 37.0881 20.8139 37.2422 20.5592 37.2422V37.2444ZM15.7989 33.4238C17.1645 33.7598 17.843 34.4983 17.9821 35.3673C18.117 36.202 18.2882 36.8869 18.6114 37.2272C19.0373 37.7046 19.8742 38.1284 20.6084 38.1284C21.2205 38.1284 21.715 37.9272 21.715 37.3621C21.715 36.7499 20.8781 35.3651 19.6516 35.3651C19.5318 35.3651 19.3777 35.3844 19.2086 35.3844C19.0545 35.3844 18.8319 35.3501 18.697 35.2303C18.4231 34.9927 18.3396 33.7106 17.828 32.9443C17.2651 32.0903 16.6508 31.8506 15.8139 31.8506C15.2167 31.8506 14.5532 32.1759 14.5532 32.6511C14.5532 32.9443 14.7052 33.1477 15.7989 33.4238Z" fill="#191919" fill-opacity="0.6"/>
<path d="M24.3655 31.3391C24.3655 30.5729 22.7773 30.5579 22.7773 29.3957C22.7773 29.1046 22.9636 28.6123 23.3381 28.0815C23.4944 28.9676 23.8497 29.4278 24.6202 29.721C26.1356 30.2818 26.3411 31.1358 26.3411 32.0412C26.3411 33.5758 25.2666 35.4851 22.5034 35.4851C20.2838 35.4851 18.6978 33.5052 18.6978 31.8357C18.6978 31.3755 18.8176 30.8597 19.1066 30.8597C19.3634 30.8597 19.449 31.0673 19.6545 31.2728C20.4208 32.039 21.2577 32.2445 22.4713 32.2445C23.5607 32.2445 24.3655 31.8015 24.3655 31.3391ZM24.4319 32.5677C23.8454 32.8374 23.6121 32.7925 23.6121 33.3918C23.6121 33.6122 23.5607 33.9012 23.5607 34.0553C23.5607 34.2586 23.595 34.3785 23.8347 34.3785C24.449 34.3785 25.4207 33.3383 25.4207 32.45C25.4207 32.2124 25.2859 32.1075 25.1318 32.1075C24.9969 32.1075 24.8428 32.3815 24.434 32.5656L24.4319 32.5677ZM18.9888 23.9548C18.9888 22.861 21.5809 22.281 21.5809 20.9347C21.5809 20.7099 21.4974 20.3182 21.3411 20.0293C22.2465 20.5259 22.91 21.3606 22.91 22.0434C22.91 23.2185 21.6815 23.7643 21.6815 24.4984C21.6815 25.3525 22.9935 25.4894 22.9935 26.5468C22.9935 27.4179 21.7478 28.4239 21.7478 29.5476C21.7478 30.4188 22.3621 31.1337 23.3017 31.2535C22.9935 31.322 22.7217 31.3755 22.4327 31.3755C20.7076 31.3755 18.9353 29.9586 18.9353 28.2677C18.9353 27.4308 19.2928 26.7009 19.8386 26.1722C20.318 26.581 20.7953 26.8529 21.1014 26.8529C21.3754 26.8529 21.4952 26.718 21.4952 26.5125C21.4952 25.879 18.9867 25.3011 18.9867 23.9526L18.9888 23.9548Z" fill="#191919" fill-opacity="0.6"/>
<path d="M9.09128 32.3818C9.16406 32.9619 9.70772 33.4049 10.3241 33.3365C10.5446 33.3151 10.7501 33.2508 10.8849 33.1652C11.0198 33.711 11.48 34.0642 12.0985 33.9807C12.7278 33.8994 13.1537 33.4049 13.0853 32.7735C13.0681 32.6002 13.036 32.4953 12.9825 32.3797C12.9825 32.3797 13.0681 32.369 13.1281 32.3562C13.7445 32.2427 14.1597 31.7461 14.1084 31.149C14.0399 30.5368 13.4898 30.0809 12.914 30.1473C12.6936 30.1772 12.4881 30.2607 12.349 30.3806C12.197 29.869 11.7154 29.4238 11.0604 29.533C10.4633 29.6314 10.0737 30.1366 10.1337 30.7744C10.1422 30.8771 10.1658 30.9949 10.2193 31.1147C10.2193 31.1147 10.1187 31.1276 10.0502 31.1383C9.55147 31.2132 9.01209 31.714 9.09128 32.3776V32.3818ZM12.2805 31.7098C12.3233 32.0672 12.0686 32.3861 11.7133 32.4311C11.3558 32.4717 11.0348 32.2149 10.9941 31.8596C10.9491 31.5021 11.206 31.1789 11.5613 31.1383C11.9187 31.0976 12.2398 31.3523 12.2805 31.7098Z" fill="#191919" fill-opacity="0.6"/>
</svg>
