<?xml version="1.0" encoding="UTF-8"?><svg id="Layer_1" xmlns="http://www.w3.org/2000/svg" viewBox="0 0 261.84 289.66"><path d="M105.16,282.45c2.25,0,6.12-.73,9.17-5.61-1.75-3.86-2.98-11.68-3.16-14.53-.9-14.57,4.72-28.27,10.85-28.65,4.51-.27,8.11,3.99,8.53,10.89,1.1,18.15-4.94,25.72-7.96,32.27,.51,2.53,4.8,6.83,8.85,6.83,1.51,0,3.31-.76,3.77-1.35-.31-1.05-.61-2.4-.61-4.36,0-10.52,6.76-19.38,12.62-19.38,4.66,0,7.36,6.15,7.36,10.22,0,4.8-4.06,8.71-10.06,12.48,1.06,1.05,3,1.8,4.66,1.8,8.56,0,13.05-10.37,16.37-19.84,.61-1.8,1.67-4.35,3.76-4.35,3.61,0,5.12,23.74,11.11,23.74,2.55,0,4.64-5.27,4.64-9.31,0-3.01-1.05-3.31-1.05-7.67,0-4.81,2.57-8.84,6.02-8.84,2.11,0,2.86,2.08,2.86,4.64,0,9.6-6.92,27.49-17.12,27.49-7.67,0-7.08-13.22-9.77-13.22-3.02,0-7.23,13.37-22.09,13.37-2.42,0-4.97-1.2-7.06-3.61-3.61,2.41-6.62,3.46-10.07,3.46-5.55,0-7.96-5.71-10.2-5.71-2.71,0-5.71,5.85-14.73,5.85-7.22,0-8.41-9.6-10.96-9.6-2.26,0-5.7,9.6-9.45,9.6-6.33,0-7.66-16.66-13.23-16.66-4.35,0-18.12,16.91-21.85,16.53-1.5-.16-2.14-1.28-1.98-2.77,.21-2.09,2-7.66,2.72-10.27,1.22-4.57,2.33-9.59,2.95-11.18,.63-1.6,2.29-2.76,3.63-2.63,.68,.06,.89,1.32,1.1,2.34,.76,3.72,1.81,7.51,3.01,7.51,2.11,0,9.08-13.37,13.12-13.37,4.97,0,5.56,21.04,12.33,21.04,2.27,0,3.91-2.7,5.41-6.02,.16-5.57,1.67-13.52,6.16-13.52,3.16,0,4.67,7.05,2.4,13.22,0,7.36,4.82,9.16,7.97,9.16Zm120.17-18.03c-1.85,7.72-7.49,19.09-15.92,19.09-1.95,0-5.41-.76-5.41-2.71,0-2.11,13.22-2.39,13.22-12.48,0-3.75-3.45-9.01-8.56-9.01-6.75,0-13.35,7.37-13.35,17.59,0,9.15,5.69,12.16,11.4,12.16,9.91,0,15.92-8.12,19.07-14.88,1.52,4.51,2.4,14.88,6.17,14.88,1.51,0,2.56-.75,4.37-4.8,4.5-10.07,8.86-21.65,14.88-21.65,2.24,0,.89,4.07,6.29,4.07,2.56,0,4.35-2.1,4.35-4.52,0-3.46-3.14-6.16-7.96-6.16-14.11,0-17.11,21.19-19.37,21.19-3.75,0-2.56-16.99-5.26-16.99-2.4,0-3.6,2.88-3.92,4.21Zm-99.65-15.81c-.26-4.2-1.28-6.1-3.53-5.94-2.99,.17-4.37,9.6-3.76,19.49,.39,6.45,1.35,7.45,2.25,7.39,1.65-.1,5.61-11.63,5.04-20.93Zm-24.44-8.83c-.21-2.41-2.09-4.04-4.65-4.04-2.84,0-5.53,2.98-5.26,6.75,.19,2.48,1.65,4.52,4.52,4.52,3.29,0,5.69-3.76,5.39-7.22Zm46.72,30.65c0-2.56-1.35-4.65-2.99-4.65-1.37,0-4.52,1.49-4.52,6.3,0,3.77,1.34,5.56,1.96,6.33,4.33-1.36,5.54-4.97,5.54-7.97Zm58.74-5.09c3.15,0,4.05,3.74,3.3,6-.76,2.24-3.44,4.81-7.66,5.56-.89-2.26-1.35-11.56,4.36-11.56Zm-172.98-10.67c-.44-1.37-1.68-4.43-2.03-6.7-.75-5.01,1.87-8.32,4.3-9.08,2.69-.76,3.75,.59,4.79,3.76,1.35,4.8,1.51,11.1,1.05,20.12-.58,12.32-6.75,27.2-22.07,26.89-13.22-.3-19.07-8.86-19.69-21.93-.28-6.16,.16-12.31,2.72-21.03,1.35-4.65,2.55-6.32,6.75-7.22,3.31-.59,3.01,2.86,2.26,6.93-1.65,9.01-2.41,13.37-1.8,23.58,.59,10.82,5.56,15.02,10.96,15.02,8.11,.16,11.72-6.6,13.22-16.37,1.2-7.82,.31-11.57-.45-13.97Z"/><g><path d="M210.9,59.22c1.05,7.57,12.53,17.78,15.62,17.54,2.08-.19,2.88-9.88,2.88-17.54,0-4.39,.24-7.81-2.07-8.61-3.68,7.42-13.32,8.93-16.44,8.61Zm.66-3.35c8.28,0,15.86-6.62,15.86-12.43,0-2.72-1.29-4.94-4.55-5.34,.56,.71,.8,1.27,.8,2.55,0,4.37-6.69,9.25-13.94,9.25-2.64,0-3.43,1.83-3.43,2.79,0,2.23,2.15,3.18,5.26,3.18Zm-1.77-9.01c-1.11,0-2.71,0-3.58-1.76-.72-1.43-.48-3.75-1.83-4.77,1.35,.38,2.78,.38,3.91,.38,3.59,0,7.02-2.46,9.65-2.46,1.75,0,2.3,1.11,2.3,2.23,0,3.51-7.07,6.38-10.45,6.38Z"/><path d="M31.48,109.36c2.71,0,2.16-16.57,6.54-16.57,1.03,0,1.35,1.03,1.35,2.3,0,3.75-1.82,9.26-1.82,12.28,0,1.51,.38,1.99,1.11,1.99,1.92,0,5.26-18.26,8.53-18.26,1.05,0,1.52,1.05,1.52,2.08,0,3.83-4.86,14.83-4.86,17.93,0,.47,.15,.88,.55,.88,2,0,5.99-8.6,7.25-12.91,.72-2.23,1.67-3.43,2.56-3.43,.8,0,1.52,.87,1.52,2.72,0,4.3-4,14.43-7.49,21.2-2.71,5.26-6.93,12.84-6.93,17.05,0,2.16,.38,4.4,3.5,7.11-5.1-.32-7.18-.8-9.09-4.78-8.52,16.97,15.7,15.3,7.4,30.37-1.5-2.71-13.45-5.49-13.45-21.28,0-13.64,11.95-21.61,11.95-27.27,0-1.12-.4-2.06-1.43-2.94-2.63-2.24-2.71-4.07-4.78-4.07-1.52,0-3.36,3.51-1.44,6.61,.64,1.03,1.2,1.67,1.2,2.64,0,2.22-3.51,8.21-5.97,8.21s-4.39-6.14-4.39-16.02c0-8.77,1.99-17.62,4.46-17.62,.72,0,.96,.48,.96,1.12,0,1.03-.31,3.1-.31,6.62,0,3.75,.88,4.06,1.59,4.06Z"/><path d="M51.81,132.71c3.35,0,6.13-2.49,6.13-7.97v-8.13c0-3.11,.24-6.6,2.32-9.1-.23,1.05-.23,2.16-.23,3.2,0,6.86,3.83,11.57,3.83,18.18,0,2.46-.73,3.82-2.64,3.82s-1.67-1.67-2.07-1.67c-.31,0-.79,1.03-.79,2.14,0,1.68,1.19,4.31,4.52,4.31,2.88,0,5.19-2.63,5.19-5.57,0-7.17-5.58-15.14-5.58-22.8,0-3.35,.88-5.58,1.6-7.35,0,15.87,13.47,27.43,13.47,34.04,0,1.52-1.13,2.72-2.79,2.72-1.85,0-2.71-1.45-2.71-2.56,0-.55-.09-.71-.32-.71-.48,0-1.91,1.6-1.91,3.67,0,2.62,2.14,5.81,6.13,5.81,4.55,0,7.02-3.83,7.02-7.26,0-8.36-16.34-21.05-16.34-34.59,0-2.32,.4-6.06,2.07-8.93-10.52,6.77-13.79,15.78-13.79,23.67,0,6.86-.24,10.29-3.75,10.29-1.83,0-2.31-1.67-2.94-1.67-.48,0-.73,1.43-.73,1.84,0,2.94,2.17,4.62,4.31,4.62Z"/><path d="M189.95,53.08c3.51,0,6.14-1.59,6.14-2.55,0-.32-.48-.56-1.51-.56s-3.11-.07-7.02-.72c-3.36-.56-5.91-1.82-6.85-1.82-.32,0-.49,.16-.49,.4,0,2.07,3.83,5.25,9.74,5.25Zm-17.38-10.13c1.02-.67,5.51,.41,11.32-2.46,.73-.4,1.43-.56,2.07-.56,2.79,0,2.08,3.2,4.64,3.2,1.98,0,4.55-1.67,6.06-1.67,2.37,0,5.81,7.49,5.81,10.99,0,4.08-6.12,6.54-13.39,6.54-10.59,0-16.98-9.25-16.98-15.22,0-.48,.24-.64,.48-.81Z"/><path d="M53.49,162.76c-2.64,.65-6.86,4.78-6.86,11.33,0,7.82,8.37,19.86,22.17,19.86,11.64,0,14.51-8.05,14.51-13.48,0-12.04-7.42-20.48-17.05-20.48-5.27,0-9.98,3.83-9.98,9.48,0,5.27,3.98,13.16,13.47,13.16,4.47,0,7.09-3.19,7.09-6.85s-3.26-8.53-8.04-8.53c-1.45,0-2.47,.94-2.47,2.46,0,1.91,2.63,3.84,5.89,3.84,.8,0,1.44-.16,1.77-.32,.16,.24,.24,.63,.24,.95,0,1.82-1.77,2.96-4.47,2.96-4.07,0-7.98-3.04-7.98-7.82,0-2.86,2.48-4.94,6.06-4.94,7.1,0,11.33,6.3,11.33,12.59,0,5.67-3.11,8.94-9.48,8.94-12.76,0-18.97-11.49-16.18-23.13Z"/><path d="M138.3,193.54c0,1.75,1.43,3.2,3.19,3.2s3.2-1.45,3.2-3.2-1.45-3.18-3.2-3.18-3.19,1.44-3.19,3.18Zm6.17,15.93c3.83,0,3.63-.32,4.83-.32s1.28,.72,1.28,1.21c0,1.75-3.91,3.9-10.84,3.9-4.07,0-6.53-2.16-7.26-4.55-3.99,2.54-10.03,4.87-16.02,4.87-16.34,0-20.48-7.1-25.59-9.4-3.91-1.75-9.89,1.67-18.25-7.66,1.1,.24,2.63,.32,3.82,.32,7.34,0,11.24-3.58,11.24-9.33,0-.7-.07-1.5-.16-2.21,2.24,.88,7.35,4.69,8.54,11.46,.16,.81,3.43,1.52,5.5,1.52,2.87,0,6.53-1.18,7.09-5.89,9.57-.79,16.03-6.45,17.38-13.64,3.42,1.12,7.32,4.22,8.29,5.82,1.35-.48,2.95-.71,4.79-.71,2.55,0,5.41,.48,8.84,1.52,.16-1.05,.32-2.33,1.92-2.33,2.38,0,1.75,2.64,2.54,4.15,.4,.79,2.41,1.27,2.41,2.87,0,1.52-1.29,2.07-2.09,2.07-.32,0-.72-.08-.95-.15-1.58,.55-1.67,12.03-8.38,12.03-4.93,0-9.48-4.08-11.47-9.16-.56-1.53-1.75-2.49-2.87-2.49-1.28,0-1.99,.24-3.5,1.91-4.31,4.7-11.47,8.77-20.33,8.77-2.71,0-4.86-.24-5.41-.24-.31,0-.31,.07-.31,.17,0,.55,2.7,2.7,8.59,2.7,14.04,0,17.47-7.89,19.69-7.89,.34,0,1.28,0,1.82,1.28,3.28,7.64,10.42,9.39,14.88,9.39Z"/><path d="M192.83,158.7c-1.67,0-10.94,12.36-16.9,12.36-1.43,0-2.62-2.71-2.62-4.77,0-1.13,.71-1.93,3.26-2.48,13.71-3.12,10.68-13.4,22.39-13.4,6.46,0,13.64,4.39,13.64,14.27,0,10.52-14.98,23.58-17.21,23.58-1.83,0-3.83-2.62-3.83-4.38,0-.54,.24-1.26,1.84-1.9,7.64-3.04,12.02-10.05,12.02-13.63,0-.81-.4-1.6-1.43-1.6-1.35,0-7.15,13.24-13.62,13.24-4.47,0-9.01-4.07-9.01-5.97,0-3.2,12.92-9.1,12.92-13.56,0-1.69-.8-1.76-1.44-1.76Zm8.6-4.94c-1.12,0-2.32,.88-2.32,3.05,0,2.38,1.84,3.89,2.88,4.37,.56,.31,1.43,.63,2.3,.63,2.31,0,4.15-.63,4.15-2.56,0-2.44-3.59-5.49-7.02-5.49Z"/><path d="M52.52,61.44c0,1.77,1.45,3.2,3.2,3.2s3.19-1.43,3.19-3.2-1.44-3.18-3.19-3.18-3.2,1.43-3.2,3.18Zm-4.13-7.18c0,1.76,1.43,3.21,3.19,3.21s3.19-1.44,3.19-3.21-1.45-3.17-3.19-3.17-3.19,1.43-3.19,3.17Zm-2.87,21.85c-1.83,.49-5.66,2.72-5.66,6.7,0,2.87,2.22,4.71,5.02,4.71,1.43,0,2.47-.33,3.1-.8-2.22-2.15-3.02-4.55-3.02-6.94,0-1.67,.24-2.7,.56-3.67Zm-19.54,1.13c-.06,.4-.06,.8-.06,1.2,0,3.74,1.99,5.82,4.61,5.82,1.99,0,4.31-1.21,6.38-3.83-.88,.16-1.91,.24-2.86,.24-2.96,0-6.13-.8-8.06-3.42Zm-2.79,7.09c0,6.06,1.84,8.93,5.11,8.93,2.54,0,5.97-1.85,10.04-5.35-3.11,.73-5.51,1.2-7.66,1.2-2.86,0-5.1-1.11-7.49-4.78Zm20.65-31.89c.4-1.28,.71-2.86,.71-4.61,0-3.83-1.76-9.65-7.17-9.65-3.11,0-5.34,2.47-5.34,5.41,0,6.31,6.31,8.84,11.81,8.84Zm-6.78,20.09c-2.62,0-5.5-3.27-5.5-6.22,0-1.59,1.19-3.58,2.08-3.58,.31,0,.48,.24,.55,.79,.49,3.9,3.04,6.14,5.43,7.25,.24,.16,.4,.24,.4,.41,0,.54-1.52,1.35-2.96,1.35Zm7.33-9.72c.56,.74,2.09,1.67,2.09,2.24,0,1.11-.65,2.54-1.92,2.54-2.79,0-5.02-4.23-5.02-6.61,0-1.53,.87-1.69,2.07-1.69,.56,0,.81,.08,1.19,.31,.73,.4,.73,1.99,1.6,3.2Zm-18.73,9.88c-.14,.24-.23,.56-.23,.88,0,.72,.81,1.52,1.51,1.52,.64,0,1.04-.16,1.37-.16,1.9,0,4.05,1.35,7.17,1.35,1.82,0,3.99-.56,6.7-1.91,5.74-2.87,7.97-9.97,7.97-11.16,0-1.52-1.22-1.32-2.23-2.72-1.02-1.39-.63-2.61-1.28-3.27-.37-.37-1.51-.39-2.94-.55-.49-.06-1.13-.09-1.76-.09-2.63,0-5.76,.33-9.25,2.55-6.91,4.41-5.89,11.71-7.01,13.56Zm26.47-3.19c-1.75,2.08-3.58,5.59-3.58,9.17,0,4.3,2.62,7.9,6.69,7.9s5.73-3.36,5.73-6.79c0-5.34-4.87-9.09-8.85-10.28Zm-17.06-15.3s-2.32,1.75-5.18,1.75c-3.43,0-6.14-2.54-6.14-6.13,0-2.47,1.28-5.03,4.23-6.29-.07,.48-.07,.88-.07,1.35,0,4.55,2.54,7.98,7.17,9.33Z"/><path d="M175.6,80.66c0,1.85,1.53,3.35,3.34,3.35s3.35-1.51,3.35-3.35-1.53-3.34-3.35-3.34-3.34,1.51-3.34,3.34Zm.24,10.05c0,2.08,1.69,3.75,3.76,3.75s3.74-1.67,3.74-3.75-1.68-3.74-3.74-3.74-3.76,1.67-3.76,3.74Zm-11.47,6.78c0,3.02,2.47,5.5,5.5,5.5s5.5-2.48,5.5-5.5-2.48-5.5-5.5-5.5-5.5,2.47-5.5,5.5Zm2.94-11.25c0,1.76,1.44,3.19,3.19,3.19s3.18-1.43,3.18-3.19-1.43-3.19-3.18-3.19-3.19,1.44-3.19,3.19Zm-10.45,6.39c0,1.75,1.45,3.17,3.18,3.17s3.2-1.43,3.2-3.17-1.44-3.2-3.2-3.2-3.18,1.45-3.18,3.2Zm8.21-18.66c0,2.79,2.32,5.1,5.12,5.1s5.1-2.31,5.1-5.1-2.31-5.1-5.1-5.1-5.12,2.32-5.12,5.1Zm5.98-9.81c0,1.67,1.35,3.04,3.04,3.04s3.04-1.37,3.04-3.04-1.37-3.03-3.04-3.03-3.04,1.37-3.04,3.03Zm-14.41,7.65c0,1.68,1.34,3.04,3.01,3.04s3.03-1.35,3.03-3.04-1.36-3.03-3.03-3.03-3.01,1.35-3.01,3.03Zm-.41,10.36c0,2.72,2.17,4.86,4.86,4.86s4.87-2.14,4.87-4.86-2.16-4.85-4.87-4.85-4.86,2.14-4.86,4.85Zm-10.04,5.1c0,2.48,2.07,4.54,4.54,4.54s4.55-2.06,4.55-4.54-2.07-4.53-4.55-4.53-4.54,2.07-4.54,4.53Zm2.7-11.24c0,1.76,1.45,3.2,3.19,3.2s3.19-1.44,3.19-3.2-1.43-3.18-3.19-3.18-3.19,1.44-3.19,3.18Zm27.99,24.56c0-1.59,1.44-2.94,3.02-2.94,1.75,0,3.11,1.35,3.11,2.94,0,1.83-1.36,3.12-3.11,3.12-1.58,0-3.02-1.29-3.02-3.12Z"/><path d="M178.95,192.27c.39,0,.88,.23,.88,1.67,0,1.75-.8,4.07-3.65,5.88-2,1.36-4.71,2.49-8.7,2.55,.63-1.91,1.12-3.9,1.12-5.81,0-.64-.08-1.12-.16-1.82h1.04c6.3,0,9.01-2.47,9.48-2.47Zm.65-7.89c.63-.56,.79-1.44,.79-2.32v-1.83c0-2.32-3.51-3.67-8.29-3.67-5.82,0-8.93,2.64-8.93,3.75v3.66c0,1.52,3.51,3.04,7.82,3.04,3.43,0,6.55-.88,8.61-2.63Zm4.13,.87c-2.07,1.6-6.93,5.19-14.98,5.19-4.31,0-6.23-1.36-6.86-1.36-.8,0-1.68,.8-2.56,1.83-1.89,2.24-4.37,6.39-4.37,10.92,0,3.2,2.47,6.37,7.08,6.37,14.93,0,26.07-9.31,26.07-16.89,0-4.3-2.55-6.06-4.39-6.06Z"/><path d="M186.52,118.21c0,1.99,.64,4.3,2.64,4.3,1.67,0,3.11-2.55,3.11-5.34,0-3.18-.56-5.67-.56-6.93,0-.56,.24-.8,.56-.8,1.2,.08,2.32,3.36,3.6,3.36,1.43,0,3.56-2.64,4.44-2.64,.24,0,.31,.31,.31,.4,0,1.19-1.82,3.83-1.82,4.86,0,.88,4.62,1.03,4.62,1.85,0,1.19-4.85,1.19-7.17,2.23-2.23,.95-3.59,2.15-3.59,3.75s1.6,1.91,3.83,1.91c5.34,0,9.07-2.86,10.27-2.86,.24,0,.38,.16,.38,.39,0,.8-2.7,3.42-2.7,4.63,0,1.35,4.95,2.92,4.86,3.73-.07,.23-.39,.32-.95,.32-.88,0-2.23-.24-3.28-.24-.63,0-1.19,.09-1.43,.4-.56,.63,.16,4.87-.95,4.87-1.04,0-3.75-9.41-9.87-9.41-.88,0-1.52,.72-1.52,1.92,0,3.17,3.11,6.85,6.07,8.6,1.34,.87,3.57,1.76,3.57,2.24,0,.95-5.08,.08-5.08,1.67,0,1.45,.63,3.61,.63,4.87,0,.4-.08,.88-.56,.88-.95,0-3.27-4.37-4.38-4.37-.95,0-3.03,2.62-3.91,2.62-.24,0-.4-.24-.4-.47,0-1.84,2.96-5.97,2.96-10.05,0-1.91-.24-6.05-2.56-6.05-1.91,0-4.07,3.02-5.02,6.05-.56,1.75-.16,8.54-1.43,8.54-1.2,0-.89-4.55-2.48-4.55-1.18,0-3.73,2.16-4.61,2.16-.16,0-.31-.09-.31-.25,0-.95,2.3-4.06,2.3-4.7,0-1.2-5.26-1.35-5.26-2.31,0-.57,2.07-.95,3.99-1.29,4.05-.71,10.03-3.65,10.03-7.8,0-4.63-4.46-6.62-7.4-8.53-1.52-.95-3.19-1.75-3.19-2.39s1.91-.63,2.72-.63c1.19,0,2.37-.09,2.37-1.05,0-.72-.16-2.15-.16-3.26,0-.79,.09-1.43,.41-1.43,1.18,0,2.86,3.9,3.65,3.9,1.27,0,3.04-3.18,4.23-3.18,.4,0,.56,.24,.56,.95,0,2.94-1.52,6.29-1.52,9.17Zm-38.02-23.35c.88,6.77,9.98,3.35,9.98,11.55,0,1.19-.32,2.95-.32,4.46,0,1.77,.16,3.28,1.5,3.28s1.67-.95,1.67-2.23-.32-2.87-.32-3.75c0-2.8,1.99-3.43,3.2-3.43,3.02,0,5.34,3.11,9.89,3.11-1.04,5.1-11.57,3.74-11.57,9.32,0,2.79,2.79,3.43,4.62,3.43,1.69,0,2.24-.24,2.24-1.67,0-.8-.16-1.67-.16-2.25,0-.31,.24-.63,.63-.63,1.75,0,10.35,6.54,10.35,8.54,0,1.83-9.08,3.67-11.71,3.67-.81,0-.96-.56-.96-.87,0-.56,1.35-2.24,1.35-3.2,0-.71-1.2-1.19-4.38-1.19-1.52,0-2.63,.16-2.63,1.35,0,2.16,3.51,4.78,3.51,6.77,0,1.6-.96,2.56-3.51,2.56-2.17,0-5.42-1.69-5.42-4.47,0-2.24,2.31-4.46,2.31-5.82,0-.4-.3-1.03-1.27-1.03-2.94,0-3.75,7.8-14.2,8.68,1.68-1.51,3.12-3.19,3.12-6.61,0-1.67-.4-3.04-.4-4.86,0-2.4,1.11-3.6,2.7-3.6,2.96,0,4.39,4.15,6.31,4.15,1.04,0,2.15-.95,2.15-2.39,0-6.06-11.64-5.18-11.64-13.71,0-2.32,.8-5.18,2.94-9.16Z"/><path d="M163.63,146.66c0,1.13,.81,2,1.93,2,1.27,0,2.06-1.12,2.06-2.39,0-1.67-1.51-3.99-2.94-3.99-.65,0-.41,.96-.57,1.99-.08,.8-.48,1.76-.48,2.39Zm-4.15-10.6c8.38,1.59,12.92,7.89,12.92,13.79,0,4.07-2.54,7.8-7.01,7.8-4.08,0-7-2.78-7-7.25,0-3.35,2.61-6.85,2.61-10.3,0-1.34-.39-2.71-1.52-4.05Zm-10.59,13.55c.8,.8,1.04,1.59,1.04,2.4,0,1.19-.56,2.46-.56,3.83,0,1.9,1.45,3.57,3.51,3.57,2.24,0,3.76-1.75,3.76-3.82,0-3.04-3.13-5.98-7.75-5.98Zm26.4-5.09c.55,.87,.79,1.75,.79,2.54,0,2.24-1.51,4.31-1.51,6.61,0,2.65,1.99,4.79,5.02,4.79,3.26,0,5.49-2.62,5.49-5.74,0-4.22-3.83-7.81-9.8-8.2Zm-24.47-4.23c3.67,.48,4.54,1.76,4.54,2.79,0,1.76-1.6,2.32-3.11,2.32-1.11,0-2.38-.24-3.75-.24-1.75,0-3.51,.4-4.94,2.07,1.05,.15,2.56,.87,2.56,2.47,0,4.62-12.84,.8-12.84,12.67,0,6.3,6.53,13.15,16.42,13.15,5.12,0,8.39-1.67,8.39-3.59,0-1.51-2.72-.48-2.72-1.75,0-.56,.96-1.6,.96-2.48,0-.38-.31-1.1-.96-1.1-1.43,0-4.15,2.31-9.65,2.31-4.3,0-8.53-2.46-8.53-5.81,0-.73,.32-1.13,.79-1.13s1.13,.33,1.69,.33c.46,0,.55-.33,.55-1.2s0-3.36,1.52-3.36,4.38,5.6,15.4,5.6c3.66,0,10.74-.72,13.38-3.11-.08,8.75-6.94,20.32-21.29,20.32s-22.88-11.96-22.88-22.96c0-12.19,9.96-23.27,23.6-23.27,3.5,0,6.46,1.19,6.46,2.7,0,2.08-5.19,.81-5.58,3.27Z"/><path d="M99.24,49.25c5.25,0,7.65,4.55,7.65,9.65,0,2.22-.63,5.5-1.67,5.5s-.87-1.83-1.03-3.51c-.15-2.14-.56-2.62-1.28-2.62-1.35,0-2.22,3.18-2.22,6.13,0,1.84,.31,3.9,1.75,3.9,.8,0,1.52-.39,2-.88-.31,3.67-3.04,6.86-6.87,6.86-7,0-9.63-8.2-10.44-13-4.22,4.46-8.12,7.73-15.15,7.73-6.53,0-9.48-4.78-9.48-9.33,0-1.36,.48-4.86,2.15-4.86,2,0,.25,6.54,4.15,6.54,.96,0,2.71-.81,3.66-3.43,.56-1.6,.89-3.27,.89-4.7,0-2.16-.48-3.51-2.08-3.51-1.35,0-3.03,1.03-3.59,1.59,1.92-5.74,6.55-8.67,11.65-8.67,6.29,0,9.63,5.58,9.63,11.79,0,.87-.06,1.83-.23,2.71,2.71-4.46,6.45-7.89,10.52-7.89Zm-6.13,9.42c0-1.36-.33-1.67-.65-1.67-.8,0-1.67,.95-2.94,3.1,.16,2.88,.63,4.15,1.43,4.15,.88,0,2.16-2.8,2.16-5.58Zm-10.93,3.27c.88,0,2-.95,4.07-3.27,.16-1.04,.16-1.99,.16-3.2,0-1.59-.63-3.34-1.59-3.34-2.4,0-3.59,6.38-3.59,8.05,0,.95,.48,1.76,.95,1.76Zm13,7.09c1.99,0,4.23-7.65,4.23-12.44,0-1.04-.16-2.15-.63-2.15-1.68,0-4.47,7.89-4.47,12.18,0,1.68,.41,2.4,.88,2.4Zm-19.53-4.38c2.71,0,5.81-14.67,5.81-17.15,0-.63-.23-1.12-.79-1.12-2.47,0-5.9,13.96-5.9,17.07,0,.56,.16,1.2,.88,1.2Z"/><path d="M84.34,70.69c-3.43,0-3.59,4.15-3.59,12.53-2.54-5.5-6.77-11.41-11.71-11.41-3.36,0-4.62,2.24-4.62,6.13,0,.81,.08,2.01,.23,2.72,.41-1.35,1.68-1.91,3.27-1.91,3.43,0,7.58,2.62,10.3,6.21-3.12-.55-6.15-1.11-8.69-1.11-1.6,0-3.04,.16-4.23,.72-2.32,1.03-5.43,4.46-5.43,9.64,0,.79,.09,1.68,.24,2.64,2.78-6.23,10.2-9.02,14.98-9.02,.96,0,1.67,.08,2.22,.17-2.45,2.23-3.01,6.13-3.17,8.76-.08,1.28-.56,1.36-1.45,1.36,0,2.63,2.08,6.53,2.08,8.52,0,.73-.39,1.37-.79,1.53,0,3.5,3.5,6.06,3.5,8.28,0,.56-.17,1.04-.41,1.28,.24,1.44,4.1,3.85,4.6,5.06,.62,1.47,1.3,1.72,1.7,1.72,1.37,0,3.51-1.59,3.51-3.03,0-.48-.4-1.03-.71-1.27-1.51-1.11-2.31-3.52-2.95-5.11-.56,0-1.28-.22-1.53-1.16-.44-1.66-.46-4.73-1.1-6.56-1.03-.24-1.5-.63-1.5-2.79,0-1.03,.63-5.1,.63-6.54-.48,0-1.12-.32-1.12-1.28,0-2.55,2.54-4.55,3.26-7.81,4.55,3.36,5.65,6.78,5.65,9.8,0,1.59-.23,3.12-.55,4.55,3.35-1.67,8.37-4.15,8.37-9.17,0-2.95-1.36-6.22-10.36-7.5,2.79-1.03,6.29-1.59,9.25-1.59,5.09,0,8.04,1.59,8.68,5.18,1.05-1.59,1.85-3.43,1.85-5.11,0-3.91-3.28-6.45-7.42-6.45-4.86,0-9.16,2.54-13.78,5.66,2.07-4.3,3.5-6.85,6.06-6.85,.4,0,.8,.08,1.19,.16-.95-3.52-4.54-6.95-6.45-6.95Z"/><path d="M218.64,128.16c3.98,0,7.17,5.2,7.17,11.25,0,6.45-3.03,13.47-8.43,18.25-.09-10.74-13.25-7.32-13.25-15.13,0-3.35,2.39-5.59,5.27-5.59,2.54,0,4.55,.71,5.98,2.16-1.43-1.35-2.16-3.28-2.16-5.12,0-3.02,1.92-5.82,5.42-5.82Z"/><path d="M159.49,46.63c-.63-1.05-3.02-1.6-4.13-1.6-3.51,0-5.89,2.46-6.38,4.7-.32-.79-.56-1.76-.56-2.71,0-3.51,2.4-7.8,8.23-7.8,5.09,0,7.07,2.7,7.79,2.7,.81,0,1.6-.8,2.24-.8,.87,0,.87,1.36,.87,2.32,0,3.19-1.43,8.68-5.02,10.68-.63-1.35-1.91-2.88-3.97-3.83-.57-.24-.8-.72-.8-1.2,0-.87,.8-1.99,1.73-2.46Zm-12.03,5.81c2.09,2,3.9,2.87,6.13,2.87,.89,0,1.92-.23,2.49-.23,.71,0,1.2,.31,1.2,.86,0,.89-.81,2.32-1.76,3.12,.95,.4,1.99,.55,3.11,.55,4.53,0,9.7-2.87,9.7-10.04,.97,1.27,1.53,3.91,1.53,5.1,0,8.69-6.39,12.03-12.27,12.03-3.84,0-5.76-1.26-6.23-1.26-1.5,0-1.43,3.01-2.47,2.94-1.83-.32-3.5-4.39-3.5-8.7,0-2.55,.63-5.25,2.07-7.26Z"/><path d="M79.24,1.75c0-.48-2.4-.97-5.66-.97-5.19,0-4.46,4.31-8.45,4.31S62.01,.62,56.75,.62c-3.19,0-6.13,.56-6.13,1.29,0,.95,3.74,.55,3.74,3.18,0,2.79-8.05,3.59-8.05,5.25,0,.56,.63,.81,1.44,.81,1.75,0,4.54-.81,6.54-.81,1.11,0,2.15,.24,2.15,1.29,0,1.99-4.31,5.58-4.31,7.17,0,.48,.39,.63,.79,.63,1.6,0,4.31-4.06,6.87-4.06,4.22,0,1.42,9.01,3.74,9.01s1.36-8.86,4.77-8.86c2.8,0,4.87,6.13,6.78,6.13,.48,0,.88-.39,.88-.95,0-1.68-2.39-5.11-2.39-7.33,0-1.35,.96-2.01,2.23-2.01,1.83,0,4.31,1.13,5.66,1.13,.48,0,.95-.16,.95-.72,0-1.92-7.09-3.99-7.09-6.45s3.91-2.47,3.91-3.58Zm18.73,8.12c0,1.44,5.02,4.55,7.33,4.55,1.35,0,1.75-1.83,1.75-3.75,0-2.38-1.03-2.47-3.1-2.47-2.64,0-5.98,.72-5.98,1.67Zm8.29,15.77c0-4.77-12.94-13.47-13.08-17.21,0-.35,.18-.68,.46-.98,2.22-2.34,11.42-4.04,11.42-6.04,0-1.03-1.92-1.03-2.87-1.03-7.41,0-18.25,2.72-18.25,5.34s9.72,9.35,9.72,12.61c0,.87-.55,1.19-1.44,1.19-2.7,0-8.61-3.26-11.39-3.26-1.27,0-1.75,.88-1.75,2.15,0,3.83,4.53,11.09,4.53,13.23,0,.23-.07,.56-.4,.56-1.43,0-8.2-7.98-10.59-7.98-.88,0-.96,1.21-.96,2.96v2.7c0,1.84-.08,2.96-.95,2.96-2.07,0-3.04-5.81-5.02-5.81s-2.48,10.36-4.47,10.36c-2.31,0-.31-11.41-2.55-11.41-2.46,0-5.26,7.58-7.02,7.58-.63,0-.79-.63-.79-1.19,0-2.32,1.35-6.06,1.35-8.3,0-1.11-.32-1.75-1.28-1.75-2.47,0-7.89,3.99-9.95,3.99-.33,0-.73-.16-.73-.49,0-1.91,8.68-7.96,8.68-10.67s-11.96-.87-11.96-3.91c0-2.55,8.54-5.19,8.54-7.81C45.51,1.12,35.39,.07,31.48,.07c-4.7,0-7.25,.55-7.25,1.91,0,2.08,10.69,2.71,10.69,4.54s-11.07,6.47-11.07,9.18c0,2.39,15.62,.15,15.62,2.63,0,2.7-13.64,14.42-13.64,18.32,0,.89,.65,1.29,1.53,1.29,4.13,0,14.89-7.9,17.85-7.9,1.03,0,1.11,1.29,1.11,2.38,0,2.08-.71,5.27-.71,7.58,0,1.83,.46,3.11,2.06,3.11,2.96,0,5.66-5.02,7.66-5.02,2.55,0,1.03,14.75,4.86,14.75,3.26,0,4.63-15.95,6.69-15.95s3.75,4.62,5.67,4.62c2.39,0,1.28-8.05,3.83-8.05,2.79,0,10.75,9.57,14.34,9.57,1.12,0,1.51-.87,1.51-2,0-4.22-5.89-13.78-5.89-16.82,0-.79,.23-1.02,1.11-1.02,3.11,0,12.21,4.29,16.51,4.29,1.43,0,2.31-.79,2.31-1.85Zm-72.77-4.62c0,1.6-6.07,6.94-8.21,6.94-.79,0-1.04-.95-1.04-1.83,0-1.6,.73-3.83,1.59-4.54,1.04-.97,3.43-1.44,5.26-1.44,1.11,0,2.4,.24,2.4,.87Zm58.58,8.21c0,2.79,9.97,16.42,11.88,16.42,1.59,0,2.79-2.79,2.79-5.18,0-.63-.16-1.26-.48-1.75-1.43-2-11.56-9.97-13.79-9.97-.24,0-.4,.25-.4,.48Z"/><path d="M220.08,5.09c0,1.12,.87,2,2,2s1.98-.88,1.98-2-.87-1.99-1.98-1.99-2,.87-2,1.99Zm-13,17.62c0-5.66-13.54-7.1-13.54-8.38,0-1.03,7.57-2.78,11.46-2.87-5.98-7.64-14.49-6.85-14.49-8.2,0-.79,6.38-2.4,12.27-2.4,4.94,0,9.57,1.12,9.57,4.86,0,2.08-1.68,4.24-1.68,7.42,0,1.77,.88,3.28,3.18,3.28,2.48,0,3.04-2.64,3.04-5.44,0-2.3-.41-4.05-.41-5.18,0-3.34,2.3-5.58,5.59-5.58,2.7,0,3.33,1.19,7.32,1.19-2.15,1.29-2.94,3.61-2.94,4.72,0,3.34,2.14,5.66,2.14,12.51,0,12.59-11.79,17.06-26.22,17.06-3.98,0-8.2-.32-12.35-.95-.65-.07-.8-.24-.8-.64,0-1.03,5.66-1.59,5.66-6.69,0-1.99-.63-3.91-.63-4.63,0-.41,.32-.63,.63-.63,1.2,0,3.6,4.62,8.04,4.62,1.19,0,4.14-.4,4.14-4.07Zm13.47-8.06c0,7.09-5.17,12.52-14.51,14.04,1.04,.07,2,.07,2.96,.07,10.9,0,14.9-4.93,14.9-9.08,0-2.31-1.28-4.38-3.35-5.02Z"/><path d="M215.07,117.41c1.27-3.99,2.86-6.78,5.49-11.08-2.62-1.35-9.55-4.22-9.55-8.93,0-5.49,6.85-9.79,8.28-9.79,.62,0,.8,.54,.8,1.59,0,2.87-1.36,7.5-1.36,9.96,0,2.23,1.43,4.39,2.71,4.39,1.36,0,5.1-4.79,5.1-9.49,0-8.45-7.42-11.01-9.71-11.01-2.14,0-6.05,3.53-15.22,3.53-17.13,0-21.04-16.99-21.04-24.4,0-.32,.06-.41,.16-.41,.39,0,2.07,2.08,7.49,2.08,2.8,0,5.35-.71,9.42-.71,9.54,0,13.79,6.6,19.68,15.06,3.58,2.23,12.11,5.82,12.11,15.94,0,8.93-9.51,13.88-11.8,23.44,3.66-.4,5.82-6.94,9.57-6.94,1.91,0,2.79,1.52,2.79,3.91,0,3.51-1.99,8.77-5.81,12.03,.08-.31,.08-.71,.08-1.19,0-2.23-.88-5.42-3.43-5.42-3.98,0-5.24,4.31-7.49,7.89-2.3-8.13-5.41-15.47-10.99-19.93-5.65-4.53-15.38-2.07-15.38-10.36,0-2.23,1.43-5.41,1.43-7.97,0-.88-.16-1.68-.63-2.32,7.66,2.87,4.94,7.98,9.66,13.24,2.93,3.36,11.06,6.55,15.78,20.33,.06-.39,.14-1.43,.14-2.14,0-11.81-15.6-23.36-16.96-28.15,9.06,1.04,10.67,3.28,14.97,15.23,.88,2.47,3.75,8.61,3.75,11.64Zm-2.08-38.66c0-1.67-4.22-1.82-4.62-6.53-.08-.72-.32-2-1.21-2-1.43,0-.31,4.38-1.91,4.38-3.65,0-4.86-7.17-6.21-7.17-.31,0-.69,.24-.69,1.2,0,.88,.16,1.43,.16,2.47s-.25,1.75-1.2,1.75c-2.16,0-4.07-5.02-5.91-5.02-.39,0-.79,.24-.79,.63,0,.96,1.59,2.72,1.59,3.6,0,1.91-5.19,.87-5.19,2.48,0,.7,.72,.95,1.68,.95,1.67,0,4.3-.73,5.66-.73,.8,0,2,.16,2,1.19,0,1.13-2.88,2.56-2.88,3.59,0,.48,.49,.71,.88,.71,2.15,0,5.96-3.74,8.68-3.74,.48,0,1.67,.25,1.67,.96,0,1.04-2.7,2.86-2.7,4.38,0,.39,.23,.88,.71,.88,1.43,0,3.34-3.74,6.06-3.74,1.03,0,2.55,.39,3.35,.39,.63,0,.88-.39,.88-.63Z"/><path d="M153.6,30.99c1.28,0,1.52,3.12,1.76,4.94,.16,.97,.32,1.05,.73,1.05,.96,0,2.47-3.67,3.48-3.67,1.53,0,5.59,4.22,12.37,4.22,9.63,0,18.74-6.78,18.74-18.73S182.54,.48,171.3,.48c-5.34,0-9.26,2.63-11.33,2.63-1.26,.08-3.19-3.11-4.14-3.11-.39,0-.79,.78-.79,2.15,0,.87,0,3.65-.96,3.65-1.92,0-9.33-5.48-9.33-3.5,0,1.83,4.94,7.4,4.94,8.85s-4.87,2.79-4.87,3.75c0,1.75,5.19,2.07,5.19,4.29s-5.42,4-5.42,5.66c0,1.35,5.42,.41,5.42,2.08s-3.98,7.25-3.98,8.85c0,.38,.08,.38,.4,.38,1.51,0,6.06-5.18,7.17-5.18Zm2.32-13.06c0-.88-3.11-2.55-3.11-3.51,0-.15,.16-.24,.41-.24,.88,0,2.39,.32,3.58,.32,1.06,0,1.2-4.46,1.99-4.46,.56,0,1.51,4.22,2.4,4.22,1.03,0,2.94-1.2,3.75-1.2,.15,0,.32,.08,.32,.24,0,.56-2,2.72-2,3.35,0,.71,4.46,1.59,4.46,2.22,0,.8-4.54,.72-4.54,1.44,0,.56,1.67,2.79,1.67,3.51,0,.16-.08,.23-.24,.23-.63,0-3.09-1.11-3.81-1.11-.89,0-2.3,3.26-3.02,3.26-.25,0-.39-.31-.39-.71l-.17-3.18c0-.31-.15-.65-.55-.65-.97,0-2.8-.06-3.37-.06-.39,0-.56-.09-.56-.25,0-.64,3.19-2.87,3.19-3.42Zm15.55,15.15c-5.59,0-9.25-2.8-9.25-4.23,0-.72,.48-1.2,1.11-1.2,1.75,0,5.58,2.71,6.87,2.71,.31,0,.56-.14,.56-.64,0-1.43-1.35-3.82-1.35-5.02,0-.31,.24-.54,.71-.54,2.15,0,5.34,.88,7.03,.88,.55,0,.7-.34,.7-.65,0-1.75-5.19-5.19-5.19-6.22,0-.95,6.45-2.39,6.45-3.9,0-1.6-8.76-.49-8.76-2,0-1.11,1.67-3.03,1.67-3.9,0-.4-.31-.56-.88-.56-.71,0-4.55,1.51-6.13,1.51-.8,0-1.76-.16-1.76-1.27,0-1.83,3.11-3.83,7.98-3.83,7.88,0,12.58,5.43,12.58,14.51,0,11.5-8.04,14.36-12.35,14.36Z"/><path d="M117.49,170.97c0,.73-.23,1.53-.88,2.32-.88-1.59-3.36-2.4-4.47-2.4-8.2,0-5.1,11.88-13.86,11.88-3.67,0-4-.49-5.35-.49-.56,0-.88,.26-.88,.73,0,2.07,2.96,7.17,11.16,7.17s16.12-5.02,16.12-11.24c0-1.03-.24-2.14-.73-3.26,.31-.48,1.13-.8,1.83-.8,1.28,0,2,1.45,3.2,1.45,1.28,0,2.23-.97,2.23-2.24,0-1.03-.56-1.75-1.51-2.24,.63-.48,1.11-1.27,1.11-2.15,0-1.35-.95-2.61-2.55-2.61-.73,0-1.2,.24-1.76,.78-.14-1.42-.95-2.78-2.47-2.78-1.21,0-2.08,.87-2.08,2.24,0,1.27,.88,2.31,.88,3.65Z"/><path d="M96.05,174.01c-2.39,0-5.98-2.57-5.98-3.99,0-1.2,1.11-1.85,1.99-1.85,2,0,5.58,2.48,5.58,4.55,0,.56-.4,1.28-1.59,1.28Zm-22.24-17.85c6.38,1.57,9.55,5.02,10.2,9.08,.63,3.9,1.43,7.1,2.94,8.69,1.99,2.23,5.9,4.21,9.33,4.21,2.86,0,5.17-.94,5.17-3.58,0-2.86-3.91-9.33-9.64-9.33-.56,0-1.28,.09-2.07,.09-.72,0-1.76-.16-2.39-.72-1.28-1.11-1.67-7.1-4.06-10.68-2.63-3.99-5.5-5.11-9.41-5.11-2.79,0-5.89,1.52-5.89,3.74,0,1.37,.71,2.32,5.82,3.61Z"/><path d="M113.83,146.42c0-3.58-7.42-3.65-7.42-9.08,0-1.36,.87-3.66,2.62-6.14,.73,4.14,2.39,6.29,5.99,7.66,7.08,2.62,8.04,6.61,8.04,10.84,0,7.17-5.02,16.09-17.93,16.09-10.37,0-17.78-9.25-17.78-17.05,0-2.15,.56-4.56,1.91-4.56,1.2,0,1.6,.97,2.56,1.93,3.58,3.58,7.49,4.54,13.16,4.54,5.09,0,8.85-2.07,8.85-4.23Zm.31,5.74c-2.74,1.26-3.83,1.05-3.83,3.85,0,1.03-.24,2.38-.24,3.1,0,.95,.16,1.51,1.28,1.51,2.87,0,7.41-4.86,7.41-9.01,0-1.11-.63-1.6-1.35-1.6-.63,0-1.35,1.28-3.26,2.14Zm-25.43-40.24c0-5.11,12.11-7.82,12.11-14.11,0-1.05-.39-2.88-1.12-4.23,4.23,2.32,7.33,6.22,7.33,9.41,0,5.49-5.74,8.04-5.74,11.47,0,3.99,6.13,4.63,6.13,9.57,0,4.07-5.82,8.77-5.82,14.02,0,4.07,2.87,7.41,7.26,7.97-1.44,.32-2.71,.57-4.06,.57-8.06,0-16.34-6.62-16.34-14.52,0-3.91,1.67-7.32,4.22-9.79,2.24,1.91,4.47,3.18,5.9,3.18,1.28,0,1.84-.63,1.84-1.59,0-2.96-11.72-5.66-11.72-11.96Z"/><path d="M42.47,151.29c.34,2.71,2.88,4.78,5.76,4.46,1.03-.1,1.99-.4,2.62-.8,.63,2.55,2.78,4.2,5.67,3.81,2.94-.38,4.93-2.69,4.61-5.64-.08-.81-.23-1.3-.48-1.84,0,0,.4-.05,.68-.11,2.88-.53,4.82-2.85,4.58-5.64-.32-2.86-2.89-4.99-5.58-4.68-1.03,.14-1.99,.53-2.64,1.09-.71-2.39-2.96-4.47-6.02-3.96-2.79,.46-4.61,2.82-4.33,5.8,.04,.48,.15,1.03,.4,1.59,0,0-.47,.06-.79,.11-2.33,.35-4.85,2.69-4.48,5.79Zm14.9-3.14c.2,1.67-.99,3.16-2.65,3.37-1.67,.19-3.17-1.01-3.36-2.67-.21-1.67,.99-3.18,2.65-3.37,1.67-.19,3.17,1,3.36,2.67Z"/></g></svg>