<svg width="140" height="61" viewBox="0 0 140 61" fill="none" xmlns="http://www.w3.org/2000/svg">
<path fill-rule="evenodd" clip-rule="evenodd" d="M30.0352 36.7235C30.0352 37.6017 30.8043 38.3142 31.7545 38.3142C32.703 38.3142 33.4739 37.6017 33.4739 36.7235C33.4739 35.8453 32.703 35.1328 31.7545 35.1328C30.8043 35.1328 30.0352 35.8453 30.0352 36.7235ZM41.9772 31.9531C41.5038 35.1271 39.286 37.7856 36.2471 39.0725C34.9831 39.6083 33.5792 39.9065 32.1001 39.9065H31.7558C29.8554 39.9065 28.317 38.4815 28.317 36.7252C28.317 34.9688 29.8554 33.5438 31.7558 33.5438C33.6545 33.5438 35.1946 34.9688 35.1946 36.7252C35.1946 37.1173 35.1175 37.491 34.9777 37.839C35.6697 37.5997 36.3206 37.2775 36.9104 36.8853C36.9104 36.8853 36.9122 36.7785 36.9122 36.7252C36.9122 34.0888 34.603 31.9531 31.7558 31.9531C28.9069 31.9531 26.5977 34.0888 26.5977 36.7252C26.5977 39.3597 28.9069 41.4972 31.7558 41.4972C33.8679 41.4972 35.8544 40.9927 37.581 40.1072C40.8082 38.4539 43.1246 35.4677 43.6679 31.9531H41.9772ZM24.8761 31.9531H19.8398C20.3831 35.4677 22.7013 38.4539 25.9267 40.1072C25.2616 39.1277 24.8761 37.9679 24.8761 36.7252V31.9531ZM45.5103 30.3613C45.5103 37.3887 39.3517 43.0868 31.7551 43.0868C24.1586 43.0868 18 37.3887 18 30.3613H26.597V32.5154C27.8574 31.1953 29.7005 30.3613 31.7551 30.3613C35.0989 30.3613 37.8851 32.5688 38.5036 35.4942C39.6367 34.2055 40.3252 32.5688 40.3521 30.7829V30.3613H45.5103Z" fill="#191919" fill-opacity="0.6"/>
<path fill-rule="evenodd" clip-rule="evenodd" d="M31.7558 25.2699H30.9374V21.9596C30.0354 21.9596 29.3039 22.7578 29.3039 23.7436C29.3039 24.3912 29.6211 24.9584 30.0951 25.2699H27.9825C27.7813 24.8058 27.6671 24.2881 27.6671 23.7436C27.6671 23.1166 27.8171 22.5268 28.0763 22.0173C27.945 21.9802 27.8086 21.9596 27.6671 21.9596C26.7651 21.9596 26.0336 22.7578 26.0336 23.7436C26.0336 24.3912 26.3507 24.9584 26.8248 25.2699H24.7122C24.511 24.8058 24.3984 24.2881 24.3984 23.7436C24.3984 21.774 25.8614 20.1797 27.6671 20.1797C28.2638 20.1797 28.8214 20.3529 29.3039 20.6561C29.7848 20.3529 30.3423 20.1797 30.9374 20.1797C31.2204 20.1797 31.495 20.2168 31.7558 20.2911C32.0167 20.2168 32.2912 20.1797 32.5726 20.1797C33.1693 20.1797 33.7269 20.3529 34.2077 20.6561C34.6903 20.3529 35.2478 20.1797 35.8446 20.1797C37.6486 20.1797 39.1132 21.774 39.1132 23.7436C39.1132 24.2881 39.0007 24.8058 38.7995 25.2699H36.6869C37.1609 24.9584 37.4781 24.3912 37.4781 23.7436C37.4781 22.7578 36.7466 21.9596 35.8446 21.9596C35.7031 21.9596 35.5667 21.9802 35.4337 22.0173C35.6946 22.5268 35.8446 23.1166 35.8446 23.7436C35.8446 24.2881 35.7304 24.8058 35.5292 25.2699H33.4166C33.8906 24.9584 34.2077 24.3912 34.2077 23.7436C34.2077 22.7578 33.4763 21.9596 32.5726 21.9596V25.2699H31.7558Z" fill="#191919" fill-opacity="0.6"/>
<path fill-rule="evenodd" clip-rule="evenodd" d="M24.3984 26.2278C24.3984 25.7013 24.9703 25.2734 25.6791 25.2734C26.3834 25.2734 26.9575 25.7013 26.9575 26.2278C26.9575 26.7562 26.3834 27.1823 25.6791 27.1823C24.9703 27.1823 24.3984 26.7562 24.3984 26.2278Z" fill="#191919" fill-opacity="0.6"/>
<path fill-rule="evenodd" clip-rule="evenodd" d="M36.5527 26.2278C36.5527 25.7013 37.1268 25.2734 37.8312 25.2734C38.54 25.2734 39.1118 25.7013 39.1118 26.2278C39.1118 26.7562 38.54 27.1823 37.8312 27.1823C37.1268 27.1823 36.5527 26.7562 36.5527 26.2278Z" fill="#191919" fill-opacity="0.6"/>
<path fill-rule="evenodd" clip-rule="evenodd" d="M33.3535 26.2278C33.3535 25.7013 33.9276 25.2734 34.6342 25.2734C35.3407 25.2734 35.9126 25.7013 35.9126 26.2278C35.9126 26.7562 35.3407 27.1823 34.6342 27.1823C33.9276 27.1823 33.3535 26.7562 33.3535 26.2278Z" fill="#191919" fill-opacity="0.6"/>
<path fill-rule="evenodd" clip-rule="evenodd" d="M30.7949 26.2278C30.7949 25.7013 31.3668 25.2734 32.0756 25.2734C32.7799 25.2734 33.354 25.7013 33.354 26.2278C33.354 26.7562 32.7799 27.1823 32.0756 27.1823C31.3668 27.1823 30.7949 26.7562 30.7949 26.2278Z" fill="#191919" fill-opacity="0.6"/>
<path fill-rule="evenodd" clip-rule="evenodd" d="M27.5977 26.2278C27.5977 25.7013 28.1695 25.2734 28.8761 25.2734C29.5827 25.2734 30.1568 25.7013 30.1568 26.2278C30.1568 26.7562 29.5827 27.1823 28.8761 27.1823C28.1695 27.1823 27.5977 26.7562 27.5977 26.2278Z" fill="#191919" fill-opacity="0.6"/>
<path fill-rule="evenodd" clip-rule="evenodd" d="M26.957 29.0005H38.473V27.901H26.957V29.0005Z" fill="#191919" fill-opacity="0.6"/>
<path fill-rule="evenodd" clip-rule="evenodd" d="M31.8712 18.5318V18.1311H31.4618V17.5656H31.8712V17H32.2807V17.5656H32.6889V18.1311H32.2807V18.5318C32.5187 18.6496 32.6889 18.9618 32.6889 19.331C32.6889 19.8004 32.415 20.1814 32.076 20.1814C31.7369 20.1814 31.4618 19.8004 31.4618 19.331C31.4618 18.9618 31.6332 18.6496 31.8712 18.5318Z" fill="#191919" fill-opacity="0.6"/>
<path fill-rule="evenodd" clip-rule="evenodd" d="M63.0241 35.695C61.4272 36.5515 59.487 37.2248 57.9519 37.2919C56.2951 37.3645 54.473 37.0996 53.9625 35.6097C53.2086 33.4192 54.7092 30.6245 56.6639 29.6899C59.3708 28.3942 61.618 29.0965 62.3883 29.8079L62.9533 27.1928C61.8087 26.7373 60.2391 26.5449 59.6542 26.5449C55.5684 26.5449 53.6046 28.3343 52.3765 29.8188C50.9977 31.4902 49.1592 35.695 52.5782 38.604C53.5992 39.4715 55.4613 40.0014 57.2253 39.8925C60.0084 39.7183 61.7125 39.0051 63.3384 37.9525C63.4201 38.1104 63.5146 38.2592 63.62 38.3971C64.3321 39.3172 65.6292 39.7782 67.504 39.7782C70.6251 39.7782 72.6834 38.6802 73.312 35.5153L73.5118 34.4627C73.5354 34.3629 73.5572 34.2486 73.5772 34.1252C73.6281 33.8094 73.6608 33.441 73.6608 33.1416C73.6608 30.7515 72.0348 29.7117 69.1481 29.7117C66.0616 29.7117 64.0542 30.7969 63.3566 33.9582C65.0497 32.9637 66.7083 31.9384 68.8647 31.9384C70.0619 31.9384 70.4253 32.3703 70.4253 33.1706C70.4253 33.4338 70.4107 33.7078 70.329 34.1252C70.3217 34.1597 70.3163 34.1905 70.309 34.225L70.0928 35.2649C69.7113 36.9562 69.1972 37.5515 67.7366 37.5515C66.6266 37.5515 66.2106 37.2103 66.2106 36.3483C66.1942 36.0507 66.2669 35.4754 66.3087 35.2649C66.3523 35.0543 66.6466 33.8203 66.6466 33.8203C66.6466 33.8203 64.6355 34.8311 63.0241 35.695Z" fill="#191919" fill-opacity="0.6"/>
<path fill-rule="evenodd" clip-rule="evenodd" d="M82.617 29.7246C81.396 29.7246 79.9451 29.8821 78.6705 30.7351L78.8276 29.9706H75.6497L73.6602 39.2687H77.0988L78.5478 32.5261C79.4736 32.2942 80.8709 32.1066 82.111 32.1066L82.617 29.7246Z" fill="#191919" fill-opacity="0.6"/>
<path fill-rule="evenodd" clip-rule="evenodd" d="M90.2928 29.7246C89.0695 29.7246 87.6349 29.8821 86.3386 30.7351L86.5134 29.9706H83.3313L81.3359 39.2687H84.7812L86.2349 32.5261C87.1625 32.2942 88.5606 32.1066 89.8031 32.1066L90.2928 29.7246Z" fill="#191919" fill-opacity="0.6"/>
<path fill-rule="evenodd" clip-rule="evenodd" d="M117.986 31.077C118.779 31.077 120.025 31.1507 121.32 31.2724L121.643 29.4826C120.851 29.2872 119.491 29.0918 117.921 29.0918C115.494 29.0918 113.148 29.5729 113.148 32.1295C113.148 33.5433 114.006 34.3856 115.592 34.97L116.368 35.2575C117.484 35.6944 117.727 35.8437 117.727 36.31C117.727 37.1376 116.901 37.3035 115.882 37.3035C114.345 37.3035 113.731 37.1819 112.372 37.1247L112.047 38.898C112.599 39.0473 114.249 39.2721 115.706 39.2721C118.665 39.2721 120.915 38.4464 120.915 35.9192C120.915 34.5663 120.187 33.8142 118.375 33.1525L117.5 32.8373C116.644 32.5055 116.304 32.3396 116.304 31.9341C116.304 31.1065 117.226 31.077 117.986 31.077Z" fill="#191919" fill-opacity="0.6"/>
<path fill-rule="evenodd" clip-rule="evenodd" d="M107.544 33.6574L107.322 34.7084C106.97 36.4201 106.476 37.0201 105.072 37.0201C104.005 37.0201 103.59 36.6741 103.59 35.8054C103.59 35.474 103.606 35.128 103.7 34.7084L103.924 33.6574C104.258 31.9456 104.785 31.3438 106.156 31.3438C107.306 31.3438 107.64 31.78 107.64 32.5917C107.64 32.877 107.64 33.1751 107.544 33.6574ZM106.43 29.0918C103.449 29.0918 101.518 30.187 100.866 33.3859L100.659 34.3173C100.531 34.9026 100.531 35.3535 100.531 35.8045C100.531 38.1162 102.014 39.2721 104.836 39.2721C107.85 39.2721 109.828 38.1623 110.433 34.9615L110.624 33.8976C110.689 33.5368 110.768 32.981 110.768 32.5595C110.768 30.1409 109.205 29.0918 106.43 29.0918Z" fill="#191919" fill-opacity="0.6"/>
<path fill-rule="evenodd" clip-rule="evenodd" d="M96.8212 33.3684H93.127L93.1744 33.2341C93.3657 32.1815 93.8293 31.1914 95.3656 31.1914C96.5824 31.1914 96.9318 31.7619 96.9318 32.4814C96.9318 32.7078 96.8844 33.0096 96.8212 33.3684ZM95.6522 29.0918C92.662 29.0918 90.534 30.2622 89.9264 33.6575L89.8457 34.1672C89.7333 34.7524 89.6543 35.3082 89.6543 35.7885C89.6543 38.2361 91.2363 39.2721 94.1966 39.2721C96.0349 39.2721 97.5238 39.0311 98.3719 38.8526L98.7073 36.9C96.7724 37.0197 95.8751 37.0657 94.8041 37.0657C93.1413 37.0657 92.6936 36.6737 92.6936 35.8934C92.6936 35.6836 92.741 35.4131 92.82 34.977H99.5869C99.7959 33.9869 99.8907 33.3115 99.8907 32.6343C99.8907 30.5327 98.6739 29.0918 95.6522 29.0918Z" fill="#191919" fill-opacity="0.6"/>
</svg>
