<svg width="100" height="38" viewBox="0 0 100 38" fill="none" xmlns="http://www.w3.org/2000/svg">
<path d="M57.6137 11.3906H43.2066C42.4475 15.6612 41.1911 22.9679 40.5684 26.5383H46.6886C47.1566 23.8522 48.4388 16.4865 49.0063 13.2624H53.5974C55.5245 13.2624 56.9099 14.5631 56.5893 16.7924C56.2835 18.5573 55.5429 22.8094 54.8907 26.5383H61.0109C61.4457 24.0328 62.2932 19.1763 62.6912 16.8882C63.2365 13.7857 61.5968 11.3906 57.6137 11.3906Z" fill="#191919" fill-opacity="0.6"/>
<path d="M26.3493 24.7327C23.5047 24.2647 24.0353 20.8638 24.0353 20.8638C26.5593 21.1659 29.7429 21.0959 31.9168 20.8785C33.7997 20.6943 37.5139 20.2263 38.5751 17.3302C39.6252 14.4598 38.8256 12.1385 35.362 11.49C32.8122 11.0183 30.443 10.9925 27.3478 11.4089C22.9299 12.0021 20.498 13.4981 19.4184 16.1253C18.8252 17.5734 18.4678 19.2941 18.3093 20.8564C18.0293 23.6973 18.5636 26.3024 22.1193 26.5861C26.8873 26.9693 30.6383 26.8846 34.6103 26.2618L35.8484 24.4969C32.079 25.1233 27.7826 24.9722 26.3493 24.7327ZM25.1518 16.2948C25.9108 14.4893 27.0273 13.3544 29.1165 12.8754C30.0413 12.6617 30.8299 12.6654 31.9353 12.9049C33.575 13.2549 34.0798 15.1673 33.3576 16.6596C32.5543 18.3251 31.4784 18.6972 30.0708 18.9846C28.5454 19.3015 26.5372 19.3457 24.3264 19.1946C24.4812 18.2698 24.8681 16.9691 25.1518 16.2948Z" fill="#191919" fill-opacity="0.6"/>
<path d="M86.4279 24.7327C83.5833 24.2647 84.1139 20.8638 84.1139 20.8638C86.6416 21.1659 89.8215 21.0959 91.9955 20.8785C93.8783 20.6943 97.5925 20.2263 98.65 17.3302C99.7001 14.4598 98.9042 12.1385 95.4406 11.49C92.8872 11.0183 90.5179 10.9925 87.4228 11.4089C83.0048 12.0021 80.5803 13.4981 79.497 16.1253C78.9001 17.5734 78.5427 19.2941 78.3879 20.8564C78.1079 23.6973 78.6422 26.3024 82.1979 26.5861C86.9622 26.9693 90.7132 26.8846 94.6926 26.2618L95.927 24.4969C92.1576 25.1233 87.8649 24.9722 86.4279 24.7327ZM85.2341 16.2948C85.9894 14.4893 87.1059 13.3544 89.1914 12.8754C90.1163 12.6617 90.9085 12.6654 92.0139 12.9049C93.6536 13.2549 94.1547 15.1673 93.4399 16.6596C92.6329 18.3251 91.5607 18.6972 90.1531 18.9846C88.6277 19.3015 86.6195 19.3457 84.4087 19.1946C84.5598 18.2698 84.9467 16.9691 85.2341 16.2948Z" fill="#191919" fill-opacity="0.6"/>
<path d="M7.88152 16.439C8.20578 14.5893 8.86165 13.5208 10.8698 13.156C12.6679 12.828 15.9952 13.0454 17.9481 13.2628L19.2598 11.3873C16.301 11.1736 11.3046 10.9304 8.34211 11.3615C4.11947 11.9732 2.39872 12.8354 1.91972 15.5363C1.636 17.1539 0.361098 24.4643 0 26.5387H6.12025C6.5403 24.129 7.58307 18.1487 7.88152 16.439Z" fill="#191919" fill-opacity="0.6"/>
<path d="M73.9367 2.10897C70.4584 4.54823 69.2793 7.54018 68.6382 11.2175L66.0442 26.0557C65.462 29.4309 65.2041 31.1921 64.6293 32.8502C64.1687 34.2394 62.6543 36.2807 60.1339 36.3138L59.0322 37.8835C62.2858 38.0419 64.8872 37.1023 66.7258 35.8164C70.2042 33.3808 71.4864 29.8951 72.1313 26.2252C72.1755 25.9746 73.3067 19.4785 73.8483 16.4018C74.2426 14.2168 75.3885 13.0193 77.802 12.9861L78.9221 11.3907H74.7216C75.3185 7.98603 75.5322 6.51584 76.0223 5.10093C76.5013 3.7118 78.0009 1.67049 80.5139 1.64102L81.634 0.0455501C78.3731 -0.116576 75.7754 0.823017 73.9367 2.10897Z" fill="#191919" fill-opacity="0.6"/>
</svg>
