<svg width="104" height="62" viewBox="0 0 104 62" fill="none" xmlns="http://www.w3.org/2000/svg">
<path d="M10.6782 62.0006H92.0273L51.5686 21.5425L10.6782 62.0006Z" fill="#191919" fill-opacity="0.6"/>
<path d="M9.1242 60.0104L15.462 53.8276L13.351 51.6625L9.37024 55.5476L2.35768 48.3577L0 50.6578L9.1242 60.0104Z" fill="#191919" fill-opacity="0.6"/>
<path d="M16.8533 52.4202L23.3474 46.083L21.564 44.2561L17.4405 48.2786L15.4604 46.2486L18.7647 43.0247L16.8985 41.1133L13.5943 44.3354L11.8978 42.5966L15.8856 38.7052L14.1034 36.8789L7.62988 43.195L16.8533 52.4202Z" fill="#191919" fill-opacity="0.6"/>
<path d="M38.1088 22.3769C35.4898 19.6922 30.9465 20.0134 28.7585 22.1485C26.5699 24.2836 25.453 28.5409 28.5436 31.709C31.9383 35.1883 35.9772 33.9246 38.1657 31.7906C41.3925 28.6425 40.2439 24.5655 38.1088 22.3769ZM36.1839 29.952C34.7352 31.3655 32.9642 30.982 30.9406 28.9074C29.24 27.1645 29.3422 25.4134 30.5789 24.2067C31.4292 23.377 33.1562 22.6347 35.2109 24.7411C37.555 27.144 37.6325 28.5386 36.1839 29.952Z" fill="#191919" fill-opacity="0.6"/>
<path d="M45.4132 24.6071L47.8091 22.2688L44.2047 18.5746L42.0473 9.59839L39.3009 12.2785L40.7296 17.3708L35.9026 15.5933L33.313 18.1195L41.5423 20.762L45.4132 24.6071Z" fill="#191919" fill-opacity="0.6"/>
<path d="M32.6388 37.0833C32.6388 37.0833 26.8077 35.0938 26.5306 35.142C26.4407 35.1566 27.7831 31.5846 24.7671 30.0015C24.7671 30.0015 22.5293 28.79 20.2896 30.8247L15.5161 35.5289L24.7184 44.7964L27.153 42.4211L22.1734 37.3182L30.223 39.4404L32.6388 37.0833ZM23.6074 35.8108C22.2544 37.1285 22.0718 37.2325 22.0718 37.2325C22.0718 37.2325 19.9508 35.0586 19.8756 34.9816C19.8005 34.9047 21.3924 33.54 21.6431 33.2952C21.7494 33.1912 22.7407 32.5447 23.561 33.385C23.561 33.385 24.9598 34.4907 23.6074 35.8108Z" fill="#191919" fill-opacity="0.6"/>
<path d="M44.6698 11.3668L42.5405 9.21991L51.8362 0L54.8786 3.06704L51.5297 9.65798L58.3573 6.57449L61.2845 9.52644L51.9889 18.7464L49.7451 16.4844L54.6519 11.6181L47.9394 14.6634L46.5518 13.2641L49.6717 6.55805L44.6698 11.3668Z" fill="#191919" fill-opacity="0.6"/>
<path d="M60.8101 27.6391L54.3647 21.1415L63.661 11.9216L70.1245 18.4386L68.2466 20.3012L64.1971 16.2189L62.6827 17.7204L65.8766 20.9407L63.9211 22.8797L60.7466 19.6788L58.7149 21.6935L62.7261 25.7377L60.8101 27.6391Z" fill="#191919" fill-opacity="0.6"/>
<path d="M82.0633 30.4763L84.4586 32.8921L77.4243 39.8683L81.3593 43.8344L79.0973 46.0793L72.7671 39.6968L82.0633 30.4763Z" fill="#191919" fill-opacity="0.6"/>
<path d="M80.77 47.7656L90.0663 38.5457L92.4046 40.9027L83.1083 50.1221L80.77 47.7656Z" fill="#191919" fill-opacity="0.6"/>
<path d="M87.3474 54.398L85.1606 52.193L94.4575 42.9736L97.6326 46.1728L94.9196 55.7456L101.073 49.6421L103.202 51.789L93.9067 61.0083L91.1303 58.2108L93.5209 48.1611L87.3474 54.398Z" fill="#191919" fill-opacity="0.6"/>
<path d="M77.8621 26.2409L72.216 20.5479L62.9004 29.749L65.2957 32.1636L70.3745 27.1265L68.5465 35.4415L70.9987 37.9142C70.9987 37.9142 72.9318 31.9663 72.9911 31.7185C72.9911 31.7185 75.0858 32.8724 77.3841 30.8964C77.3841 30.8964 79.5885 28.7484 77.8621 26.2409ZM74.4146 28.9374C74.4146 28.9374 73.2278 29.7343 72.182 28.6802L70.5483 26.955C70.5483 26.955 72.522 24.9972 72.7709 24.75C72.7709 24.75 74.2918 26.2838 74.4821 26.4752C74.6718 26.6667 75.8709 27.5686 74.4146 28.9374Z" fill="#191919" fill-opacity="0.6"/>
</svg>
