<svg width="101" height="22" viewBox="0 0 101 22" fill="none" xmlns="http://www.w3.org/2000/svg">
<path d="M82.6156 14.1263L82.5752 13.904L81.2616 13.419L80.5946 15.2176L81.2616 13.419L73.481 10.5493C73.7033 9.15486 75.1584 7.57854 76.8155 7.57854C79.9277 7.57854 80.2309 10.3068 80.2309 10.3068L82.5954 9.72072C82.5954 9.72072 81.8072 5.23427 76.8155 5.19385C76.7953 5.19385 76.7953 5.19385 76.7751 5.19385C73.4002 5.19385 71.1367 8.06356 71.1367 10.7716C71.1367 11.4183 71.1973 12.2065 71.1973 12.2065L72.6726 12.7521L80.433 15.642C80.433 17.3598 78.8162 18.7138 76.8761 18.7138C76.8357 18.7138 76.7953 18.7138 76.7751 18.7138C73.8852 18.6532 73.5012 15.8441 73.5012 15.8441L71.1569 16.4706C71.1569 16.4706 71.9653 20.9571 76.7347 21.0783C76.7549 21.0783 76.7549 21.0783 76.7751 21.0783C76.7953 21.0783 76.7953 21.0783 76.8155 21.0783C76.8559 21.0783 76.8964 21.0783 76.9368 21.0783C80.5542 21.0783 82.7368 18.1278 82.7368 15.2783C82.7166 14.672 82.6762 14.4699 82.6156 14.1263Z" fill="#191919" fill-opacity="0.6"/>
<path d="M66.4685 7.4773C65.0337 6.06266 63.0734 5.21387 60.911 5.21387H60.8908C60.8706 5.21387 60.8706 5.21387 60.8504 5.21387C58.688 5.23408 56.7277 6.12328 55.313 7.53793L55.2928 7.55814C55.2928 7.57835 55.2726 7.57835 55.2524 7.57835C53.8377 9.01321 52.9688 10.9735 52.9688 13.1359V13.1561C52.9688 13.1763 52.9688 13.1763 52.9688 13.1965C52.989 15.3589 53.8782 17.3192 55.2928 18.7339C55.313 18.7541 55.3332 18.7541 55.3332 18.7743C56.7681 20.1889 58.7284 21.0579 60.8908 21.0377H60.911C60.9312 21.0377 60.9312 21.0377 60.9514 21.0377C63.4978 21.0175 65.741 19.8049 67.1758 17.9255L65.2964 16.4906C64.2859 17.8244 62.6692 18.6732 60.8706 18.6732C59.3549 18.6732 57.9806 18.0669 56.9702 17.0767C55.9395 16.0662 55.313 14.6516 55.313 13.0955C55.313 11.5596 55.9395 10.1853 56.9298 9.17488C57.9402 8.16442 59.3347 7.53793 60.8706 7.53793C62.4065 7.53793 63.8009 8.16442 64.8114 9.17488C65.5187 9.8822 66.0239 10.7512 66.2866 11.7415H60.426V14.1464H68.7118V11.7819C68.449 10.1045 67.6407 8.62923 66.4685 7.4773Z" fill="#191919" fill-opacity="0.6"/>
<path d="M20.5124 5.86108H18.1479V14.1469H20.5124V5.86108Z" fill="#191919" fill-opacity="0.6"/>
<path d="M13.4998 7.4773C12.0649 6.06266 10.1046 5.21387 7.94223 5.21387H7.92203C7.90182 5.21387 7.90182 5.21387 7.88161 5.21387C5.71922 5.23408 3.75892 6.12328 2.34427 7.53793C2.32406 7.55814 2.32406 7.57835 2.30385 7.57835C0.868998 9.01321 0 10.9937 0 13.1561V13.1763C0 13.1965 0 13.1965 0 13.2167C0.0202092 15.3791 0.909416 17.3394 2.32406 18.7541L2.34427 18.7743C2.36448 18.7945 2.36448 18.7945 2.36448 18.8147C3.79934 20.2293 5.75964 21.0983 7.92203 21.0983H7.94223C7.96244 21.0983 7.96244 21.0983 7.98265 21.0983C10.529 21.0781 12.7722 19.8656 14.2071 17.9861L12.3276 16.5513C11.3172 17.8851 9.70044 18.7339 7.90182 18.7339C6.36591 18.7339 4.99168 18.1074 3.98122 17.1171C2.97076 16.1067 2.34427 14.7122 2.34427 13.1763C2.34427 11.6606 2.95055 10.2864 3.9408 9.27593C4.95127 8.24525 6.36591 7.61877 7.92203 7.61877C9.45793 7.61877 10.8524 8.24525 11.8628 9.25572C12.5702 9.96304 13.0754 10.832 13.3381 11.8223H7.47742V14.1464H15.7632V11.7819C15.4803 10.1045 14.6719 8.62923 13.4998 7.4773Z" fill="#191919" fill-opacity="0.6"/>
<path d="M25.868 5.21387C25.8477 5.21387 25.8275 5.21387 25.8073 5.21387C23.746 5.21387 21.8867 6.04245 20.5327 7.37626V12.1861C20.8965 10.2864 22.5738 7.57835 25.8073 7.57835C25.868 7.57835 25.9084 7.57835 25.969 7.57835C28.2122 7.65919 30.0311 9.45781 30.0311 11.7617V12.5498V20.8356H32.3955V12.5498V11.7617C32.3753 8.14421 29.4652 5.25429 25.868 5.21387Z" fill="#191919" fill-opacity="0.6"/>
<path d="M48.2392 7.45721C48.2392 7.45721 48.2392 7.437 48.2392 7.45721C46.8044 6.04257 44.8441 5.21399 42.6615 5.21399H42.6413C42.6211 5.21399 42.6211 5.21399 42.6008 5.21399C40.4385 5.2342 38.4782 6.1234 37.0635 7.53805L37.0433 7.55826C37.0231 7.57847 37.0231 7.57847 37.0029 7.57847C35.5882 9.01333 34.7192 10.9736 34.7192 13.136V13.1562C34.7192 13.1764 34.7192 13.1764 34.7192 13.1966C34.7394 15.359 35.6287 17.3193 37.0433 18.734C37.0635 18.7542 37.0837 18.7542 37.0837 18.7744C38.5186 20.189 40.4991 21.058 42.6615 21.0378H42.6817H42.7019C44.3186 21.0378 45.8343 20.5326 47.0873 19.6838L45.7737 17.7235C44.8845 18.3298 43.8134 18.6733 42.6615 18.6733H42.6413C41.1256 18.6733 39.7513 18.0671 38.7409 17.0768C37.7102 16.0664 37.0837 14.6517 37.0837 13.0956C37.0837 11.5597 37.7102 10.1855 38.7005 9.175C39.7109 8.16454 41.1054 7.53805 42.6413 7.53805C44.1772 7.53805 45.5716 8.14433 46.5821 9.15479C47.2894 9.86211 47.7946 10.7311 48.0573 11.7214C48.0776 11.782 48.1584 12.1256 48.1584 12.2266C48.1584 12.2468 48.1584 12.2468 48.1786 12.3479C48.1786 12.4085 48.1988 12.4691 48.1988 12.5095V12.5297V20.8155H50.5633V12.5297V0H48.1988V7.45721H48.2392Z" fill="#191919" fill-opacity="0.6"/>
<path d="M98.419 5.55742V7.45709C96.9842 6.08287 95.0037 5.21387 92.8615 5.21387C92.8413 5.21387 92.8211 5.21387 92.8009 5.21387C90.6385 5.23408 88.6782 6.12328 87.2635 7.53793C87.2433 7.55814 87.2433 7.57835 87.2231 7.57835C85.8085 9.01321 84.9395 10.9735 84.9395 13.1359V13.1561C84.9395 13.1763 84.9395 13.1763 84.9395 13.1965C84.9597 15.3589 85.8489 17.3192 87.2635 18.7339L87.2837 18.7541C87.3039 18.7743 87.3039 18.7743 87.3039 18.7945C88.7388 20.2091 90.7193 21.0781 92.8817 21.0781H92.9019H92.9221C94.5388 21.0579 96.0343 20.5729 97.2873 19.7241L95.9737 17.7638C95.0845 18.3701 94.0134 18.7136 92.8615 18.7136H92.8413C91.3054 18.7136 89.9311 18.0872 88.9207 17.0969C87.9102 16.0864 87.2837 14.692 87.2837 13.1561C87.2837 11.6404 87.89 10.2662 88.8803 9.25572C89.8907 8.22504 91.3054 7.59856 92.8615 7.59856C94.3974 7.59856 95.7918 8.22504 96.8023 9.2153C97.6713 10.0843 98.2776 11.2564 98.419 12.57V12.5902V20.876H100.784V12.5902V5.55742H98.419Z" fill="#191919" fill-opacity="0.6"/>
</svg>
