<svg width="98" height="22" viewBox="0 0 98 22" fill="none" xmlns="http://www.w3.org/2000/svg">
<path d="M23.6289 21.9776C22.864 21.8977 21.8199 21.6911 21.1615 21.4892C20.1951 21.193 18.7733 20.4097 17.8551 19.6678C15.4534 17.727 14.0592 15.0733 13.8337 12.0134C13.7126 10.3689 14.0562 8.5716 14.8061 6.92762C16.28 3.6966 19.2054 1.139 22.344 0.337638C23.3495 0.0809069 24.0509 -0.00245665 25.1845 5.48163e-05C26.3069 0.00253918 26.8614 0.0726541 27.8835 0.341375C31.7805 1.36586 34.7639 4.62771 35.5567 8.73071C35.7962 9.97019 35.8054 11.0784 35.5875 12.4489C35.0746 15.6745 33.2829 18.4457 30.5639 20.2189C29.6082 20.8421 28.2335 21.4843 27.5714 21.6167C27.4977 21.6315 27.3046 21.6768 27.1423 21.7174C26.3642 21.912 24.3969 22.0577 23.6289 21.9776ZM27.7055 19.8828C28.0838 19.8399 28.2346 19.7969 28.4024 19.684C28.696 19.4865 29.6963 18.4949 29.9944 18.1058C31.4494 16.207 32.1865 14.0106 32.1833 11.583C32.1805 9.41482 31.5636 7.3867 30.4278 5.81174C29.0882 3.95417 27.2283 2.78919 24.9438 2.37662C24.2157 2.24513 22.8422 2.22091 22.017 2.32502C21.632 2.37359 21.254 2.43047 21.177 2.45141C20.978 2.5055 20.2242 3.15749 19.7819 3.65806C18.2325 5.41152 17.4707 7.62396 17.4683 10.3773C17.4672 11.5216 17.5423 12.1366 17.8141 13.2123C18.5435 16.0989 20.4629 18.3174 23.1194 19.3444C23.7102 19.5728 24.696 19.7891 25.6672 19.9035C26.0307 19.9463 27.2549 19.9338 27.7055 19.8828ZM60.1841 21.7443L59.7282 21.7178L59.639 21.4256C59.5647 21.1819 59.0291 19.2726 57.9554 15.4234C57.8535 15.0583 57.3571 13.2895 56.8523 11.4928C56.3475 9.69611 55.8515 7.91537 55.7501 7.53558C55.6487 7.1558 55.4568 6.46263 55.3237 5.9952C54.9083 4.53624 54.6206 3.52175 54.4426 2.88787C54.3482 2.5519 54.2234 2.18407 54.1652 2.07046C54.0818 1.90758 53.475 1.20243 52.957 0.666445C52.9197 0.627841 52.8891 0.514114 52.8891 0.413719V0.231183L56.0673 0.244885L59.2454 0.258586L59.2627 0.407614C59.2772 0.533071 59.1966 0.644871 58.7531 1.11447C58.0676 1.84025 58.0257 1.90477 58.0657 2.17079C58.0931 2.35328 58.4746 3.78239 59.1927 6.39358C60.4025 10.7926 61.0744 13.2501 61.4652 14.7064C61.825 16.0469 61.8782 16.2114 61.92 16.114C61.9559 16.0301 62.1095 15.5824 63.2687 12.1833C66.7809 1.88433 67.3227 0.31519 67.3776 0.281577C67.5711 0.163138 69.5722 0.184788 69.6735 0.306417C69.7118 0.352289 70.3074 2.41282 70.9419 4.69384C70.9784 4.8253 71.2499 5.76945 71.5451 6.79195C71.8403 7.81445 72.1954 9.05738 72.3343 9.55402C72.4732 10.0507 72.9461 11.71 73.3854 13.2414C73.8246 14.7727 74.1839 16.0575 74.1839 16.0964C74.1839 16.2321 74.2833 16.1657 74.3366 15.9944C74.4472 15.6387 74.8353 14.4393 75.3892 12.741C75.7036 11.777 76.0301 10.7731 76.1146 10.5101C76.1991 10.2472 76.4366 9.51817 76.6423 8.89007C76.848 8.26196 77.2983 6.87561 77.643 5.80929C77.9876 4.74297 78.3882 3.50852 78.5332 3.06607C78.6783 2.62361 78.7969 2.19465 78.7969 2.11282C78.7969 1.89788 78.6033 1.65155 77.9943 1.09148C77.514 0.649864 77.4559 0.576787 77.4559 0.414239V0.232029H80.0248H82.5937L82.6276 0.365909C82.6643 0.510595 82.5961 0.680154 82.4742 0.747754C82.2586 0.867219 81.0286 2.13626 80.9188 2.35251C80.8508 2.48628 80.5493 3.3367 80.2487 4.24235C79.9482 5.14799 79.2835 7.14385 78.7718 8.6776C78.26 10.2113 77.2322 13.2948 76.4877 15.5297C75.7432 17.7646 74.9731 20.0711 74.7763 20.6554L74.4185 21.7178L73.3382 21.7321C72.3503 21.7453 72.2536 21.7385 72.2083 21.6525C72.1525 21.5467 71.6035 19.7061 70.5643 16.1405C70.3685 15.4686 70.0668 14.4408 69.8938 13.8565C69.3475 12.011 69.2144 11.5577 68.7472 9.95239C68.156 7.92132 68.0474 7.55075 67.8833 7.00536C67.8085 6.75652 67.6853 6.34728 67.6097 6.09595C67.5341 5.84462 67.4609 5.65017 67.4471 5.66385C67.4215 5.68921 66.0305 9.75437 64.444 14.4408C63.9593 15.8723 63.2049 18.0952 62.7675 19.3806L61.9723 21.7178L61.628 21.7308C61.4386 21.738 61.1389 21.75 60.9619 21.7574C60.7848 21.7648 60.4349 21.7589 60.1841 21.7443V21.7443ZM0.0367933 21.656C-0.032857 21.587 0.00190401 21.33 0.094693 21.2278C0.146321 21.171 0.398524 20.9394 0.655144 20.7133C0.974661 20.4317 1.16486 20.2164 1.25859 20.0301L1.39544 19.7581V11.1034C1.39544 4.64429 1.37951 2.39603 1.33263 2.24108C1.29483 2.11614 1.02782 1.73554 0.662137 1.28536C0.216189 0.736352 0.054463 0.498147 0.054463 0.390321C0.054463 0.305339 0.0902344 0.229798 0.139308 0.21115C0.250148 0.169031 6.08093 0.169031 6.19177 0.21115C6.23973 0.229373 6.27662 0.304849 6.27662 0.384753C6.27662 0.512002 6.19313 0.635072 5.74947 1.16184C5.36694 1.61602 5.09568 1.98987 5.0223 2.164C4.94369 2.35055 4.93564 3.18626 4.93564 11.154V19.9384L6.50459 19.9383C8.26333 19.9382 8.9248 19.881 10.5163 19.5909C11.6513 19.3841 12.3919 19.1792 13.1032 18.8754C13.5534 18.683 14.0001 18.5975 14.001 18.7034C14.0013 18.7352 13.4907 20.8159 13.3135 21.5053L13.2725 21.6647L6.67265 21.6782C3.04271 21.6856 0.0565763 21.6756 0.0367933 21.656V21.656ZM37.6663 21.6275C37.513 21.4757 37.6008 21.3299 38.1449 20.8328C38.4535 20.5508 38.7542 20.2221 38.8417 20.0711L38.9956 19.8056L38.9938 11.0413C38.9922 2.85268 38.986 2.26576 38.8997 2.10562C38.8489 2.01134 38.5466 1.61158 38.2278 1.21726C37.7565 0.634294 37.6514 0.472753 37.6653 0.352885L37.6824 0.205466H44.1817C47.7563 0.205466 50.6944 0.218747 50.7108 0.234965C50.7496 0.27343 51.2263 2.33977 51.2263 2.46967C51.2263 2.63688 50.8635 2.59379 49.3802 2.25046L48.0033 1.93176H45.2969H42.5904V5.94208V9.9524H44.4082H46.226L46.8354 9.68284C47.1905 9.52574 47.5343 9.4094 47.6593 9.40398L47.8739 9.39468L47.888 11.2139L47.9021 13.0332H47.705C47.5577 13.0332 47.3611 12.9459 46.9272 12.6879L46.3466 12.3427H44.4551H42.5636V16.1405V19.9384L44.0387 19.9381C46.0396 19.9377 47.8392 19.7757 49.6708 19.4311C49.7445 19.4172 49.8894 19.3926 49.9926 19.3764C50.0959 19.3602 50.4255 19.2649 50.7251 19.1646C51.2923 18.9747 51.6027 18.9336 51.6005 19.0487C51.5979 19.183 50.9986 21.3582 50.9054 21.5717L50.8532 21.6912H44.2919C39.2603 21.6912 37.7157 21.6763 37.6663 21.6275ZM84.0358 21.6559C84.016 21.6364 83.9999 21.5443 83.9999 21.4513C83.9999 21.3041 84.0658 21.2252 84.5103 20.8407C84.791 20.5978 85.093 20.2826 85.1815 20.1401L85.3425 19.8811L85.3419 11.0638C85.3413 2.96284 85.3342 2.2326 85.2526 2.07583C85.2038 1.98199 84.914 1.59775 84.6086 1.22196C84.2027 0.72244 84.0534 0.499019 84.0534 0.391057C84.0534 0.30855 84.089 0.229848 84.1342 0.2127C84.254 0.167176 96.9977 0.17392 97.0642 0.219536C97.1096 0.250616 97.6253 2.37718 97.6244 2.52932C97.6236 2.65624 97.0304 2.5546 95.0863 2.09444L94.399 1.93176H91.6665H88.934L88.9477 5.9288L88.9615 9.92583L90.7654 9.93981L92.5693 9.95378L93.206 9.68336C93.5653 9.53073 93.9361 9.40895 94.0572 9.4038L94.2718 9.39466L94.2859 11.2139L94.3 13.0332H94.0882C93.9229 13.0332 93.7493 12.9575 93.2964 12.688L92.7162 12.3428L90.8254 12.3427L88.9347 12.3426V16.1466V19.9505L90.7718 19.9231C93.063 19.889 94.4157 19.7501 96.5783 19.3268C96.6668 19.3095 96.9472 19.2248 97.2015 19.1388C97.6435 18.9891 97.9994 18.9371 98 19.0221C98.0009 19.1495 97.2741 21.6182 97.2262 21.6503C97.1536 21.6988 84.0847 21.7044 84.0357 21.6559L84.0358 21.6559Z" fill="#191919" fill-opacity="0.6"/>
</svg>
