<svg width="164" height="34" viewBox="0 0 164 34" fill="none" xmlns="http://www.w3.org/2000/svg">
<path d="M11.1012 17.5782C11.4376 17.8095 11.4376 18.2721 11.774 18.619L11.8861 19.7755L11.1012 20.932C10.092 21.5102 8.63425 21.7415 7.73719 20.8163C7.28866 20.3537 7.06439 19.6599 7.17652 18.966L7.62506 17.8095C7.84932 17.6939 8.07359 17.6939 8.29785 17.3469C8.85851 17.1156 9.41918 17 9.97984 17C10.3162 17.2313 10.989 17 11.1012 17.5782Z" fill="#191919" fill-opacity="0.6"/>
<path d="M8.63403 24.0553C8.97043 24.0553 9.19469 24.2866 9.41896 24.171C9.86749 24.2866 9.75536 24.8649 10.2039 24.9805C10.5403 25.6744 10.7646 26.3683 10.8767 27.0621C10.7646 27.5247 11.1009 27.756 10.9888 28.103L11.1009 28.2186C11.1009 28.6812 11.1009 29.0281 10.8767 29.4907C10.8767 30.1846 10.6524 30.8785 10.316 31.4567C10.0918 31.5723 9.97962 32.0349 9.64323 31.9193C9.08256 32.1506 9.08256 32.9601 8.29763 32.8445C7.8491 33.1914 7.28844 32.9601 6.72778 32.9601C6.39138 32.8445 6.05498 32.8444 5.83072 32.6132C5.38218 32.4975 4.93365 32.1506 4.48512 31.688C4.26086 31.341 3.92446 31.1098 3.81233 30.6472C3.92446 30.0689 3.58806 29.6064 3.81233 29.1438L3.7002 28.2186L4.03659 26.7152C4.59726 26.3683 4.48512 25.6744 4.93365 25.5587C5.27005 24.7492 6.05498 24.5179 6.72778 24.171C6.95204 24.171 7.28844 24.2866 7.40057 24.0553C7.8491 23.9397 8.1855 24.2866 8.63403 24.0553Z" fill="#191919" fill-opacity="0.6"/>
<path d="M36.6674 0.346939C36.5552 2.89116 34.5369 4.5102 33.5277 6.70748C33.0791 7.97959 32.0699 8.67347 31.285 9.82993C30.6122 10.5238 29.9394 11.3333 29.3787 12.1429C29.4909 12.7211 30.0515 12.8367 30.3879 13.2993C31.1729 13.7619 31.285 14.6871 31.9578 15.2653C32.4063 15.2653 32.4063 15.8435 32.7427 15.8435C33.6398 16.8844 34.4247 17.9252 35.2096 18.966C35.3218 19.4286 35.546 19.7755 35.8824 20.0068C36.4431 20.932 37.0038 21.8571 37.5644 22.7823C37.6766 23.8231 38.4615 24.517 38.7979 25.4422C39.1343 25.9048 39.3586 26.5986 39.695 27.0612C40.2556 28.2177 40.592 29.4898 41.2648 30.6463C41.3769 30.8776 41.2648 31.2245 41.0405 31.3401C40.8163 31.5714 40.592 31.2245 40.3677 31.2245C38.91 30.6463 37.5644 29.9524 36.331 29.1429C34.9854 27.9864 33.5277 27.1769 32.1821 26.0204C31.6214 25.9048 31.5093 25.2109 30.9486 24.9796C29.603 24.1701 28.706 23.0136 27.3604 22.2041C26.7997 21.7415 26.239 21.2789 25.5662 20.8163C25.1177 20.8163 25.0056 20.2381 24.557 20.1224C23.5479 19.5442 22.7629 18.7347 21.7537 18.1565C21.6416 18.2721 21.7537 18.5034 21.6416 18.619C20.9688 19.3129 21.1931 20.2381 20.7445 21.0476C20.7445 22.0884 20.0717 22.898 19.7353 23.8231C18.9504 25.3265 18.1655 26.8299 17.3806 28.3333C16.2592 29.8367 15.6986 31.6871 14.0166 32.9592C13.6802 33.3061 13.2317 33.6531 12.8953 34C12.671 33.8844 12.4467 34 12.3346 33.7687C12.1103 33.4218 12.3346 32.8435 12.1103 32.4966C12.2225 31.9184 12.3346 31.3401 12.3346 30.8775L12.1103 30.5306C12.1103 29.7211 12.5589 29.1429 12.3346 28.3333C12.5589 27.8707 12.671 27.2925 12.671 26.7143C12.8953 26.0204 13.1195 25.3265 13.2317 24.6327C13.4559 24.0544 13.4559 23.5918 13.4559 23.1293C13.6802 22.6667 13.6802 22.0884 14.1287 21.7415C14.2408 21.3946 14.1287 21.1633 14.1287 20.8163C14.5772 19.3129 15.1379 17.9252 15.4743 16.4218C15.4743 16.3061 15.3622 16.3061 15.25 16.3061C14.2408 16.3061 13.3438 16.4218 12.3346 16.1905C10.7647 16.1905 9.19488 15.9592 7.73715 15.6122C7.17649 15.4966 6.39156 15.6122 5.8309 15.1497C5.4945 15.2653 5.04597 15.1497 4.70957 15.034C4.03677 14.6871 3.13971 14.6871 2.46692 14.3401C1.90625 14.4558 1.56986 14.1088 1.00919 13.9932C0.560663 13.9932 0.336398 13.6463 0 13.2993V13.1837C0.897061 12.0272 2.24265 11.6803 3.47611 11.2177C4.70957 10.7551 6.16729 10.8707 7.51289 10.6395C8.29781 10.5238 9.19488 10.7551 9.9798 10.6395C11.4375 10.6395 12.8953 10.8707 14.353 10.9864C14.8015 11.102 15.25 11.2177 15.8107 11.2177V10.9864L14.4651 9.02041C13.9044 7.7483 13.0074 6.70748 12.671 5.43537C12.3346 5.08844 12.671 4.5102 12.4467 4.04762C12.4467 3.81633 12.5589 3.70068 12.671 3.58503C13.0074 3.46939 13.3438 3.70068 13.568 3.46939C14.4651 3.70068 15.25 4.04762 16.1471 4.16327C17.0442 4.5102 17.9412 4.97279 18.8383 5.55102C19.8475 6.2449 21.0809 6.82313 21.8659 7.97959C22.0901 8.21088 22.4265 8.21088 22.6508 8.09524C22.8751 8.09524 22.9872 7.7483 23.2115 7.63265C24.3328 6.93878 25.4541 6.59184 26.5754 5.78231C27.024 5.31973 27.6968 5.31973 27.921 4.62585C28.2574 4.39456 28.5938 4.27891 28.9302 4.16327C29.4909 3.70068 30.0515 3.2381 30.7243 2.89116C30.8365 2.77551 31.1729 2.65986 31.3971 2.42857C32.5185 1.85034 33.6398 1.27211 34.649 0.578231C34.8732 0 35.546 0.115646 35.9946 0C36.331 0.115646 36.5552 -6.89305e-08 36.6674 0.346939Z" fill="#191919" fill-opacity="0.6"/>
<path d="M128.056 15.498C128.616 14.4572 129.626 13.879 130.747 13.9946C132.653 13.9946 132.765 15.7293 132.765 17.2327C132.429 17.2327 131.868 17.1171 131.42 17.1171C128.953 17.1171 126.149 18.2735 126.149 21.2803C126.149 23.362 127.944 24.6341 129.85 24.6341C131.083 24.6341 131.98 23.9402 132.877 23.2463C133.326 24.0559 134.223 24.6341 135.12 24.6341L137.138 22.8994L136.69 22.4368C136.466 22.5524 136.353 22.5525 136.129 22.5525C135.569 22.5525 135.344 22.2055 135.344 20.8178V19.7769C135.344 18.1579 135.456 16.6545 135.456 15.6137C135.456 12.7225 133.326 12.1443 130.859 12.1443C129.626 12.1443 128.504 12.2599 127.271 12.6069V15.498H128.056ZM132.877 22.4368C132.317 22.7837 131.644 22.8994 131.083 22.8994C129.85 22.8994 128.953 21.8586 128.953 20.5865C128.953 18.7361 130.298 18.0422 131.532 18.0422C131.98 18.0422 132.429 18.0422 132.877 18.1579V22.4368Z" fill="#191919" fill-opacity="0.6"/>
<path d="M66.7182 8.21083H65.4848C64.5877 5.43532 61.7844 4.3945 59.4296 4.3945C54.4958 4.3945 52.4774 8.44212 52.4774 13.4149C52.4774 21.6258 58.1961 23.0135 60.5509 23.0135C62.7936 23.1292 64.9241 21.9727 66.1576 20.0067L67.0546 20.3537L66.1576 23.5918C64.3634 24.0544 62.4572 24.2857 60.6631 24.2857C52.2531 24.2857 48.5527 18.9659 48.5527 13.6462C48.5527 7.6326 53.038 3.23804 59.4296 3.23804C63.13 3.23804 64.4756 3.93191 66.494 4.3945L66.7182 8.21083Z" fill="#191919" fill-opacity="0.6"/>
<path d="M75.3531 18.1583C74.9046 18.0426 74.4561 18.0426 74.0075 18.0426C72.6619 18.0426 71.4285 18.7365 71.4285 20.5869C71.4285 21.859 72.3255 22.8998 73.559 22.8998C74.2318 22.8998 74.9046 22.7841 75.4653 22.4372L75.3531 18.1583ZM69.9708 15.4984V12.8386C71.0921 12.4916 72.3255 12.376 73.559 12.376C76.0259 12.376 78.1564 13.0699 78.1564 15.961C78.1564 17.0018 78.0443 18.5052 78.0443 20.1243V21.1651C78.0443 22.5528 78.2686 22.7841 78.8292 22.7841C79.0535 22.7841 79.2778 22.7841 79.3899 22.6685L79.8384 23.1311L77.7079 24.8658C76.8109 24.7501 75.9138 24.2875 75.4653 23.478C74.5682 24.1719 73.6711 24.8658 72.4377 24.8658C70.5314 24.8658 68.7373 23.7093 68.7373 21.512C68.7373 18.5052 71.5406 17.3488 74.0075 17.3488C74.4561 17.3488 74.9046 17.4644 75.3531 17.4644C75.3531 15.961 75.241 14.2263 73.3347 14.2263C72.2134 14.1107 71.0921 14.6889 70.6436 15.7297H69.9708V15.4984Z" fill="#191919" fill-opacity="0.6"/>
<path d="M82.8662 7.40259C83.6511 7.40259 84.3239 7.98082 84.436 8.79034C84.436 9.59987 83.6511 10.2937 82.8662 10.2937C82.0812 10.2937 81.5206 9.59987 81.4084 8.79034C81.4084 8.09647 82.0812 7.40259 82.8662 7.40259ZM84.2118 12.2597C84.2118 13.4162 84.3239 15.9604 84.3239 18.2733V22.4366C84.3239 23.3618 84.7724 23.5931 85.4452 23.7087V24.2869C84.6603 24.2869 83.7632 24.1713 82.9783 24.1713C82.1934 24.1713 81.5206 24.2869 80.7356 24.2869V23.7087C81.4084 23.5931 81.7448 23.3618 81.7448 22.4366V18.9672C81.857 17.6951 81.6327 16.423 81.4084 15.1509C81.2963 14.6883 80.7356 14.2257 80.2871 14.2257V13.6475C81.5206 13.4162 82.754 12.838 83.8754 12.2597H84.2118Z" fill="#191919" fill-opacity="0.6"/>
<path d="M86.7907 23.7074C87.5756 23.4761 88.2484 23.0136 88.5848 22.3197L91.276 18.7346L88.1363 14.3401C87.7999 13.7619 87.2392 13.2993 86.5664 13.068V12.4897C87.3513 12.4897 88.2484 12.6054 89.0333 12.6054C89.8183 12.6054 90.7153 12.4897 91.5002 12.4897V13.1836C91.1638 13.2993 90.9396 13.4149 90.9396 13.8775C90.9396 14.2244 91.0517 14.5714 91.276 14.8027L92.8458 16.8843L94.1914 15.034C94.4157 14.8027 94.5278 14.4557 94.64 14.1088C94.64 13.5306 94.3036 13.4149 93.855 13.1836V12.6054C94.64 12.6054 95.3128 12.721 96.0977 12.721C96.8826 12.721 97.5554 12.6054 98.2282 12.6054V13.1836C97.3311 13.4149 96.4341 14.1088 95.9855 14.9183L93.6308 18.0408L96.6583 22.3197C97.1069 23.0136 97.6675 23.4761 98.4525 23.8231V24.4013C97.6675 24.4013 96.7705 24.2857 95.9855 24.2857C95.2006 24.2857 94.3036 24.4013 93.5186 24.4013V23.8231C93.855 23.8231 94.0793 23.4761 94.0793 23.1292C93.9672 22.7823 93.855 22.4353 93.6308 22.204L92.173 20.0068L90.7153 22.0884C90.4911 22.4353 90.3789 22.7823 90.3789 23.1292C90.3789 23.5918 90.6032 23.7074 90.9396 23.8231V24.4013C90.2668 24.4013 89.4819 24.2857 88.8091 24.2857C88.2484 24.2857 87.5756 24.4013 87.0149 24.4013L86.7907 23.7074Z" fill="#191919" fill-opacity="0.6"/>
<path d="M105.741 18.1583C105.292 18.0426 104.844 18.0426 104.395 18.0426C103.05 18.0426 101.816 18.7365 101.816 20.5869C101.816 21.859 102.713 22.8998 103.947 22.8998C104.62 22.8998 105.292 22.7841 105.853 22.4372L105.741 18.1583ZM100.359 15.4984V12.8386C101.48 12.4916 102.713 12.376 103.947 12.376C106.414 12.376 108.544 13.0699 108.544 15.961C108.544 17.0018 108.432 18.5052 108.432 20.1243V21.1651C108.432 22.5528 108.656 22.7841 109.217 22.7841C109.441 22.7841 109.554 22.7841 109.778 22.6685L110.226 23.1311L108.208 24.8658C107.311 24.7501 106.414 24.2875 105.965 23.478C105.068 24.1719 104.171 24.8658 102.938 24.8658C101.031 24.8658 99.2373 23.7093 99.2373 21.512C99.2373 18.5052 102.041 17.3488 104.508 17.3488C104.956 17.3488 105.405 17.4644 105.853 17.4644C105.853 15.961 105.741 14.2263 103.835 14.2263C102.713 14.1107 101.592 14.6889 101.144 15.7297L100.359 15.4984Z" fill="#191919" fill-opacity="0.6"/>
<path d="M115.608 14.8025C116.169 14.8025 116.618 14.8025 117.066 14.8025C119.757 14.8025 121.215 16.7684 121.215 19.3127C121.327 21.3943 119.757 23.129 117.739 23.2446C117.627 23.2446 117.515 23.2446 117.402 23.2446C115.72 23.2446 115.496 23.0133 115.496 21.3943L115.608 14.8025ZM112.693 21.8569C112.693 23.129 112.357 23.4759 111.123 23.7072V24.1698H115.833C116.169 24.1698 116.618 24.1698 116.954 24.1698C117.29 24.1698 117.739 24.2854 118.075 24.2854C121.103 24.2854 124.691 23.129 124.691 19.4283C124.691 16.4215 122.897 14.9181 120.318 14.2242V14.1086C122.336 13.4147 124.355 11.9113 124.355 9.48272C124.355 5.78204 120.654 4.39429 117.515 4.39429C116.842 4.39429 116.169 4.50993 114.936 4.50993C113.814 4.50993 112.693 4.39429 111.347 4.39429V5.08816C112.132 5.20381 112.581 5.4351 112.581 6.59157C112.581 9.13578 112.693 12.7208 112.693 16.1902V21.8569ZM115.72 6.01333C115.72 5.4351 116.057 5.4351 116.842 5.4351C119.869 5.4351 120.991 7.05415 120.991 9.59837C120.991 12.1426 119.309 13.646 116.842 13.646C116.505 13.646 116.057 13.646 115.608 13.646L115.72 6.01333Z" fill="#191919" fill-opacity="0.6"/>
<path d="M137.699 14.2263C138.259 14.1107 138.82 14.5733 138.932 15.2671C138.932 15.3828 138.932 15.4984 138.932 15.6141C138.932 16.5392 139.044 18.0426 139.044 19.6617V22.4372C139.044 23.3624 138.708 23.478 138.035 23.825V24.4032C138.82 24.4032 139.605 24.2875 140.39 24.2875C141.175 24.2875 141.96 24.2875 142.745 24.4032V23.825C141.96 23.7093 141.735 23.478 141.735 22.4372V20.1243C141.735 17.927 141.847 16.3079 141.847 15.2671C141.847 14.2263 143.642 13.8794 144.202 13.8794C146.109 13.8794 146.445 15.961 146.445 17.5801V22.4372C146.445 23.3624 146.221 23.5937 145.436 23.825V24.4032C146.333 24.4032 147.23 24.2875 148.015 24.2875C148.688 24.2875 149.36 24.2875 150.033 24.4032V23.825C149.248 23.5937 149.024 23.3624 149.024 22.4372V16.4236C149.024 13.995 147.903 12.376 145.211 12.376C143.978 12.4916 142.857 12.9542 141.847 13.7637C141.847 13.3011 141.847 12.8386 141.847 12.376H141.287C140.165 13.0699 138.932 13.6481 137.586 13.7637L137.699 14.2263Z" fill="#191919" fill-opacity="0.6"/>
<path d="M163.041 23.7068C162.256 23.3599 161.471 22.7816 160.91 22.0878L156.761 16.9993L158.892 14.6864C159.565 13.8769 160.462 13.2987 161.471 13.0674V12.4891C160.798 12.6048 160.125 12.6048 159.453 12.6048C158.78 12.6048 157.883 12.6048 157.21 12.4891V13.0674C157.434 13.183 157.658 13.5299 157.658 13.7612C157.546 14.3395 157.322 14.8021 156.986 15.149L154.743 17.4619V4.1626H154.182C153.061 4.97212 151.828 5.55035 150.482 5.89729V6.59117C151.155 6.59117 151.828 7.28505 151.828 8.44151C151.94 9.59797 152.052 11.6796 152.052 13.2987V22.5504C152.164 23.1286 151.715 23.7068 151.043 23.8225C151.043 23.8225 151.043 23.8225 150.93 23.8225V24.4007C151.715 24.285 152.388 24.285 153.173 24.285C153.958 24.285 154.855 24.4007 155.64 24.4007V23.8225C154.967 23.7068 154.743 23.3599 154.743 22.4347V18.5027L157.546 21.7408C157.995 22.2034 158.219 22.666 158.331 23.2442C158.331 23.4755 158.107 23.7068 157.883 23.7068V24.285C158.78 24.285 159.789 24.1694 160.686 24.1694C161.471 24.1694 162.256 24.285 163.041 24.285V23.7068Z" fill="#191919" fill-opacity="0.6"/>
<path d="M49.0024 29.376V29.7229V29.8386V30.1855H163.041V29.8386V29.7229V29.376H49.0024Z" fill="#191919" fill-opacity="0.6"/>
</svg>
