<svg width="116" height="20" viewBox="0 0 116 20" fill="none" xmlns="http://www.w3.org/2000/svg">
<path fill-rule="evenodd" clip-rule="evenodd" d="M15.2514 8.76131C15.2036 8.07366 15.009 7.386 14.6214 6.78835L11.3302 1.33031C11.0878 0.918075 10.8949 0.459037 10.7976 0L10.6525 0.228619C9.82966 1.55893 9.82966 3.25646 10.6525 4.58677L13.3156 8.94493C14.1384 10.2752 14.1384 11.9728 13.3156 13.3031L13.1705 13.5317C13.0732 13.0727 12.8785 12.6136 12.6379 12.2014L10.2172 8.21047L8.66707 5.64166C8.42463 5.22942 8.23179 4.77039 8.13445 4.31135L7.98935 4.54177C7.16654 5.87208 7.16654 7.52281 7.98935 8.89812L10.6525 13.2563C11.4753 14.5866 11.4753 16.2841 10.6525 17.6144L10.5074 17.843C10.41 17.3858 10.2172 16.9268 9.97475 16.5127L6.63392 11.0547C6.19864 10.3202 6.00395 9.49577 6.00395 8.6695C2.47027 9.54078 0 11.4219 0 13.5785C0 16.6045 4.74586 19.0365 10.6029 19.0365C16.4617 19.0365 21.2058 16.6045 21.2058 13.5785C21.2554 11.5137 18.8347 9.63258 15.2514 8.76131ZM25.2715 18.0745C25.3192 17.2951 25.4166 16.7892 25.659 16.1484C26.772 16.6524 28.2248 16.881 29.29 16.881C31.1285 16.881 32.1938 16.3302 32.1938 15.1835C32.1938 14.0836 31.4187 13.5796 29.5802 12.7983L28.5627 12.4329C26.6747 11.6516 25.4166 10.6435 25.4166 8.67056C25.4166 6.51398 27.0144 5.13867 30.2084 5.13867C31.516 5.13867 32.7264 5.32229 33.8394 5.68952C33.7916 6.42218 33.6465 7.01982 33.4537 7.56887C32.3884 7.20344 31.0808 7.01982 30.1606 7.01982C28.4176 7.01982 27.6426 7.66068 27.6426 8.67056C27.6426 9.63364 28.4176 10.2295 29.8227 10.7803L30.8861 11.1944C33.4041 12.2024 34.4693 13.3041 34.4693 15.1385C34.4693 17.2951 32.7264 18.809 29.3378 18.809C27.7399 18.809 26.3845 18.5786 25.2715 18.0745ZM45.171 9.03522V18.4842H43.1378L43.0405 17.3375C42.4601 18.1638 41.6354 18.7146 40.2323 18.7146C37.6187 18.7146 35.8262 16.8785 35.8262 13.7138C35.8262 10.4105 37.7142 8.48438 41.3948 8.48438C42.8458 8.53118 44.0561 8.66799 45.171 9.03522ZM42.9953 16.3312V10.4141C42.5582 10.3223 42.0256 10.3223 41.3975 10.3223C39.1219 10.3223 38.0566 11.6526 38.0566 13.7623C38.0566 15.6903 38.8795 17.0656 40.8153 17.0656C41.7354 17.0206 42.4131 16.7452 42.9953 16.3312ZM56.4041 12.1549V18.4842H54.2258V12.5203C54.2258 11.0082 53.6932 10.3187 51.515 10.3187C50.9823 10.3187 50.402 10.3655 49.772 10.4573V18.4842H47.5938V9.03522C48.9969 8.71299 50.5471 8.48438 51.5627 8.48438C55.2433 8.53118 56.4041 9.86149 56.4041 12.1549ZM62.5063 16.9727C63.1344 16.9727 63.7644 16.8809 64.1996 16.6973C64.1519 17.2482 64.0546 17.8908 63.959 18.4417C63.3768 18.6703 62.6991 18.7621 62.1187 18.7621C59.9882 18.7621 58.6328 17.844 58.6328 15.5506V5.59762C59.3105 5.3672 60.1333 5.27539 60.8111 5.27539V8.85408H64.297C64.2492 9.49673 64.1996 10.0926 64.1041 10.6434H60.8111V15.2752C60.8111 16.4687 61.441 16.9727 62.5063 16.9727ZM74.2668 9.03522V18.4842H72.2336L72.1381 17.3375C71.5559 18.1638 70.7331 18.7146 69.3299 18.7146C66.7145 18.7146 64.9238 16.8785 64.9238 13.7138C64.9238 10.4105 66.8119 8.48438 70.4907 8.48438C71.9434 8.53118 73.106 8.66799 74.2668 9.03522ZM72.0422 16.3312V10.4141C71.6069 10.3223 71.0743 10.3223 70.4444 10.3223C68.1688 10.3223 67.1035 11.6526 67.1035 13.7623C67.1035 15.6903 67.9263 17.0656 69.864 17.0656C70.7823 17.0206 71.5096 16.7452 72.0422 16.3312ZM85.5005 12.1549V18.4842H83.2727V12.5203C83.2727 11.0082 82.7401 10.3187 80.5618 10.3187C80.0292 10.3187 79.4488 10.3655 78.8189 10.4573V18.4842H76.6406V9.03522C78.0456 8.71299 79.5939 8.48438 80.6114 8.48438C84.2902 8.53118 85.5005 9.86149 85.5005 12.1549ZM96.5898 5.27539V18.4867H94.5548L94.4593 17.295C93.8771 18.1662 93.0543 18.7171 91.6015 18.7171C88.988 18.7171 87.1973 16.8809 87.1973 13.7163C87.1973 10.413 89.0853 8.48685 92.7641 8.48685C93.3445 8.48685 93.8771 8.53366 94.4097 8.62546V5.50581C95.0874 5.32219 95.8625 5.27539 96.5898 5.27539ZM94.4076 16.3312V10.5059C93.8272 10.4141 93.2468 10.3223 92.6646 10.3223C90.4864 10.3223 89.4707 11.6076 89.4707 13.7623C89.4707 15.6903 90.2935 17.0656 92.2293 17.0656C93.1017 17.0206 93.8272 16.7452 94.4076 16.3312ZM107.626 14.4483H100.607C100.897 16.1458 101.913 16.9253 103.898 16.9253C105.108 16.9253 106.319 16.6948 107.384 16.1908C107.287 16.7416 107.191 17.4761 107.044 18.072C106.028 18.4842 105.011 18.6678 103.801 18.6678C100.122 18.6678 98.3789 16.7416 98.3789 13.5302C98.3789 10.7328 99.7343 8.48438 103.22 8.48438C106.366 8.48438 107.724 10.4105 107.724 12.7957C107.722 13.4384 107.722 13.8974 107.626 14.4483ZM100.608 12.7055H105.544C105.544 11.1466 104.674 10.2285 103.173 10.2285C101.576 10.2753 100.753 11.1016 100.608 12.7055ZM115.325 8.62299C115.325 9.26384 115.228 9.9983 115.133 10.4105C114.6 10.3655 114.115 10.3187 113.485 10.3187C112.952 10.3187 112.42 10.3655 111.887 10.4105V18.4842H109.709V9.03522C110.629 8.71299 112.227 8.48438 113.437 8.48438C114.067 8.53118 114.841 8.53118 115.325 8.62299Z" fill="#191919" fill-opacity="0.6"/>
</svg>
