<svg width="85" height="31" viewBox="0 0 85 31" fill="none" xmlns="http://www.w3.org/2000/svg">
<path fill-rule="evenodd" clip-rule="evenodd" d="M49.2738 17.5609C49.082 18.7015 47.6319 21.2232 44.0311 21.2232C39.2202 21.2232 38.2005 16.2619 38.32 15.3895L50.9599 15.3849C50.7859 11.2898 47.848 8.02809 43.6358 8.02809C39.4237 8.02809 35.7827 11.4862 35.7827 15.7516C35.7827 20.017 39.2988 23.4752 43.6358 23.4752C47.3395 23.4752 50.2053 20.9537 50.9638 17.5609H49.2738ZM43.2292 9.60389C45.8544 9.60389 47.7523 11.1734 48.4266 13.7099L38.4632 13.6965C39.107 10.842 41.3935 9.60389 43.2292 9.60389ZM77.0416 8.01883C72.7031 8.01883 69.186 11.4777 69.186 15.7448V30.1565H71.7049V21.3784C72.9568 22.7349 74.9848 23.4705 77.0416 23.4705C81.3801 23.4705 84.8972 20.0114 84.8972 15.7448C84.8972 11.4782 81.3801 8.01883 77.0416 8.01883ZM77.6214 21.7095C74.316 21.692 71.7798 18.9244 71.7594 15.1768C71.7381 11.2421 74.6052 9.59365 76.5259 9.60389C79.8207 9.62143 82.4429 12.6795 82.4623 16.2682C82.4804 19.6064 80.1272 21.7229 77.6214 21.7095ZM65.3106 0.112305V10.1234C64.0203 8.734 62.0307 8.01883 59.9739 8.01883C55.6357 8.01883 52.1186 11.4777 52.1186 15.7448C52.1186 20.0119 55.6357 23.4705 59.9739 23.4705C64.3122 23.4705 67.8295 20.0114 67.8295 15.7448V0.112305H65.3106ZM60.4656 21.7105C57.1673 21.693 54.5736 18.7319 54.5533 15.0903C54.5322 11.5537 57.0514 9.59487 59.3698 9.60486C62.672 9.62241 65.237 12.4867 65.2563 16.1817C65.2744 19.9181 62.5734 21.7239 60.4656 21.7105Z" fill="#191919" fill-opacity="0.6"/>
<path d="M15.7704 0.11326C18.2789 0.0776843 21.1237 1.03773 23.6998 2.69955L24.6811 3.38961L23.1693 5.44812L22.4202 4.91229C20.239 3.47076 17.8457 2.5821 15.7704 2.51095C8.40844 2.51095 2.44011 8.32656 2.44011 15.5004C2.44011 22.6742 8.40819 28.4898 15.7704 28.4898V30.8875C7.06064 30.8875 0 23.9985 0 15.5004C0 7.00223 7.06064 0.11326 15.7704 0.11326Z" fill="#191919" fill-opacity="0.6"/>
<path d="M24.0906 3.01221C27.5299 5.63846 29.6915 10.5479 29.1265 14.745C28.0832 22.2044 21.9494 25.8309 15.7942 25.3943C9.45344 24.8962 6.34996 18.827 7.16572 15.2918C8.48825 9.35926 13.304 7.46913 16.6712 8.46914C19.8225 9.44089 22.015 12.0255 21.3963 15.0499C20.2832 19.2436 16.4863 19.856 14.3081 18.8345L15.3335 16.701C16.5384 17.201 18.4462 16.8213 19.0761 14.745C19.477 12.7567 17.7905 11.1451 15.8485 10.6648C12.7304 10.0359 10.0806 12.8627 9.58229 15.3337C8.93057 19.7346 12.0682 22.521 15.869 23.0405C21.8931 23.6608 27.4067 19.0955 26.754 12.3688C26.4567 10.2818 25.4989 6.72863 22.1771 4.72543L24.0906 3.01221Z" fill="#191919" fill-opacity="0.6"/>
<path d="M16.9195 9.68774C20.5996 9.70919 22.5775 13.4185 22.4445 16.122C22.2061 20.3353 18.6992 22.8721 14.1711 22.8945C12.3914 22.858 11.0542 22.4191 10.1597 22.0137L11.274 19.9228C12.0881 20.3251 12.7998 20.694 14.0224 20.6603C16.4521 20.6879 19.9033 19.3743 20.0859 16.0153C20.185 14.6498 19.1264 11.9768 16.808 11.9188C15.4463 11.9341 14.1183 12.7204 13.9481 14.4792C13.8368 15.9208 15.053 16.6583 16.0653 16.893L15.991 19.24C12.8463 18.9915 11.5741 16.3455 11.5959 14.5796C11.6341 11.9431 13.3065 9.74257 16.9195 9.68774Z" fill="#191919" fill-opacity="0.6"/>
<path d="M17.744 1.72055C24.9116 1.77465 31.248 7.00229 31.248 15.5004C31.248 23.9986 24.2545 30.8876 15.6275 30.8876L14.3419 30.8237V28.4431L15.6275 28.5072C22.9166 28.5072 28.8254 22.6838 28.8254 15.5004C28.7979 7.93822 23.1057 4.00664 17.744 4.00664C10.6199 4.00664 7.45965 9.36392 7.45965 12.8944C7.45965 16.4249 9.07458 18.5234 11.2979 19.9571L10.1793 21.9805C6.53312 19.8311 5.14493 16.6535 5.10603 12.8537C5.02351 7.5754 9.83311 1.6935 17.7442 1.72055H17.744Z" fill="#191919" fill-opacity="0.6"/>
</svg>
