<svg width="148" height="34" viewBox="0 0 148 34" fill="none" xmlns="http://www.w3.org/2000/svg">
<path d="M16.9975 0C7.61183 0 0.00196904 7.60789 0 16.9955V17.0042C0.000959908 20.8788 1.2989 24.4477 3.48151 27.3053L17.6118 8.73694L16.0908 8.73982L14.5823 8.73694C12.97 8.73694 11.4587 8.85135 10.3654 9.06382C9.70391 9.19362 9.11455 9.4311 8.63381 9.77145C8.07039 10.1666 7.36468 11.005 6.90319 11.8289C6.85031 11.9251 6.77147 12.0655 6.67341 12.2703L5.84752 12.0818L7.23392 6.74965H24.9331L10.868 25.5545C11.7824 25.4737 12.1487 25.4526 12.8909 25.4526C13.4611 25.4526 14.3273 25.4901 15.4849 25.5574L17.9836 25.7122C18.8826 25.7631 19.644 25.7901 20.2228 25.7901C21.5111 25.7901 22.3486 25.6891 23.182 25.4343C23.8262 25.2363 24.4377 24.9392 25.0011 24.5584C25.9885 23.8739 26.949 22.7807 27.5229 21.6827C27.5787 21.5721 27.67 21.4019 27.7739 21.1769L28.5267 21.3683C28.2815 22.3009 28.1527 22.6576 27.7796 23.4902C27.0239 25.1785 26.1701 26.3091 24.9981 27.1755C23.7925 28.0687 22.459 28.5061 20.8811 28.5321L20.6407 28.534C19.4726 28.534 18.5697 28.4369 15.772 28.0101C12.927 27.5716 11.4783 27.4217 10.0485 27.4217C9.09187 27.4217 8.20156 27.4947 7.27953 27.6466C6.05851 27.8389 5.57971 27.9822 4.47217 28.4879C7.57563 31.8722 12.0407 34 16.997 34C26.3837 34 33.9953 26.3882 33.9953 16.9998C33.9953 7.6104 26.3834 0.000546447 16.997 0.000546447" fill="#191919" fill-opacity="0.6"/>
<path d="M104.517 11.8034C104.521 10.6967 104.549 10.3929 104.69 9.94393C104.747 9.76511 104.828 9.59108 104.928 9.42859C105.097 9.14785 105.219 9.01324 105.549 8.7373H100.233C100.578 9.03534 100.691 9.15649 100.85 9.39206C100.956 9.56512 101.046 9.74395 101.105 9.93239C101.228 10.3324 101.269 10.7314 101.278 11.7149C101.278 12.2197 101.281 12.5523 101.281 12.7148V22.6292C101.281 23.2118 101.178 23.83 101.021 24.2329C100.954 24.4002 100.864 24.5646 100.756 24.7155C100.632 24.8972 100.543 24.9972 100.251 25.2991H105.507C105.248 25.0761 105.155 24.9722 104.997 24.7155C104.887 24.553 104.797 24.379 104.734 24.2098C104.592 23.8339 104.511 23.2791 104.511 22.7571V12.7752L104.517 11.8032" fill="#191919" fill-opacity="0.6"/>
<path d="M139.902 11.7967C139.902 11.0612 139.959 10.5006 140.085 10.042C140.144 9.83051 140.234 9.62477 140.348 9.43151C140.521 9.14885 140.649 9.01328 141.001 8.73735H135.598C135.91 8.99886 136.019 9.11713 136.204 9.41133C136.322 9.60169 136.413 9.79878 136.478 9.98821C136.605 10.3785 136.656 10.8631 136.656 11.7294V15.7521H129.235V12.7321C129.235 11.8159 129.241 11.2178 129.279 10.7669C129.301 10.4987 129.344 10.2573 129.413 10.0477C129.526 9.69201 129.828 9.19783 130.098 8.91614C130.134 8.87575 130.202 8.81326 130.28 8.7373H124.973C125.292 9.06419 125.377 9.16419 125.518 9.37572C125.634 9.54493 125.735 9.73337 125.806 9.93625C125.943 10.3554 125.969 10.5852 125.985 11.689L126.003 12.7369V21.8064C126.003 22.7245 125.985 23.1283 125.936 23.5504C125.906 23.7638 125.848 23.9831 125.771 24.208C125.634 24.5647 125.444 24.8445 125.132 25.1339C125.093 25.1724 125.034 25.2252 124.95 25.2993H130.195C129.966 25.0628 129.887 24.9628 129.75 24.7532C129.654 24.5955 129.56 24.4244 129.484 24.2388C129.317 23.8004 129.264 23.4889 129.241 22.7861C129.236 22.4332 129.235 22.1073 129.235 21.7977V17.7846H136.656V21.8265C136.656 22.7187 136.646 23.0447 136.58 23.509C136.554 23.76 136.496 24.0022 136.403 24.2253C136.283 24.5349 136.093 24.8176 135.808 25.0925C135.758 25.1358 135.689 25.2098 135.58 25.2992H140.871C140.653 25.0829 140.57 24.9897 140.428 24.7868C140.297 24.6041 140.196 24.4243 140.121 24.2436C139.959 23.8513 139.922 23.5629 139.903 22.7447C139.893 22.2582 139.89 21.9746 139.89 21.8871L139.903 12.7754V11.7966" fill="#191919" fill-opacity="0.6"/>
<path d="M91.2675 16.0319C90.6772 16.379 90.0705 16.5761 89.1831 16.703C88.8456 16.7549 88.5514 16.7819 88.3168 16.7819C88.2332 16.7819 88.1755 16.7799 88.0486 16.7694V10.6392C88.2601 10.6335 88.339 10.6335 88.4813 10.6335C89.2927 10.6335 90.0869 10.7287 90.708 10.9065C91.1252 11.0258 91.5146 11.2334 91.8348 11.5055C92.3934 11.9834 92.6876 12.6766 92.6876 13.5399C92.6876 14.2918 92.4693 14.9292 92.0396 15.4109C91.8386 15.6407 91.5761 15.8464 91.2675 16.032V16.0319ZM97.5918 24.1513C97.0092 23.5965 96.4881 23.0696 95.7161 22.2274C95.2238 21.6996 94.821 21.2448 94.5075 20.8804L91.9347 17.8518C92.252 17.7585 92.3827 17.7133 92.6683 17.5989C93.5047 17.2692 94.1393 16.9019 94.7114 16.4183C95.3671 15.8664 95.7699 15.2761 96.0141 14.529C96.1555 14.1098 96.218 13.682 96.218 13.2532C96.218 12.235 95.8411 11.3111 95.0998 10.5371C94.4181 9.82279 93.4721 9.2959 92.4076 9.04305C91.6654 8.87191 90.8953 8.79212 89.5781 8.75653C89.0811 8.74402 88.5657 8.7373 88.0417 8.7373H83.7682C84.0556 9.00458 84.1624 9.12284 84.321 9.36129C84.445 9.55166 84.5508 9.75646 84.6142 9.96508C84.7258 10.3381 84.7719 10.8515 84.7719 11.7293V22.5965C84.7719 23.3791 84.7219 23.8339 84.5883 24.2002C84.5133 24.3857 84.42 24.5607 84.3027 24.7232C84.1479 24.9193 84.0518 25.0193 83.7432 25.2991H89.0091C88.7697 25.0443 88.6976 24.9626 88.5515 24.7607C88.4351 24.602 88.339 24.4299 88.2707 24.255C88.1284 23.8886 88.0621 23.4925 88.0611 22.7243C88.0525 22.4763 88.0486 22.1965 88.0486 21.8956V18.1699L91.1176 21.8483C91.2609 22.0233 91.4926 22.2886 91.8012 22.6511C92.1617 23.053 92.429 23.3539 92.6156 23.5414C93.2069 24.151 93.7693 24.6 94.324 24.9009C94.8048 25.1557 95.2528 25.2633 95.9662 25.2883C96.2373 25.296 96.5267 25.2989 96.8296 25.2989H98.9073C98.6323 25.0797 98.515 24.9865 98.3025 24.8009C98.0775 24.6038 97.8381 24.3913 97.592 24.151" fill="#191919" fill-opacity="0.6"/>
<path d="M120.407 22.9067C119.411 23.3268 118.499 23.5201 117.516 23.5201C115.802 23.5201 114.337 22.9096 113.251 21.7385C112.176 20.5781 111.602 18.9696 111.602 17.1494C111.602 15.415 112.138 13.8035 113.096 12.6807C113.51 12.1904 114.016 11.7789 114.595 11.4539C115.533 10.9309 116.622 10.6578 117.801 10.6578C118.811 10.6578 119.789 10.8559 120.775 11.2558C121.388 11.5058 121.611 11.6298 122.137 12.0038V8.8898C121.731 8.75712 121.568 8.71193 121.133 8.6177C120.174 8.41676 119.257 8.32446 118.216 8.32446C116.436 8.32446 114.898 8.61098 113.498 9.20418C112.66 9.55607 111.897 10.0108 111.22 10.5541C109.179 12.1981 108.068 14.5778 108.068 17.3226C108.068 19.9858 109.139 22.2866 111.093 23.8325C112.706 25.1055 114.784 25.7468 117.279 25.7468C118.838 25.7468 120.294 25.5151 121.928 25.0055C121.99 24.9872 122.08 24.9574 122.198 24.9199V21.9115C121.799 22.1749 121.664 22.2605 121.426 22.4009C121.105 22.5845 120.769 22.7566 120.407 22.9066" fill="#191919" fill-opacity="0.6"/>
<path d="M76.3739 9.37974C76.4778 9.55665 76.5643 9.74606 76.6182 9.94316C76.7345 10.3431 76.7643 10.7469 76.7643 11.6767V17.9732C76.7643 19.3259 76.7258 20.1268 76.6239 20.7864C76.5605 21.2268 76.4114 21.6354 76.199 22.0007C75.7961 22.6747 75.0481 23.1929 74.1636 23.4189C73.804 23.5064 73.4117 23.5535 72.9868 23.5535C71.5667 23.5535 70.3465 23.0218 69.7534 22.1507C69.2976 21.4748 69.1717 20.8316 69.1505 19.129L69.14 17.7637V12.77C69.14 11.8028 69.1438 11.3422 69.1794 10.849C69.1948 10.5529 69.238 10.2962 69.3005 10.0885C69.4159 9.70778 69.6976 9.20014 69.963 8.88863C70.0005 8.85402 70.0399 8.80883 70.1033 8.74153H64.7202C65.0519 9.01651 65.1577 9.14342 65.3202 9.41165C65.425 9.59336 65.5076 9.7866 65.5548 9.98754C65.6201 10.2375 65.6595 10.4942 65.6682 10.7509C65.6692 10.9125 65.673 11.2567 65.674 11.7778L65.6816 12.7363V17.48C65.6816 19.2414 65.6884 19.6875 65.748 20.3942C65.8441 21.6046 66.2085 22.5709 66.9084 23.4477C68.1622 25.0244 70.1783 25.8503 72.7491 25.8503C73.9778 25.8503 75.1681 25.6638 76.0758 25.3263C77.0305 24.9716 77.9112 24.3812 78.542 23.6823C79.3073 22.8237 79.7477 21.768 79.8765 20.4643C79.9611 19.7067 79.9919 18.8039 79.9919 17.5068V12.7437L79.9784 11.7977V11.6111C79.9784 10.8997 80.0178 10.4843 80.1198 10.0998C80.1794 9.8642 80.2746 9.63826 80.4063 9.43057C80.5813 9.14888 80.7063 9.01811 81.0553 8.74121H75.775C76.0961 8.99502 76.2077 9.11425 76.374 9.37962" fill="#191919" fill-opacity="0.6"/>
<path d="M58.2144 22.9705C57.4789 23.1051 56.6463 23.1801 55.6138 23.2051C55.2657 23.2147 54.8302 23.2147 54.2889 23.2147H51.7515L61.7919 8.73633H48.7672L47.1683 12.2715C47.7029 11.9869 47.9164 11.8869 48.3778 11.7004C49.1201 11.4072 49.9354 11.1735 50.7199 11.038C51.4045 10.9207 52.0342 10.8668 53.0553 10.8361C53.5139 10.8216 53.9446 10.813 54.3417 10.813H56.2684L46.1357 25.2983H60.4583L62.112 21.5207C61.5371 21.8514 61.3332 21.9571 60.8948 22.1571C60.0584 22.5388 59.1556 22.8138 58.2142 22.9705" fill="#191919" fill-opacity="0.6"/>
<path d="M145.374 5.97194C144.497 5.97194 143.804 5.32393 143.804 4.37114C143.804 3.40872 144.497 2.76553 145.374 2.76553C146.267 2.76553 146.94 3.40874 146.94 4.37114C146.94 5.32393 146.267 5.97194 145.374 5.97194ZM145.374 2.49634C144.338 2.49634 143.5 3.25973 143.5 4.37116C143.5 5.48837 144.338 6.24118 145.374 6.24118C146.406 6.24118 147.244 5.48837 147.244 4.37116C147.244 3.25973 146.406 2.49634 145.374 2.49634Z" fill="#191919" fill-opacity="0.6"/>
<path d="M145.408 4.24567H144.96V3.61305H145.384C145.678 3.61305 145.887 3.67266 145.887 3.92743C145.887 4.14183 145.743 4.24567 145.408 4.24567H145.408ZM146.202 3.92167C146.202 3.40827 145.848 3.31885 145.269 3.31885H144.671V5.30327H144.96V4.53028H145.479C145.499 4.53028 145.519 4.53028 145.533 4.52547L145.948 5.30329H146.281L145.828 4.46106C146.082 4.35626 146.202 4.14667 146.202 3.92169" fill="#191919" fill-opacity="0.6"/>
</svg>
