<?xml version="1.0" encoding="UTF-8" standalone="no"?>
<!-- Created with Inkscape (http://www.inkscape.org/) -->

<svg
   xmlns:dc="http://purl.org/dc/elements/1.1/"
   xmlns:cc="http://creativecommons.org/ns#"
   xmlns:rdf="http://www.w3.org/1999/02/22-rdf-syntax-ns#"
   xmlns:svg="http://www.w3.org/2000/svg"
   xmlns="http://www.w3.org/2000/svg"
   xmlns:sodipodi="http://sodipodi.sourceforge.net/DTD/sodipodi-0.dtd"
   xmlns:inkscape="http://www.inkscape.org/namespaces/inkscape"
   width="644.53186mm"
   height="146.11407mm"
   viewBox="0 0 644.53186 146.11407"
   version="1.1"
   id="svg8"
   inkscape:version="0.92.2 5c3e80d, 2017-08-06"
   sodipodi:docname="loewe.svg">
  <defs
     id="defs2" />
  <sodipodi:namedview
     id="base"
     pagecolor="#ffffff"
     bordercolor="#666666"
     borderopacity="1.0"
     inkscape:pageopacity="0.0"
     inkscape:pageshadow="2"
     inkscape:zoom="0.12374369"
     inkscape:cx="1068.5129"
     inkscape:cy="317.51044"
     inkscape:document-units="mm"
     inkscape:current-layer="layer1"
     showgrid="false"
     fit-margin-top="0"
     fit-margin-left="0"
     fit-margin-right="0"
     fit-margin-bottom="0"
     inkscape:window-width="1440"
     inkscape:window-height="757"
     inkscape:window-x="0"
     inkscape:window-y="1"
     inkscape:window-maximized="1" />
  <metadata
     id="metadata5">
    <rdf:RDF>
      <cc:Work
         rdf:about="">
        <dc:format>image/svg+xml</dc:format>
        <dc:type
           rdf:resource="http://purl.org/dc/dcmitype/StillImage" />
        <dc:title></dc:title>
      </cc:Work>
    </rdf:RDF>
  </metadata>
  <g
     inkscape:label="Layer 1"
     inkscape:groupmode="layer"
     id="layer1"
     transform="translate(279.6111,106.93309)">
    <path
       style="fill:#000000;stroke-width:0.35277778"
       d="m -124.20707,39.031877 c -5.03046,-0.5303 -11.89751,-1.90268 -16.22778,-3.24312 -6.35588,-1.96748 -15.7068,-7.16954 -21.74559,-12.09741 -15.79591,-12.89003 -24.96517,-30.5146302 -26.44811,-50.83694 -0.79697,-10.92188 1.46305,-22.85882 6.3951,-33.77739 9.69326,-21.458974 28.93379,-38.445379 49.57571,-43.767677 6.61301,-1.70509 11.22612,-2.25875 18.68122,-2.24207 7.38232,0.0165 11.02879,0.48217 17.751393,2.26689 25.629773,6.804181 45.251114,28.467915 50.465243,55.718197 1.575135,8.23203 1.635446,15.59226 0.202346,24.69444 -3.372929,21.4228698 -15.156599,39.82807 -33.039122,51.60464 -6.285841,4.13954 -15.326467,8.40417 -19.681247,9.28398 -0.48507,0.098 -1.755073,0.39878 -2.822223,0.66839 -5.11734,1.29289 -18.05607,2.26052 -23.10694,1.72807 z m 26.811113,-13.91262 c 2.48792,-0.28478 3.47972,-0.57044 4.58311,-1.32003 1.93111,-1.31189 8.510123,-7.89771 10.470763,-10.48159 9.569463,-12.61137017 14.416891,-27.19844 14.396183,-43.32154 -0.01849,-14.40021 -4.075977,-27.87008 -11.546071,-38.330249 -8.810533,-12.33714 -21.042328,-20.074399 -36.067298,-22.814481 -4.78878,-0.873322 -13.82184,-1.034154 -19.24899,-0.342723 -2.53218,0.322604 -5.01846,0.700352 -5.52508,0.839438 -1.3083,0.359188 -6.26587,4.689468 -9.17491,8.013996 -10.19028,11.64572 -15.20051,26.339719 -15.21634,44.626389 -0.007,7.59997 0.48684,11.68453 2.27446,18.82851 4.79723,19.17143983 17.42071,33.90595 34.89167,40.72663 3.88619,1.51717 10.3693,2.95382 16.75694,3.71331 2.39046,0.28423 10.44215,0.20154 13.405563,-0.13766 z m 213.606937,12.36365 -2.99862,-0.17638 -0.5861,-1.94028 c -0.48906,-1.619 -4.01136,-14.29942 -11.0732,-39.8638902 -0.66996,-2.42535 -3.934563,-14.1728498 -7.25466,-26.1055598 -3.320098,-11.9327 -6.582234,-23.75958 -7.24916,-26.28194 -0.666927,-2.52236 -1.928777,-7.12611 -2.804125,-10.23056 -2.732158,-9.68973 -4.624176,-16.427531 -5.795115,-20.637497 -0.620607,-2.231319 -1.441486,-4.67428 -1.824179,-5.428805 -0.548675,-1.081832 -4.53965,-5.765077 -7.946496,-9.324865 -0.245357,-0.25639 -0.446122,-1.01171 -0.446122,-1.67849 v -1.21232 l 20.902082,0.091 20.902075,0.091 0.11353,0.98977 c 0.0956,0.83323 -0.43452,1.57576 -3.35139,4.694624 -4.50814,4.820306 -4.78426,5.24879 -4.52099,7.015603 0.18059,1.212025 2.68909,10.703543 7.41218,28.04584 7.95701,29.21654 12.37551,45.53817 14.94621,55.2097198 2.36636,8.90302003 2.71596,9.99581003 2.99081,9.34861003 0.2364,-0.55671 1.24672,-3.53004003 8.87053,-26.10555983 23.09929,-68.40113 26.66209,-78.822677 27.0233,-79.045917 1.27279,-0.78662 14.43355,-0.64283 15.10013,0.16498 0.25139,0.30466 4.16902,13.98977 8.34167,29.139272 0.24049,0.873125 2.02576,7.14375 3.96727,13.934725 1.94151,6.79097 4.27726,15.04597 5.19056,18.34444 0.91331,3.29848 4.02403,14.3188 6.91268,24.4896 2.88869,10.1708098 5.25212,18.70361983 5.25212,18.96180983 0,0.90117 0.65363,0.46034 1.00397,-0.6771 0.72768,-2.36274003 3.27985,-10.32872983 6.92274,-21.60763983 2.06802,-6.40292 4.21495,-13.07042 4.77096,-14.81667 0.55605,-1.74625 2.11791,-6.58812 3.47084,-10.75972 1.35294,-4.17159 4.31437,-13.37909 6.58097,-20.461112 2.26663,-7.082014 4.90149,-15.280679 5.85526,-18.219257 0.95377,-2.938576 1.73415,-5.787546 1.73415,-6.331039 0,-1.427515 -1.27317,-3.063529 -5.27893,-6.783295 -3.15849,-2.932994 -3.54051,-3.418344 -3.54051,-4.497914 v -1.21016 h 16.89509 16.89509 l 0.22317,0.88918 c 0.24119,0.96094 -0.20698,2.08707 -1.00923,2.53604 -1.41778,0.79343 -9.50736,9.221827 -10.22964,10.658077 -0.44676,0.888421 -2.42968,6.536563 -4.40651,12.551424 -1.97679,6.014861 -6.34806,19.270486 -9.71391,29.456946 -3.36585,10.18646 -10.12582,30.66521 -15.02216,45.5083298 C 218.54101,11.051037 213.476,26.370407 212.18177,30.250967 l -2.35317,7.05556 -7.10502,0.0954 c -6.49689,0.0873 -7.13295,0.042 -7.43133,-0.52916 -0.36703,-0.70255 -3.97739,-12.92694 -10.81183,-36.60795017 -1.28792,-4.46264003 -3.2724,-11.28888983 -4.40997,-15.16944983 -3.59297,-12.25678 -4.46863,-15.26764 -7.54136,-25.92916 -3.88775,-13.48947 -4.60213,-15.95061 -5.68124,-19.57284 -0.49237,-1.65272 -1.30217,-4.37068 -1.79959,-6.03992 -0.49742,-1.669233 -0.97871,-2.960636 -1.06955,-2.869782 -0.16842,0.168402 -9.31644,27.167362 -19.75108,58.292262 -3.18734,9.5073598 -8.14888,24.27111 -11.02564,32.80833 l -5.23043,15.52223 -2.26434,0.0868 c -1.24537,0.0478 -3.2168,0.12713 -4.38097,0.17639 -1.16416,0.0493 -3.46604,0.0102 -5.11527,-0.0868 z m -395.58009,-0.58658 c -0.45808,-0.45807 -0.22947,-2.16536 0.38079,-2.84383 0.33955,-0.37749 1.99825,-1.91529 3.686,-3.41733 2.10142,-1.87019 3.35234,-3.3003 3.96875,-4.53727 l 0.90011,-1.8063 v -57.48077 c 0,-42.898629 -0.1048,-57.830594 -0.41313,-58.859692 -0.24861,-0.829793 -2.00468,-3.357531 -4.40972,-6.347481 -2.93293,-3.646234 -3.99659,-5.228284 -3.99659,-5.944414 0,-0.56441 0.23527,-1.06612 0.55802,-1.18997 0.72898,-0.27974 39.0772,-0.27974 39.80618,0 0.31542,0.12103 0.55802,0.6223 0.55802,1.15299 0,0.84513 -0.54909,1.66251 -3.46698,5.161069 -2.51583,3.016465 -4.29988,5.499375 -4.78246,6.655858 -0.51702,1.239019 -0.57,6.789427 -0.57,59.70764 v 58.34164 l 10.31875,-3.5e-4 c 11.56702,-3.6e-4 15.91738,-0.38088 26.3843,-2.30702 7.46496,-1.37372 12.33592,-2.73434 17.01385,-4.75252 2.96121,-1.27755 5.8987,-1.84572 5.90485,-1.14212 0.002,0.211 -3.35601,14.03004 -4.52176,18.60903 l -0.26944,1.05833 -43.40649,0.0896 c -23.87356,0.0493 -43.51294,-0.0169 -43.64305,-0.14699 z m 247.483983,-0.18953 c -1.008274,-1.00827 -0.431133,-1.97606 3.147465,-5.27787 2.029661,-1.87269 4.007573,-4.05591 4.582799,-5.05852 l 1.012003,-1.76388 -0.01147,-58.20834 c -0.01072,-54.385102 -0.05138,-58.283102 -0.618909,-59.346734 -0.334088,-0.626124 -2.322742,-3.281158 -4.41923,-5.900078 -3.099428,-3.871775 -3.790777,-4.944655 -3.699309,-5.740765 l 0.11248,-0.97909 h 42.744911 c 23.5097,0 42.833066,0.0882 42.940815,0.19591 0.255471,0.25547 3.390664,13.979141 3.390664,14.84194 0,1.110495 -2.386461,0.824336 -12.141739,-1.455903 L 36.099865,-94.1032 H 18.29987 0.49987168 v 26.634727 26.63472 H 12.455235 24.410598 l 4.007831,-1.79026 c 2.335847,-1.04341 4.596514,-1.81606 5.418942,-1.85209 l 1.411111,-0.0618 0.09283,12.08264 0.09283,12.08264 h -1.296405 c -0.968728,0 -2.261605,-0.57959 -5.115094,-2.29306 l -3.818696,-2.29305 H 12.763711 0.32348278 V 0.26487683 25.488487 l 9.70138822,-0.002 c 13.159726,-0.0023 24.995381,-1.07805 37.041666,-3.36687 0.485069,-0.0922 1.437569,-0.25568 2.116666,-0.36336 0.679098,-0.10767 2.846906,-0.74073 4.81735,-1.40678 3.730526,-1.261 5.772157,-1.53405 5.757552,-0.77003 -0.01693,0.89222 -3.958703,15.33884 -4.572032,16.75694 l -0.343298,0.79375 H 11.69049 c -33.092515,0 -43.250973,-0.0987 -43.575617,-0.42334 z m 304.965157,0.18869 c -0.12965,-0.12965 -0.23573,-0.74103 -0.23573,-1.35862 0,-0.97785 0.4336,-1.50176 3.35651,-4.05565 1.84608,-1.61301 3.83275,-3.70676 4.41487,-4.65279 l 1.05837,-1.72006 -0.004,-58.56075 c -0.004,-53.802867 -0.0504,-58.652821 -0.58699,-59.693977 -0.3212,-0.623274 -2.22719,-3.175226 -4.23552,-5.671002 -2.66964,-3.317618 -3.65149,-4.801478 -3.65149,-5.518508 0,-0.54798 0.23438,-1.07068 0.53117,-1.18457 0.78793,-0.30235 84.60155,-0.25756 85.0391,0.0454 0.29809,0.20642 3.68987,14.330102 3.68402,15.340549 -0.005,0.842963 -3.90627,0.167919 -16.69274,-2.88829 l -4.51982,-1.08046 h -17.97142 -17.97145 l 0.0905,26.546528 0.0904,26.54653 11.86412,0.0928 11.86413,0.0928 4.18726,-1.79602 c 2.3633,-1.01367 4.80194,-1.82246 5.59837,-1.85673 l 1.41112,-0.0607 0.0928,12.08264 0.0928,12.08264 h -1.39262 c -1.0873,0 -2.22899,-0.50255 -5.2081,-2.29252 l -3.8155,-2.29252 -12.43542,-7.1e-4 -12.43541,-3.6e-4 V 0.30504683 25.568917 l 12.08264,-0.18172 c 15.0689,-0.22664 23.96564,-1.14933 38.18819,-3.96055 0.58208,-0.11505 2.42655,-0.67698 4.09882,-1.24872 2.90728,-0.99399 5.2476,-1.33932 5.25173,-0.77495 0.006,0.84595 -4.77421,17.24258 -5.08903,17.45515 -0.47748,0.3224 -86.43013,0.35935 -86.75218,0.0373 z"
       id="path882"
       inkscape:connector-curvature="0" />
  </g>
</svg>
