<svg width="141" height="61" viewBox="0 0 141 61" fill="none" xmlns="http://www.w3.org/2000/svg">
<path fill-rule="evenodd" clip-rule="evenodd" d="M70.7853 8C64.2065 8 58.877 13.3225 58.877 19.8927C58.877 22.6067 59.7889 25.1004 61.3155 27.1058L71.2085 14.1094L70.1506 14.1185H69.0854C67.9619 14.1185 66.8967 14.195 66.138 14.3389C65.6765 14.4354 65.2625 14.5993 64.9269 14.838C64.5238 15.1167 64.0332 15.7014 63.7067 16.277C63.6684 16.3444 63.621 16.45 63.5535 16.5848L62.968 16.4591L63.9383 12.7195H76.3355L66.4918 25.8781C67.1266 25.8199 67.3856 25.8108 67.9035 25.8108C68.3085 25.8108 68.9122 25.829 69.7202 25.8781L71.4675 25.9838C72.1004 26.022 72.6384 26.0403 73.0415 26.0403C73.9444 26.0403 74.5317 25.9729 75.1172 25.7907C75.5677 25.6577 75.9999 25.4465 76.3848 25.1769C77.0761 24.6978 77.7473 23.931 78.1522 23.1641C78.1905 23.0858 78.2561 22.971 78.3346 22.818L78.8526 22.9528C78.6884 23.594 78.5936 23.8435 78.3346 24.43C77.8056 25.6086 77.211 26.4046 76.3848 27.0093C75.5385 27.6323 74.6083 27.9401 73.503 27.9583H73.3297C72.5144 27.9583 71.8797 27.8909 69.9208 27.594C67.9327 27.288 66.915 27.1824 65.9155 27.1824C65.2443 27.1824 64.6205 27.2297 63.9766 27.3354C63.1212 27.4793 62.7856 27.5758 62.0068 27.9292C64.1882 30.299 67.3089 31.7853 70.7853 31.7853C77.3551 31.7853 82.6846 26.4629 82.6846 19.8927C82.6846 13.3225 77.3551 8 70.7853 8Z" fill="#191919" fill-opacity="0.6"/>
<path fill-rule="evenodd" clip-rule="evenodd" d="M47.7229 39.5H38.8029L37.7044 42.1076C38.07 41.8963 38.2108 41.8253 38.5301 41.6832C39.0383 41.472 39.6 41.2992 40.1368 41.1993C40.6058 41.1072 41.0374 41.0668 41.7328 41.0476C42.052 41.0361 42.3427 41.0361 42.6156 41.0361H43.9388L37 51.7141H46.8116L47.9387 48.9222C47.5445 49.166 47.4037 49.2467 47.1023 49.3984C46.5299 49.671 45.9111 49.8727 45.2726 49.9936C44.7644 50.0954 44.192 50.1453 43.4876 50.1664C43.254 50.176 42.9526 50.176 42.5781 50.176H40.8394L47.7229 39.5Z" fill="#191919" fill-opacity="0.6"/>
<path fill-rule="evenodd" clip-rule="evenodd" d="M78.7934 51.7141C78.6044 51.5413 78.5439 51.4721 78.4249 51.2801C78.3455 51.1572 78.285 51.0363 78.2359 50.9057C78.1263 50.633 78.0677 50.2183 78.0677 49.8343V42.4839L78.0772 41.7658C78.0772 40.9459 78.096 40.7251 78.2057 40.391C78.2453 40.2585 78.2964 40.1279 78.3757 40.0069C78.4948 39.7938 78.5836 39.7035 78.8236 39.5H74.9629C75.2218 39.7227 75.3012 39.8034 75.4108 39.9858C75.4901 40.1068 75.56 40.2393 75.5997 40.3813C75.6885 40.6732 75.7188 40.967 75.7188 41.6947C75.7282 42.0692 75.7282 42.3111 75.7282 42.4321V49.7421C75.7282 50.1664 75.6489 50.633 75.5393 50.9249C75.4901 51.0459 75.4202 51.1688 75.3503 51.2801C75.252 51.4107 75.1915 51.4913 74.9818 51.7141H78.7934Z" fill="#191919" fill-opacity="0.6"/>
<path fill-rule="evenodd" clip-rule="evenodd" d="M91.0128 39.8945C90.7316 39.7977 90.6284 39.7703 90.3187 39.7027C89.6726 39.5584 89.0444 39.5 88.3325 39.5C87.1151 39.5 86.065 39.6918 85.1093 40.1155C84.5362 40.3566 84.0129 40.6836 83.5538 41.058C82.1566 42.2124 81.3984 43.8855 81.3984 45.8089C81.3984 47.6756 82.1281 49.2903 83.4594 50.3771C84.5647 51.2629 85.9903 51.7141 87.6953 51.7141C88.7632 51.7141 89.7474 51.5515 90.8722 51.1953C90.9096 51.1862 90.9754 51.1661 91.0502 51.1369V49.0218C90.7779 49.2135 90.6942 49.272 90.5252 49.367C90.3098 49.5021 90.0767 49.6172 89.831 49.7232C89.1476 50.0209 88.53 50.156 87.8555 50.156C86.6826 50.156 85.6806 49.7232 84.9402 48.9067C84.2087 48.0884 83.8065 46.9632 83.8065 45.6847C83.8065 44.4718 84.1802 43.3376 84.8281 42.5485C85.1182 42.2124 85.4652 41.9147 85.8586 41.6937C86.4957 41.3284 87.245 41.1348 88.0513 41.1348C88.7347 41.1348 89.411 41.2699 90.0856 41.5494C90.4967 41.732 90.648 41.8179 91.0128 42.0772V39.8945Z" fill="#191919" fill-opacity="0.6"/>
<path fill-rule="evenodd" clip-rule="evenodd" d="M100.314 46.1736V49.1464C100.314 49.8148 100.305 50.0567 100.268 50.3909C100.248 50.5829 100.202 50.7539 100.145 50.9152C100.062 51.1495 99.9306 51.3607 99.7443 51.5528C99.707 51.5931 99.6503 51.6449 99.5846 51.7141H103.191C103.04 51.5528 102.985 51.4817 102.883 51.33C102.799 51.1994 102.725 51.0669 102.677 50.9363C102.565 50.6425 102.537 50.4312 102.528 49.834C102.519 49.471 102.519 49.2578 102.519 49.1964L102.528 42.4825V41.7546C102.528 41.2188 102.565 40.804 102.659 40.4602C102.696 40.2989 102.751 40.1472 102.836 40.0147C102.948 39.8034 103.032 39.7016 103.275 39.5H99.5953C99.8099 39.692 99.8844 39.7727 100.005 39.9955C100.09 40.1376 100.154 40.2778 100.193 40.4199C100.285 40.7022 100.314 41.0671 100.314 41.7047V44.6775H95.2595V42.4421C95.2595 41.7757 95.2702 41.3302 95.2879 40.996C95.2986 40.7944 95.3358 40.6215 95.3819 40.4698C95.4565 40.1971 95.6622 39.8438 95.8485 39.6306C95.8769 39.5999 95.9142 39.5595 95.9709 39.5H92.3555C92.5701 39.742 92.6269 39.813 92.728 39.9647C92.8043 40.0973 92.8681 40.2279 92.9249 40.3796C93.0189 40.6926 93.0367 40.8654 93.0473 41.674L93.0562 42.4517V49.1368C93.0562 49.8148 93.0473 50.1163 93.0083 50.4197C92.9906 50.5829 92.9533 50.7443 92.8965 50.9056C92.8043 51.1687 92.673 51.3818 92.4672 51.5931C92.4388 51.6238 92.3927 51.6545 92.3359 51.7141H95.9142C95.7563 51.5336 95.6995 51.4625 95.6161 51.3108C95.5398 51.1994 95.4848 51.0669 95.4281 50.9267C95.3163 50.6117 95.279 50.3794 95.2702 49.8647C95.2595 49.6016 95.2595 49.3596 95.2595 49.1253V46.1736H100.314Z" fill="#191919" fill-opacity="0.6"/>
<path fill-rule="evenodd" clip-rule="evenodd" d="M66.2965 49.2064C66.2965 49.4291 66.3054 49.6307 66.3054 49.8131C66.316 50.3796 66.3531 50.6714 66.4556 50.946C66.5016 51.0766 66.567 51.1976 66.6413 51.3185C66.7438 51.4606 66.7898 51.5221 66.9578 51.7141H63.3828C63.5879 51.5009 63.6533 51.4299 63.7559 51.2897C63.839 51.1668 63.9044 51.0363 63.9503 50.8942C64.0441 50.6311 64.0812 50.2989 64.0812 49.7229V41.7043C64.0812 41.0572 64.0441 40.6732 63.9698 40.4006C63.9221 40.2489 63.8566 40.0972 63.7735 39.9551C63.6622 39.7842 63.5879 39.692 63.3917 39.5H66.2965C66.6501 39.5 67.0037 39.5 67.3397 39.5096C68.2325 39.5403 68.7541 39.6018 69.2562 39.7227C69.9828 39.9052 70.6246 40.2988 71.0914 40.8249C71.5935 41.4009 71.8534 42.0788 71.8534 42.8276C71.8534 43.1406 71.8074 43.4632 71.7137 43.7666C71.5475 44.3234 71.2682 44.7574 70.8297 45.1625C70.4302 45.5158 70.0023 45.7885 69.4436 46.0324C69.2385 46.1226 69.1536 46.1533 68.9397 46.2244L70.6901 48.4479C70.8951 48.7206 71.1745 49.0547 71.5104 49.4483C72.0302 50.0666 72.3856 50.4602 72.7852 50.8654C72.9531 51.0363 73.1105 51.1976 73.2696 51.3397C73.4093 51.4817 73.4835 51.5528 73.678 51.7141H72.2636C72.0585 51.7141 71.864 51.7141 71.6766 51.7045C71.1939 51.6834 70.8863 51.6027 70.561 51.4203C70.1879 51.1976 69.806 50.8635 69.3959 50.4199C69.2756 50.2778 69.09 50.0551 68.8566 49.7517C68.6427 49.4886 68.4836 49.2966 68.381 49.166L66.2965 46.4567V49.2064ZM66.4825 45.4377C66.6416 45.4377 66.8361 45.4166 67.0695 45.3762C67.6742 45.286 68.0843 45.1343 68.4839 44.8808C68.6979 44.7503 68.8764 44.589 69.0143 44.4162C69.3043 44.0724 69.4528 43.5982 69.4528 43.0413C69.4528 42.4038 69.2565 41.8988 68.8658 41.5455C68.6519 41.3439 68.392 41.1922 68.1126 41.1001C67.6848 40.9695 67.1438 40.8984 66.5939 40.8984C66.502 40.8984 66.4454 40.8984 66.2969 40.908V45.4281C66.3906 45.4281 66.4277 45.4377 66.4825 45.4377Z" fill="#191919" fill-opacity="0.6"/>
<path fill-rule="evenodd" clip-rule="evenodd" d="M60.8058 39.5H57.2701C57.4899 39.6766 57.5631 39.7639 57.673 39.9591C57.748 40.0781 57.8021 40.2138 57.8387 40.3606C57.912 40.645 57.9312 40.9294 57.9312 41.5949V46.0875C57.9312 47.056 57.912 47.6229 57.8387 48.0932C57.7934 48.4073 57.7009 48.6991 57.5544 48.9649C57.2875 49.4445 56.7834 49.8163 56.1869 49.9724C55.9479 50.0412 55.6897 50.0709 55.4054 50.0709C54.4495 50.0709 53.6332 49.688 53.2372 49.0727C52.9355 48.582 52.843 48.1229 52.8343 46.9091L52.8151 45.9407V42.3774C52.8151 41.6822 52.8238 41.3495 52.8517 40.9982C52.8604 40.7919 52.8884 40.606 52.9355 40.4591C53.0087 40.1859 53.2006 39.8234 53.3855 39.5985C53.4029 39.5781 53.4308 39.5483 53.4675 39.5H49.8672C50.087 39.6952 50.1602 39.7844 50.2719 39.9796C50.3347 40.106 50.3905 40.2435 50.4271 40.3904C50.4637 40.5669 50.4917 40.7528 50.5004 40.9294V41.6636L50.5091 42.3477V45.7344C50.5091 46.9872 50.5091 47.3106 50.5562 47.8199C50.6207 48.6805 50.8684 49.3757 51.3272 49.9928C52.1732 51.1174 53.5233 51.7141 55.2397 51.7141C56.0665 51.7141 56.8654 51.5765 57.4724 51.333C58.1144 51.0877 58.7022 50.6676 59.1243 50.1583C59.6389 49.5523 59.9337 48.7976 60.0244 47.8683C60.0715 47.3292 60.0994 46.6842 60.0994 45.7548V42.3588L60.0889 41.6822V41.5447C60.0889 41.0372 60.1168 40.7435 60.1814 40.4684C60.218 40.303 60.2825 40.1357 60.375 39.9889C60.4936 39.7844 60.5756 39.6952 60.8058 39.5Z" fill="#191919" fill-opacity="0.6"/>
</svg>
