<svg width="126" height="34" viewBox="0 0 126 34" fill="none" xmlns="http://www.w3.org/2000/svg">
<path d="M14.9491 25.5002C14.9491 26.6723 15.9054 27.6259 17.0842 27.6259C18.2631 27.6259 19.2202 26.6723 19.2202 25.5002C19.2202 24.3265 18.2631 23.3745 17.0842 23.3745C15.9054 23.3745 14.9491 24.3265 14.9491 25.5002ZM29.7814 19.1247C29.1936 23.3651 26.4375 26.9176 22.6635 28.6366C21.0941 29.3512 19.3496 29.75 17.5119 29.75H17.0842C14.725 29.75 12.8132 27.8476 12.8132 25.5002C12.8132 23.1528 14.725 21.2504 17.0842 21.2504C19.4427 21.2504 21.3553 23.1528 21.3553 25.5002C21.3553 26.0236 21.2598 26.5243 21.087 26.9881C21.9471 26.6684 22.7535 26.2375 23.4873 25.7133C23.4873 25.7133 23.4901 25.5714 23.4901 25.5001C23.4901 21.979 20.622 19.1246 17.0839 19.1246C13.5459 19.1246 10.677 21.979 10.677 25.5001C10.677 29.0197 13.5459 31.8748 17.0839 31.8748C19.7091 31.8748 22.1756 31.201 24.3202 30.0194C28.3277 27.8091 31.2061 23.8202 31.8815 19.1246L29.7814 19.1247ZM8.54212 19.1247H2.28742C2.96204 23.8203 5.84124 27.8092 9.84798 30.0195C9.02027 28.711 8.54212 27.1605 8.54212 25.5002V19.1247ZM34.1693 16.999C34.1693 26.3887 26.5203 33.9998 17.0842 33.9998C7.64893 33.9998 0 26.3887 0 16.999H10.6773V19.8769C12.2435 18.1132 14.5333 16.999 17.0842 16.999C21.2377 16.999 24.6992 19.949 25.4678 23.8572C26.8746 22.1358 27.7299 19.949 27.7623 17.5632V16.999H34.1693Z" fill="#727272"/>
<path d="M17.0851 10.3215H16.0167V6.37492C14.8379 6.37492 13.8816 7.3261 13.8816 8.5006C13.8816 9.27315 14.2958 9.95011 14.9168 10.3215H12.1568C11.8932 9.7691 11.7457 9.15171 11.7457 8.5006C11.7457 7.75313 11.9398 7.05109 12.2799 6.44152C12.1086 6.39844 11.9303 6.37489 11.7457 6.37489C10.5668 6.37489 9.61053 7.32607 9.61053 8.50058C9.61053 9.27313 10.0256 9.95009 10.6458 10.3215H7.8857C7.62216 9.76908 7.47461 9.15169 7.47461 8.50058C7.47461 6.15317 9.38724 4.25 11.7457 4.25C12.5237 4.25 13.2535 4.45677 13.8816 4.81804C14.5097 4.45684 15.2395 4.25 16.0167 4.25C16.386 4.25 16.7442 4.29619 17.0851 4.38392C17.426 4.29619 17.7834 4.25 18.1519 4.25C18.9306 4.25 19.6597 4.45677 20.2878 4.81804C20.9166 4.45684 21.6457 4.25 22.4245 4.25C24.7821 4.25 26.6956 6.15317 26.6956 8.50058C26.6956 9.15169 26.5472 9.76908 26.2845 10.3215H23.5244C24.1446 9.95009 24.5596 9.27313 24.5596 8.50058C24.5596 7.32607 23.6033 6.37489 22.4245 6.37489C22.2399 6.37489 22.0615 6.39841 21.8895 6.44152C22.2304 7.05109 22.4245 7.75313 22.4245 8.5006C22.4245 9.15171 22.2762 9.7691 22.0126 10.3215H19.2534C19.8728 9.95011 20.2878 9.27315 20.2878 8.5006C20.2878 7.3261 19.3323 6.37492 18.1519 6.37492V10.3215H17.0851Z" fill="#727272"/>
<path d="M7.88574 12.174C7.88574 11.4657 8.46332 10.8906 9.17661 10.8906C9.88832 10.8906 10.4659 11.4657 10.4659 12.174C10.4659 12.8839 9.88832 13.4582 9.17661 13.4582C8.46332 13.4582 7.88574 12.8839 7.88574 12.174Z" fill="#727272"/>
<path d="M23.7031 12.174C23.7031 11.4657 24.2815 10.8906 24.9932 10.8906C25.7065 10.8906 26.2841 11.4657 26.2841 12.174C26.2841 12.8839 25.7065 13.4582 24.9932 13.4582C24.2815 13.4582 23.7031 12.8839 23.7031 12.174Z" fill="#727272"/>
<path d="M19.748 12.174C19.748 11.4657 20.3264 10.8906 21.0389 10.8906C21.7514 10.8906 22.329 11.4657 22.329 12.174C22.329 12.8839 21.7514 13.4582 21.0389 13.4582C20.3264 13.4582 19.748 12.8839 19.748 12.174Z" fill="#727272"/>
<path d="M15.7949 12.174C15.7949 11.4657 16.3725 10.8906 17.0858 10.8906C17.7975 10.8906 18.3751 11.4657 18.3751 12.174C18.3751 12.8839 17.7975 13.4582 17.0858 13.4582C16.3725 13.4582 15.7949 12.8839 15.7949 12.174Z" fill="#727272"/>
<path d="M11.8398 12.174C11.8398 11.4657 12.4174 10.8906 13.1299 10.8906C13.8424 10.8906 14.42 11.4657 14.42 12.174C14.42 12.8839 13.8424 13.4582 13.1299 13.4582C12.4174 13.4582 11.8398 12.8839 11.8398 12.174Z" fill="#727272"/>
<path d="M10.6777 14.167H23.4917V16.2927H10.6777V14.167Z" fill="#727272"/>
<path d="M16.7291 1.91883V1.41582H16.0166V0.708302H16.7291V0H17.4408V0.708302H18.1525V1.41582H17.4408V1.91883C17.8551 2.06541 18.1525 2.45866 18.1525 2.92094C18.1525 3.50779 17.6752 3.98418 17.085 3.98418C16.4948 3.98418 16.0166 3.50779 16.0166 2.92094C16.0166 2.45866 16.3141 2.06535 16.7291 1.91883Z" fill="#727272"/>
<path d="M54.8342 24.8835C52.8775 26.0446 50.4985 26.9573 48.6173 27.0468C46.5863 27.1463 44.3526 26.7874 43.7252 24.7683C42.8026 21.7985 44.6421 18.0121 47.038 16.7448C50.3554 14.9886 53.1107 15.9394 54.0558 16.9036L54.7475 13.3589C53.3439 12.7425 51.4199 12.4819 50.7024 12.4819C45.6953 12.4819 43.287 14.907 41.782 16.9193C40.0924 19.1833 37.8372 24.8846 42.0298 28.8253C43.2802 30.0009 45.5624 30.7213 47.7252 30.5725C51.1372 30.3354 53.2267 29.3701 55.2206 27.9428C55.3197 28.1574 55.4346 28.3589 55.5653 28.5457C56.4371 29.7929 58.0277 30.4182 60.3267 30.4182C64.1511 30.4182 66.6743 28.9294 67.4459 24.6408L67.6915 23.2135C67.7196 23.0781 67.7467 22.9227 67.7703 22.756C67.8323 22.3276 67.8728 21.8287 67.8728 21.4215C67.8728 18.1833 65.8801 16.7739 62.3408 16.7739C58.5571 16.7739 56.0958 18.2437 55.2408 22.53C57.3169 21.181 59.3501 19.7929 61.995 19.7929C63.4605 19.7929 63.9066 20.3768 63.9066 21.4629C63.9066 21.8175 63.8887 22.1911 63.7894 22.756C63.7805 22.802 63.7738 22.8454 63.7645 22.8923L63.4998 24.3006C63.0324 26.5937 62.4016 27.399 60.6116 27.399C59.2498 27.399 58.7406 26.9371 58.7406 25.7693C58.7205 25.3644 58.8093 24.587 58.8611 24.3006C58.9141 24.0152 59.2757 22.3431 59.2757 22.3431C59.2757 22.3431 56.8087 23.7122 54.8341 24.8834" fill="#727272"/>
<path d="M78.4805 16.8105C77.0612 16.8105 75.376 17.0296 73.8959 18.2143L74.0783 17.1517H70.3858L68.0732 30.0757H72.0687L73.7528 20.7043C74.8286 20.3821 76.4518 20.1215 77.8925 20.1215L78.4805 16.8105Z" fill="#727272"/>
<path d="M87.7511 16.8105C86.3329 16.8105 84.668 17.0296 83.1664 18.2143L83.3692 17.1517H79.6778L77.3652 30.0757H81.3607L83.0448 20.7043C84.1205 20.3821 85.7426 20.1215 87.1834 20.1215L87.7511 16.8105Z" fill="#727272"/>
<path d="M121.308 19.4603C122.302 19.4603 123.864 19.5598 125.487 19.7209L125.893 17.3328C124.899 17.0712 123.194 16.8115 121.226 16.8115C118.184 16.8115 115.241 17.4525 115.241 20.8652C115.241 22.7522 116.317 23.8764 118.305 24.656L119.28 25.0386C120.679 25.6214 120.984 25.8216 120.984 26.4435C120.984 27.5464 119.949 27.7679 118.67 27.7679C116.744 27.7679 115.973 27.6078 114.268 27.5298L113.861 29.8956C114.553 30.0969 116.622 30.3967 118.448 30.3967C122.16 30.3967 124.981 29.2949 124.981 25.9224C124.981 24.1159 124.067 23.1125 121.796 22.2289L120.699 21.8083C119.624 21.3676 119.198 21.145 119.198 20.6047C119.198 19.5007 120.354 19.4604 121.308 19.4604" fill="#727272"/>
<path d="M109.561 22.9122L109.277 24.316C108.831 26.6046 108.201 27.4066 106.417 27.4066C105.057 27.4066 104.529 26.9447 104.529 25.7813C104.529 25.3406 104.55 24.8787 104.671 24.316L104.956 22.9122C105.38 20.6236 106.051 19.8216 107.796 19.8216C109.258 19.8216 109.684 20.4032 109.684 21.4871C109.684 21.8686 109.684 22.269 109.561 22.9122ZM108.14 16.8115C104.346 16.8115 101.892 18.2746 101.061 22.5509L100.797 23.7947C100.635 24.5778 100.635 25.1795 100.635 25.7813C100.635 28.8719 102.52 30.4178 106.11 30.4178C109.946 30.4178 112.462 28.9323 113.233 24.656L113.476 23.2332C113.557 22.7511 113.659 22.0084 113.659 21.4458C113.659 18.2153 111.671 16.8115 108.14 16.8115Z" fill="#727272"/>
<path d="M95.7854 22.5298H91.0994L91.1603 22.3497C91.4036 20.9437 91.9916 19.6204 93.9403 19.6204C95.4824 19.6204 95.9263 20.3833 95.9263 21.3452C95.9263 21.6471 95.8665 22.051 95.7854 22.5298M94.3042 16.8105C90.5114 16.8105 87.8125 18.3754 87.042 22.9123L86.9406 23.5947C86.7975 24.3766 86.6973 25.1193 86.6973 25.7625C86.6973 29.032 88.7046 30.4168 92.4579 30.4168C94.7908 30.4168 96.6787 30.0958 97.7545 29.8564L98.1792 27.2468C95.7258 27.4066 94.588 27.4694 93.2295 27.4694C91.1197 27.4694 90.552 26.9459 90.552 25.9023C90.552 25.6217 90.6128 25.2591 90.7131 24.6774H99.2955C99.5591 23.3542 99.6807 22.4515 99.6807 21.5466C99.6807 18.7367 98.1375 16.8105 94.3042 16.8105" fill="#727272"/>
</svg>
