<?xml version="1.0" encoding="UTF-8"?>
<svg id="Capa_1" xmlns="http://www.w3.org/2000/svg" xmlns:xlink="http://www.w3.org/1999/xlink" viewBox="0 0 85.23 40.47">
  <defs>
    <style>.cls-1,.cls-2,.cls-3,.cls-4,.cls-5,.cls-6,.cls-7,.cls-8,.cls-9,.cls-10,.cls-11,.cls-12,.cls-13,.cls-14,.cls-15,.cls-16,.cls-17,.cls-18,.cls-19,.cls-20,.cls-21,.cls-22,.cls-23,.cls-24,.cls-25,.cls-26,.cls-27,.cls-28,.cls-29,.cls-30,.cls-31,.cls-32,.cls-33,.cls-34,.cls-35,.cls-36,.cls-37,.cls-38,.cls-39,.cls-40,.cls-41,.cls-42,.cls-43{stroke-miterlimit:3.86;}.cls-1,.cls-3,.cls-4,.cls-5,.cls-6,.cls-7,.cls-8,.cls-9,.cls-10,.cls-12,.cls-13,.cls-14,.cls-17,.cls-18,.cls-20,.cls-21,.cls-22,.cls-23,.cls-24,.cls-27,.cls-29,.cls-30,.cls-34,.cls-35,.cls-36,.cls-38,.cls-39,.cls-40,.cls-41,.cls-42,.cls-43{stroke:#fff;}.cls-1,.cls-3,.cls-4,.cls-5,.cls-44,.cls-8,.cls-9,.cls-10,.cls-11,.cls-12,.cls-14,.cls-15,.cls-16,.cls-17,.cls-18,.cls-20,.cls-21,.cls-22,.cls-23,.cls-45,.cls-26,.cls-27,.cls-28,.cls-29,.cls-31,.cls-33,.cls-34,.cls-46,.cls-35,.cls-38,.cls-40{fill-rule:evenodd;}.cls-1,.cls-17{stroke-width:.05px;}.cls-2,.cls-3,.cls-4,.cls-5,.cls-44,.cls-9,.cls-47,.cls-21,.cls-22,.cls-25,.cls-31,.cls-32,.cls-36,.cls-37,.cls-39{fill:none;}.cls-2,.cls-3,.cls-10,.cls-28,.cls-29,.cls-41{stroke-width:.08px;}.cls-2,.cls-11,.cls-15,.cls-16,.cls-19,.cls-25,.cls-26,.cls-28,.cls-31,.cls-32,.cls-33,.cls-37{stroke:#000;}.cls-4,.cls-11,.cls-12,.cls-26,.cls-27,.cls-30,.cls-33,.cls-42{stroke-width:.04px;}.cls-48{clip-path:url(#clippath-2);}.cls-48,.cls-7,.cls-47{clip-rule:evenodd;}.cls-5,.cls-7,.cls-8,.cls-43{stroke-width:.24px;}.cls-49{clip-path:url(#clippath);}.cls-6{stroke-width:.05px;}.cls-6,.cls-50,.cls-7,.cls-14,.cls-15,.cls-16,.cls-17,.cls-18,.cls-23,.cls-24,.cls-45,.cls-26,.cls-27,.cls-28,.cls-29,.cls-30,.cls-34{fill:#fff;}.cls-9,.cls-18{stroke-width:.02px;}.cls-13,.cls-16,.cls-21,.cls-36,.cls-37,.cls-40{stroke-width:.16px;}.cls-14,.cls-22,.cls-35,.cls-39{stroke-width:.06px;}.cls-15{stroke-width:.16px;}.cls-51{clip-path:url(#clippath-1);}.cls-52{clip-path:url(#clippath-4);}.cls-53{clip-path:url(#clippath-3);}.cls-54{clip-path:url(#clippath-7);}.cls-55{clip-path:url(#clippath-6);}.cls-56{clip-path:url(#clippath-5);}.cls-19{stroke-width:.19px;}.cls-20,.cls-31{stroke-width:0px;}.cls-23,.cls-25{stroke-width:.14px;}.cls-24,.cls-34{stroke-width:.02px;}.cls-32{stroke-width:.07px;}.cls-33{fill:#c8a500;}.cls-38{stroke-width:.32px;}</style>
    <clipPath id="clippath">
      <rect class="cls-13" x="10.24" y="17.69" width="2.59" height="13.4"/>
    </clipPath>
    <clipPath id="clippath-1">
      <rect class="cls-13" x="34.01" y="17.69" width="2.59" height="13.4"/>
    </clipPath>
    <clipPath id="clippath-2">
      <path class="cls-47" d="M22.68,5.69c0-.39,.32-.71,.71-.71s.71,.32,.71,.71-.32,.71-.71,.71-.71-.32-.71-.71Z"/>
    </clipPath>
    <clipPath id="clippath-3">
      <path class="cls-48" d="M22.68,5.69c0-.39,.32-.71,.71-.71s.71,.32,.71,.71-.32,.71-.71,.71-.71-.32-.71-.71Z"/>
    </clipPath>
    <clipPath id="clippath-4">
      <path class="cls-47" d="M22.68,5.69c0-.39,.32-.71,.71-.71s.71,.32,.71,.71-.32,.71-.71,.71-.71-.32-.71-.71Z"/>
    </clipPath>
    <clipPath id="clippath-5">
      <path class="cls-7" d="M23.43,30.46c0,2.21-1.78,4.01-3.99,4.01s-4.01-1.79-4.01-4.01v-5.61h8v5.61Z"/>
    </clipPath>
    <clipPath id="clippath-6">
      <path class="cls-47" d="M11.38,13.38c0-.08,.07-.15,.15-.15s.15,.07,.15,.15-.07,.15-.15,.15-.15-.07-.15-.15Z"/>
    </clipPath>
    <clipPath id="clippath-7">
      <path class="cls-47" d="M35.16,13.53c0-.08,.07-.15,.15-.15s.15,.07,.15,.15-.07,.15-.15,.15-.15-.07-.15-.15Z"/>
    </clipPath>
  </defs>
  <rect class="cls-19" x=".1" y=".1" width="85.04" height="40.28"/>
  <g>
    <path class="cls-50" d="M49.02,17.11h1.39v1.72c-.51,.22-1.02,.32-1.52,.32-.69,0-1.23-.2-1.65-.59-.41-.39-.62-.87-.62-1.45,0-.61,.21-1.11,.64-1.51s.96-.6,1.6-.6c.23,0,.45,.02,.66,.07,.21,.05,.47,.14,.8,.27v.59c-.49-.28-.99-.42-1.47-.42-.45,0-.83,.15-1.15,.45-.31,.3-.47,.67-.47,1.11s.16,.84,.47,1.13c.31,.29,.71,.44,1.2,.44,.24,0,.52-.05,.85-.16l.06-.02v-.84h-.8v-.52Z"/>
    <path class="cls-50" d="M53.32,14.99c.64,0,1.17,.2,1.6,.59,.43,.4,.64,.89,.64,1.49s-.22,1.09-.64,1.48c-.43,.39-.97,.59-1.63,.59s-1.14-.2-1.56-.59-.62-.88-.62-1.47,.21-1.11,.63-1.5c.42-.4,.95-.59,1.59-.59Zm.02,.55c-.47,0-.86,.15-1.17,.44-.31,.29-.46,.66-.46,1.11s.15,.8,.46,1.09c.31,.29,.69,.44,1.15,.44s.85-.15,1.16-.44c.31-.3,.46-.66,.46-1.11s-.15-.79-.46-1.08c-.31-.29-.69-.44-1.14-.44Z"/>
    <path class="cls-50" d="M57.69,19.11h-1.4v-4.05h1.09c.34,0,.61,.05,.8,.13s.34,.21,.44,.37c.1,.16,.15,.34,.15,.55,0,.4-.21,.68-.63,.86,.3,.06,.54,.18,.72,.37s.27,.41,.27,.67c0,.21-.05,.39-.16,.55-.11,.16-.27,.29-.48,.4s-.47,.15-.79,.15Zm-.3-3.54h-.51v1.22h.39c.32,0,.54-.06,.68-.18s.2-.27,.2-.46c0-.39-.25-.58-.76-.58Zm.04,1.74h-.55v1.29h.58c.32,0,.54-.02,.66-.07,.12-.05,.21-.13,.28-.23,.07-.1,.11-.22,.11-.34s-.04-.24-.11-.34c-.07-.1-.18-.18-.32-.23s-.35-.08-.65-.08Z"/>
    <path class="cls-50" d="M59.71,15.05h.59v4.05h-.59v-4.05Z"/>
    <path class="cls-50" d="M61.23,15.05h2.35v.52h-1.76v1.24h1.7v.52h-1.7v1.26h1.81v.52h-2.41v-4.05Z"/>
    <path class="cls-50" d="M64.28,19.11v-4.05h1.04c.42,0,.75,.1,1,.3s.37,.48,.37,.82c0,.24-.06,.44-.18,.61-.12,.17-.29,.3-.52,.39,.13,.09,.26,.2,.39,.35s.3,.4,.53,.77c.14,.23,.26,.4,.35,.52l.22,.29h-.71l-.18-.27s-.02-.03-.04-.05l-.12-.16-.18-.3-.2-.32c-.12-.17-.23-.3-.34-.4s-.19-.17-.28-.21c-.08-.04-.22-.07-.41-.07h-.15v1.76h-.59Zm.77-3.56h-.18v1.28h.23c.3,0,.51-.03,.62-.08,.11-.05,.2-.13,.26-.23,.06-.1,.09-.22,.09-.35s-.03-.24-.1-.35c-.07-.1-.17-.18-.29-.22-.13-.04-.33-.06-.62-.06Z"/>
    <path class="cls-50" d="M71.23,15.05h.56v4.05h-.51l-2.77-3.12v3.12h-.56v-4.05h.48l2.8,3.15v-3.15Z"/>
    <path class="cls-50" d="M74.71,14.99c.64,0,1.17,.2,1.6,.59,.43,.4,.64,.89,.64,1.49s-.22,1.09-.64,1.48c-.43,.39-.97,.59-1.63,.59s-1.14-.2-1.56-.59c-.42-.39-.62-.88-.62-1.47s.21-1.11,.63-1.5c.42-.4,.95-.59,1.59-.59Zm.02,.55c-.47,0-.86,.15-1.17,.44-.31,.29-.46,.66-.46,1.11s.15,.8,.46,1.09c.31,.29,.69,.44,1.15,.44s.85-.15,1.16-.44c.31-.3,.46-.66,.46-1.11s-.15-.79-.46-1.08c-.31-.29-.69-.44-1.14-.44Z"/>
    <path class="cls-50" d="M46.79,25.01v-4.05h1.4c.56,0,1.01,.08,1.34,.25,.33,.17,.59,.41,.78,.73s.29,.67,.29,1.05c0,.27-.05,.53-.16,.78-.11,.25-.26,.47-.46,.65-.2,.19-.44,.34-.7,.44-.16,.06-.3,.1-.43,.12-.13,.02-.38,.03-.75,.03h-1.31Zm1.34-3.53h-.74v3.01h.76c.3,0,.53-.02,.69-.06,.16-.04,.3-.09,.41-.15,.11-.06,.21-.14,.3-.22,.29-.29,.44-.66,.44-1.1s-.15-.79-.45-1.06c-.11-.1-.24-.19-.38-.25-.14-.07-.28-.11-.41-.13-.13-.02-.34-.03-.62-.03Z"/>
    <path class="cls-50" d="M51.34,20.96h2.35v.52h-1.76v1.24h1.7v.52h-1.7v1.26h1.81v.52h-2.41v-4.05Z"/>
    <path class="cls-50" d="M56.07,20.96h2.35v.52h-1.76v1.24h1.7v.52h-1.7v1.26h1.81v.52h-2.41v-4.05Z"/>
    <path class="cls-50" d="M60.13,23.32l-.45-.27c-.28-.17-.48-.34-.6-.5s-.18-.35-.18-.56c0-.32,.11-.58,.34-.78,.23-.2,.52-.3,.88-.3s.66,.1,.95,.29v.66c-.3-.28-.62-.42-.96-.42-.19,0-.35,.04-.48,.13s-.19,.2-.19,.34c0,.12,.05,.24,.14,.34,.09,.11,.24,.22,.44,.33l.45,.26c.51,.3,.76,.67,.76,1.13,0,.32-.11,.59-.33,.79-.22,.2-.51,.3-.87,.3-.41,0-.78-.12-1.12-.37v-.74c.32,.4,.69,.6,1.11,.6,.19,0,.34-.05,.46-.15,.12-.1,.19-.23,.19-.38,0-.25-.18-.48-.55-.7Z"/>
    <path class="cls-50" d="M61.86,25.02v-4.06h1.31c.4,0,.71,.1,.95,.31s.35,.49,.35,.84c0,.24-.06,.44-.18,.63-.12,.18-.29,.31-.5,.4-.21,.08-.51,.12-.9,.12h-.44v1.76h-.6Zm1.21-3.54h-.61v1.27h.65c.24,0,.43-.06,.56-.17,.13-.11,.2-.27,.2-.48,0-.42-.26-.62-.79-.62Z"/>
    <path class="cls-50" d="M65.83,20.94h.42l1.86,4.08h-.61l-.55-1.2h-1.77l-.52,1.2h-.61l1.78-4.08Zm.87,2.36l-.67-1.47-.62,1.47h1.29Z"/>
    <path class="cls-50" d="M71.85,20.96h.56v4.05h-.51l-2.77-3.12v3.12h-.56v-4.05h.48l2.8,3.15v-3.15Zm-.41-1.1c0,.23-.06,.42-.17,.55-.08,.1-.19,.15-.31,.15-.11,0-.26-.04-.44-.12-.18-.08-.32-.12-.42-.12-.05,0-.1,.02-.13,.06s-.06,.1-.07,.17h-.25c.03-.27,.09-.45,.17-.55s.19-.14,.31-.14c.11,0,.3,.05,.56,.15,.13,.05,.23,.08,.28,.08s.1-.02,.14-.06,.06-.1,.08-.19h.23Z"/>
    <path class="cls-50" d="M74.62,20.94h.42l1.86,4.08h-.61l-.55-1.2h-1.77l-.52,1.2h-.61l1.78-4.08Zm.87,2.36l-.67-1.47-.62,1.47h1.29Z"/>
  </g>
  <g>
    <path class="cls-27" d="M35.3,14.62s-.12,.13-.2,.15c-.09,.02-.19-.08-.19-.08,0,0-.08,.09-.17,.11-.09,.02-.23-.11-.23-.11,0,0-.09,.14-.17,.17-.08,.03-.18-.04-.18-.04,0,0-.04,.07-.1,.1-.03,.02-.08,0-.08,0l-.09-.06-.11-.12-.1-.04s-.05-.15-.05-.18c0-.03-.01-.09-.01-.09-.02-.11,.14-.24,.37-.29,.13-.03,.25-.03,.33,0,.09-.08,.28-.14,.51-.14,.2,0,.38,.05,.48,.12,.1-.07,.28-.12,.48-.12,.23,0,.42,.06,.51,.14,.08-.03,.2-.03,.33,0,.23,.05,.39,.18,.37,.29,0,0,0,.07-.01,.09,0,.03-.05,.18-.05,.18l-.1,.04-.11,.12-.09,.06s-.05,.02-.08,0c-.07-.04-.1-.1-.1-.1,0,0-.1,.07-.18,.04-.08-.03-.17-.17-.17-.17,0,0-.13,.14-.23,.11-.09-.02-.17-.11-.17-.11,0,0-.11,.1-.19,.08-.09-.02-.2-.15-.2-.15Z"/>
    <path class="cls-10" d="M35.08,13.92c0-.18,.1-.33,.22-.33s.22,.15,.22,.33-.1,.33-.22,.33-.22-.15-.22-.33Z"/>
    <path class="cls-10" d="M35.2,13.92c0-.17,.05-.3,.1-.3s.1,.14,.1,.3-.05,.3-.1,.3-.1-.14-.1-.3Z"/>
    <path class="cls-16" d="M34.07,23.36c-.45,.07-.84,.19-1.01,.33v.03c-.1,.17,.35,.57,1.01,.99v-1.35Z"/>
    <path class="cls-16" d="M36.61,24.38c.72-.05,1.21-.26,1.26-.57,.04-.25-.2-.53-.63-.79-.19,.02-.41,.05-.64,.05v1.31Z"/>
    <path class="cls-16" d="M12.83,23.36c.45,.07,.79,.19,.95,.33v.03c.1,.17-.3,.54-.96,.95v-1.32Z"/>
    <path class="cls-16" d="M10.23,24.38c-.72-.05-1.21-.26-1.26-.57-.04-.25,.2-.53,.63-.79,.19,.02,.41,.05,.64,.05v1.31Z"/>
    <path class="cls-40" d="M10.14,17.28s.04-.01,.07-.01h2.66s.05,0,.07,.01c-.09-.03-.16-.12-.16-.22s.07-.19,.16-.23c-.02,0-.05,.01-.08,.01h-2.66s-.05,0-.07,0h.01c.1,.03,.15,.12,.15,.22s-.06,.19-.16,.22Z"/>
    <path class="cls-40" d="M10.04,17.4c0-.07,.07-.13,.16-.13h2.66c.09,0,.16,.06,.16,.13h0c0,.07-.07,.13-.16,.13h-2.66c-.09,0-.16-.06-.16-.13h0Z"/>
    <path class="cls-40" d="M10.04,16.74c0-.06,.07-.11,.16-.11h2.66c.09,0,.16,.05,.16,.11h0c0,.06-.07,.11-.16,.11h-2.66c-.09,0-.16-.05-.16-.11h0Z"/>
    <g>
      <path class="cls-14" d="M14.02,33.17c-.25,0-.46-.05-.63-.15-.16-.09-.38-.14-.62-.14s-.46,.05-.62,.14c-.16,.09-.38,.14-.63,.14s-.46-.06-.63-.15c-.16-.08-.37-.13-.6-.13s-.45,.05-.61,.14c-.16,.09-.38,.15-.63,.15v.41c.24,0,.47-.06,.63-.15,.16-.09,.37-.14,.61-.14s.45,.05,.6,.13c.16,.09,.38,.15,.63,.15s.46-.06,.63-.14c.16-.09,.38-.14,.62-.14s.46,.05,.62,.14c.16,.09,.38,.15,.62,.15v-.41Z"/>
      <path class="cls-35" d="M14.02,33.57c-.25,0-.46-.05-.63-.15-.16-.09-.38-.14-.62-.14s-.46,.05-.62,.14c-.16,.09-.38,.14-.63,.14s-.46-.06-.63-.15c-.16-.08-.37-.13-.6-.13s-.45,.05-.61,.14c-.16,.09-.38,.15-.63,.15v.41c.24,0,.47-.06,.63-.15,.16-.09,.37-.14,.61-.14s.45,.05,.6,.13c.16,.09,.38,.15,.63,.15s.46-.06,.63-.14c.16-.09,.38-.14,.62-.14s.46,.05,.62,.14c.16,.09,.38,.15,.62,.15v-.41Z"/>
      <path class="cls-14" d="M14.02,33.98c-.25,0-.46-.05-.63-.15-.16-.09-.38-.14-.62-.14s-.46,.05-.62,.14c-.16,.09-.38,.14-.63,.14s-.46-.06-.63-.15c-.16-.08-.37-.13-.6-.13s-.45,.05-.61,.14c-.16,.09-.38,.15-.63,.15v.41c.24,0,.47-.06,.63-.15,.16-.09,.37-.14,.61-.14s.45,.05,.6,.13c.16,.09,.38,.15,.63,.15s.46-.06,.63-.14c.16-.09,.38-.14,.62-.14s.46,.05,.62,.14c.16,.09,.38,.15,.62,.15v-.41Z"/>
      <path class="cls-35" d="M14.02,34.79c-.25,0-.46-.05-.62-.15-.16-.09-.38-.14-.62-.14s-.46,.05-.62,.14c-.16,.09-.38,.14-.63,.14s-.46-.06-.63-.15c-.16-.08-.37-.13-.6-.13s-.45,.05-.61,.14c-.16,.09-.38,.15-.63,.15v-.4c.24,0,.47-.06,.63-.15,.16-.09,.37-.14,.61-.14s.45,.05,.6,.13c.16,.09,.38,.15,.63,.15s.46-.06,.63-.14c.16-.09,.38-.14,.62-.14s.46,.05,.62,.14c.16,.09,.38,.15,.63,.15v.41Z"/>
      <path class="cls-14" d="M14.02,35.19c-.25,0-.46-.05-.62-.15-.16-.09-.38-.14-.62-.14s-.46,.05-.62,.14c-.16,.09-.38,.14-.63,.14s-.46-.06-.63-.15c-.16-.08-.37-.13-.6-.13s-.45,.05-.61,.14c-.16,.09-.38,.15-.63,.15v-.4c.24,0,.47-.06,.63-.15,.16-.09,.37-.14,.61-.14s.45,.05,.6,.13c.16,.09,.38,.15,.63,.15s.46-.06,.63-.14c.16-.09,.38-.14,.62-.14s.46,.05,.62,.14c.16,.09,.38,.15,.62,.15v.41Z"/>
    </g>
    <g>
      <path class="cls-40" d="M10.14,31.5s.02,.07,.02,.1c0,.25-.2,.44-.45,.44h3.65c-.25,0-.45-.2-.45-.44,0-.04,0-.07,.01-.1-.02,0-.05,0-.07,0h-2.66s-.05,0-.07,0Z"/>
      <path class="cls-14" d="M10.04,31.38c0-.07,.07-.13,.16-.13h2.66c.09,0,.16,.06,.16,.13h0c0,.07-.07,.13-.16,.13h-2.66c-.09,0-.16-.06-.16-.13h0Z"/>
      <rect class="cls-13" x="9.72" y="32.05" width="3.65" height=".98"/>
    </g>
    <path class="cls-16" d="M9.43,27.77c-.36,.22-.61,.45-.57,.56,.02,.1,.13,.18,.3,.29,.26,.19,.41,.53,.29,.68,.21-.18,.35-.45,.35-.75s-.14-.6-.37-.78Z"/>
    <g>
      <rect x="10.24" y="17.69" width="2.59" height="13.4"/>
      <g class="cls-49">
        <line class="cls-39" x1="12.11" y1="17.36" x2="12.11" y2="31.47"/>
        <line class="cls-39" x1="12.4" y1="17.36" x2="12.4" y2="31.47"/>
      </g>
      <rect class="cls-36" x="10.24" y="17.69" width="2.59" height="13.4"/>
    </g>
    <path class="cls-28" d="M15.47,22.7c-.57-.25-1.53-.43-2.63-.47-.38,0-.8,.04-1.24,.12-1.55,.27-2.73,.93-2.63,1.46,0,.01,0,.03,0,.04,0,0-.58-1.38-.59-1.43-.1-.59,1.21-1.32,2.92-1.62,.54-.1,1.07-.13,1.52-.13,1.1,0,2.06,.15,2.63,.37v1.65Z"/>
    <path class="cls-16" d="M8.62,26.97c-.07-.22,.63-.65,1.62-1.03,.45-.17,.83-.35,1.29-.57,1.38-.64,2.39-1.38,2.27-1.65v-.03c.06,.06,.17,1.39,.17,1.39,.13,.25-.8,.97-2.07,1.61-.41,.21-1.26,.54-1.66,.69-.72,.26-1.44,.76-1.37,.95l-.24-1.36Z"/>
    <g>
      <path class="cls-46" d="M10.08,22.04c.32-.12,.52-.27,.42-.53-.06-.17-.23-.2-.47-.11l-.43,.17,.39,1.02s.09-.04,.13-.06c.04-.02,.09-.03,.13-.04l-.17-.45Zm-.19-.49l.11-.04c.09-.04,.19,.02,.24,.13,.03,.09,.02,.19-.08,.26-.03,.02-.07,.04-.11,.05l-.16-.41Z"/>
      <path class="cls-46" d="M11.09,21.13s-.09,.03-.14,.04c-.05,0-.09,.01-.14,.02l.22,1.06,.7-.15s-.02-.04-.02-.06c0-.02,0-.05,0-.07-.12,.04-.26,.08-.42,.11l-.2-.94Z"/>
      <path class="cls-46" d="M12.49,22.04c.13-.38,.29-.75,.45-1.12-.03,0-.06,0-.09,.01-.03,0-.06,0-.09,0-.08,.27-.19,.54-.3,.81-.13-.25-.28-.5-.39-.76-.05,0-.11,.02-.16,.02-.05,0-.11,0-.17,0,.2,.35,.4,.69,.58,1.05,.03,0,.05-.01,.08-.01,.03,0,.05,0,.08,0Z"/>
      <path class="cls-46" d="M13.95,21.23c.02-.05,.05-.1,.08-.15-.04-.04-.15-.09-.29-.11-.28-.03-.45,.1-.47,.29-.04,.38,.53,.35,.5,.6-.01,.11-.12,.15-.24,.14-.13-.01-.22-.09-.24-.2h-.04c-.02,.06-.05,.13-.08,.19,.08,.06,.19,.09,.29,.1,.29,.03,.51-.09,.53-.29,.04-.36-.54-.38-.51-.59,0-.09,.07-.15,.22-.13,.11,.01,.17,.07,.2,.16h.03Z"/>
    </g>
    <g>
      <path class="cls-14" d="M32.82,33.17c.25,0,.46-.05,.63-.15,.16-.09,.38-.14,.62-.14s.46,.05,.62,.14c.16,.09,.38,.14,.63,.14s.46-.06,.63-.15c.16-.08,.37-.13,.6-.13s.45,.05,.61,.14c.16,.09,.38,.15,.63,.15v.41c-.24,0-.47-.06-.63-.15-.16-.09-.37-.14-.61-.14s-.45,.05-.6,.13c-.16,.09-.38,.15-.63,.15s-.46-.06-.63-.14c-.16-.09-.38-.14-.62-.14s-.46,.05-.62,.14c-.16,.09-.38,.15-.62,.15v-.41Z"/>
      <path class="cls-35" d="M32.82,33.57c.25,0,.46-.05,.63-.15,.16-.09,.38-.14,.62-.14s.46,.05,.62,.14c.16,.09,.38,.14,.63,.14s.46-.06,.63-.15c.16-.08,.37-.13,.6-.13s.45,.05,.61,.14c.16,.09,.38,.15,.63,.15v.41c-.24,0-.47-.06-.63-.15-.16-.09-.37-.14-.61-.14s-.45,.05-.6,.13c-.16,.09-.38,.15-.63,.15s-.46-.06-.63-.14c-.16-.09-.38-.14-.62-.14s-.46,.05-.62,.14c-.16,.09-.38,.15-.62,.15v-.41Z"/>
      <path class="cls-14" d="M32.82,33.98c.25,0,.46-.05,.63-.15,.16-.09,.38-.14,.62-.14s.46,.05,.62,.14c.16,.09,.38,.14,.63,.14s.46-.06,.63-.15c.16-.08,.37-.13,.6-.13s.45,.05,.61,.14c.16,.09,.38,.15,.63,.15v.41c-.24,0-.47-.06-.63-.15-.16-.09-.37-.14-.61-.14s-.45,.05-.6,.13c-.16,.09-.38,.15-.63,.15s-.46-.06-.63-.14c-.16-.09-.38-.14-.62-.14s-.46,.05-.62,.14c-.16,.09-.38,.15-.62,.15v-.41Z"/>
      <path class="cls-35" d="M32.83,34.79c.25,0,.46-.05,.62-.15,.16-.09,.38-.14,.62-.14s.46,.05,.62,.14c.16,.09,.38,.14,.63,.14s.46-.06,.63-.15c.16-.08,.37-.13,.6-.13s.45,.05,.61,.14c.16,.09,.38,.15,.63,.15v-.4c-.24,0-.47-.06-.63-.15-.16-.09-.37-.14-.61-.14s-.45,.05-.6,.13c-.16,.09-.38,.15-.63,.15s-.46-.06-.63-.14c-.16-.09-.38-.14-.62-.14s-.46,.05-.62,.14c-.16,.09-.38,.15-.63,.15v.41Z"/>
      <path class="cls-14" d="M32.83,35.19c.25,0,.46-.05,.62-.15,.16-.09,.38-.14,.62-.14s.46,.05,.62,.14c.16,.09,.38,.14,.63,.14s.46-.06,.63-.15c.16-.08,.37-.13,.6-.13s.45,.05,.61,.14c.16,.09,.38,.15,.63,.15v-.4c-.24,0-.47-.06-.63-.15-.16-.09-.37-.14-.61-.14s-.45,.05-.6,.13c-.16,.09-.38,.15-.63,.15s-.46-.06-.63-.14c-.16-.09-.38-.14-.62-.14s-.46,.05-.62,.14c-.16,.09-.38,.15-.63,.15v.41Z"/>
    </g>
    <path class="cls-40" d="M36.7,31.5s-.02,.07-.02,.1c0,.25,.2,.44,.45,.44h-3.65c.25,0,.45-.2,.45-.44,0-.04,0-.07-.01-.1,.02,0,.05,0,.07,0h2.66s.05,0,.07,0Z"/>
    <path class="cls-14" d="M33.82,31.38c0-.07,.07-.13,.16-.13h2.66c.09,0,.16,.06,.16,.13h0c0,.07-.07,.13-.16,.13h-2.66c-.09,0-.16-.06-.16-.13h0Z"/>
    <rect class="cls-13" x="33.48" y="32.05" width="3.65" height=".98"/>
    <path class="cls-15" d="M37.41,27.77c.36,.22,.61,.45,.57,.56-.02,.1-.13,.18-.3,.29-.26,.19-.41,.53-.29,.68-.21-.18-.35-.45-.35-.75s.14-.6,.37-.78Z"/>
    <g>
      <rect x="34.01" y="17.69" width="2.59" height="13.4"/>
      <g class="cls-51">
        <line class="cls-39" x1="35.89" y1="17.36" x2="35.89" y2="31.47"/>
        <line class="cls-39" x1="36.18" y1="17.36" x2="36.18" y2="31.47"/>
      </g>
      <rect class="cls-36" x="34.01" y="17.69" width="2.59" height="13.4"/>
    </g>
    <path class="cls-28" d="M31.37,22.7c.57-.25,1.53-.43,2.63-.47,.38,0,.8,.04,1.24,.12,1.55,.27,2.73,.93,2.63,1.46,0,.01,0,.03,0,.04,0,0,.58-1.38,.59-1.43,.1-.59-1.2-1.32-2.92-1.62-.54-.1-1.07-.13-1.52-.13-1.1,0-2.06,.15-2.63,.37v1.65Z"/>
    <path class="cls-16" d="M38.22,26.97c.07-.22-.63-.65-1.62-1.03-.45-.17-.83-.35-1.29-.57-1.37-.64-2.39-1.38-2.27-1.65v-.03c-.06,.06-.17,1.39-.17,1.39-.13,.25,.8,.97,2.07,1.61,.4,.21,1.26,.54,1.66,.69,.72,.26,1.44,.76,1.37,.95l.24-1.36Z"/>
    <g>
      <path class="cls-46" d="M33.01,22.08c.1-.39,.22-.77,.35-1.16-.03,0-.06,.01-.08,.02-.03,0-.06,0-.09,0-.06,.28-.14,.55-.23,.83-.15-.24-.32-.48-.45-.72-.05,.01-.11,.03-.16,.03-.05,0-.11,.01-.17,.02,.23,.33,.45,.66,.67,1,.03,0,.05-.02,.08-.02,.03,0,.05,0,.08,0Z"/>
      <path class="cls-46" d="M34,20.93s-.09,0-.14,0c-.05,0-.09,0-.14-.01l-.02,1.08h.71s0-.03,0-.06c0-.02,0-.05,.01-.07-.13,0-.27,.02-.43,.01l.02-.97Z"/>
      <path class="cls-46" d="M35.12,21.11c.11,0,.22,.03,.33,.05,0-.02,0-.04,0-.07,0-.02,0-.04,.02-.07l-.97-.08s0,.05,0,.07c0,.02,0,.05-.02,.07,.1,0,.22,0,.35,0l-.08,.97s.09,0,.14,0c.05,0,.09,.01,.14,.02l.08-.97Z"/>
      <path class="cls-46" d="M35.52,22.17s.09,.01,.14,.02c.05,.01,.09,.03,.14,.04l.11-.5h.01c.03,.07,.06,.15,.08,.2l.14,.37c.06,0,.11,.02,.17,.03,.06,.01,.11,.03,.17,.05l-.05-.11c-.08-.17-.16-.34-.22-.51,.18,0,.32-.06,.35-.21,.02-.1-.01-.19-.11-.26-.07-.05-.2-.08-.29-.1l-.39-.09-.24,1.06Zm.5-.91c.11,.03,.25,.05,.25,.18,0,.03,0,.06,0,.08-.04,.16-.15,.21-.34,.15l.1-.41Z"/>
      <path class="cls-46" d="M37.36,22.5c0,.12-.03,.23-.05,.35,.05,.02,.1,.05,.14,.07,.05,.03,.09,.06,.14,.09l.1-1.22s-.04-.02-.06-.03c-.02-.01-.04-.03-.06-.04l-1.02,.68s.05,.03,.08,.04c.03,.01,.05,.03,.07,.05,.09-.08,.18-.14,.28-.22l.38,.22Zm-.29-.28l.34-.23-.04,.4-.3-.17Z"/>
    </g>
    <path class="cls-31" d="M19.42,11.27c0-.19,.15-.35,.35-.35s.35,.15,.35,.35-.15,.35-.35,.35-.35-.15-.35-.35Z"/>
    <path class="cls-40" d="M23.32,8.27c1.06,0,2,.16,2.61,.42,.35,.17,.82,.29,1.34,.36,.39,.06,.77,.07,1.09,.04,.43,0,1.06,.12,1.69,.42,.52,.24,.95,.54,1.24,.83l-.25,.23-.07,.67-.68,.83-.34,.31-.81,.68-.41,.04-.13,.38-5.24-.65-5.26,.65-.13-.38-.41-.04-.81-.68-.34-.31-.68-.83-.07-.67-.25-.23c.29-.29,.72-.58,1.24-.83,.63-.29,1.26-.43,1.69-.42,.32,.03,.7,.01,1.09-.04,.52-.07,.99-.2,1.34-.36,.61-.26,1.5-.42,2.56-.42Z"/>
    <path class="cls-40" d="M23.39,13.89c-1.98,0-3.75,.27-5,.67,.1-.05,.09-.19-.03-.54-.16-.42-.4-.41-.4-.41,1.38-.43,3.3-.7,5.44-.7,2.14,0,4.08,.27,5.46,.7,0,0-.24-.02-.4,.41-.13,.35-.14,.49-.03,.54-1.25-.41-3.06-.67-5.03-.67Z"/>
    <path class="cls-40" d="M23.39,12.91c-2.14,0-4.06,.27-5.44,.7-.09,.03-.19,0-.22-.1-.03-.09,.02-.2,.11-.23,1.39-.45,3.36-.73,5.55-.74,2.19,0,4.17,.29,5.56,.74,.09,.03,.14,.14,.11,.23s-.13,.13-.22,.1c-1.38-.43-3.31-.7-5.45-.7Z"/>
    <g>
      <path class="cls-40" d="M23.4,15.59c-1.95,0-3.7-.25-4.95-.64-.09-.03-.14-.12-.13-.21,0-.09,.05-.17,.13-.2,1.25-.4,3-.64,4.95-.64,1.95,0,3.7,.25,4.95,.64,.09,.03,.14,.11,.13,.2,0,.09-.04,.18-.13,.21-1.25,.4-3,.64-4.95,.64Z"/>
      <path class="cls-40" d="M23.39,15.32c-1.76,0-3.36-.22-4.57-.55,1.21-.33,2.81-.53,4.57-.54,1.76,0,3.37,.21,4.58,.54-1.21,.33-2.82,.55-4.58,.55Z"/>
    </g>
    <g>
      <path class="cls-40" d="M21.87,13.43c0-.1,.08-.17,.17-.17s.17,.08,.17,.17-.08,.17-.17,.17-.17-.08-.17-.17Z"/>
      <path class="cls-40" d="M23.4,13.56h-.52c-.1,0-.18-.08-.18-.17s.08-.17,.17-.17h1.06c.1,0,.17,.08,.17,.17s-.08,.17-.18,.17h-.53Z"/>
      <path class="cls-40" d="M20.77,13.72l-.38,.05c-.1,.01-.19-.06-.2-.15s.06-.18,.15-.19l.38-.05,.39-.05c.1-.01,.18,.06,.19,.15,.01,.1-.06,.18-.15,.19l-.38,.05Z"/>
      <path class="cls-40" d="M19.24,13.75c0-.1,.08-.17,.17-.17s.17,.08,.17,.17-.08,.17-.17,.17-.17-.08-.17-.17Z"/>
      <polygon class="cls-40" points="18.07 14.07 18.27 13.8 18.8 13.87 18.37 14.2 18.07 14.07"/>
      <path class="cls-40" d="M26.03,13.72l.38,.05c.1,.01,.19-.06,.2-.15,.01-.1-.06-.18-.15-.19l-.38-.05-.39-.05c-.1-.01-.18,.06-.19,.15s.06,.18,.15,.19l.38,.05Z"/>
      <path class="cls-40" d="M24.58,13.43c0-.1,.08-.17,.17-.17s.17,.08,.17,.17-.08,.17-.17,.17-.17-.08-.17-.17Z"/>
      <path class="cls-40" d="M27.21,13.75c0-.1,.08-.17,.17-.17s.17,.08,.17,.17-.08,.17-.17,.17-.17-.08-.17-.17Z"/>
      <polygon class="cls-40" points="28.72 14.07 28.53 13.8 27.99 13.87 28.42 14.2 28.72 14.07"/>
    </g>
    <path class="cls-44" d="M18.61,14.83c1.24-.37,2.91-.59,4.78-.6,1.87,0,3.55,.23,4.79,.6"/>
    <path class="cls-40" d="M19.45,9.74l.22,.19,.33-.57c-.36-.23-.61-.64-.61-1.1,0-.05,0-.1,0-.15,.03-.73,.88-1.33,1.95-1.33,.56,0,1.06,.16,1.41,.42,0-.11,.02-.21,.03-.31-.39-.24-.89-.38-1.44-.38-1.23,0-2.19,.74-2.24,1.61,0,.05,0,.1,0,.15,0,.47,.2,.88,.52,1.18l-.18,.3Z"/>
    <path class="cls-40" d="M19.46,9.74c-.42-.33-.68-.78-.68-1.27,0-.57,.35-1.08,.89-1.41-.33,.28-.53,.64-.56,1.05,0,.05,0,.1,0,.15,0,.47,.2,.88,.52,1.18l-.16,.31Z"/>
    <path class="cls-40" d="M15.76,10.32c-.23-.28-.38-.64-.38-1.03,0-.24,.05-.46,.15-.67,.34-.74,1.4-1.27,2.67-1.27,.34,0,.67,.04,.98,.11-.07,.08-.12,.16-.17,.25-.25-.05-.52-.08-.81-.08-1.16,0-2.13,.48-2.41,1.12-.07,.16-.12,.35-.12,.54,0,.39,.17,.74,.44,.98l-.42,.72-.23-.19,.29-.48Z"/>
    <path class="cls-40" d="M16.19,7.9c-.3,.2-.54,.45-.66,.73-.09,.2-.15,.43-.15,.67,0,.39,.14,.75,.38,1.03l-.25,.44c-.24-.33-.39-.72-.39-1.13,0-.71,.43-1.32,1.07-1.73Z"/>
    <path class="cls-40" d="M23.38,6.35c.28,0,.52,.2,.58,.46,.04,.23,.06,.5,.07,.78,0,.03,0,.06,0,.09,0,.03,0,.07,0,.1,.01,.59,.09,1.11,.2,1.43l-.86,.86-.86-.86c.11-.32,.19-.84,.2-1.43,0-.03,0-.07,0-.1,0-.03,0-.06,0-.09,0-.28,.03-.55,.07-.78,.06-.26,.31-.46,.59-.46Z"/>
    <path class="cls-40" d="M23.38,6.63c.15,0,.27,.1,.3,.23,.04,.22,.06,.47,.06,.74,0,.03,0,.05,0,.08,0,.03,0,.07,0,.1,0,.56,.09,1.05,.19,1.35l-.56,.56-.56-.56c.11-.3,.18-.8,.19-1.35,0-.03,0-.07,0-.1,0-.03,0-.05,0-.08,0-.27,.03-.52,.06-.74,.03-.14,.16-.23,.31-.23Z"/>
    <path class="cls-40" d="M27.31,9.74l-.22,.19-.33-.57c.36-.23,.61-.64,.61-1.1,0-.05,0-.1,0-.15-.03-.73-.88-1.33-1.94-1.33-.56,0-1.06,.16-1.41,.42,0-.11-.02-.21-.03-.31,.39-.24,.89-.38,1.44-.38,1.23,0,2.19,.74,2.24,1.61,0,.05,0,.1,0,.15,0,.47-.2,.88-.52,1.18l.18,.3Z"/>
    <path class="cls-40" d="M27.3,9.74c.42-.33,.68-.78,.68-1.27,0-.57-.35-1.08-.89-1.41,.33,.28,.53,.64,.56,1.05,0,.05,0,.1,0,.15,0,.47-.2,.88-.52,1.18l.16,.31Z"/>
    <path class="cls-40" d="M31,10.32c.23-.28,.38-.64,.38-1.03,0-.24-.05-.46-.15-.67-.34-.74-1.4-1.27-2.67-1.27-.34,0-.67,.04-.98,.11,.07,.08,.12,.16,.17,.25,.25-.05,.52-.08,.81-.08,1.16,0,2.13,.48,2.41,1.12,.07,.16,.12,.35,.12,.54,0,.39-.17,.74-.44,.98l.42,.72,.23-.19-.29-.48Z"/>
    <path class="cls-40" d="M30.57,7.9c.3,.2,.54,.45,.66,.73,.09,.2,.15,.43,.15,.67,0,.39-.14,.75-.38,1.03l.25,.44c.24-.33,.39-.72,.39-1.13,0-.71-.43-1.32-1.07-1.73Z"/>
    <line class="cls-37" x1="23.43" y1="9" x2="23.43" y2="9"/>
    <path class="cls-40" d="M23.08,9.32c0-.17,.14-.3,.3-.3s.3,.14,.3,.3-.14,.3-.3,.3-.3-.14-.3-.3Z"/>
    <path class="cls-40" d="M23.08,8.73c0-.17,.14-.3,.3-.3s.3,.14,.3,.3-.14,.3-.3,.3-.3-.14-.3-.3Z"/>
    <path class="cls-40" d="M23.14,8.09c0-.13,.11-.24,.24-.24s.24,.11,.24,.24-.11,.24-.24,.24-.24-.11-.24-.24Z"/>
    <path class="cls-40" d="M23.21,7.51c0-.1,.08-.17,.17-.17s.17,.08,.17,.17-.08,.17-.17,.17-.17-.08-.17-.17Z"/>
    <path class="cls-40" d="M23.24,7c0-.08,.06-.14,.14-.14s.14,.06,.14,.14-.06,.14-.14,.14-.14-.06-.14-.14Z"/>
    <path class="cls-40" d="M23.41,11.14l.2,.04c-.03,.08-.04,.18-.04,.27,0,.43,.35,.78,.78,.78,.35,0,.64-.23,.75-.54,.01,0,.07-.28,.11-.28,.03,0,.02,.3,.03,.3,.05,.39,.39,.66,.78,.66,.43,0,.78-.35,.78-.78,0-.03,0-.06,0-.1l.25-.26,.13,.33c-.05,.1-.07,.22-.07,.34,0,.41,.33,.75,.75,.75,.26,0,.49-.13,.62-.33l.16-.21v.26c0,.26,.1,.49,.34,.53,0,0,.28,.02,.64-.28s.57-.55,.57-.55l.03,.3s-.3,.5-.63,.7c-.18,.11-.46,.23-.67,.19-.23-.04-.39-.23-.48-.46-.16,.1-.36,.16-.57,.16-.45,0-.85-.26-1.01-.65-.21,.23-.49,.38-.83,.38-.36,0-.68-.17-.89-.43-.2,.19-.48,.31-.78,.31-.39,0-.75-.2-.95-.51-.2,.31-.55,.51-.95,.51-.3,0-.58-.12-.78-.31-.21,.26-.53,.43-.89,.43-.34,0-.62-.14-.83-.38-.16,.39-.56,.65-1.01,.65-.21,0-.4-.06-.57-.16-.09,.23-.25,.42-.48,.46-.22,.04-.49-.08-.67-.19-.33-.2-.63-.7-.63-.7l.03-.3s.2,.25,.57,.55c.37,.3,.64,.28,.64,.28,.24-.04,.34-.27,.34-.53v-.26s.16,.21,.16,.21c.13,.2,.36,.33,.62,.33,.41,0,.75-.33,.75-.75,0-.12-.02-.24-.07-.34l.13-.33,.25,.26s0,.06,0,.1c0,.43,.35,.78,.78,.78,.38,0,.73-.27,.78-.66,.01,0,0-.29,.04-.3,.03,0,.1,.29,.11,.28,.1,.31,.4,.54,.75,.54,.43,0,.78-.35,.78-.78,0-.1,0-.19-.04-.27l.2-.04Z"/>
    <path class="cls-40" d="M28.79,12.18c.05-.14,0-.28-.09-.31-.1-.03-.21,.06-.26,.2-.05,.14,0,.28,.09,.31,.1,.03,.21-.06,.26-.2Z"/>
    <path class="cls-40" d="M25.38,11.48c.02-.15-.05-.27-.15-.29-.1-.01-.2,.1-.21,.24s.05,.27,.15,.29c.1,.01,.2-.1,.21-.24Z"/>
    <path class="cls-40" d="M21.43,11.48c-.02-.15,.05-.27,.15-.29,.1-.01,.2,.1,.21,.24,.02,.15-.05,.27-.15,.29-.1,.01-.19-.1-.21-.24Z"/>
    <path class="cls-40" d="M18.02,12.18c-.05-.14,0-.28,.09-.31,.1-.03,.21,.06,.26,.2,.05,.14,0,.28-.09,.31-.1,.03-.21-.06-.26-.2Z"/>
    <path class="cls-40" d="M19.5,9.78c.17,.11,.32,.3,.37,.51,0,0,.02-.04,.11-.1,.09-.06,.17-.05,.17-.05,0,0-.03,.16-.04,.22-.01,.06-.01,.23-.05,.39-.04,.16-.1,.28-.1,.28-.07-.06-.16-.09-.25-.07s-.17,.07-.21,.15c0,0-.1-.1-.19-.23-.09-.14-.15-.3-.18-.35-.03-.05-.11-.19-.11-.19,0,0,.07-.03,.18,0,.11,.02,.14,.05,.14,.05-.02-.21,.04-.44,.16-.6Z"/>
    <path class="cls-13" d="M19.57,11.49c-.05-.04-.09-.11-.11-.18-.01-.07,0-.15,.04-.21,0,0-.14-.08-.29-.12-.11-.03-.32-.03-.38-.03-.06,0-.18,0-.18,0,0,0,.01,.03,.05,.09,.04,.08,.08,.13,.08,.13-.2,.05-.37,.19-.48,.35,.16,.12,.37,.19,.57,.16,0,0-.02,.06-.03,.15-.01,.07,0,.1,0,.1,0,0,.11-.04,.17-.07,.06-.02,.25-.09,.34-.16,.13-.09,.24-.21,.24-.21Z"/>
    <path class="cls-13" d="M20.02,11.41c.03-.06,.05-.13,.04-.21-.01-.07-.05-.14-.11-.18,0,0,.11-.12,.23-.21,.1-.07,.29-.14,.34-.16,.06-.02,.17-.07,.17-.07,0,0,0,.03-.01,.1-.01,.09-.03,.15-.03,.15,.21-.02,.42,.05,.57,.17-.11,.16-.28,.3-.48,.35,0,0,.04,.05,.08,.13,.03,.06,.04,.09,.04,.09,0,0-.12,0-.18,0-.06,0-.26,0-.38-.03-.15-.04-.29-.12-.29-.12Z"/>
    <path class="cls-40" d="M19.42,11.26c0-.19,.15-.35,.35-.35s.35,.15,.35,.35-.15,.35-.35,.35-.35-.15-.35-.35Z"/>
    <path class="cls-40" d="M23.39,9.22c.17,.16,.29,.4,.31,.64,0,0,.03-.04,.15-.09,.11-.04,.2-.03,.2-.03,0,0-.06,.18-.09,.24-.03,.06-.06,.26-.13,.43-.07,.17-.17,.3-.17,.3-.06-.08-.16-.13-.27-.13s-.2,.05-.27,.13c0,0-.1-.13-.17-.3-.07-.17-.11-.36-.13-.43-.03-.06-.09-.24-.09-.24,0,0,.09-.02,.2,.03,.12,.04,.15,.09,.15,.09,.02-.24,.14-.48,.3-.64Z"/>
    <path class="cls-13" d="M23.14,11.15c-.05-.06-.08-.14-.08-.22s.03-.16,.08-.22c0,0-.14-.11-.3-.19-.12-.06-.35-.1-.41-.11s-.2-.04-.2-.04c0,0,0,.03,.03,.11,.03,.09,.06,.16,.06,.16-.23,.02-.45,.14-.61,.3,.15,.16,.37,.28,.61,.29,0,0-.03,.06-.06,.16-.03,.08-.03,.11-.03,.11,0,0,.14-.03,.2-.04,.07-.01,.29-.05,.41-.11,.16-.08,.3-.19,.3-.19Z"/>
    <path class="cls-13" d="M23.66,11.15c.05-.06,.08-.14,.08-.22s-.03-.16-.08-.22c0,0,.14-.11,.3-.19,.12-.06,.35-.1,.41-.11s.2-.04,.2-.04c0,0,0,.03-.03,.11-.03,.09-.06,.16-.06,.16,.23,.02,.45,.14,.61,.3-.15,.16-.37,.28-.61,.29,0,0,.03,.06,.06,.16,.03,.08,.03,.11,.03,.11,0,0-.14-.03-.2-.04-.07-.01-.29-.05-.41-.11-.16-.08-.3-.19-.3-.19Z"/>
    <path class="cls-40" d="M27.31,9.78c-.17,.11-.32,.3-.37,.51,0,0-.02-.04-.11-.1-.09-.06-.17-.05-.17-.05,0,0,.03,.16,.04,.22,.01,.06,.01,.23,.05,.39,.04,.16,.1,.28,.1,.28,.07-.06,.16-.09,.25-.07,.09,.02,.17,.07,.21,.15,0,0,.1-.1,.19-.23,.09-.14,.15-.3,.18-.35,.03-.05,.11-.19,.11-.19,0,0-.07-.03-.18,0-.11,.02-.14,.05-.14,.05,.02-.21-.05-.44-.16-.6Z"/>
    <path class="cls-13" d="M27.23,11.49c.05-.04,.09-.11,.11-.18s0-.15-.04-.21c0,0,.14-.08,.29-.12,.11-.03,.32-.03,.38-.03,.06,0,.18,0,.18,0,0,0,0,.03-.04,.09-.04,.08-.08,.13-.08,.13,.2,.05,.37,.19,.48,.35-.16,.12-.37,.19-.57,.16,0,0,.02,.06,.03,.15,.01,.07,.01,.1,.01,.1,0,0-.11-.04-.17-.07-.06-.02-.25-.09-.34-.16-.13-.09-.24-.21-.24-.21Z"/>
    <path class="cls-13" d="M26.78,11.41c-.04-.06-.05-.13-.04-.21,.01-.07,.05-.14,.11-.18,0,0-.11-.12-.23-.21-.1-.07-.29-.14-.34-.16-.06-.02-.17-.07-.17-.07,0,0,0,.03,.01,.1,.01,.09,.03,.15,.03,.15-.21-.02-.42,.05-.57,.17,.11,.16,.28,.3,.48,.35,0,0-.04,.05-.08,.13-.04,.06-.05,.09-.05,.09,0,0,.12,0,.18,0,.06,0,.26,0,.38-.03,.15-.04,.29-.12,.29-.12Z"/>
    <path class="cls-40" d="M26.69,11.26c0-.19,.15-.35,.35-.35s.35,.15,.35,.35-.15,.35-.35,.35-.35-.15-.35-.35Z"/>
    <path class="cls-40" d="M30.55,12.02c-.08-.09-.25-.07-.38,.04-.13,.11-.16,.28-.08,.37,.08,.09,.25,.07,.38-.04,.13-.11,.16-.28,.08-.37Z"/>
    <path class="cls-13" d="M30.06,12.24c.02-.06,.06-.13,.11-.18,.13-.11,.29-.13,.38-.04,.01,.01,.02,.03,.03,.04,0,0,.18-.35,.38-.47,.21-.12,.56-.09,.56-.09,0-.27-.21-.49-.48-.49-.16,0-.31,.07-.4,.19l-.04-.18s-.22,.05-.32,.31c-.1,.26,0,.64,0,.64,0,0-.05-.16-.14-.27-.08-.11-.29-.23-.4-.28-.11-.05-.22-.13-.22-.13,0,0,0,.03,0,.1,0,.09,0,.14,0,.14-.2-.03-.43,0-.61,.08,.08,.16,.22,.31,.42,.39,0,0-.07,.06-.13,.13-.05,.06-.07,.08-.07,.08,0,0,.14,.02,.2,.03,.07,.01,.29,.05,.43,.04,.1,0,.21-.02,.28-.04Z"/>
    <path class="cls-40" d="M16.25,12.02c.08-.09,.25-.07,.38,.04,.13,.11,.16,.28,.08,.37-.08,.09-.25,.07-.38-.04-.13-.11-.16-.28-.08-.37Z"/>
    <path class="cls-13" d="M16.74,12.24c-.02-.06-.06-.13-.11-.18-.13-.11-.29-.13-.38-.04-.01,.01-.02,.03-.03,.04,0,0-.18-.35-.38-.47-.21-.12-.56-.09-.56-.09,0-.27,.21-.49,.48-.49,.16,0,.31,.07,.4,.19l.04-.18s.22,.05,.32,.31c.1,.26,0,.64,0,.64,0,0,.05-.16,.13-.27,.08-.11,.29-.23,.4-.28,.11-.05,.22-.13,.22-.13,0,0,0,.03,0,.1,0,.09,0,.14,0,.14,.2-.03,.43,0,.61,.08-.08,.16-.22,.31-.42,.39,0,0,.07,.06,.13,.13,.05,.06,.07,.08,.07,.08,0,0-.14,.02-.2,.03-.07,.01-.29,.05-.43,.04-.1,0-.21-.02-.28-.04Z"/>
    <path class="cls-40" d="M23.05,10.93c0-.19,.15-.35,.35-.35s.35,.15,.35,.35-.15,.35-.35,.35-.35-.15-.35-.35Z"/>
    <g>
      <g>
        <path class="cls-46" d="M22.68,5.69c0-.39,.32-.71,.71-.71s.71,.32,.71,.71-.32,.71-.71,.71-.71-.32-.71-.71Z"/>
        <g class="cls-53">
          <polygon class="cls-33" points="24.2 5.58 24.2 5.96 22.61 5.96 22.61 5.58 23.2 5.58 23.2 4.47 22.81 4.47 22.81 4.08 23.2 4.08 23.2 3.7 23.58 3.7 23.58 4.08 23.97 4.08 23.97 4.47 23.58 4.47 23.58 5.58 24.2 5.58"/>
        </g>
      </g>
      <polygon class="cls-40" points="23.87 5.58 23.87 5.96 22.96 5.96 22.96 5.58 23.2 5.58 23.2 4.47 22.81 4.47 22.81 4.08 23.2 4.08 23.2 3.7 23.58 3.7 23.58 4.08 23.97 4.08 23.97 4.47 23.58 4.47 23.58 5.58 23.87 5.58"/>
      <g class="cls-52">
        <polygon class="cls-40" points="24.2 5.58 24.2 5.96 22.61 5.96 22.61 5.58 23.2 5.58 23.2 4.47 22.81 4.47 22.81 4.08 23.2 4.08 23.2 3.7 23.58 3.7 23.58 4.08 23.97 4.08 23.97 4.47 23.58 4.47 23.58 5.58 24.2 5.58"/>
      </g>
      <path class="cls-21" d="M23.59,5c.29,.09,.5,.36,.5,.68,0,.39-.32,.71-.71,.71s-.71-.32-.71-.71c0-.33,.22-.6,.52-.68"/>
    </g>
    <path class="cls-8" d="M23.45,35.46c-2.08,0-4.15-.54-5.89-1.44-1.28-.67-2.13-2.02-2.13-3.56v-5.6H31.44v5.6c0,1.54-.85,2.9-2.13,3.56-1.74,.9-3.77,1.44-5.86,1.44Z"/>
    <rect class="cls-43" x="23.42" y="15.48" width="8.02" height="9.37"/>
    <rect class="cls-43" x="15.43" y="15.48" width="7.99" height="9.37"/>
    <g>
      <path class="cls-45" d="M23.43,30.46c0,2.21-1.78,4.01-3.99,4.01s-4.01-1.79-4.01-4.01v-5.61h8v5.61Z"/>
      <g class="cls-56">
        <rect class="cls-41" x="17.17" y="24.65" width=".94" height="10.38"/>
        <rect class="cls-41" x="15.39" y="24.65" width=".94" height="10.38"/>
        <rect class="cls-41" x="18.96" y="24.65" width=".94" height="10.38"/>
        <rect class="cls-41" x="20.74" y="24.65" width=".94" height="10.38"/>
        <rect class="cls-41" x="22.52" y="24.65" width=".94" height="10.38"/>
      </g>
      <path class="cls-5" d="M23.43,30.46c0,2.21-1.78,4.01-3.99,4.01s-4.01-1.79-4.01-4.01v-5.61h8v5.61Z"/>
    </g>
    <path class="cls-8" d="M31.45,24.84v5.61c0,2.21-1.8,4.01-4.01,4.01s-4.01-1.79-4.01-4.01v-5.61h8.02Z"/>
    <path class="cls-18" d="M27.81,32.96c.21-.03,.41-.1,.61-.18l.13,.24c-.22,.1-.47,.17-.72,.21-.04,.2-.22,.34-.42,.34s-.38-.15-.43-.34c-.27-.04-.52-.11-.75-.22l.13-.24c.21,.09,.42,.15,.65,.19,.05-.11,.14-.2,.25-.23v-1.18h.27v1.17c.12,.04,.22,.12,.27,.24Zm-.78-3.57s-.02-.05-.03-.08h-.68v-.27h.68s.02-.05,.03-.07l-.84-.98,.21-.18,.83,.96s.03-.01,.04-.02v-1.29h.27v1.28s.03,0,.04,.01l.81-.97,.21,.17-.81,.96s.04,.07,.05,.11h.66v.27h-.66s-.03,.06-.04,.09l.77,.92-.21,.18-.76-.92s-.02,.01-.04,.02v1.52h-.27v-1.53s-.02,0-.03-.01l-.79,.93-.21-.18,.79-.93Zm-2.13-2.92l1,1.19,.21-.18-1.01-1.18s.03-.07,.05-.1h.74v-.27h-.74c-.06-.18-.22-.3-.42-.3-.24,0-.44,.19-.44,.44,0,.19,.12,.35,.29,.41v.92s.27,0,.27,0v-.91s.03,0,.04,0Zm1.08,6.09l-.13,.24c-.23-.15-.43-.33-.61-.54-.14,.04-.29,.02-.41-.08-.18-.16-.2-.43-.05-.61l.02-.02c-.11-.26-.19-.55-.21-.84h.27c.02,.26,.08,.5,.17,.72,.08-.01,.16,0,.23,.03l.68-.8,.21,.18-.68,.79c.09,.15,.09,.34-.02,.48,.15,.18,.32,.33,.52,.46Zm-1.4-2.3v-.67c-.18-.06-.3-.22-.3-.42s.13-.36,.31-.42v-.92s.27,0,.27,0v.93c.13,.04,.24,.15,.28,.28h.73v.27h-.73c-.04,.13-.14,.23-.27,.27v.68s-.27,0-.27,0Zm.39,1.47c.07-.08,.18-.09,.26-.02,.08,.07,.09,.18,.02,.26-.07,.08-.18,.09-.26,.02-.08-.07-.09-.18-.02-.26Zm-.34-.79l-.28-.07-.04-.75,.28-.1v.43c0,.17,.01,.32,.04,.48Zm.23-.93l.28,.07s.01,.48,0,.37c0-.13,.03,.38,.03,.38l-.28,.1c-.03-.15-.04-.31-.04-.47v-.45Zm.92,2.4c.23,.19,.51,.35,.8,.45l.06-.28c-.24-.08-.47-.2-.66-.35l-.2,.19Zm-.13,.25c.24,.19,.51,.34,.8,.45l-.21,.21c-.23-.09-.45-.21-.66-.36l.06-.3Zm.36-1.65l.27,.12,.49-.57-.16-.24-.59,.7Zm-.21-.18l-.16-.24,.49-.57,.27,.12-.59,.7Zm-1.27-1.66c0-.1,.08-.19,.19-.19s.19,.08,.19,.19-.08,.19-.19,.19-.19-.08-.19-.19Zm4.27,3.39l.13,.24c.23-.15,.43-.33,.61-.54,.14,.04,.29,.02,.41-.08,.18-.16,.2-.43,.05-.61l-.02-.02c.11-.26,.19-.55,.21-.84h-.27c-.02,.26-.08,.5-.17,.72-.08-.01-.16,0-.23,.03l-.68-.8-.21,.18,.68,.79c-.09,.15-.09,.34,.02,.48-.15,.18-.32,.33-.52,.46Zm1.4-2.3v-.67c.18-.06,.3-.22,.3-.42s-.13-.36-.31-.42v-.92s-.27,0-.27,0v.93c-.13,.04-.24,.15-.28,.28h-.73v.27h.73c.04,.13,.14,.23,.27,.27v.68s.27,0,.27,0Zm-.39,1.47c-.07-.08-.18-.09-.26-.02-.08,.07-.09,.18-.02,.26s.18,.09,.26,.02c.08-.07,.09-.18,.02-.26Zm.34-.79l.28-.07,.04-.75-.28-.1v.43c0,.17-.01,.32-.04,.48Zm-.23-.93l-.28,.07s-.01,.48,0,.37c0-.13-.03,.38-.03,.38l.28,.1c.03-.15,.04-.31,.04-.47v-.45Zm.28-3.53v.91h-.27v-.91s-.04-.02-.06-.03l-1,1.19-.21-.17,1.02-1.21s-.02-.04-.02-.05h-.74v-.27h.74c.06-.17,.22-.3,.41-.3,.24,0,.44,.19,.44,.44,0,.19-.13,.36-.3,.42Zm-2.66,0v.56h-.27v-.56c-.13-.04-.24-.15-.28-.28h-.66v-.27h.66c.06-.17,.22-.3,.41-.3s.36,.13,.41,.3h.67v.27h-.67c-.04,.13-.14,.23-.27,.28Zm1.47,5.93c-.23,.19-.51,.35-.8,.45l-.06-.28c.24-.08,.47-.2,.66-.35l.2,.19Zm.14,.25c-.24,.19-.51,.34-.8,.45l.21,.21c.23-.09,.45-.21,.66-.36l-.06-.3Zm-4.55-5.5l-.28,.08v.75l.28,.08v-.91Zm.27,0l.28,.08v.75l-.28,.08v-.91Zm5.07,0l-.28,.08v.75l.28,.08v-.91Zm.27,0l.28,.08v.75l-.28,.08v-.91Zm-1.42,3.85l-.27,.12-.49-.57,.16-.24,.59,.7Zm.21-.18l.16-.24-.49-.57-.27,.12,.59,.7Zm-3.02-3.52l.27-.12,.49,.57-.16,.24-.59-.7Zm-.21,.18l-.16,.24,.49,.57,.27-.12-.59-.7Zm3.06-.2l-.27-.12-.48,.58,.16,.24,.59-.7Zm.21,.17l.16,.24-.48,.57-.27-.12,.59-.7Zm-3.38,1.58l.08-.28h.75l.08,.28h-.91Zm0,.27l.08,.28h.75l.08-.28h-.91Zm-1.1-3.25c0-.1,.08-.19,.19-.19s.19,.08,.19,.19-.08,.19-.19,.19-.19-.08-.19-.19Zm2.01,.14l-.08,.28h-.75l-.08-.28h.91Zm0-.27l-.08-.28h-.75l-.08,.28h.91Zm3.33,3.24c0-.1,.08-.19,.19-.19s.19,.08,.19,.19-.08,.19-.19,.19-.19-.08-.19-.19Zm-.73-.13l-.08-.28h-.75l-.08,.28h.91Zm0,.27l-.08,.28h-.75l-.08-.28h.91Zm-1.93,3.83c0-.1,.08-.19,.19-.19s.19,.08,.19,.19-.08,.19-.19,.19-.19-.08-.19-.19Zm.32-1.36l.28-.08v-.75l-.28-.08v.91Zm-.27,0l-.28-.08v-.75l.28-.08v.91Zm2.61-5.72c0-.1,.08-.19,.19-.19s.19,.08,.19,.19-.08,.19-.19,.19-.19-.08-.19-.19Zm-2.68,0c0-.1,.08-.19,.19-.19s.19,.08,.19,.19-.08,.19-.19,.19-.19-.08-.19-.19Zm1.04,.14l.08,.28h.75l.08-.28h-.91Zm0-.27l.08-.28h.75l.08,.28h-.91Zm-.98,.88l-.28,.08v.75l.28,.08v-.91Zm.27,0l.28,.08v.75l-.28,.08v-.91Z"/>
    <path class="cls-38" d="M26.97,29.17c0-.24,.19-.44,.44-.44s.44,.19,.44,.44-.2,.44-.44,.44-.44-.19-.44-.44Z"/>
    <path class="cls-40" d="M23.84,32.98c.33,.11,.5,.37,.5,.67,0,.4-.37,.7-.84,.7s-.86-.3-.86-.7c0-.3,.16-.64,.49-.66,0,0-.01-.03-.04-.08-.03-.04-.1-.11-.1-.11,0,0,.13-.02,.2,0,.07,.03,.12,.08,.12,.08,0,0,.03-.07,.08-.13,.05-.06,.11-.09,.11-.09,0,0,.07,.07,.1,.11,.02,.04,.04,.1,.04,.1,0,0,.07-.06,.13-.08,.06-.02,.13-.04,.13-.04,0,0-.02,.08-.04,.12-.01,.04-.02,.12-.02,.12Z"/>
    <path class="cls-29" d="M23.43,34.79s-.63-.45-.91-.51c-.35-.08-.75-.01-.92-.02,0,0,.2,.16,.29,.25,.09,.09,.38,.28,.55,.32,.51,.14,.99-.03,.99-.03Z"/>
    <path class="cls-29" d="M23.32,35.19s.1-.26,.11-.48c0-.19-.02-.37-.02-.37h.13s.06,.19,.06,.37-.03,.4-.03,.4c0,0-.09,.01-.12,.03-.03,.01-.13,.05-.13,.05Z"/>
    <path class="cls-29" d="M23.61,34.83s.41-.45,.83-.51c.5-.07,.83,.04,1.03,.1,0,0-.16,.08-.25,.15-.09,.06-.31,.26-.66,.27-.35,0-.73-.04-.79-.03-.06,.01-.16,.02-.16,.02Z"/>
    <path class="cls-29" d="M23.48,34.28c-.16-.16-.26-.38-.26-.62s.1-.47,.26-.62c.16,.16,.26,.38,.26,.62s-.1,.47-.26,.62Z"/>
    <g>
      <line class="cls-25" x1="17.51" y1="19.89" x2="21.37" y2="19.89"/>
      <line class="cls-32" x1="17.79" y1="18.03" x2="18.89" y2="18.03"/>
      <line class="cls-32" x1="19.98" y1="18.03" x2="21.06" y2="18.03"/>
      <line class="cls-2" x1="18.84" y1="17.15" x2="20.06" y2="17.15"/>
      <polygon class="cls-17" points="21.7 23.55 17.17 23.55 17.17 22.35 17.81 22.35 17.81 19.89 17.52 19.89 17.52 18.79 18.01 18.79 18.01 18.03 17.8 18.03 17.8 17.46 17.99 17.46 17.99 17.63 18.21 17.63 18.21 17.46 18.46 17.46 18.46 17.63 18.68 17.63 18.68 17.46 18.88 17.46 18.88 18.03 18.65 18.03 18.65 18.79 19.11 18.79 19.11 17.15 18.83 17.15 18.83 16.5 19.03 16.5 19.03 16.66 19.3 16.66 19.3 16.5 19.6 16.5 19.6 16.66 19.85 16.66 19.85 16.5 20.05 16.5 20.05 17.15 19.75 17.15 19.75 18.79 20.19 18.79 20.19 18.03 19.97 18.03 19.97 17.46 20.17 17.46 20.17 17.63 20.39 17.63 20.39 17.46 20.64 17.46 20.64 17.63 20.86 17.63 20.86 17.46 21.06 17.46 21.06 18.03 20.84 18.03 20.84 18.79 21.37 18.79 21.37 19.89 21.04 19.89 21.04 22.35 21.7 22.35 21.7 23.55"/>
      <path class="cls-23" d="M18.07,20.7c0-.22,.17-.4,.39-.4s.4,.18,.4,.4v.68h-.78v-.68Z"/>
      <path class="cls-46" d="M18.26,20.71c0-.11,.09-.21,.2-.21s.2,.09,.2,.21v.48h-.4v-.48Z"/>
      <path class="cls-23" d="M20.01,20.7c0-.22,.17-.4,.39-.4s.4,.18,.4,.4v.68h-.79v-.68Z"/>
      <path class="cls-46" d="M20.2,20.71c0-.11,.09-.21,.19-.21s.2,.09,.2,.21v.48h-.39v-.48Z"/>
      <path class="cls-1" d="M19,22.81c0-.24,.19-.43,.43-.43s.43,.19,.43,.43v.74h-.86v-.74Z"/>
    </g>
    <path class="cls-8" d="M20.85,24.81c0-1.7,1.16-3.08,2.59-3.08s2.59,1.38,2.59,3.08-1.16,3.08-2.59,3.08-2.59-1.38-2.59-3.08Z"/>
    <path class="cls-40" d="M21.62,24.8c0-1.25,.82-2.26,1.82-2.26s1.82,1.01,1.82,2.26-.82,2.26-1.82,2.26-1.82-1.01-1.82-2.26Z"/>
    <g>
      <path class="cls-45" d="M22.58,23.25s-.22,.25-.22,.48,.09,.43,.09,.43c-.03-.09-.12-.16-.22-.16-.13,0-.24,.11-.24,.24,0,.04,.02,.1,.04,.13l.08,.17c.03-.06,.09-.1,.16-.1,.09,0,.17,.08,.17,.17,0,.01,0,.03,0,.04h-.19v.17h.17l-.13,.27,.17-.07,.13,.15,.13-.15,.17,.07-.13-.27h.17v-.17h-.19s0-.03,0-.04c0-.09,.08-.17,.17-.17,.07,0,.13,.03,.16,.1l.08-.17s.04-.09,.04-.13c0-.13-.11-.24-.24-.24-.1,0-.19,.07-.22,.16,0,0,.09-.19,.09-.43s-.22-.48-.22-.48Z"/>
      <rect class="cls-6" x="22.24" y="24.65" width=".69" height=".17"/>
    </g>
    <g>
      <path class="cls-45" d="M24.28,23.25s-.22,.25-.22,.48,.09,.43,.09,.43c-.03-.09-.12-.16-.22-.16-.13,0-.24,.11-.24,.24,0,.04,.02,.1,.04,.13l.08,.17c.03-.06,.09-.1,.16-.1,.09,0,.17,.08,.17,.17,0,.01,0,.03,0,.04h-.19v.17h.17l-.13,.27,.17-.07,.13,.15,.13-.15,.17,.07-.13-.27h.17v-.17h-.19s0-.03,0-.04c0-.09,.08-.17,.17-.17,.07,0,.13,.03,.16,.1l.08-.17s.04-.09,.04-.13c0-.13-.11-.24-.24-.24-.1,0-.19,.07-.22,.16,0,0,.09-.19,.09-.43s-.22-.48-.22-.48Z"/>
      <rect class="cls-6" x="23.93" y="24.65" width=".69" height=".17"/>
    </g>
    <g>
      <path class="cls-45" d="M23.43,24.79s-.22,.25-.22,.48,.09,.43,.09,.43c-.03-.09-.12-.16-.22-.16-.13,0-.24,.11-.24,.24,0,.04,.02,.1,.04,.13l.08,.17c.03-.06,.09-.1,.16-.1,.09,0,.17,.08,.17,.17,0,.01,0,.03,0,.04h-.19v.17h.17s-.13,.27-.13,.27l.17-.07,.13,.15,.13-.15,.17,.07-.13-.27h.17s0-.17,0-.17h-.19s0-.03,0-.04c0-.09,.08-.17,.17-.17,.07,0,.13,.03,.16,.1l.08-.17s.04-.09,.04-.13c0-.13-.11-.24-.24-.24-.1,0-.19,.07-.22,.16,0,0,.09-.19,.09-.43s-.22-.48-.22-.48Z"/>
      <rect class="cls-6" x="23.09" y="26.19" width=".69" height=".17"/>
    </g>
    <g>
      <path class="cls-40" d="M15.06,10.96c0-.1,.08-.17,.17-.17s.17,.08,.17,.17-.08,.17-.17,.17-.17-.08-.17-.17Z"/>
      <path class="cls-40" d="M14.83,10.51c0-.1,.08-.17,.17-.17s.17,.08,.17,.17-.08,.17-.17,.17-.17-.08-.17-.17Z"/>
      <path class="cls-40" d="M14.67,9.99c0-.1,.08-.17,.17-.17s.17,.08,.17,.17-.08,.17-.17,.17-.17-.08-.17-.17Z"/>
      <path class="cls-40" d="M14.65,9.44c0-.1,.08-.17,.17-.17s.17,.08,.17,.17-.08,.17-.17,.17-.17-.08-.17-.17Z"/>
      <path class="cls-40" d="M14.78,8.89c0-.1,.08-.17,.17-.17s.17,.08,.17,.17-.08,.17-.17,.17-.17-.08-.17-.17Z"/>
      <path class="cls-40" d="M15.04,8.4c0-.1,.08-.17,.17-.17s.17,.08,.17,.17-.08,.17-.17,.17-.17-.08-.17-.17Z"/>
      <path class="cls-40" d="M15.4,7.99c0-.1,.08-.17,.17-.17s.17,.08,.17,.17-.08,.17-.17,.17-.17-.08-.17-.17Z"/>
      <path class="cls-40" d="M15.82,7.65c0-.1,.08-.17,.17-.17s.17,.08,.17,.17-.08,.17-.17,.17-.17-.08-.17-.17Z"/>
      <path class="cls-40" d="M16.32,7.37c0-.1,.08-.17,.17-.17s.17,.08,.17,.17-.08,.17-.17,.17-.17-.08-.17-.17Z"/>
      <path class="cls-40" d="M16.83,7.18c0-.1,.08-.17,.17-.17s.17,.08,.17,.17-.08,.17-.17,.17-.17-.08-.17-.17Z"/>
      <path class="cls-40" d="M17.41,7.07c0-.1,.08-.17,.17-.17s.17,.08,.17,.17-.08,.17-.17,.17-.17-.08-.17-.17Z"/>
      <path class="cls-40" d="M17.96,7.04c0-.1,.08-.17,.17-.17s.17,.08,.17,.17-.08,.17-.17,.17-.17-.08-.17-.17Z"/>
      <path class="cls-40" d="M18.5,7.06c0-.1,.08-.17,.17-.17s.17,.08,.17,.17-.08,.17-.17,.17-.17-.08-.17-.17Z"/>
    </g>
    <g>
      <path class="cls-40" d="M19.03,7.06c0-.1,.08-.17,.17-.17s.17,.08,.17,.17-.08,.17-.17,.17-.17-.08-.17-.17Z"/>
      <path class="cls-40" d="M18.76,7.54c0-.1,.08-.17,.17-.17s.17,.08,.17,.17-.08,.17-.17,.17-.17-.08-.17-.17Z"/>
      <path class="cls-40" d="M18.65,8.08c0-.1,.08-.17,.17-.17s.17,.08,.17,.17-.08,.17-.17,.17-.17-.08-.17-.17Z"/>
      <path class="cls-40" d="M18.64,8.62c0-.1,.08-.17,.17-.17s.17,.08,.17,.17-.08,.17-.17,.17-.17-.08-.17-.17Z"/>
      <path class="cls-40" d="M18.79,9.1c0-.1,.08-.17,.17-.17s.17,.08,.17,.17-.08,.17-.17,.17-.17-.08-.17-.17Z"/>
      <path class="cls-40" d="M19.09,9.55c0-.1,.08-.17,.17-.17s.17,.08,.17,.17-.08,.17-.17,.17-.17-.08-.17-.17Z"/>
      <path class="cls-40" d="M19.44,6.72c0-.1,.08-.17,.17-.17s.17,.08,.17,.17-.08,.17-.17,.17-.17-.08-.17-.17Z"/>
      <path class="cls-40" d="M19.92,6.44c0-.1,.08-.17,.17-.17s.17,.08,.17,.17-.08,.17-.17,.17-.17-.08-.17-.17Z"/>
      <path class="cls-40" d="M20.44,6.27c0-.1,.08-.17,.17-.17s.17,.08,.17,.17-.08,.17-.17,.17-.17-.08-.17-.17Z"/>
      <path class="cls-40" d="M20.99,6.17c0-.1,.08-.17,.17-.17s.17,.08,.17,.17-.08,.17-.17,.17-.17-.08-.17-.17Z"/>
      <path class="cls-40" d="M21.53,6.18c0-.1,.08-.17,.17-.17s.17,.08,.17,.17-.08,.17-.17,.17-.17-.08-.17-.17Z"/>
      <path class="cls-40" d="M22.08,6.28c0-.1,.08-.17,.17-.17s.17,.08,.17,.17-.08,.17-.17,.17-.17-.08-.17-.17Z"/>
      <path class="cls-40" d="M22.6,6.47c0-.1,.08-.17,.17-.17s.17,.08,.17,.17-.08,.17-.17,.17-.17-.08-.17-.17Z"/>
    </g>
    <g>
      <path class="cls-40" d="M27.37,7.06c0-.1,.08-.17,.17-.17s.17,.08,.17,.17-.08,.17-.17,.17-.17-.08-.17-.17Z"/>
      <path class="cls-40" d="M27.64,7.54c0-.1,.08-.17,.17-.17s.17,.08,.17,.17-.08,.17-.17,.17-.17-.08-.17-.17Z"/>
      <path class="cls-40" d="M27.75,8.08c0-.1,.08-.17,.17-.17s.17,.08,.17,.17-.08,.17-.17,.17-.17-.08-.17-.17Z"/>
      <path class="cls-40" d="M27.77,8.62c0-.1,.08-.17,.17-.17s.17,.08,.17,.17-.08,.17-.17,.17-.17-.08-.17-.17Z"/>
      <path class="cls-40" d="M27.61,9.1c0-.1,.08-.17,.17-.17s.17,.08,.17,.17-.08,.17-.17,.17-.17-.08-.17-.17Z"/>
      <path class="cls-40" d="M27.32,9.55c0-.1,.08-.17,.17-.17s.17,.08,.17,.17-.08,.17-.17,.17-.17-.08-.17-.17Z"/>
      <path class="cls-40" d="M26.97,6.72c0-.1,.08-.17,.17-.17s.17,.08,.17,.17-.08,.17-.17,.17-.17-.08-.17-.17Z"/>
      <circle class="cls-13" cx="26.66" cy="6.44" r=".17"/>
      <path class="cls-40" d="M25.96,6.27c0-.1,.08-.17,.17-.17s.17,.08,.17,.17-.08,.17-.17,.17-.17-.08-.17-.17Z"/>
      <path class="cls-40" d="M25.42,6.17c0-.1,.08-.17,.17-.17s.17,.08,.17,.17-.08,.17-.17,.17-.17-.08-.17-.17Z"/>
      <path class="cls-40" d="M24.88,6.18c0-.1,.08-.17,.17-.17s.17,.08,.17,.17-.08,.17-.17,.17-.17-.08-.17-.17Z"/>
      <path class="cls-40" d="M24.32,6.28c0-.1,.08-.17,.17-.17s.17,.08,.17,.17-.08,.17-.17,.17-.17-.08-.17-.17Z"/>
      <path class="cls-40" d="M23.81,6.47c0-.1,.08-.17,.17-.17s.17,.08,.17,.17-.08,.17-.17,.17-.17-.08-.17-.17Z"/>
    </g>
    <g>
      <path class="cls-40" d="M31.34,10.96c0-.1,.08-.17,.17-.17s.17,.08,.17,.17-.08,.17-.17,.17-.17-.08-.17-.17Z"/>
      <path class="cls-40" d="M31.58,10.51c0-.1,.08-.17,.17-.17s.17,.08,.17,.17-.08,.17-.17,.17-.17-.08-.17-.17Z"/>
      <path class="cls-40" d="M31.74,9.99c0-.1,.08-.17,.17-.17s.17,.08,.17,.17-.08,.17-.17,.17-.17-.08-.17-.17Z"/>
      <path class="cls-40" d="M31.76,9.44c0-.1,.08-.17,.17-.17s.17,.08,.17,.17-.08,.17-.17,.17-.17-.08-.17-.17Z"/>
      <path class="cls-40" d="M31.63,8.89c0-.1,.08-.17,.17-.17s.17,.08,.17,.17-.08,.17-.17,.17-.17-.08-.17-.17Z"/>
      <path class="cls-40" d="M31.36,8.4c0-.1,.08-.17,.17-.17s.17,.08,.17,.17-.08,.17-.17,.17-.17-.08-.17-.17Z"/>
      <path class="cls-40" d="M31,7.99c0-.1,.08-.17,.17-.17s.17,.08,.17,.17-.08,.17-.17,.17-.17-.08-.17-.17Z"/>
      <path class="cls-40" d="M30.59,7.65c0-.1,.08-.17,.17-.17s.17,.08,.17,.17-.08,.17-.17,.17-.17-.08-.17-.17Z"/>
      <path class="cls-40" d="M30.09,7.37c0-.1,.08-.17,.17-.17s.17,.08,.17,.17-.08,.17-.17,.17-.17-.08-.17-.17Z"/>
      <path class="cls-40" d="M29.57,7.18c0-.1,.08-.17,.17-.17s.17,.08,.17,.17-.08,.17-.17,.17-.17-.08-.17-.17Z"/>
      <path class="cls-40" d="M29,7.07c0-.1,.08-.17,.17-.17s.17,.08,.17,.17-.08,.17-.17,.17-.17-.08-.17-.17Z"/>
      <path class="cls-40" d="M28.45,7.04c0-.1,.08-.17,.17-.17s.17,.08,.17,.17-.08,.17-.17,.17-.17-.08-.17-.17Z"/>
      <path class="cls-40" d="M27.91,7.06c0-.1,.08-.17,.17-.17s.17,.08,.17,.17-.08,.17-.17,.17-.17-.08-.17-.17Z"/>
    </g>
    <path class="cls-29" d="M10.31,14.92s-.08,0-.13-.03c-.05-.03-.18-.16-.18-.16l-.11-.08-.1-.14s-.12-.2-.06-.35c.05-.15,.14-.21,.23-.25,.08-.05,.24-.11,.24-.11,0,0,.14-.05,.19-.06,.05,0,.21-.05,.21-.05,0,0,.04-.03,.09-.05s.11-.02,.14-.03c.04,0,.13-.04,.18-.04,.08,0,.22,.02,.26,.02s.2,0,.26,0,.29-.02,.35-.02,.11,0,.18,0,.2,.05,.23,.07c.04,.02,.43,.1,.51,.12,.08,.03,.11,.07,.19,.11,.09,.05,.14,.12,.19,.18,.05,.06,.05,.13,.07,.18,.02,.05,.02,.14,0,.19-.02,.04-.08,.14-.08,.14l-.1,.17-.13,.11s-.09,.09-.16,.08-.8-.14-1.27-.14-1.22,.14-1.22,.14Z"/>
    <path class="cls-28" d="M11.31,13.83c0-.23,.1-.42,.22-.42s.22,.19,.22,.42-.1,.42-.22,.42-.22-.19-.22-.42Z"/>
    <path class="cls-35" d="M11.43,13.83c0-.21,.05-.39,.1-.39s.1,.17,.1,.39-.05,.39-.1,.39-.1-.17-.1-.39Z"/>
    <g>
      <path class="cls-46" d="M11.38,13.38c0-.08,.07-.15,.15-.15s.15,.07,.15,.15-.07,.15-.15,.15-.15-.07-.15-.15Z"/>
      <polygon class="cls-35" points="11.64 13.32 11.64 13.42 11.41 13.42 11.41 13.32 11.48 13.32 11.48 13.1 11.39 13.1 11.39 13.01 11.48 13.01 11.48 12.91 11.58 12.91 11.58 13.01 11.68 13.01 11.68 13.1 11.58 13.1 11.58 13.32 11.64 13.32"/>
      <g class="cls-55">
        <polygon class="cls-35" points="11.74 13.32 11.74 13.42 11.33 13.42 11.33 13.32 11.48 13.32 11.48 13.1 11.39 13.1 11.39 13.01 11.48 13.01 11.48 12.91 11.58 12.91 11.58 13.01 11.68 13.01 11.68 13.1 11.58 13.1 11.58 13.32 11.74 13.32"/>
      </g>
      <path class="cls-44" d="M11.38,13.38c0-.08,.07-.15,.15-.15s.15,.07,.15,.15-.07,.15-.15,.15-.15-.07-.15-.15Z"/>
      <path class="cls-44" d="M11.38,13.38c0-.08,.07-.15,.15-.15s.15,.07,.15,.15-.07,.15-.15,.15-.15-.07-.15-.15Z"/>
      <path class="cls-22" d="M11.58,13.23c.06,.02,.11,.07,.11,.14,0,.08-.07,.15-.15,.15s-.15-.07-.15-.15c0-.07,.05-.13,.11-.14"/>
    </g>
    <path class="cls-10" d="M11.53,14.9h-.77l-.02-.2-.04-.21-.04-.26c-.21-.29-.41-.49-.47-.45,.02-.05,.03-.1,.07-.12,.19-.12,.58,.17,.87,.63,.03,.04,.05,.08,.07,.13h.63s.05-.08,.07-.13c.29-.47,.68-.75,.87-.63,.04,.03,.06,.07,.07,.12-.07-.04-.26,.15-.47,.45l-.04,.26-.04,.21-.02,.2h-.77Z"/>
    <path class="cls-4" d="M10.24,13.78c.14-.09,.48,.19,.75,.63"/>
    <path class="cls-4" d="M12.83,13.78c-.14-.09-.48,.19-.75,.63"/>
    <path class="cls-10" d="M10.4,15.26c-.03-.1-.09-.18-.09-.18,.31-.1,.74-.16,1.22-.16,.48,0,.92,.06,1.23,.16,0,0-.03,.06-.08,.15-.03,.05-.06,.14-.06,.14-.28-.09-.64-.14-1.08-.14-.44,0-.87,.06-1.09,.14,0,0-.02-.05-.04-.11h0Z"/>
    <path class="cls-10" d="M11.53,15.68c.39,0,.81-.06,.97-.11,.11-.03,.17-.08,.16-.14,0-.03-.03-.05-.06-.06-.23-.08-.65-.13-1.07-.13-.42,0-.84,.06-1.07,.13-.03,.01-.05,.04-.06,.06-.01,.06,.05,.11,.16,.14,.16,.04,.59,.1,.97,.11Z"/>
    <path class="cls-45" d="M12.78,14.9l-.09-.09s-.09,.06-.2,.04-.15-.16-.15-.16c0,0-.13,.11-.23,.1-.1,0-.17-.1-.17-.1,0,0-.11,.09-.21,.08-.1,0-.19-.14-.19-.14,0,0-.1,.14-.2,.14-.1,0-.18-.09-.18-.09,0,0-.05,.1-.17,.12-.13,.02-.23-.1-.23-.1,0,0-.07,.12-.16,.15s-.2-.05-.2-.05c0,0-.02,.05-.03,.07-.01,.03-.05,.03-.05,.03l.03,.08c.31-.09,.73-.15,1.2-.15,.47,0,.9,.06,1.21,.15l.03-.09Z"/>
    <path class="cls-12" d="M11.53,14.46h.04s0,.05,0,.07c0,.1,.08,.18,.18,.18,.08,0,.15-.05,.17-.12,0,0,.02-.06,.02-.06,0,0,0,.07,0,.07,.01,.09,.09,.15,.18,.15,.1,0,.18-.08,.18-.18,0,0,0-.01,0-.02l.06-.06,.03,.07s-.02,.05-.02,.08c0,.09,.08,.17,.17,.17,.06,0,.11-.03,.14-.08l.04-.05v.06c0,.06,.02,.11,.08,.12,0,0,.06,0,.15-.06,.08-.07,.13-.13,.13-.13v.07s-.08,.14-.15,.19c-.04,.02-.1,.05-.15,.04-.05,0-.09-.05-.11-.1-.04,.02-.08,.04-.13,.04-.1,0-.19-.06-.23-.15-.05,.05-.11,.08-.19,.08-.08,0-.15-.04-.2-.1-.05,.04-.11,.07-.17,.07-.09,0-.17-.05-.21-.11-.04,.07-.12,.11-.21,.11-.07,0-.13-.03-.17-.07-.05,.06-.12,.1-.2,.1-.08,0-.14-.03-.19-.08-.04,.09-.13,.15-.23,.15-.05,0-.09-.01-.13-.04-.02,.05-.06,.09-.11,.1-.05,0-.11-.02-.15-.04-.07-.05-.16-.19-.16-.19v-.07s.06,.06,.14,.13c.08,.07,.15,.06,.15,.06,.05,0,.08-.06,.08-.12v-.06s.04,.05,.04,.05c.03,.05,.08,.08,.14,.08,.09,0,.17-.08,.17-.17,0-.03,0-.05-.02-.08l.03-.07,.06,.06s0,.01,0,.02c0,.1,.08,.18,.18,.18,.09,0,.16-.06,.18-.15,0,0,0-.07,0-.07,0,0,.02,.07,.02,.06,.02,.07,.09,.12,.17,.12,.1,0,.18-.08,.18-.18,0-.02,0-.04,0-.06h.05Z"/>
    <path class="cls-12" d="M11.53,14.92c-.48,0-.91,.06-1.22,.16-.02,0-.05,0-.05-.03,0-.02,0-.05,.03-.05,.31-.1,.75-.16,1.25-.17,.49,0,.94,.06,1.25,.17,.02,0,.04,.03,.03,.05,0,.02-.03,.04-.05,.03-.31-.1-.74-.16-1.22-.16Z"/>
    <path class="cls-12" d="M11.07,15.1s.03-.07,.07-.07,.07,.03,.07,.07-.03,.07-.07,.07-.07-.03-.07-.07Z"/>
    <path class="cls-27" d="M11.54,15.13h-.15s-.05-.02-.05-.05,.02-.05,.05-.05h.31s.05,.02,.05,.05-.02,.05-.05,.05h-.16Z"/>
    <path class="cls-27" d="M10.76,15.19l-.11,.02s-.06-.01-.06-.04c0-.03,.01-.05,.04-.06l.11-.02,.11-.02s.05,.01,.06,.04c0,.03-.02,.05-.04,.06l-.11,.02Z"/>
    <polygon class="cls-27" points="10.32 15.27 10.37 15.19 10.47 15.21 10.41 15.3 10.32 15.27"/>
    <path class="cls-12" d="M11.86,15.1s.03-.07,.07-.07,.07,.03,.07,.07-.03,.07-.07,.07-.07-.03-.07-.07Z"/>
    <path class="cls-27" d="M12.3,15.19l.11,.02s.06-.01,.06-.04c0-.03-.01-.05-.04-.06l-.11-.02-.11-.02s-.05,.01-.06,.04c0,.03,.02,.05,.04,.06l.11,.02Z"/>
    <polygon class="cls-27" points="12.74 15.27 12.7 15.18 12.59 15.19 12.64 15.29 12.74 15.27"/>
    <path class="cls-45" d="M11.53,15.58c-.39,0-.74-.04-1-.11,.27-.07,.62-.12,1-.12,.39,0,.74,.05,1.01,.12-.27,.07-.62,.11-1.01,.11Z"/>
    <path class="cls-46" d="M12.75,14.69s0-.06-.02-.07c-.02,0-.05,.01-.06,.04-.01,.03,0,.06,.02,.07,.02,0,.05-.01,.06-.04Z"/>
    <path class="cls-12" d="M11.98,14.54s-.01-.06-.03-.07c-.02,0-.04,.02-.05,.06,0,.03,.01,.06,.03,.06,.02,0,.04-.02,.05-.05Z"/>
    <path class="cls-12" d="M11.09,14.54s.01-.06,.03-.07c.02,0,.04,.02,.05,.06,0,.03-.01,.06-.03,.06-.02,0-.04-.02-.05-.05Z"/>
    <path class="cls-46" d="M10.31,14.69s0-.06,.02-.07c.02,0,.05,.01,.06,.04,.01,.03,0,.06-.02,.07s-.05-.01-.06-.04Z"/>
    <g>
      <polygon class="cls-12" points="11.53 14.07 11.39 14.15 11.5 14.39 11.53 14.41 11.57 14.39 11.67 14.15 11.53 14.07"/>
      <polygon class="cls-12" points="11.23 14.42 11.29 14.51 11.51 14.44 11.53 14.41 11.51 14.38 11.29 14.31 11.23 14.42"/>
      <polygon class="cls-12" points="11.83 14.42 11.77 14.51 11.56 14.44 11.53 14.41 11.56 14.38 11.77 14.31 11.83 14.42"/>
    </g>
    <g>
      <polygon class="cls-12" points="10.64 14.17 10.53 14.28 10.67 14.47 10.71 14.48 10.74 14.45 10.78 14.22 10.64 14.17"/>
      <polygon class="cls-12" points="10.42 14.55 10.5 14.63 10.69 14.52 10.71 14.49 10.68 14.46 10.46 14.44 10.42 14.55"/>
      <polygon class="cls-12" points="11 14.43 10.96 14.53 10.74 14.51 10.71 14.48 10.73 14.45 10.92 14.34 11 14.43"/>
    </g>
    <polygon class="cls-12" points="10.2 14.58 10.18 14.69 9.96 14.72 9.93 14.7 9.94 14.66 10.1 14.51 10.2 14.58"/>
    <path class="cls-12" d="M10.63,14.49s.03-.08,.08-.08,.08,.03,.08,.08-.03,.08-.08,.08-.08-.04-.08-.08Z"/>
    <g>
      <polygon class="cls-12" points="12.42 14.17 12.53 14.28 12.39 14.47 12.36 14.48 12.33 14.45 12.28 14.22 12.42 14.17"/>
      <polygon class="cls-12" points="12.65 14.55 12.57 14.63 12.37 14.52 12.36 14.49 12.39 14.46 12.61 14.44 12.65 14.55"/>
      <polygon class="cls-12" points="12.06 14.43 12.1 14.53 12.33 14.51 12.35 14.48 12.34 14.45 12.14 14.34 12.06 14.43"/>
    </g>
    <polygon class="cls-12" points="12.83 14.58 12.85 14.69 13.07 14.72 13.11 14.7 13.1 14.66 12.93 14.51 12.83 14.58"/>
    <path class="cls-12" d="M11.45,14.41s.03-.08,.08-.08,.08,.03,.08,.08-.03,.08-.08,.08-.08-.03-.08-.08Z"/>
    <path class="cls-12" d="M12.28,14.49s.04-.08,.08-.08,.08,.03,.08,.08-.03,.08-.08,.08-.08-.04-.08-.08Z"/>
    <path class="cls-42" d="M9.9,14.71s-.06-.08-.1-.12c-.03-.03-.11-.06-.11-.06,0-.01,.04-.05,.09-.05,.03,0,.06,.01,.07,.03v-.03s.05,0,.06,.06c.02,.05,0,.12,0,.12,0,0,0,.03-.02,.05Z"/>
    <path class="cls-12" d="M9.9,14.67s.06-.02,.09,0c.03,.03,.04,.06,.02,.08-.02,.02-.06,.02-.09,0-.03-.03-.04-.06-.02-.08Z"/>
    <path class="cls-42" d="M13.14,14.71s.06-.08,.1-.12c.03-.03,.11-.06,.11-.06,0-.01-.04-.05-.09-.05-.03,0-.06,.01-.07,.03v-.03s-.05,0-.06,.06c-.02,.05,0,.12,0,.12,0,0,0,.03,.02,.05Z"/>
    <path class="cls-12" d="M13.14,14.67s-.06-.02-.09,0c-.03,.03-.04,.06-.02,.08,.02,.02,.06,.02,.09,0,.03-.03,.04-.06,.02-.08Z"/>
    <rect class="cls-13" x="9.77" y="15.64" width="3.55" height=".98"/>
    <g>
      <path class="cls-18" d="M27.51,17.79v-.1s.02-.06,.02-.06c0,0-.26,.02-.39-.02-.13-.04-.26-.1-.38-.21-.13-.11-.18-.18-.27-.2-.22-.04-.38,.07-.38,.07,0,0,.16,.06,.28,.22,.12,.16,.25,.24,.31,.26,.09,.03,.42,0,.51,.01,.09,0,.29,.03,.29,.03Z"/>
      <path class="cls-18" d="M28.71,17.41s0,.12,.01,.24c.01,.11-.03,.21-.02,.27,.02,.06,.03,.11,.05,.16,.02,.05,.03,.16,.03,.16,0,0-.06-.05-.12-.09-.06-.05-.1-.07-.1-.07,0,0,.01,.12,.02,.17,0,.05,.03,.15,.08,.21,.05,.06,.14,.15,.17,.22,.03,.07,.02,.24,.02,.24,0,0-.07-.13-.14-.15-.06-.02-.2-.1-.2-.1,0,0,.13,.13,.13,.26s-.05,.27-.05,.27c0,0-.06-.12-.13-.19-.08-.08-.18-.15-.18-.15,0,0,.08,.2,.08,.33s-.02,.42-.02,.42c0,0-.06-.11-.13-.16-.06-.05-.14-.1-.16-.13s.07,.11,.09,.2c.01,.09,.05,.4,.31,.79,.15,.23,.38,.63,.88,.5,.5-.13,.31-.84,.21-1.16-.1-.33-.16-.69-.15-.82,0-.13,.09-.5,.08-.57-.01-.07-.04-.34,.02-.55,.06-.22,.12-.31,.15-.4,.03-.09,.06-.14,.07-.22,.01-.08,.01-.23,.01-.23,0,0,.09,.18,.12,.24,.02,.06,.02,.25,.02,.25,0,0,.02-.19,.16-.28,.14-.09,.3-.19,.34-.24,.04-.05,.05-.09,.05-.09,0,0-.01,.32-.1,.45-.06,.08-.28,.35-.28,.35,0,0,.12-.05,.2-.05,.08,0,.14,0,.14,0,0,0-.1,.08-.22,.28-.13,.2-.08,.21-.17,.37-.09,.16-.17,.17-.28,.27-.17,.15-.08,.73-.06,.82,.02,.09,.32,.8,.33,.97,0,.17,.03,.56-.25,.81-.19,.16-.49,.16-.56,.21-.07,.05-.21,.19-.21,.49s.1,.35,.18,.42c.08,.07,.18,.03,.21,.09s.03,.09,.07,.13c.03,.03,.06,.07,.05,.14-.01,.06-.14,.21-.19,.31-.05,.1-.14,.37-.14,.42s-.01,.17,.03,.23c0,0,.14,.18,.05,.21-.06,.02-.13-.04-.16-.03-.09,.02-.13,.08-.16,.08-.06-.01-.06-.04-.06-.13,0-.09,0-.12-.03-.12-.03,0-.05,.03-.06,.08,0,.05,0,.15-.05,.15s-.1-.08-.13-.09c-.03-.02-.13-.03-.14-.08,0-.05,.06-.14,.12-.16,.06-.02,.12-.05,.08-.09-.04-.03-.08-.03-.12,0-.04,.03-.13,0-.12-.05,0-.05,.02-.12,.01-.14,0-.03-.07-.09,.02-.14,.09-.05,.13,.05,.22,.03,.09-.02,.14-.05,.17-.11,.03-.06,.03-.18-.03-.25-.06-.07-.13-.09-.15-.13-.02-.05-.06-.16-.06-.16,0,0,.02,.2,0,.23-.01,.03,0,.15,0,.15,0,0-.06-.07-.11-.13-.05-.06-.1-.23-.1-.23,0,0,0,.16,0,.22s.07,.12,.05,.14c-.02,.02-.13-.12-.16-.14-.03-.02-.12-.1-.16-.18-.04-.08-.07-.2-.08-.24-.01-.04-.03-.22-.01-.27,.03-.07,.07-.19,.07-.19h-.22c-.12,0-.21-.04-.25,.05-.05,.09-.02,.26,.03,.48,.06,.22,.09,.33,.07,.37-.02,.04-.09,.13-.12,.15-.03,.02-.11,.01-.14,0-.03-.02-.09-.05-.2-.05s-.18,0-.22,0c-.04-.01-.14-.06-.18-.05-.05,.01-.13,.05-.1,.12,.03,.1-.03,.13-.08,.12-.05,0-.09-.02-.14-.04-.06-.02-.14,0-.13-.07,.01-.07,.03-.08,.06-.13,.03-.05,.04-.09,0-.09-.04,0-.08,0-.11,.02-.03,.03-.08,.09-.12,.06s-.07-.07-.07-.18-.11-.2,0-.2c.1,0,.23,.08,.25,.02,.02-.06,0-.09-.04-.13-.05-.05-.12-.07-.05-.13s.09-.06,.12-.09c.03-.03,.07-.13,.12-.11,.1,.05,0,.12,.1,.24,.1,.12,.16,.16,.33,.14,.17-.02,.21-.04,.21-.09s-.01-.14-.02-.18c0-.04,.02-.17,.02-.17,0,0-.08,.05-.1,.1-.02,.05-.07,.14-.07,.14,0,0-.02-.1-.01-.18,0-.05,.02-.13,.02-.15,0-.05-.04-.16-.04-.16,0,0-.03,.12-.05,.16-.02,.04-.03,.18-.03,.18,0,0-.11-.1-.08-.26,.02-.13-.02-.29,.02-.35,.04-.05,.12-.27,.33-.28,.21,0,.37,0,.44,0,.07,0,.33-.05,.33-.05,0,0-.47-.26-.58-.33-.11-.08-.28-.27-.33-.36-.05-.09-.1-.27-.1-.27,0,0-.09,0-.16,.05-.08,.05-.15,.11-.2,.17-.05,.05-.12,.18-.12,.18,0,0,.01-.16,.01-.21s0-.14,0-.14c0,0-.05,.22-.16,.3-.11,.08-.23,.19-.23,.19,0,0,.01-.12,.01-.15s.03-.17,.03-.17c0,0-.08,.12-.19,.14-.12,.02-.29,.02-.3,.09-.01,.08,.03,.18,0,.23s-.09,.09-.09,.09c0,0-.07-.06-.13-.06-.06,0-.11,.03-.11,.03,0,0-.05-.07-.03-.11,.02-.05,.11-.11,.09-.14-.02-.03-.09,0-.14,.03-.04,.02-.14,.05-.13-.03s.03-.12,0-.18c-.02-.05,0-.09,.03-.1,.04-.01,.18,0,.19-.03,.01-.04-.04-.08-.13-.1-.09-.02-.14-.08-.09-.13,.05-.05,.06-.06,.09-.11,.02-.05,.03-.13,.12-.09,.09,.04,.07,.14,.16,.17,.09,.03,.3-.01,.35-.04,.05-.03,.19-.14,.24-.17,.05-.03,.26-.19,.26-.19,0,0-.12-.09-.17-.14-.05-.05-.13-.15-.17-.18-.04-.02-.24-.1-.31-.11-.07,0-.27-.08-.27-.08,0,0,.09-.03,.13-.06,.03-.03,.1-.09,.14-.09,.04,0,.05,0,.05,0,0,0-.19,0-.23-.02-.04-.01-.16-.09-.2-.09s-.13,.02-.13,.02c0,0,.12-.08,.22-.1,.1-.02,.18-.01,.18-.01,0,0-.15-.05-.19-.1-.04-.05-.07-.14-.1-.17-.03-.04-.04-.09-.09-.1-.05,0-.13,.06-.18,.06-.05,0-.09-.04-.09-.11,0-.08,0-.05-.02-.09-.02-.04-.09-.14-.02-.16,.07-.02,.21,.01,.23-.01,.01-.03-.08-.11-.14-.14-.06-.03-.15-.09-.1-.13,.05-.05,.1-.06,.13-.1,.03-.04,.06-.15,.12-.12,.06,.04,.14,.21,.18,.2,.05-.01,.05-.14,.04-.19,0-.05,0-.15,.05-.14,.05,0,.08,.07,.15,.08,.07,0,.18-.02,.17,.04,0,.05-.05,.12-.1,.18-.05,.06-.07,.18-.04,.25,.03,.08,.11,.2,.18,.25,.07,.05,.21,.09,.29,.14,.09,.06,.28,.23,.35,.24,.07,.02,.14,.05,.14,.05,0,0,.08-.04,.18-.04s.34,.02,.43-.02c.09-.04,.21-.11,.17-.19-.04-.09-.23-.16-.22-.23,.02-.07,.09-.07,.21-.08,.12,0,.29,.02,.32-.16,.03-.18,.04-.28-.13-.32-.17-.04-.3-.05-.33-.18-.03-.13-.06-.16-.03-.2s.1-.05,.23-.06c.13,0,.27,0,.31-.04,.04-.03,.05-.12,.1-.15,.05-.04,.24-.07,.24-.07,0,0,.23,.12,.45,.29,.19,.15,.37,.38,.37,.38Z"/>
      <path class="cls-27" d="M27.05,17.28s-.03-.08-.03-.1c0-.02-.02-.05-.02-.05,0,0,.14,0,.14,.05,0,.05-.05,.05-.05,.06,0,.02-.03,.05-.03,.05Z"/>
      <path class="cls-20" d="M27.69,17.04v-.07s.11,0,.17,.05c.09,.07,.15,.17,.14,.18-.02,.02-.09-.05-.14-.06,0,0-.04,0-.07,0s-.05-.02-.06-.04c0-.02,0-.05,0-.05h-.05Z"/>
      <path class="cls-4" d="M28.56,18.06s-.05-.08-.07-.11c-.01-.03-.04-.08-.04-.08"/>
      <path class="cls-18" d="M25.27,17.25s.08,.06,.14,.07c.06,0,.12,0,.13,0s.03-.09,.02-.15c-.03-.2-.21-.25-.21-.25,0,0,.05,.12,.03,.18-.04,.08-.1,.14-.1,.14Z"/>
      <path class="cls-18" d="M24.9,17.43s-.07-.13-.21-.11-.24,.14-.24,.14c0,0,.16,0,.2,.02,.06,.04,.08,.14,.08,.14,0,0,.09-.05,.11-.09,.03-.04,.06-.1,.06-.1Z"/>
      <path class="cls-18" d="M24.73,17.95s-.12,.02-.19,.1c-.07,.08-.06,.23-.06,.23,0,0,.08-.09,.15-.09s.18,.03,.18,.03c0,0-.04-.09-.04-.14s-.05-.14-.05-.14Z"/>
      <polygon class="cls-27" points="27.05 17.94 27.11 17.85 27.16 17.93 27.05 17.94"/>
      <polygon class="cls-27" points="27.18 17.93 27.25 17.84 27.31 17.92 27.18 17.93"/>
      <polygon class="cls-27" points="27.12 17.38 27.25 17.43 27.14 17.49 27.12 17.38"/>
      <polygon class="cls-27" points="27.28 17.42 27.4 17.45 27.3 17.53 27.28 17.42"/>
      <path class="cls-9" d="M26.4,18.48s-.13,.04-.18,.11c-.06,.09-.05,.18-.05,.18,0,0,.11-.09,.25-.05,.14,.04,.15,.05,.21,.05,.06,0,.2-.06,.2-.06,0,0-.12,.14-.1,.24,.01,.1,.03,.14,.03,.19,0,.12-.09,.27-.09,.27,0,0,.05-.03,.17-.06,.12-.03,.22-.09,.28-.14,.06-.05,.14-.17,.14-.17,0,0-.03,.17,0,.24,.03,.07,.04,.28,.04,.28,0,0,.08-.07,.14-.1,.03-.02,.11-.06,.14-.12,.02-.04,.05-.18,.05-.18,0,0,.02,.15,.06,.23,.05,.07,.11,.29,.11,.29,0,0,.05-.14,.09-.2,.05-.06,.11-.14,.11-.18,0-.05-.01-.14-.01-.14l.06,.14"/>
      <path class="cls-22" d="M26.23,19.41s.08-.14,.15-.18c.07-.05,.17-.13,.2-.14,.03,0,.14-.08,.14-.08"/>
      <path class="cls-22" d="M26.88,19.88s.17-.09,.23-.13c.11-.07,.18-.19,.18-.19"/>
      <path class="cls-18" d="M25.14,19.66s-.07-.08-.18-.05c-.12,.02-.19,.16-.19,.16,0,0,.1-.03,.16-.01,.06,.01,.1,.08,.1,.08,0,0,.05-.05,.07-.08,.02-.03,.05-.09,.05-.09Z"/>
      <path class="cls-18" d="M25,20.16s-.1-.02-.18,.05c-.09,.07-.09,.21-.09,.21,0,0,.08-.07,.14-.06,.06,0,.14,.05,.14,.05,0,0,.01-.09,.02-.11,.01-.06-.03-.14-.03-.14Z"/>
      <path class="cls-18" d="M25.23,20.62s0,.13,.05,.22c.06,.09,.18,.1,.18,.1,0,0-.04-.09-.05-.14,0-.07,.05-.13,.05-.13,0,0-.06-.06-.12-.06s-.13,0-.13,0Z"/>
      <path class="cls-9" d="M27.89,20.84s.32,.21,.32,.39c0,.18-.18,.41-.18,.41"/>
      <path class="cls-18" d="M26.4,21.8s-.08-.11-.19-.1c-.11,0-.23,.12-.23,.12,0,0,.14-.01,.18,.04,.04,.05,.07,.11,.07,.11,0,0,.06-.04,.09-.06,.03-.02,.09-.1,.09-.1Z"/>
      <path class="cls-18" d="M26.06,22.27s-.15-.02-.22,.06c-.07,.08-.07,.23-.07,.23,0,0,.09-.1,.17-.09,.08,0,.17,.05,.17,.05,0,0-.01-.09-.02-.13s-.03-.12-.03-.12Z"/>
      <path class="cls-18" d="M26.38,22.77s-.07,.11-.02,.19c.05,.09,.17,.13,.17,.13,0,0-.04-.06-.02-.14,.01-.06,.11-.14,.11-.14l-.23-.05Z"/>
      <path class="cls-18" d="M28.35,22.98s-.13-.03-.2,.01c-.07,.04-.13,.23-.13,.23,0,0,.12-.1,.2-.09,.09,.01,.15,.05,.15,.05,0,0,.01-.08,0-.13,0-.03-.02-.08-.02-.08Z"/>
      <path class="cls-18" d="M28.42,23.48s-.1,.11-.06,.2c.04,.09,.1,.18,.1,.18,0,0,0-.13,.04-.17,.06-.05,.17-.06,.17-.06,0,0-.09-.08-.11-.09-.03,0-.13-.06-.13-.06Z"/>
      <path class="cls-18" d="M28.91,23.64s-.05,.13,.05,.22c.09,.09,.18,.09,.18,.09,0,0-.07-.14-.05-.21,.02-.08,.09-.12,.09-.12,0,0-.12-.04-.14-.04-.02,0-.12,.05-.12,.05Z"/>
      <path class="cls-27" d="M28.61,16.68h-.05s-.02,.04-.04,.06c-.04,.04-.1,.05-.14,.01-.02-.02-.03-.04-.02-.07-.03,.01-.06,.01-.08,0-.04-.03-.05-.09-.02-.14,0,0,.01-.02,.02-.03v-.05s-.06,.01-.06,.01l-.02,.03s-.09,.05-.11,.03c-.01-.01-.02-.04-.02-.04,0,0-.01,.01-.03,.02-.09,.02-.12-.18-.12-.23l-.03,.04s.03,.12,.01,.22c-.01,.1-.05,.2-.05,.2,.12,.03,.3,.14,.47,.28,.18,.14,.32,.3,.37,.41,0,0,.09-.05,.19-.09,.1-.03,.22-.03,.22-.03l.03-.04c-.05,0-.25,.02-.25-.07,0-.01,.01-.03,.01-.03,0,0-.03,0-.05-.01-.03-.02-.03-.07,0-.11l.03-.02v-.06s-.05,0-.05,0c0,0-.02,.02-.03,.02-.04,.04-.1,.04-.14,0-.02-.02-.03-.05-.02-.08-.02,0-.05,0-.07,0-.04-.03-.05-.09-.02-.14,.01-.02,.04-.05,.05-.05v-.05Z"/>
      <path class="cls-20" d="M28.26,16.8s.02,0,.04,0c.01,.01,.02,.03,0,.04s-.02,0-.04,0c-.01-.01-.02-.03,0-.04Z"/>
      <path class="cls-20" d="M28.41,16.93l-.05-.04s-.01-.02,0-.03c0,0,.02,0,.03,0l.05,.04,.05,.04s.01,.02,0,.03c0,0-.02,0-.03,0l-.05-.04Z"/>
      <path class="cls-20" d="M28.13,16.73l-.04-.03s-.02-.02-.01-.03c0,0,.02-.01,.03,0l.04,.03,.04,.03s.02,.02,.01,.03c0,0-.02,.01-.03,0l-.04-.03Z"/>
      <path class="cls-20" d="M27.96,16.61s.02,0,.04,0c.01,.01,.02,.03,0,.04,0,0-.02,0-.04,0-.01,0-.02-.03,0-.04Z"/>
      <path class="cls-20" d="M28.57,17.06s0-.03,0-.04c-.01-.01-.03-.01-.04,0s0,.03,0,.04c.01,0,.03,.01,.04,0Z"/>
      <path class="cls-20" d="M28.67,17.17l.03,.03s.02,.01,.03,0c0,0,0-.02,0-.03l-.03-.03-.03-.04s-.02-.01-.03,0c0,0,0,.02,0,.03l.03,.04Z"/>
      <path class="cls-20" d="M28.82,17.3s0-.03,0-.04c-.01-.01-.03-.01-.04,0s0,.03,0,.04c.01,.01,.03,.01,.04,0Z"/>
      <g>
        <polygon class="cls-27" points="28.38 16.29 28.28 16.29 28.27 16.44 28.28 16.46 28.3 16.46 28.42 16.37 28.38 16.29"/>
        <polygon class="cls-27" points="28.12 16.37 28.12 16.46 28.27 16.48 28.29 16.47 28.29 16.44 28.2 16.32 28.12 16.37"/>
        <polygon class="cls-27" points="28.43 16.55 28.35 16.6 28.26 16.48 28.26 16.45 28.28 16.44 28.43 16.46 28.43 16.55"/>
        <path class="cls-27" d="M28.24,16.44s.04-.03,.06-.02c.02,.01,.03,.04,.02,.06-.01,.02-.04,.03-.06,.02-.02-.01-.03-.04-.02-.06Z"/>
      </g>
      <g>
        <path class="cls-30" d="M27.89,16.29s-.02-.08-.04-.12c-.01-.03-.06-.07-.06-.07,0-.01,.07-.03,.14,.02,.06,.05,0,.15,0,.15,0,0-.02,.02-.03,.03Z"/>
        <g>
          <polygon class="cls-27" points="28.06 16.34 27.99 16.4 27.88 16.3 27.89 16.29 27.9 16.26 28.04 16.25 28.06 16.34"/>
          <path class="cls-27" d="M27.87,16.28s.03-.04,.05-.03c.02,0,.02,.03,.02,.05,0,.02-.03,.04-.05,.03-.02,0-.02-.03-.02-.06Z"/>
        </g>
      </g>
      <g>
        <polygon class="cls-27" points="28.74 16.53 28.65 16.52 28.61 16.66 28.61 16.68 28.64 16.68 28.77 16.62 28.74 16.53"/>
        <polygon class="cls-27" points="28.47 16.57 28.46 16.66 28.6 16.7 28.63 16.69 28.63 16.67 28.56 16.54 28.47 16.57"/>
        <polygon class="cls-27" points="28.75 16.79 28.67 16.83 28.6 16.7 28.6 16.67 28.62 16.66 28.77 16.7 28.75 16.79"/>
        <path class="cls-27" d="M28.58,16.66s.04-.02,.06,0,.02,.04,0,.06c-.02,.02-.04,.02-.06,0-.02-.02-.02-.04,0-.06Z"/>
      </g>
      <g>
        <polygon class="cls-27" points="29.05 16.84 29.07 16.93 28.93 16.98 28.91 16.97 28.9 16.95 28.96 16.81 29.05 16.84"/>
        <polygon class="cls-27" points="29.03 17.1 28.94 17.12 28.89 16.98 28.9 16.96 28.92 16.96 29.06 17.02 29.03 17.1"/>
        <polygon class="cls-27" points="28.79 16.84 28.76 16.93 28.9 16.99 28.92 16.99 28.92 16.96 28.88 16.82 28.79 16.84"/>
        <path class="cls-27" d="M28.94,17.01s.02-.05,0-.06c-.02-.02-.05-.02-.06,0-.02,.02-.02,.05,0,.06,.02,.02,.05,.02,.06,0Z"/>
      </g>
      <g>
        <path class="cls-30" d="M29.16,17.31s.08,0,.13,.01c.03,0,.08,.05,.08,.05,0,0,.02-.07-.04-.13-.06-.05-.14,.04-.14,.04,0,0-.02,.02-.02,.04Z"/>
        <g>
          <polygon class="cls-27" points="29.07 17.16 29.02 17.24 29.15 17.32 29.16 17.31 29.18 17.3 29.16 17.16 29.07 17.16"/>
          <path class="cls-27" d="M29.17,17.33s.03-.04,.02-.05c0-.02-.03-.02-.06,0-.02,.01-.03,.04-.02,.05,0,.02,.03,.02,.06,0Z"/>
        </g>
      </g>
    </g>
    <path class="cls-10" d="M34.17,15.26c-.03-.1-.09-.18-.09-.18,.31-.1,.74-.16,1.22-.16,.48,0,.92,.06,1.22,.16,0,0-.03,.06-.08,.15-.03,.05-.06,.14-.06,.14-.28-.09-.64-.14-1.08-.14-.44,0-.87,.06-1.09,.14,0,0-.02-.05-.04-.11h0Z"/>
    <path class="cls-10" d="M35.3,15.68c.39,0,.81-.06,.97-.11,.11-.03,.17-.08,.16-.14,0-.03-.03-.05-.06-.06-.23-.08-.65-.13-1.07-.13-.42,0-.84,.06-1.07,.13-.03,.01-.05,.04-.06,.06-.01,.06,.05,.11,.16,.14,.16,.04,.59,.1,.97,.11Z"/>
    <path class="cls-3" d="M36.96,14.54c.02-.06,.04-.12,.04-.18,0-.27-.2-.48-.45-.48-.08,0-.15,.02-.22,.06"/>
    <path class="cls-3" d="M36.15,14.2s.04-.1,.04-.15c0-.19-.19-.35-.42-.35-.1,0-.19,.03-.26,.08"/>
    <path class="cls-27" d="M36.55,14.9l-.09-.09s-.09,.06-.2,.04-.15-.16-.15-.16c0,0-.13,.11-.23,.1-.1,0-.17-.1-.17-.1,0,0-.11,.09-.21,.08-.1,0-.19-.14-.19-.14,0,0-.1,.14-.2,.14-.1,0-.18-.09-.18-.09,0,0-.04,.1-.17,.12-.13,.02-.23-.1-.23-.1,0,0-.07,.12-.16,.15s-.2-.05-.2-.05c0,0-.02,.05-.03,.07-.01,.03-.05,.03-.05,.03l.03,.08c.31-.09,.73-.15,1.2-.15,.47,0,.9,.06,1.21,.15l.03-.09Z"/>
    <circle class="cls-24" cx="34.28" cy="14.05" r=".07"/>
    <circle class="cls-24" cx="34.32" cy="13.8" r=".07"/>
    <circle class="cls-24" cx="34.5" cy="13.64" r=".07"/>
    <circle class="cls-24" cx="34.73" cy="13.57" r=".07"/>
    <path class="cls-34" d="M34.89,13.58s.03-.07,.07-.07,.07,.03,.07,.07-.03,.07-.07,.07-.07-.03-.07-.07Z"/>
    <path class="cls-3" d="M33.64,14.54c-.02-.06-.03-.12-.03-.18,0-.27,.2-.48,.45-.48,.08,0,.15,.02,.22,.06"/>
    <path class="cls-3" d="M34.45,14.2s-.04-.09-.04-.14c0-.19,.19-.35,.42-.35,.1,0,.19,.03,.26,.08"/>
    <circle class="cls-24" cx="33.51" cy="14.32" r=".07"/>
    <circle class="cls-24" cx="33.53" cy="14.06" r=".07"/>
    <circle class="cls-24" cx="33.7" cy="13.86" r=".07"/>
    <path class="cls-34" d="M33.84,13.75s.03-.07,.07-.07,.07,.03,.07,.07-.03,.07-.07,.07-.07-.03-.07-.07Z"/>
    <circle class="cls-24" cx="34.14" cy="13.76" r=".07"/>
    <path class="cls-12" d="M35.31,14.46h.04s0,.05,0,.07c0,.1,.08,.18,.18,.18,.08,0,.15-.05,.17-.12,0,0,.02-.06,.02-.06,0,0,0,.07,0,.07,.01,.09,.09,.15,.18,.15,.1,0,.18-.08,.18-.18,0,0,0-.01,0-.02l.06-.06,.03,.07s-.02,.05-.02,.08c0,.09,.08,.17,.17,.17,.06,0,.11-.03,.14-.08l.04-.05v.06c0,.06,.02,.11,.08,.12,0,0,.06,0,.15-.06,.08-.07,.13-.13,.13-.13v.07s-.08,.14-.15,.19c-.04,.02-.1,.05-.15,.04-.05,0-.09-.05-.11-.1-.04,.02-.08,.04-.13,.04-.1,0-.19-.06-.23-.15-.05,.05-.11,.08-.19,.08-.08,0-.15-.04-.2-.1-.05,.04-.11,.07-.17,.07-.09,0-.17-.05-.21-.11-.05,.07-.12,.11-.21,.11-.07,0-.13-.03-.17-.07-.05,.06-.12,.1-.2,.1-.08,0-.14-.03-.19-.08-.04,.09-.13,.15-.23,.15-.05,0-.09-.01-.13-.04-.02,.05-.06,.09-.11,.1-.05,0-.11-.02-.15-.04-.07-.05-.16-.19-.16-.19v-.07s.06,.06,.14,.13c.08,.07,.15,.06,.15,.06,.05,0,.08-.06,.08-.12v-.06s.04,.05,.04,.05c.03,.05,.08,.08,.14,.08,.09,0,.17-.08,.17-.17,0-.03,0-.05-.02-.08l.03-.07,.06,.06s0,.01,0,.02c0,.1,.08,.18,.18,.18,.09,0,.16-.06,.18-.15,0,0,0-.07,0-.07,0,0,.02,.07,.02,.06,.02,.07,.09,.12,.17,.12,.1,0,.18-.08,.18-.18,0-.02,0-.04,0-.06h.05Z"/>
    <path class="cls-12" d="M35.3,14.92c-.48,0-.91,.06-1.22,.16-.02,0-.05,0-.05-.03,0-.02,0-.05,.03-.05,.31-.1,.75-.16,1.25-.17,.49,0,.94,.06,1.25,.17,.02,0,.04,.03,.03,.05,0,.02-.03,.04-.05,.03-.31-.1-.74-.16-1.22-.16Z"/>
    <path class="cls-12" d="M34.84,15.1s.03-.07,.07-.07,.07,.03,.07,.07-.03,.07-.07,.07-.07-.03-.07-.07Z"/>
    <path class="cls-27" d="M35.31,15.13h-.15s-.05-.02-.05-.05,.02-.05,.05-.05h.31s.05,.02,.05,.05-.02,.05-.05,.05h-.16Z"/>
    <path class="cls-27" d="M34.53,15.19l-.11,.02s-.06-.01-.06-.04c0-.03,.01-.05,.04-.06l.11-.02,.11-.02s.05,.01,.06,.04c0,.03-.02,.05-.04,.06l-.11,.02Z"/>
    <polygon class="cls-27" points="34.09 15.27 34.14 15.19 34.24 15.21 34.18 15.3 34.09 15.27"/>
    <path class="cls-12" d="M35.63,15.1s.03-.07,.07-.07,.07,.03,.07,.07-.03,.07-.07,.07-.07-.03-.07-.07Z"/>
    <path class="cls-27" d="M36.07,15.19l.11,.02s.06-.01,.06-.04c0-.03-.01-.05-.04-.06l-.11-.02-.11-.02s-.05,.01-.06,.04c0,.03,.02,.05,.04,.06l.11,.02Z"/>
    <polygon class="cls-27" points="36.51 15.27 36.47 15.18 36.36 15.19 36.41 15.29 36.51 15.27"/>
    <path class="cls-45" d="M35.3,15.58c-.39,0-.74-.04-1.01-.11,.27-.07,.62-.12,1.01-.12,.39,0,.74,.05,1.01,.12-.27,.07-.62,.11-1.01,.11Z"/>
    <path class="cls-11" d="M36.52,14.69s0-.06-.02-.07c-.02,0-.05,.01-.06,.04-.01,.03,0,.06,.02,.07,.02,0,.05-.01,.06-.04Z"/>
    <path class="cls-11" d="M35.75,14.54s-.01-.06-.03-.07c-.02,0-.04,.02-.05,.06,0,.03,.01,.06,.03,.06,.02,0,.04-.02,.05-.05Z"/>
    <path class="cls-11" d="M34.86,14.54s.01-.06,.03-.07c.02,0,.04,.02,.05,.06,0,.03-.01,.06-.03,.06-.02,0-.04-.02-.05-.05Z"/>
    <path class="cls-11" d="M34.08,14.69s0-.06,.02-.07c.02,0,.05,.01,.06,.04,.01,.03,0,.06-.02,.07-.02,0-.05-.01-.06-.04Z"/>
    <g>
      <polygon class="cls-12" points="34.41 14.17 34.31 14.28 34.44 14.47 34.48 14.48 34.51 14.45 34.55 14.22 34.41 14.17"/>
      <polygon class="cls-12" points="34.19 14.55 34.27 14.63 34.46 14.52 34.48 14.49 34.45 14.46 34.23 14.44 34.19 14.55"/>
      <polygon class="cls-12" points="34.78 14.43 34.73 14.53 34.51 14.51 34.48 14.48 34.5 14.45 34.69 14.34 34.78 14.43"/>
    </g>
    <path class="cls-46" d="M35.16,13.53c0-.08,.07-.15,.15-.15s.15,.07,.15,.15-.07,.15-.15,.15-.15-.07-.15-.15Z"/>
    <polygon class="cls-35" points="35.41 13.48 35.41 13.57 35.18 13.57 35.18 13.48 35.25 13.48 35.25 13.26 35.16 13.26 35.16 13.16 35.25 13.16 35.25 13.06 35.35 13.06 35.35 13.16 35.45 13.16 35.45 13.26 35.35 13.26 35.35 13.48 35.41 13.48"/>
    <g class="cls-54">
      <polygon class="cls-35" points="35.51 13.48 35.51 13.57 35.11 13.57 35.11 13.48 35.25 13.48 35.25 13.26 35.16 13.26 35.16 13.16 35.25 13.16 35.25 13.06 35.35 13.06 35.35 13.16 35.45 13.16 35.45 13.26 35.35 13.26 35.35 13.48 35.51 13.48"/>
    </g>
    <path class="cls-44" d="M35.16,13.53c0-.08,.07-.15,.15-.15s.15,.07,.15,.15-.07,.15-.15,.15-.15-.07-.15-.15Z"/>
    <path class="cls-44" d="M35.16,13.53c0-.08,.07-.15,.15-.15s.15,.07,.15,.15-.07,.15-.15,.15-.15-.07-.15-.15Z"/>
    <path class="cls-22" d="M35.35,13.39c.06,.02,.11,.07,.11,.14,0,.08-.07,.15-.15,.15s-.15-.07-.15-.15c0-.07,.05-.13,.11-.14"/>
    <g>
      <polygon class="cls-12" points="35.3 14.07 35.17 14.15 35.27 14.39 35.3 14.41 35.34 14.39 35.44 14.15 35.3 14.07"/>
      <polygon class="cls-12" points="35 14.42 35.06 14.51 35.28 14.44 35.3 14.41 35.28 14.38 35.06 14.31 35 14.42"/>
      <polygon class="cls-12" points="35.6 14.42 35.54 14.51 35.33 14.44 35.3 14.41 35.33 14.38 35.54 14.31 35.6 14.42"/>
    </g>
    <polygon class="cls-12" points="33.97 14.58 33.95 14.69 33.73 14.72 33.7 14.7 33.71 14.66 33.87 14.51 33.97 14.58"/>
    <g>
      <polygon class="cls-12" points="36.19 14.17 36.3 14.28 36.16 14.47 36.13 14.48 36.1 14.45 36.05 14.22 36.19 14.17"/>
      <polygon class="cls-12" points="36.42 14.55 36.34 14.63 36.14 14.52 36.13 14.49 36.16 14.46 36.38 14.44 36.42 14.55"/>
      <polygon class="cls-12" points="35.83 14.43 35.87 14.53 36.1 14.51 36.13 14.48 36.11 14.45 35.91 14.34 35.83 14.43"/>
    </g>
    <polygon class="cls-12" points="36.6 14.58 36.62 14.69 36.85 14.72 36.88 14.7 36.87 14.66 36.7 14.51 36.6 14.58"/>
    <path class="cls-12" d="M35.22,14.41s.03-.08,.08-.08,.08,.03,.08,.08-.03,.08-.08,.08-.08-.03-.08-.08Z"/>
    <path class="cls-42" d="M33.67,14.71s-.06-.08-.1-.12c-.03-.03-.11-.06-.11-.06,0-.01,.04-.05,.09-.05,.03,0,.06,.01,.07,.03v-.03s.05,0,.06,.06c.02,.05,0,.12,0,.12,0,0,0,.03-.02,.05Z"/>
    <path class="cls-30" d="M36.91,14.71s.06-.08,.1-.12c.03-.03,.11-.06,.11-.06,0-.01-.04-.05-.09-.05-.03,0-.05,.01-.07,.03v-.03s-.05,0-.06,.06,0,.12,0,.12c0,0,0,.03,.02,.05Z"/>
    <circle class="cls-24" cx="36.31" cy="14.05" r=".07"/>
    <circle class="cls-24" cx="36.27" cy="13.8" r=".07"/>
    <circle class="cls-24" cx="36.09" cy="13.64" r=".07"/>
    <circle class="cls-24" cx="35.87" cy="13.57" r=".07"/>
    <circle class="cls-24" cx="35.64" cy="13.58" r=".07"/>
    <circle class="cls-24" cx="37.09" cy="14.32" r=".07"/>
    <circle class="cls-24" cx="37.06" cy="14.06" r=".07"/>
    <path class="cls-34" d="M36.83,13.86s.03-.07,.07-.07,.07,.03,.07,.07-.03,.07-.07,.07-.07-.03-.07-.07Z"/>
    <path class="cls-34" d="M36.61,13.75s.03-.07,.07-.07,.07,.03,.07,.07-.03,.07-.07,.07-.07-.03-.07-.07Z"/>
    <path class="cls-34" d="M36.38,13.76s.03-.07,.07-.07,.07,.03,.07,.07-.03,.07-.07,.07-.07-.03-.07-.07Z"/>
    <path class="cls-12" d="M36.05,14.49s.04-.08,.08-.08,.08,.03,.08,.08-.03,.08-.08,.08-.08-.04-.08-.08Z"/>
    <path class="cls-26" d="M34.4,14.49s.03-.08,.08-.08,.08,.03,.08,.08-.03,.08-.08,.08-.08-.04-.08-.08Z"/>
    <path class="cls-12" d="M33.67,14.67s.06-.02,.09,0c.03,.03,.04,.06,.02,.08-.02,.02-.06,.02-.09,0-.03-.03-.04-.06-.02-.08Z"/>
    <path class="cls-12" d="M36.91,14.67s-.06-.02-.09,0c-.03,.03-.04,.06-.02,.08,.02,.02,.06,.02,.09,0,.03-.03,.04-.06,.02-.08Z"/>
    <g>
      <path class="cls-40" d="M36.7,17.28s-.04-.01-.07-.01h-2.66s-.05,0-.07,.01c.09-.03,.16-.12,.16-.22s-.07-.19-.16-.23c.02,0,.05,.01,.08,.01h2.66s.05,0,.07,0h-.01c-.1,.03-.15,.12-.15,.22s.06,.19,.16,.22Z"/>
      <path class="cls-40" d="M33.82,17.4c0-.07,.07-.13,.16-.13h2.66c.09,0,.16,.06,.16,.13h0c0,.07-.07,.13-.16,.13h-2.66c-.09,0-.16-.06-.16-.13h0Z"/>
      <path class="cls-40" d="M33.81,16.74c0-.06,.07-.11,.16-.11h2.66c.09,0,.16,.05,.16,.11h0c0,.06-.07,.11-.16,.11h-2.66c-.09,0-.16-.05-.16-.11h0Z"/>
      <rect class="cls-13" x="33.53" y="15.64" width="3.55" height=".98"/>
    </g>
  </g>
</svg>