<svg width="151" height="34" viewBox="0 0 151 34" fill="none" xmlns="http://www.w3.org/2000/svg">
<path d="M122.425 12.8415V17.1275H108.752V15.9202C108.752 14.0488 109.053 12.8113 111.257 12.8113H122.425V12.8415ZM110.412 10.1853C106.82 10.1853 105.16 12.0869 105.16 15.1656V23.7981H108.752V19.8138H122.425V23.7679H126.017V10.1853H110.412ZM130.454 10.1853V12.8415H138.905V23.7679H142.497V12.8415H150.948V10.1853H130.454ZM82.0996 18.5461C82.0996 20.4477 82.492 21.1419 84.6048 21.1419H99.606V23.7981H83.7597C80.1678 23.7981 78.4776 22.1682 78.4776 19.1196V10.1853H99.5758V12.8415H82.0694V15.4976H98.8514V18.1085H82.0694V18.5612L82.0996 18.5461ZM56.3832 14.9241C55.2664 14.8336 55.0853 14.4412 55.0853 13.7771C55.0853 13.1735 55.4173 12.8113 56.2625 12.8113H72.8332V10.1853H55.8399C53.4252 10.1853 51.7651 11.121 51.7651 13.8073C51.7651 16.4937 53.0027 17.4293 55.7795 17.6708L69.2112 18.7876C70.2375 18.8782 70.5393 19.2102 70.5393 19.9648C70.5393 20.659 70.2375 21.1117 69.3018 21.1117H52.4292V23.7679H69.5734C72.5314 23.7679 73.8293 22.5907 73.8293 19.8138C73.8293 17.2784 72.6521 16.2522 69.7847 16.0107L56.3832 14.9241Z" fill="#191919" fill-opacity="0.6"/>
<path d="M0.0610352 12.3289C0.0912187 11.0913 0.181769 8.10317 0.242136 6.35253C0.332687 4.08876 0.785439 2.73051 1.72113 1.88537C3.01902 0.738394 4.49801 0.466742 8.08985 0.285641C16.3903 -0.167112 24.8417 -0.106745 35.4361 0.647843C36.5529 0.738394 36.9453 0.919495 37.1868 1.07041C37.6697 1.40243 37.6999 1.76463 37.8508 3.63601C37.9112 4.72262 38.0621 7.59005 38.1526 9.1596C34.5004 8.9785 28.3128 8.64648 22.91 8.58611C17.5071 8.52574 12.6476 8.61629 12.0741 8.70684C10.8969 8.85776 10.3536 9.40107 10.2027 9.64253L38.2432 14.8341V18.9089L0.0610352 12.3289Z" fill="#191919" fill-opacity="0.6"/>
<path d="M0.0301836 14.3213L38.1218 21.4295C38.0916 22.4557 38.0011 25.7458 37.9407 27.6473C37.8501 29.9111 37.3974 31.2693 36.4617 32.1145C35.1638 33.2614 33.6848 33.5331 30.093 33.7142C21.7925 34.167 13.3411 34.1066 2.7467 33.352C1.62991 33.2614 1.23752 33.0803 0.996056 32.9294C0.51312 32.5974 0.482936 32.2352 0.332019 30.3638C0.241468 29.0961 0.060367 25.3835 0 24.1762C4.91991 24.4931 12.4658 24.7497 18.6232 24.7497C20.1626 24.7497 24.177 24.8101 25.2636 24.8101C26.1087 24.8101 27.2255 24.5686 27.799 23.6933L0.0301836 18.9243V14.3213Z" fill="#191919" fill-opacity="0.6"/>
</svg>
