<?xml version="1.0" encoding="utf-8"?>
<!-- Generator: Adobe Illustrator 27.0.1, SVG Export Plug-In . SVG Version: 6.00 Build 0)  -->
<svg version="1.1" id="Endesa_Logo_Primary_CMYK" xmlns="http://www.w3.org/2000/svg" xmlns:xlink="http://www.w3.org/1999/xlink"
	 x="0px" y="0px" viewBox="0 0 498.7 104.4" style="enable-background:new 0 0 498.7 104.4;" xml:space="preserve">
<style type="text/css">
	.st0{fill:#020202;}
</style>
<g>
	<path class="st0" d="M408.8,69.9l-0.2-1.1l-6.5-2.4l-3.3,8.9l3.3-8.9l-38.5-14.2l0,0c1.1-6.9,8.3-14.7,16.5-14.7
		c15.4,0,16.9,13.5,16.9,13.5l11.7-2.9c0,0-3.9-22.2-28.6-22.4v0c-0.1,0-0.1,0-0.2,0c-16.7,0-27.9,14.2-27.9,27.6
		c0,3.2,0.3,7.1,0.3,7.1l7.3,2.7l0,0L398,77.4l0,0c0,8.5-8,15.2-17.6,15.2c-0.2,0-0.4,0-0.5,0c-14.3-0.3-16.2-14.2-16.2-14.2
		l-11.6,3.1c0,0,4,22.2,27.6,22.8v0c0.1,0,0.1,0,0.2,0c0.1,0,0.1,0,0.2,0v0c0.2,0,0.4,0,0.6,0c17.9,0,28.7-14.6,28.7-28.7
		C409.3,72.6,409.1,71.6,408.8,69.9L408.8,69.9z"/>
	<path class="st0" d="M328.9,37c-7.1-7-16.8-11.2-27.5-11.2v0c0,0-0.1,0-0.1,0c-0.1,0-0.1,0-0.2,0l0,0c-10.7,0.1-20.4,4.5-27.4,11.5
		l0,0c0,0-0.1,0.1-0.1,0.1c0,0.1-0.1,0.1-0.2,0.1l0,0c-7,7.1-11.3,16.8-11.3,27.5h0c0,0,0,0.1,0,0.1c0,0.1,0,0.1,0,0.2l0,0
		c0.1,10.7,4.5,20.4,11.5,27.4l0,0c0.1,0.1,0.2,0.1,0.2,0.2c0,0,0,0,0,0l0,0c7.1,7,16.8,11.3,27.5,11.2v0c0,0,0.1,0,0.1,0
		c0.1,0,0.1,0,0.2,0l0,0c12.6-0.1,23.7-6.1,30.8-15.4l-9.3-7.1l0,0c-5,6.6-13,10.8-21.9,10.8c0,0,0,0,0,0c-7.5,0-14.3-3-19.3-7.9
		l0,0c-5.1-5-8.2-12-8.2-19.7h0c0-7.6,3.1-14.4,8-19.4c5-5,11.9-8.1,19.5-8.1v0c7.6,0,14.5,3.1,19.5,8.1l0,0c3.5,3.5,6,7.8,7.3,12.7
		h-29V70h41V58.3C338.7,50,334.7,42.7,328.9,37L328.9,37z"/>
	<rect x="89.8" y="29" class="st0" width="11.7" height="41"/>
	<path class="st0" d="M66.8,37c-7.1-7-16.8-11.2-27.5-11.2v0c0,0-0.1,0-0.1,0c-0.1,0-0.1,0-0.2,0l0,0c-10.7,0.1-20.4,4.5-27.4,11.5
		l0,0c-0.1,0.1-0.1,0.2-0.2,0.2c0,0,0,0,0,0l0,0C4.3,44.6,0,54.4,0,65.1h0c0,0,0,0.1,0,0.1c0,0.1,0,0.1,0,0.2l0,0
		c0.1,10.7,4.5,20.4,11.5,27.4l0,0c0,0,0.1,0.1,0.1,0.1c0.1,0.1,0.1,0.1,0.1,0.2l0,0c7.1,7,16.8,11.3,27.5,11.3v0c0,0,0.1,0,0.1,0
		c0.1,0,0.1,0,0.2,0l0,0c12.6-0.1,23.7-6.1,30.8-15.4l-9.3-7.1v0c-5,6.6-13,10.8-21.9,10.8c0,0,0,0,0,0c-7.6,0-14.4-3.1-19.4-8
		c-5-5-8.1-11.9-8.1-19.5h0c0-7.5,3-14.3,7.9-19.3l0,0c5-5.1,12-8.2,19.7-8.2v0c7.6,0,14.5,3.1,19.5,8.1l0,0c3.5,3.5,6,7.8,7.3,12.7
		H37V70h41V58.3C76.6,50,72.6,42.7,66.8,37L66.8,37z"/>
	<path class="st0" d="M128,25.8L128,25.8c-0.1,0-0.2,0-0.3,0v0c-10.2,0-19.4,4.1-26.1,10.7v23.8c1.8-9.4,10.1-22.8,26.1-22.8
		c0.3,0,0.5,0,0.8,0c11.1,0.4,20.1,9.3,20.1,20.7v3.9v41h11.7v-41v0v-3.9C160.2,40.3,145.8,26,128,25.8z"/>
	<path class="st0" d="M238.7,36.9C238.7,36.9,238.7,36.8,238.7,36.9L238.7,36.9c-7.1-7-16.8-11.1-27.6-11.1v0c0,0-0.1,0-0.1,0
		c-0.1,0-0.1,0-0.2,0l0,0c-10.7,0.1-20.4,4.5-27.4,11.5l0,0c0,0-0.1,0.1-0.1,0.1c-0.1,0.1-0.1,0.1-0.2,0.1l0,0
		c-7,7.1-11.3,16.8-11.3,27.5h0c0,0,0,0.1,0,0.1c0,0.1,0,0.1,0,0.2l0,0c0.1,10.7,4.5,20.4,11.5,27.4l0,0c0.1,0.1,0.2,0.1,0.2,0.2
		c0,0,0,0,0,0l0,0c7.1,7,16.9,11.3,27.6,11.2v0c0,0,0.1,0,0.1,0c0,0,0.1,0,0.1,0l0,0c8,0,15.5-2.5,21.7-6.7l-6.5-9.7
		c-4.4,3-9.7,4.7-15.4,4.7c0,0-0.1,0-0.1,0c-7.5,0-14.3-3-19.3-7.9l0,0c-5.1-5-8.2-12-8.2-19.7h0c0-7.6,3.1-14.4,8-19.4
		c5-5,11.9-8.1,19.5-8.1v0c7.6,0,14.5,3,19.5,8l0,0c3.5,3.5,6,7.8,7.3,12.7c0.1,0.3,0.5,2,0.5,2.5c0,0.1,0,0.1,0.1,0.6
		c0,0.3,0.1,0.6,0.1,0.8v0.1v41h11.7v-41V0h-11.7V36.9z"/>
	<path class="st0" d="M487,27.5v9.4c-7.1-6.8-16.9-11.1-27.5-11.1c-0.1,0-0.2,0-0.3,0l0,0c-10.7,0.1-20.4,4.5-27.4,11.5l0,0
		c-0.1,0.1-0.1,0.2-0.2,0.2c0,0,0,0,0,0l0,0c-7,7.1-11.3,16.8-11.3,27.5h0c0,0,0,0.1,0,0.1c0,0.1,0,0.1,0,0.2l0,0
		c0.1,10.7,4.5,20.4,11.5,27.4l0,0c0,0,0.1,0.1,0.1,0.1c0.1,0.1,0.1,0.1,0.1,0.2l0,0c7.1,7,16.9,11.3,27.6,11.3v0c0,0,0.1,0,0.1,0
		c0,0,0.1,0,0.1,0l0,0c8-0.1,15.4-2.5,21.6-6.7l-6.5-9.7c-4.4,3-9.7,4.7-15.4,4.7c0,0-0.1,0-0.1,0c-7.6,0-14.4-3.1-19.4-8
		c-5-5-8.1-11.9-8.1-19.5h0c0-7.5,3-14.3,7.9-19.3l0,0c5-5.1,12-8.2,19.7-8.2v0v0c0,0,0,0,0,0c7.6,0,14.5,3.1,19.5,8
		c4.3,4.3,7.3,10.1,8,16.6v0.1v41h11.7v-41V27.5H487z"/>
</g>
</svg>
