<svg width="344" height="165" viewBox="0 0 344 165" fill="none" xmlns="http://www.w3.org/2000/svg">
<rect y="14" width="344" height="137" fill="#191919"/>
<path d="M83.1526 30.0075L78.6343 26.9421L73.0464 60.8042L77.5647 63.8695L79.8799 49.8393L110.565 70.6568L111.522 64.8552L80.8373 44.0377L83.1526 30.0075Z" fill="white"/>
<path d="M133.78 127.966L121.028 87.382L117.429 92.0315L122.878 109.376L109.582 126.55L104.133 109.206L100.533 113.856L113.285 154.44L116.884 149.79L111.219 131.759L124.515 114.585L130.18 132.615L133.78 127.966Z" fill="white"/>
<path d="M129.471 56.0758C136.144 47.2053 141.823 49.7773 144.26 57.3131C146.697 64.849 145.595 76.4352 138.922 85.3057C132.25 94.1761 126.534 91.6521 124.097 84.1163C121.661 76.5804 122.798 64.9462 129.471 56.0758ZM127.625 50.3668C119.077 61.7306 117.565 78.2697 120.851 88.4316C124.137 98.5936 132.22 102.378 140.768 91.0147C149.317 79.6509 150.792 63.1598 147.506 52.9978C144.22 42.8358 136.173 39.0031 127.625 50.3668Z" fill="white"/>
<path d="M145.805 67.7926C148.463 76.0135 153.758 78.0351 159.782 70.0278L176.626 47.6359L174.817 42.0411L158.081 64.2891C154.185 69.4675 150.933 69.1383 149.087 63.4293C147.259 57.7774 148.371 51.4843 152.266 46.3059L169.002 24.0578L167.211 18.5201L150.367 40.912C144.344 48.9194 143.147 59.5717 145.805 67.7926Z" fill="white"/>
<path d="M259.674 72.8819L240.013 66.032L238.295 86.2993L243.281 88.0365L244.528 73.3292C248.644 75.0094 254.701 80.6281 253.9 90.0743C253.257 97.6671 247.379 103.005 236.727 99.2942C226.075 95.583 221.548 86.3732 222.191 78.7804C222.748 72.204 226.568 68.4262 232.51 68.5266L230.808 62.4555C223.348 62.3799 217.872 67.7967 217.092 77.0037C216.205 87.4662 222.622 100.535 236.221 105.273C249.819 110.011 258.026 102.652 258.928 92.0106C259.531 84.8961 256.578 79.1279 253.562 76.169L259.273 77.605L259.674 72.8819Z" fill="white"/>
<path d="M283.081 100.443L242.91 86.4467L242.413 92.3057L259.581 98.2871L257.747 119.93L240.579 113.948L240.083 119.807L280.254 133.803L280.751 127.944L262.903 121.726L264.737 100.084L282.585 106.302L283.081 100.443Z" fill="white"/>
<path d="M293.006 64.8267L292.771 59.3718L258.978 65.3663L259.214 70.8212L273.215 68.3375L274.813 105.383L280.603 104.356L279.005 67.3104L293.006 64.8267Z" fill="white"/>
<path d="M280.305 133.471C281.821 128.435 282.568 119.648 278.141 111.13C274.516 104.155 269.123 104.106 266.3 110.138C263.604 115.898 263.918 123.318 266.153 129.891L268.388 136.463C269.971 141.059 269.82 145.313 268.523 148.085C266.946 151.454 264.321 151.67 261.609 146.452C258.649 140.756 258.956 133.807 260.771 129.142L257.408 125.767C255.198 131.948 254.642 142.238 259.373 151.342C263.551 159.381 268.696 158.951 271.493 152.974C274.011 147.594 274.067 140.059 271.464 132.364L269.116 125.47C267.786 121.569 267.92 117.8 269.217 115.028C270.896 111.442 273.796 111.65 276.009 115.91C278.748 121.18 278.158 127.273 277.082 130.471L280.305 133.471Z" fill="white"/>
</svg>
