<svg width="1352" height="283" viewBox="0 0 1352 283" fill="none" xmlns="http://www.w3.org/2000/svg">
<rect y="27" width="1352" height="256" fill="#191919"/>
<path d="M262.746 74.163L257.568 72.4305L246.678 104.977L251.856 106.709L256.368 93.2243L291.532 104.99L293.397 99.4138L258.233 87.6482L262.746 74.163Z" fill="white"/>
<path d="M426.595 226.393L403.739 190.515L398.78 193.674L408.548 209.007L390.229 220.677L380.461 205.345L375.502 208.504L398.359 244.382L403.318 241.222L393.163 225.282L411.481 213.612L421.636 229.552L426.595 226.393Z" fill="white"/>
<path d="M562.185 61.1978C571.468 55.1117 580.264 58.2413 584.606 64.8647C588.949 71.4881 588.312 80.8024 579.029 86.8885C569.746 92.9745 560.9 89.8778 556.557 83.2544C552.215 76.6311 552.902 67.2838 562.185 61.1978ZM558.895 56.18C547.003 63.9768 546.186 77.2837 552.041 86.2152C557.897 95.1468 570.427 99.7029 582.319 91.9062C594.21 84.1095 594.978 70.8354 589.122 61.9039C583.267 52.9724 570.787 48.3833 558.895 56.18Z" fill="white"/>
<path d="M652.724 50.2004C657.461 57.4259 665.629 60.0348 674.008 54.5409L697.441 39.1777L694.217 34.2604L670.935 49.5249C665.516 53.0778 660.58 52.2244 657.29 47.2067C654.033 42.2392 655.153 37.272 660.572 33.719L683.854 18.4546L680.663 13.5874L657.23 28.9505C648.851 34.4444 647.986 42.9749 652.724 50.2004Z" fill="white"/>
<path d="M850.177 153.121L829.658 149.595L826.213 169.641L831.417 170.535L833.917 155.989C838.193 156.967 844.237 161.476 842.631 170.819C841.341 178.329 834.622 184.48 823.505 182.569C812.388 180.659 808.267 172.402 809.557 164.892C810.675 158.387 815.066 154.089 821.423 153.233L820.08 147.584C812.095 148.708 805.8 154.871 804.235 163.977C802.457 174.326 808.297 186.044 822.489 188.483C836.681 190.921 846.055 182.426 847.864 171.9C849.073 164.863 846.366 159.711 843.37 157.309L849.375 157.792L850.177 153.121Z" fill="white"/>
<path d="M942.718 203.366L900.792 196.162L899.796 201.957L917.714 205.036L914.035 226.442L896.118 223.363L895.122 229.158L937.048 236.362L938.044 230.567L919.417 227.367L923.095 205.96L941.722 209.161L942.718 203.366Z" fill="white"/>
<path d="M1049.36 112.883L1048.89 107.444L1014.7 110.435L1015.17 115.874L1029.34 114.635L1032.57 151.574L1038.43 151.061L1035.2 114.122L1049.36 112.883Z" fill="white"/>
<path d="M1092.84 197.227C1095.32 193.215 1096.62 186.263 1089.66 179.655C1083.96 174.245 1075.34 174.343 1070.76 179.174C1066.38 183.787 1066.79 189.633 1070.28 194.762L1073.76 199.891C1076.23 203.476 1075.94 206.837 1073.83 209.057C1071.27 211.755 1067.08 211.992 1062.81 207.945C1058.16 203.525 1058.73 198.035 1061.69 194.308L1056.36 191.731C1052.76 196.664 1051.74 204.797 1059.18 211.859C1065.75 218.096 1073.97 217.626 1078.52 212.839C1082.61 208.53 1082.79 202.583 1078.73 196.578L1075.06 191.199C1072.99 188.155 1073.25 185.178 1075.36 182.958C1078.08 180.086 1082.71 180.177 1086.19 183.481C1090.5 187.569 1089.48 192.392 1087.72 194.942L1092.84 197.227Z" fill="white"/>
</svg>
