<svg height="45" viewBox="0 0 192 45" fill="none" xmlns="http://www.w3.org/2000/svg">
<path d="M156.192 38.9863L179.98 6.8296V2.63808H149.647V7.35353H173.12L149.333 39.7067V43.7018H180.609V38.9863H156.192ZM123.343 38.9863L147.13 6.8296V2.63808H116.798V7.35353H140.271L116.483 39.7067V43.7018H147.76V38.9863H123.343ZM95.6536 8.92535H95.9053L103.079 27.1322H88.5425L95.6536 8.92535ZM93.0105 2.63808L76.9634 43.6363H82.2495L86.9063 31.5857H104.841L109.624 43.6363H115.351L98.9889 2.63808H93.0105ZM46.8828 43.6363V24.84H69.5376V43.6363H74.9496V2.63808H69.5376V20.19H46.8828V2.63808H41.4709V43.6363H46.8828ZM0 23.1372C0 35.7772 8.43262 44.4222 19.3195 44.4222C30.584 44.4222 36.9399 37.218 37.6951 26.6738L32.4719 26.4118C32.0314 33.9434 27.4375 39.6412 19.3195 39.6412C11.3274 39.6412 5.53784 33.2885 5.53784 23.2027C5.53784 13.1169 11.2645 6.76411 19.3195 6.76411C27.4375 6.76411 32.0314 12.3964 32.4719 19.9935L37.6951 19.7316C36.9399 9.18731 30.584 1.98316 19.3195 1.98316C8.43262 1.85217 0 10.4972 0 23.1372Z" fill="#191919"/>
<path d="M191.245 4.99577C191.245 7.15702 189.671 8.72884 187.721 8.72884C185.77 8.72884 184.197 7.15702 184.197 4.99577C184.197 2.83453 185.77 1.26272 187.721 1.26272C189.671 1.19723 191.245 2.76903 191.245 4.99577ZM192 4.99577C192 2.37608 190.049 0.476807 187.721 0.476807C185.392 0.476807 183.441 2.37608 183.441 4.99577C183.441 7.54997 185.392 9.44926 187.721 9.44926C190.112 9.44926 192 7.54997 192 4.99577ZM186.903 4.7993V3.42396H187.847C188.476 3.42396 188.728 3.68593 188.728 4.14438C188.728 4.60283 188.413 4.8648 187.847 4.8648H186.903V4.7993ZM189.797 7.22251C189.609 7.02603 189.609 6.82956 189.546 6.10915C189.483 5.58521 189.231 5.25775 188.728 5.12676C189.294 5.06127 189.734 4.60281 189.734 3.94789C189.734 3.09649 189.168 2.50707 188.035 2.50707H185.959V7.15703H186.965V5.51972H187.909C188.413 5.51972 188.602 5.71618 188.665 6.24012C188.728 6.76406 188.79 7.02604 188.853 7.15703H189.797V7.22251Z" fill="#191919"/>
</svg>
