<svg width="106" height="106" viewBox="0 0 106 106" fill="none" xmlns="http://www.w3.org/2000/svg">
  <circle cx="53" cy="53" r="53" fill="#FFAFC4"/>
  <path d="M38.4727 54.952V47.704H40.2487C42.1047 47.704 43.6407 48.872 43.6407 51.336C43.6407 53.8 42.0887 54.952 40.2327 54.952H38.4727ZM40.3127 57C43.5447 57 45.9287 54.92 45.9287 51.336C45.9287 47.752 43.5607 45.656 40.3287 45.656H36.2647V57H40.3127ZM52.4828 49.096C52.3228 49.08 52.1628 49.064 51.9868 49.064C51.3148 49.064 50.2268 49.256 49.7468 50.296V49.128H47.6828V57H49.8108V53.4C49.8108 51.704 50.7548 51.176 51.8428 51.176C52.0348 51.176 52.2428 51.192 52.4828 51.24V49.096ZM53.5465 54.856C53.5465 56.088 54.5705 57.224 56.2505 57.224C57.4185 57.224 58.1705 56.68 58.5705 56.056C58.5705 56.36 58.6025 56.792 58.6505 57H60.6025C60.5545 56.728 60.5065 56.168 60.5065 55.752V51.88C60.5065 50.296 59.5785 48.888 57.0825 48.888C54.9705 48.888 53.8345 50.248 53.7065 51.48L55.5945 51.88C55.6585 51.192 56.1705 50.6 57.0985 50.6C57.9945 50.6 58.4265 51.064 58.4265 51.624C58.4265 51.896 58.2825 52.12 57.8345 52.184L55.8985 52.472C54.5865 52.664 53.5465 53.448 53.5465 54.856ZM56.6985 55.64C56.0105 55.64 55.6745 55.192 55.6745 54.728C55.6745 54.12 56.1065 53.816 56.6505 53.736L58.4265 53.464V53.816C58.4265 55.208 57.5945 55.64 56.6985 55.64ZM62.0603 57.432C62.2843 58.936 63.7243 60.28 65.8843 60.28C68.8443 60.28 70.0123 58.312 70.0123 56.152V49.128H67.9643V50.056C67.6923 49.528 66.9723 48.984 65.7243 48.984C63.5643 48.984 62.0603 50.744 62.0603 52.824C62.0603 55.032 63.6283 56.648 65.7243 56.648C66.8603 56.648 67.5963 56.152 67.9163 55.64V56.216C67.9163 57.736 67.1643 58.408 65.8203 58.408C64.8123 58.408 64.1243 57.784 63.9803 56.92L62.0603 57.432ZM66.0923 54.824C64.9883 54.824 64.2043 54.056 64.2043 52.824C64.2043 51.608 65.0363 50.84 66.0923 50.84C67.1163 50.84 67.9483 51.608 67.9483 52.824C67.9483 54.04 67.1803 54.824 66.0923 54.824Z" fill="#191919"/>
</svg>