<svg viewBox="0 0 156 26" fill="none" xmlns="http://www.w3.org/2000/svg">
  <path d="M111.997 2.54288C111.997 3.75903 111.076 4.64352 109.933 4.64352C108.791 4.64352 107.869 3.75903 107.869 2.54288C107.869 1.32672 108.791 0.442244 109.933 0.442244C111.076 0.405391 111.997 1.28986 111.997 2.54288ZM112.439 2.54288C112.439 1.06874 111.297 0 109.933 0C108.57 0 107.427 1.06874 107.427 2.54288C107.427 3.98015 108.57 5.04891 109.933 5.04891C111.334 5.04891 112.439 3.98015 112.439 2.54288ZM109.454 2.43232V1.6584H110.007C110.376 1.6584 110.523 1.80581 110.523 2.06379C110.523 2.32176 110.339 2.46918 110.007 2.46918H109.454V2.43232ZM111.149 3.79589C111.039 3.68533 111.039 3.57477 111.002 3.16939C110.965 2.87456 110.818 2.69029 110.523 2.61659C110.855 2.57973 111.113 2.32175 111.113 1.95322C111.113 1.47413 110.781 1.14245 110.118 1.14245H108.901V3.75904H109.491V2.83771H110.044C110.339 2.83771 110.449 2.94826 110.486 3.24309C110.523 3.53791 110.56 3.68533 110.597 3.75904H111.149V3.79589Z" fill="#FFFFFF"/>
  <path d="M91.4699 21.6697L105.4 3.57478V1.21616H87.6371V3.8696H101.383L87.4529 22.0751V24.3232H105.769V21.6697H91.4699ZM72.2325 21.6697L86.163 3.57478V1.21616H68.3997V3.8696H82.146L68.2154 22.0751V24.3232H86.5315V21.6697H72.2325ZM56.017 4.75408H56.1644L60.3657 14.9993H51.8526L56.017 4.75408ZM54.4692 1.21616L45.0716 24.2863H48.1673L50.8944 17.5053H61.3976L64.1984 24.2863H67.5521L57.9702 1.21616H54.4692ZM27.4557 24.2863V13.7094H40.7229V24.2863H43.8923V1.21616H40.7229V11.0929H27.4557V1.21616H24.2863V24.2863H27.4557ZM0 12.7512C0 19.8639 4.93834 24.7286 11.314 24.7286C17.9107 24.7286 21.6329 20.6747 22.0751 14.7413L19.0163 14.5939C18.7583 18.832 16.068 22.0383 11.314 22.0383C6.63359 22.0383 3.24309 18.4635 3.24309 12.7881C3.24309 7.1127 6.59674 3.53793 11.314 3.53793C16.068 3.53793 18.7583 6.7073 19.0163 10.9823L22.0751 10.8349C21.6329 4.90149 17.9107 0.847628 11.314 0.847628C4.93834 0.773921 0 5.63856 0 12.7512Z" fill="#FFFFFF"/>
  <path d="M119.368 12.4196H120.805L122.39 17.2842H121.247L120.916 16.2154H119.147L118.815 17.2842H117.783L119.368 12.4196ZM119.405 15.4047H120.695L120.068 13.304L119.405 15.4047Z" fill="#FFFFFF"/>
  <path d="M122.795 13.7094H123.79V14.2622C123.974 13.8937 124.343 13.5989 124.933 13.5989C125.633 13.5989 126.112 14.0043 126.112 14.9625V17.2105H125.117V15.1099C125.117 14.6308 124.933 14.4097 124.49 14.4097C124.085 14.4097 123.753 14.6676 123.753 15.1836V17.2474H122.758V13.7094H122.795Z" fill="#FFFFFF"/>
  <path d="M128.213 12.4196H129.503L131.345 15.6258V12.4196H132.34V17.2842H131.235L129.208 13.82V17.2842H128.213V12.4196Z" fill="#FFFFFF"/>
  <path d="M134.109 13.2672H132.782V12.4196H136.505V13.2672H135.178V17.2473H134.072V13.2672H134.109Z" fill="#FFFFFF"/>
  <path d="M138.015 13.2672H136.689V12.4196H140.411V13.2672H139.084V17.2473H137.979V13.2672H138.015Z" fill="#FFFFFF"/>
  <path d="M142.291 12.4196H143.875C145.57 12.4196 146.418 13.3409 146.418 14.7782V14.815C146.418 16.2523 145.57 17.2473 143.875 17.2473H142.291V12.4196ZM143.838 16.3997C144.833 16.3997 145.276 15.8469 145.276 14.8519V14.815C145.276 13.82 144.833 13.2672 143.838 13.2672H143.396V16.3997H143.838Z" fill="#FFFFFF"/>
  <path d="M146.713 16.2892C146.713 15.4784 147.487 15.1467 148.556 15.1467H148.961V14.9993C148.961 14.5939 148.85 14.3359 148.371 14.3359C148.003 14.3359 147.818 14.5202 147.782 14.8519H146.86C146.934 14.0042 147.597 13.6357 148.445 13.6357C149.293 13.6357 149.919 14.0042 149.919 14.9624V17.2842H148.961V16.842C148.74 17.1368 148.445 17.3579 147.892 17.3579C147.266 17.3579 146.713 17.0262 146.713 16.2892ZM148.961 16.0312V15.7364H148.592C148.04 15.7364 147.708 15.8469 147.708 16.2523C147.708 16.5103 147.855 16.6945 148.224 16.6945C148.629 16.6577 148.961 16.4366 148.961 16.0312Z" fill="#FFFFFF"/>
  <path d="M150.73 16.2154V14.4096H150.288V13.7094H150.73V12.9355H151.725V13.7094H152.462V14.4096H151.725V16.1049C151.725 16.3997 151.873 16.5102 152.131 16.5102C152.278 16.5102 152.388 16.4734 152.499 16.4365V17.2105C152.352 17.2473 152.167 17.321 151.909 17.321C151.135 17.321 150.73 16.9525 150.73 16.2154Z" fill="#FFFFFF"/>
  <path d="M152.794 16.2892C152.794 15.4784 153.568 15.1467 154.636 15.1467H155.042V14.9993C155.042 14.5939 154.931 14.3359 154.452 14.3359C154.084 14.3359 153.899 14.5202 153.862 14.8519H152.941C153.015 14.0042 153.678 13.6357 154.526 13.6357C155.373 13.6357 156 14.0042 156 14.9624V17.2842H155.042V16.842C154.821 17.1368 154.526 17.3579 153.973 17.3579C153.31 17.3579 152.794 17.0262 152.794 16.2892ZM155.042 16.0312V15.7364H154.673C154.12 15.7364 153.789 15.8469 153.789 16.2523C153.789 16.5103 153.936 16.6945 154.305 16.6945C154.71 16.6577 155.042 16.4366 155.042 16.0312Z" fill="#FFFFFF"/>
  <path d="M117.931 21.9646V21.9277C117.931 20.4536 118.963 19.4585 120.326 19.4585C121.505 19.4585 122.353 20.0113 122.464 21.2275H121.321C121.247 20.6378 120.916 20.343 120.289 20.343C119.515 20.343 119.036 20.9327 119.036 21.9277V21.9646C119.036 22.9596 119.515 23.5492 120.289 23.5492C120.879 23.5492 121.321 23.2544 121.395 22.6279H122.464C122.353 23.8441 121.469 24.4337 120.289 24.4337C118.778 24.4337 117.931 23.4755 117.931 21.9646Z" fill="#FFFFFF"/>
  <path d="M122.758 22.6279V22.5911C122.758 21.4855 123.569 20.7484 124.638 20.7484C125.707 20.7484 126.517 21.4486 126.517 22.5542V22.5911C126.517 23.6967 125.707 24.4337 124.638 24.4337C123.569 24.4337 122.758 23.7335 122.758 22.6279ZM125.485 22.6279V22.5911C125.485 21.9277 125.154 21.5223 124.601 21.5223C124.048 21.5223 123.717 21.9277 123.717 22.5911V22.6279C123.717 23.2913 124.011 23.6967 124.601 23.6967C125.191 23.6967 125.485 23.2913 125.485 22.6279Z" fill="#FFFFFF"/>
  <path d="M126.996 20.8221H127.991V21.3749C128.176 21.0432 128.544 20.7484 129.06 20.7484C129.539 20.7484 129.871 20.9327 130.055 21.3749C130.35 20.9327 130.792 20.7484 131.234 20.7484C131.898 20.7484 132.414 21.1538 132.414 22.112V24.3969H131.419V22.2225C131.419 21.7803 131.198 21.5592 130.866 21.5592C130.497 21.5592 130.166 21.8172 130.166 22.2963V24.3969H129.171V22.2225C129.171 21.7803 128.95 21.5592 128.618 21.5592C128.249 21.5592 127.918 21.8172 127.918 22.2963V24.3969H126.923V20.8221H126.996Z" fill="#FFFFFF"/>
  <path d="M133.077 20.8221H134.072V21.3749C134.257 21.0432 134.699 20.7484 135.215 20.7484C136.099 20.7484 136.763 21.4118 136.763 22.5542V22.5911C136.763 23.7704 136.099 24.4337 135.215 24.4337C134.662 24.4337 134.257 24.1758 134.072 23.8072V25.5762H133.077V20.8221ZM135.731 22.6279V22.5911C135.731 21.854 135.362 21.5223 134.883 21.5223C134.367 21.5223 133.999 21.8909 133.999 22.5911V22.6279C133.999 23.3281 134.33 23.6967 134.883 23.6967C135.436 23.6967 135.731 23.3281 135.731 22.6279Z" fill="#FFFFFF"/>
  <path d="M136.984 23.4019C136.984 22.5911 137.758 22.2594 138.827 22.2594H139.232V22.112C139.232 21.7066 139.121 21.4486 138.642 21.4486C138.274 21.4486 138.089 21.6329 138.053 21.9646H137.131C137.205 21.117 137.868 20.7484 138.716 20.7484C139.564 20.7484 140.19 21.1169 140.19 22.0751V24.3969H139.232V23.9547C139.011 24.2495 138.716 24.4706 138.163 24.4706C137.537 24.4337 136.984 24.1389 136.984 23.4019ZM139.232 23.1439V22.8491H138.863C138.311 22.8491 137.979 22.9596 137.979 23.365C137.979 23.623 138.126 23.8072 138.495 23.8072C138.9 23.7704 139.232 23.5124 139.232 23.1439Z" fill="#FFFFFF"/>
  <path d="M140.853 20.8221H141.848V21.3749C142.033 21.0064 142.401 20.7115 142.991 20.7115C143.691 20.7115 144.17 21.1169 144.17 22.0751V24.3232H143.175V22.2225C143.175 21.7434 142.991 21.5223 142.549 21.5223C142.143 21.5223 141.811 21.7803 141.811 22.2962V24.36H140.816V20.8221H140.853Z" fill="#FFFFFF"/>
  <path d="M145.828 24.0284L144.428 20.8221H145.497L146.344 22.9596L147.155 20.8221H148.113L146.197 25.5762H145.239L145.828 24.0284Z" fill="#FFFFFF"/>
</svg>