<svg width="31" viewBox="0 0 31 12" fill="none" xmlns="http://www.w3.org/2000/svg">
  <path d="M2.19366 0.712402H3.30374L4.52767 4.51649H3.64531L3.38913 3.68074H2.02288L1.7667 4.51649H0.969727L2.19366 0.712402ZM2.22213 3.04672H3.21836L2.73447 1.40405L2.22213 3.04672Z" fill="current"/>
  <path d="M4.84097 1.7205H5.60948V2.15278C5.75179 1.86459 6.03644 1.63403 6.49186 1.63403C7.03267 1.63403 7.4027 1.95104 7.4027 2.70033V4.45829H6.63418V2.81561C6.63418 2.44096 6.49185 2.26805 6.15029 2.26805C5.83719 2.26805 5.58102 2.46979 5.58102 2.87325V4.4871H4.8125V1.7205H4.84097Z" fill="current"/>
  <path d="M9.0249 0.712402H10.0211L11.4443 3.21964V0.712402H12.2128V4.51649H11.3589L9.79342 1.80752V4.51649H9.0249V0.712402Z" fill="current"/>
  <path d="M13.5789 1.37523H12.5542V0.712402H15.429V1.37523H14.4043V4.48767H13.5504V1.37523H13.5789Z" fill="current"/>
  <path d="M16.596 1.37523H15.5713V0.712402H18.4461V1.37523H17.4214V4.48767H16.5675V1.37523H16.596Z" fill="current"/>
  <path d="M19.8984 0.712402H21.1224C22.4317 0.712402 23.0864 1.43287 23.0864 2.55681V2.58563C23.0864 3.70956 22.4317 4.48767 21.1224 4.48767H19.8984V0.712402ZM21.0939 3.82484C21.8624 3.82484 22.204 3.39255 22.204 2.61444V2.58563C22.204 1.80752 21.8624 1.37523 21.0939 1.37523H20.7523V3.82484H21.0939Z" fill="current"/>
  <path d="M23.3135 3.73768C23.3135 3.10367 23.9112 2.84429 24.7367 2.84429H25.0498V2.72902C25.0498 2.41201 24.9644 2.21028 24.5943 2.21028C24.3097 2.21028 24.1674 2.35437 24.1389 2.61374H23.4273C23.4843 1.9509 23.9966 1.66272 24.6513 1.66272C25.3059 1.66272 25.7898 1.95091 25.7898 2.7002V4.51578H25.0498V4.16996C24.879 4.40051 24.6513 4.57343 24.2243 4.57343C23.7404 4.57343 23.3135 4.31406 23.3135 3.73768ZM25.0498 3.53595V3.3054H24.7651C24.3382 3.3054 24.082 3.39185 24.082 3.70886C24.082 3.91059 24.1959 4.05468 24.4805 4.05468C24.7936 4.02586 25.0498 3.85295 25.0498 3.53595Z" fill="current"/>
  <path d="M26.4163 3.67999V2.26787H26.0747V1.72031H26.4163V1.11511H27.1848V1.72031H27.7541V2.26787H27.1848V3.59354C27.1848 3.82409 27.2986 3.91054 27.4979 3.91054C27.6117 3.91054 27.6971 3.88172 27.7825 3.8529V4.4581C27.6687 4.48692 27.5264 4.54455 27.3271 4.54455C26.7294 4.54455 26.4163 4.25637 26.4163 3.67999Z" fill="current"/>
  <path d="M28.0103 3.73768C28.0103 3.10367 28.608 2.84429 29.4334 2.84429H29.7465V2.72902C29.7465 2.41201 29.6611 2.21028 29.2911 2.21028C29.0065 2.21028 28.8642 2.35437 28.8357 2.61374H28.1241C28.181 1.9509 28.6934 1.66272 29.348 1.66272C30.0027 1.66272 30.4866 1.95091 30.4866 2.7002V4.51578H29.7465V4.16996C29.5758 4.40051 29.348 4.57343 28.9211 4.57343C28.4087 4.57343 28.0103 4.31406 28.0103 3.73768ZM29.7465 3.53595V3.3054H29.4619C29.035 3.3054 28.7788 3.39185 28.7788 3.70886C28.7788 3.91059 28.8926 4.05468 29.1773 4.05468C29.4904 4.02586 29.7465 3.85295 29.7465 3.53595Z" fill="current"/>
  <path d="M1.0835 8.17661V8.14779C1.0835 6.99503 1.88048 6.21692 2.93363 6.21692C3.84446 6.21692 4.49912 6.64921 4.58451 7.60023H3.70215C3.64522 7.13913 3.38904 6.90858 2.90515 6.90858C2.30742 6.90858 1.9374 7.36968 1.9374 8.14779V8.17661C1.9374 8.95472 2.30742 9.41581 2.90515 9.41581C3.36057 9.41581 3.70214 9.18526 3.75906 8.69534H4.58451C4.49912 9.64636 3.81599 10.1075 2.90515 10.1075C1.73815 10.1075 1.0835 9.35818 1.0835 8.17661Z" fill="current"/>
  <path d="M4.8125 8.69584V8.66702C4.8125 7.80245 5.43871 7.22607 6.26415 7.22607C7.0896 7.22607 7.71579 7.77364 7.71579 8.6382V8.66702C7.71579 9.53158 7.0896 10.108 6.26415 10.108C5.43871 10.108 4.8125 9.5604 4.8125 8.69584ZM6.91881 8.69584V8.66702C6.91881 8.14828 6.66263 7.83127 6.23568 7.83127C5.80873 7.83127 5.55256 8.14828 5.55256 8.66702V8.69584C5.55256 9.21458 5.78026 9.53158 6.23568 9.53158C6.6911 9.53158 6.91881 9.21458 6.91881 8.69584Z" fill="current"/>
  <path d="M8.08574 7.28372H8.85426V7.716C8.99658 7.45663 9.28122 7.22607 9.67971 7.22607C10.0497 7.22607 10.3059 7.37017 10.4482 7.716C10.6759 7.37017 11.0175 7.22607 11.3591 7.22607C11.8714 7.22607 12.2699 7.54309 12.2699 8.29238V10.0791H11.5014V8.37883C11.5014 8.033 11.3306 7.86009 11.0744 7.86009C10.7898 7.86009 10.5336 8.06182 10.5336 8.43647V10.0791H9.7651V8.37883C9.7651 8.033 9.59432 7.86009 9.33814 7.86009C9.05351 7.86009 8.79733 8.06182 8.79733 8.43647V10.0791H8.02881V7.28372H8.08574Z" fill="current"/>
  <path d="M12.7817 7.28372H13.5503V7.716C13.6926 7.45663 14.0341 7.22607 14.4326 7.22607C15.1157 7.22607 15.6281 7.74482 15.6281 8.63821V8.66702C15.6281 9.58922 15.1157 10.108 14.4326 10.108C14.0057 10.108 13.6926 9.90623 13.5503 9.61804V11.0013H12.7817V7.28372ZM14.8311 8.69584V8.66702C14.8311 8.09064 14.5465 7.83127 14.1765 7.83127C13.778 7.83127 13.4933 8.11946 13.4933 8.66702V8.69584C13.4933 9.2434 13.7495 9.53158 14.1765 9.53158C14.6034 9.53158 14.8311 9.2434 14.8311 8.69584Z" fill="current"/>
  <path d="M15.7988 9.30104C15.7988 8.66702 16.3966 8.40765 17.222 8.40765H17.5351V8.29238C17.5351 7.97537 17.4497 7.77364 17.0797 7.77364C16.7951 7.77364 16.6527 7.91773 16.6243 8.1771H15.9127C15.9696 7.51427 16.4819 7.22607 17.1366 7.22607C17.7913 7.22607 18.2751 7.51426 18.2751 8.26355V10.0791H17.5351V9.73332C17.3643 9.96387 17.1366 10.1368 16.7096 10.1368C16.2258 10.108 15.7988 9.87741 15.7988 9.30104ZM17.5351 9.0993V8.86875H17.2505C16.8235 8.86875 16.5673 8.95521 16.5673 9.27221C16.5673 9.47395 16.6812 9.61804 16.9658 9.61804C17.2789 9.58923 17.5351 9.38749 17.5351 9.0993Z" fill="current"/>
  <path d="M18.7878 7.28238H19.5563V7.71466C19.6986 7.42647 19.9832 7.19592 20.4386 7.19592C20.9794 7.19592 21.3495 7.51292 21.3495 8.26222V10.0202H20.581V8.37749C20.581 8.00284 20.4386 7.82993 20.0971 7.82993C19.784 7.82993 19.5278 8.03167 19.5278 8.43513V10.049H18.7593V7.28238H18.7878Z" fill="current"/>
  <path d="M22.6305 9.79069L21.5488 7.28345H22.3743L23.0289 8.95494L23.6551 7.28345H24.3952L22.9151 11.0011H22.175L22.6305 9.79069Z" fill="current"/>
</svg>