<svg width="5" height="4" viewBox="0 0 5 4" fill="none" xmlns="http://www.w3.org/2000/svg">
<path d="M4.50116 1.9885C4.50116 2.93952 3.78957 3.63118 2.9072 3.63118C2.02483 3.63118 1.31324 2.93952 1.31324 1.9885C1.31324 1.03748 2.02483 0.34583 2.9072 0.34583C3.78957 0.317011 4.50116 1.00866 4.50116 1.9885ZM4.84272 1.9885C4.84272 0.835745 3.96035 0 2.9072 0C1.85405 0 0.97168 0.835745 0.97168 1.9885C0.97168 3.11243 1.85405 3.94819 2.9072 3.94819C3.98882 3.94819 4.84272 3.11243 4.84272 1.9885ZM2.53718 1.90205V1.29685H2.96413C3.24877 1.29685 3.36262 1.41213 3.36262 1.61386C3.36262 1.81559 3.2203 1.93087 2.96413 1.93087H2.53718V1.90205ZM3.84649 2.96834C3.7611 2.88188 3.76111 2.79543 3.73264 2.47842C3.70418 2.24787 3.59033 2.10378 3.36262 2.04614C3.61879 2.01732 3.81804 1.81558 3.81804 1.5274C3.81804 1.15275 3.56186 0.893386 3.04952 0.893386H2.11022V2.93953H2.56563V2.21906H2.99259C3.2203 2.21906 3.30569 2.3055 3.33415 2.53606C3.36262 2.76661 3.39108 2.88189 3.41954 2.93953H3.84649V2.96834Z" fill="#191919"/>
</svg>
